<?xml version="1.0" encoding="utf-8" standalone="no"?>
<!DOCTYPE svg PUBLIC "-//W3C//DTD SVG 1.1//EN"
  "http://www.w3.org/Graphics/SVG/1.1/DTD/svg11.dtd">
<!-- Created with matplotlib (https://matplotlib.org/) -->
<svg height="453.6pt" version="1.1" viewBox="0 0 576 453.6" width="576pt" xmlns="http://www.w3.org/2000/svg" xmlns:xlink="http://www.w3.org/1999/xlink">
 <defs>
  <style type="text/css">
*{stroke-linecap:butt;stroke-linejoin:round;}
  </style>
 </defs>
 <g id="figure_1">
  <g id="patch_1">
   <path d="M 0 453.6 
L 576 453.6 
L 576 0 
L 0 0 
z
" style="fill:#ffffff;"/>
  </g>
  <g id="axes_1">
   <g id="patch_2">
    <path d="M 72 403.704 
L 518.4 403.704 
L 518.4 54.432 
L 72 54.432 
z
" style="fill:#eaeaf2;"/>
   </g>
   <g id="matplotlib.axis_1">
    <g id="xtick_1">
     <g id="line2d_1">
      <path clip-path="url(#p13982ed409)" d="M 92.290919 403.704 
L 92.290919 54.432 
" style="fill:none;stroke:#ffffff;stroke-linecap:round;"/>
     </g>
     <g id="text_1">
      <!-- 0 -->
      <defs>
       <path d="M 31.78125 66.40625 
Q 24.171875 66.40625 20.328125 58.90625 
Q 16.5 51.421875 16.5 36.375 
Q 16.5 21.390625 20.328125 13.890625 
Q 24.171875 6.390625 31.78125 6.390625 
Q 39.453125 6.390625 43.28125 13.890625 
Q 47.125 21.390625 47.125 36.375 
Q 47.125 51.421875 43.28125 58.90625 
Q 39.453125 66.40625 31.78125 66.40625 
z
M 31.78125 74.21875 
Q 44.046875 74.21875 50.515625 64.515625 
Q 56.984375 54.828125 56.984375 36.375 
Q 56.984375 17.96875 50.515625 8.265625 
Q 44.046875 -1.421875 31.78125 -1.421875 
Q 19.53125 -1.421875 13.0625 8.265625 
Q 6.59375 17.96875 6.59375 36.375 
Q 6.59375 54.828125 13.0625 64.515625 
Q 19.53125 74.21875 31.78125 74.21875 
z
" id="DejaVuSans-48"/>
      </defs>
      <g style="fill:#262626;" transform="translate(88.791544 421.562281)scale(0.11 -0.11)">
       <use xlink:href="#DejaVuSans-48"/>
      </g>
     </g>
    </g>
    <g id="xtick_2">
     <g id="line2d_2">
      <path clip-path="url(#p13982ed409)" d="M 174.272399 403.704 
L 174.272399 54.432 
" style="fill:none;stroke:#ffffff;stroke-linecap:round;"/>
     </g>
     <g id="text_2">
      <!-- 50000 -->
      <defs>
       <path d="M 10.796875 72.90625 
L 49.515625 72.90625 
L 49.515625 64.59375 
L 19.828125 64.59375 
L 19.828125 46.734375 
Q 21.96875 47.46875 24.109375 47.828125 
Q 26.265625 48.1875 28.421875 48.1875 
Q 40.625 48.1875 47.75 41.5 
Q 54.890625 34.8125 54.890625 23.390625 
Q 54.890625 11.625 47.5625 5.09375 
Q 40.234375 -1.421875 26.90625 -1.421875 
Q 22.3125 -1.421875 17.546875 -0.640625 
Q 12.796875 0.140625 7.71875 1.703125 
L 7.71875 11.625 
Q 12.109375 9.234375 16.796875 8.0625 
Q 21.484375 6.890625 26.703125 6.890625 
Q 35.15625 6.890625 40.078125 11.328125 
Q 45.015625 15.765625 45.015625 23.390625 
Q 45.015625 31 40.078125 35.4375 
Q 35.15625 39.890625 26.703125 39.890625 
Q 22.75 39.890625 18.8125 39.015625 
Q 14.890625 38.140625 10.796875 36.28125 
z
" id="DejaVuSans-53"/>
      </defs>
      <g style="fill:#262626;" transform="translate(156.775524 421.562281)scale(0.11 -0.11)">
       <use xlink:href="#DejaVuSans-53"/>
       <use x="63.623047" xlink:href="#DejaVuSans-48"/>
       <use x="127.246094" xlink:href="#DejaVuSans-48"/>
       <use x="190.869141" xlink:href="#DejaVuSans-48"/>
       <use x="254.492188" xlink:href="#DejaVuSans-48"/>
      </g>
     </g>
    </g>
    <g id="xtick_3">
     <g id="line2d_3">
      <path clip-path="url(#p13982ed409)" d="M 256.253878 403.704 
L 256.253878 54.432 
" style="fill:none;stroke:#ffffff;stroke-linecap:round;"/>
     </g>
     <g id="text_3">
      <!-- 100000 -->
      <defs>
       <path d="M 12.40625 8.296875 
L 28.515625 8.296875 
L 28.515625 63.921875 
L 10.984375 60.40625 
L 10.984375 69.390625 
L 28.421875 72.90625 
L 38.28125 72.90625 
L 38.28125 8.296875 
L 54.390625 8.296875 
L 54.390625 0 
L 12.40625 0 
z
" id="DejaVuSans-49"/>
      </defs>
      <g style="fill:#262626;" transform="translate(235.257628 421.562281)scale(0.11 -0.11)">
       <use xlink:href="#DejaVuSans-49"/>
       <use x="63.623047" xlink:href="#DejaVuSans-48"/>
       <use x="127.246094" xlink:href="#DejaVuSans-48"/>
       <use x="190.869141" xlink:href="#DejaVuSans-48"/>
       <use x="254.492188" xlink:href="#DejaVuSans-48"/>
       <use x="318.115234" xlink:href="#DejaVuSans-48"/>
      </g>
     </g>
    </g>
    <g id="xtick_4">
     <g id="line2d_4">
      <path clip-path="url(#p13982ed409)" d="M 338.235358 403.704 
L 338.235358 54.432 
" style="fill:none;stroke:#ffffff;stroke-linecap:round;"/>
     </g>
     <g id="text_4">
      <!-- 150000 -->
      <g style="fill:#262626;" transform="translate(317.239108 421.562281)scale(0.11 -0.11)">
       <use xlink:href="#DejaVuSans-49"/>
       <use x="63.623047" xlink:href="#DejaVuSans-53"/>
       <use x="127.246094" xlink:href="#DejaVuSans-48"/>
       <use x="190.869141" xlink:href="#DejaVuSans-48"/>
       <use x="254.492188" xlink:href="#DejaVuSans-48"/>
       <use x="318.115234" xlink:href="#DejaVuSans-48"/>
      </g>
     </g>
    </g>
    <g id="xtick_5">
     <g id="line2d_5">
      <path clip-path="url(#p13982ed409)" d="M 420.216838 403.704 
L 420.216838 54.432 
" style="fill:none;stroke:#ffffff;stroke-linecap:round;"/>
     </g>
     <g id="text_5">
      <!-- 200000 -->
      <defs>
       <path d="M 19.1875 8.296875 
L 53.609375 8.296875 
L 53.609375 0 
L 7.328125 0 
L 7.328125 8.296875 
Q 12.9375 14.109375 22.625 23.890625 
Q 32.328125 33.6875 34.8125 36.53125 
Q 39.546875 41.84375 41.421875 45.53125 
Q 43.3125 49.21875 43.3125 52.78125 
Q 43.3125 58.59375 39.234375 62.25 
Q 35.15625 65.921875 28.609375 65.921875 
Q 23.96875 65.921875 18.8125 64.3125 
Q 13.671875 62.703125 7.8125 59.421875 
L 7.8125 69.390625 
Q 13.765625 71.78125 18.9375 73 
Q 24.125 74.21875 28.421875 74.21875 
Q 39.75 74.21875 46.484375 68.546875 
Q 53.21875 62.890625 53.21875 53.421875 
Q 53.21875 48.921875 51.53125 44.890625 
Q 49.859375 40.875 45.40625 35.40625 
Q 44.1875 33.984375 37.640625 27.21875 
Q 31.109375 20.453125 19.1875 8.296875 
z
" id="DejaVuSans-50"/>
      </defs>
      <g style="fill:#262626;" transform="translate(399.220588 421.562281)scale(0.11 -0.11)">
       <use xlink:href="#DejaVuSans-50"/>
       <use x="63.623047" xlink:href="#DejaVuSans-48"/>
       <use x="127.246094" xlink:href="#DejaVuSans-48"/>
       <use x="190.869141" xlink:href="#DejaVuSans-48"/>
       <use x="254.492188" xlink:href="#DejaVuSans-48"/>
       <use x="318.115234" xlink:href="#DejaVuSans-48"/>
      </g>
     </g>
    </g>
    <g id="xtick_6">
     <g id="line2d_6">
      <path clip-path="url(#p13982ed409)" d="M 502.198317 403.704 
L 502.198317 54.432 
" style="fill:none;stroke:#ffffff;stroke-linecap:round;"/>
     </g>
     <g id="text_6">
      <!-- 250000 -->
      <g style="fill:#262626;" transform="translate(481.202067 421.562281)scale(0.11 -0.11)">
       <use xlink:href="#DejaVuSans-50"/>
       <use x="63.623047" xlink:href="#DejaVuSans-53"/>
       <use x="127.246094" xlink:href="#DejaVuSans-48"/>
       <use x="190.869141" xlink:href="#DejaVuSans-48"/>
       <use x="254.492188" xlink:href="#DejaVuSans-48"/>
       <use x="318.115234" xlink:href="#DejaVuSans-48"/>
      </g>
     </g>
    </g>
    <g id="text_7">
     <!-- Время $\left(\sqrt{\frac{m\sigma^2}{\varepsilon} }\right)$ -->
     <defs>
      <path d="M 19.671875 34.8125 
L 19.671875 8.109375 
L 35.5 8.109375 
Q 43.453125 8.109375 47.28125 11.40625 
Q 51.125 14.703125 51.125 21.484375 
Q 51.125 28.328125 47.28125 31.5625 
Q 43.453125 34.8125 35.5 34.8125 
z
M 19.671875 64.796875 
L 19.671875 42.828125 
L 34.28125 42.828125 
Q 41.5 42.828125 45.03125 45.53125 
Q 48.578125 48.25 48.578125 53.8125 
Q 48.578125 59.328125 45.03125 62.0625 
Q 41.5 64.796875 34.28125 64.796875 
z
M 9.8125 72.90625 
L 35.015625 72.90625 
Q 46.296875 72.90625 52.390625 68.21875 
Q 58.5 63.53125 58.5 54.890625 
Q 58.5 48.1875 55.375 44.234375 
Q 52.25 40.28125 46.1875 39.3125 
Q 53.46875 37.75 57.5 32.78125 
Q 61.53125 27.828125 61.53125 20.40625 
Q 61.53125 10.640625 54.890625 5.3125 
Q 48.25 0 35.984375 0 
L 9.8125 0 
z
" id="DejaVuSans-1042"/>
      <path d="M 18.109375 8.203125 
L 18.109375 -20.796875 
L 9.078125 -20.796875 
L 9.078125 54.6875 
L 18.109375 54.6875 
L 18.109375 46.390625 
Q 20.953125 51.265625 25.265625 53.625 
Q 29.59375 56 35.59375 56 
Q 45.5625 56 51.78125 48.09375 
Q 58.015625 40.1875 58.015625 27.296875 
Q 58.015625 14.40625 51.78125 6.484375 
Q 45.5625 -1.421875 35.59375 -1.421875 
Q 29.59375 -1.421875 25.265625 0.953125 
Q 20.953125 3.328125 18.109375 8.203125 
z
M 48.6875 27.296875 
Q 48.6875 37.203125 44.609375 42.84375 
Q 40.53125 48.484375 33.40625 48.484375 
Q 26.265625 48.484375 22.1875 42.84375 
Q 18.109375 37.203125 18.109375 27.296875 
Q 18.109375 17.390625 22.1875 11.75 
Q 26.265625 6.109375 33.40625 6.109375 
Q 40.53125 6.109375 44.609375 11.75 
Q 48.6875 17.390625 48.6875 27.296875 
z
" id="DejaVuSans-1088"/>
      <path d="M 56.203125 29.59375 
L 56.203125 25.203125 
L 14.890625 25.203125 
Q 15.484375 15.921875 20.484375 11.0625 
Q 25.484375 6.203125 34.421875 6.203125 
Q 39.59375 6.203125 44.453125 7.46875 
Q 49.3125 8.734375 54.109375 11.28125 
L 54.109375 2.78125 
Q 49.265625 0.734375 44.1875 -0.34375 
Q 39.109375 -1.421875 33.890625 -1.421875 
Q 20.796875 -1.421875 13.15625 6.1875 
Q 5.515625 13.8125 5.515625 26.8125 
Q 5.515625 40.234375 12.765625 48.109375 
Q 20.015625 56 32.328125 56 
Q 43.359375 56 49.78125 48.890625 
Q 56.203125 41.796875 56.203125 29.59375 
z
M 47.21875 32.234375 
Q 47.125 39.59375 43.09375 43.984375 
Q 39.0625 48.390625 32.421875 48.390625 
Q 24.90625 48.390625 20.390625 44.140625 
Q 15.875 39.890625 15.1875 32.171875 
z
" id="DejaVuSans-1077"/>
      <path d="M 9.078125 54.6875 
L 22.21875 54.6875 
L 37.75 18.0625 
L 53.328125 54.6875 
L 66.359375 54.6875 
L 66.359375 0 
L 57.328125 0 
L 57.328125 46.09375 
L 42.234375 10.5 
L 33.25 10.5 
L 18.109375 46.09375 
L 18.109375 0 
L 9.078125 0 
z
" id="DejaVuSans-1084"/>
      <path d="M 18.453125 38.921875 
Q 18.453125 34.859375 21.578125 32.5625 
Q 24.703125 30.28125 30.515625 30.28125 
L 42.625 30.28125 
L 42.625 47.515625 
L 30.515625 47.515625 
Q 24.703125 47.515625 21.578125 45.265625 
Q 18.453125 43.015625 18.453125 38.921875 
z
M 5.671875 0 
L 22.359375 23.96875 
Q 16.703125 25.25 12.9375 28.59375 
Q 9.1875 31.9375 9.1875 38.921875 
Q 9.1875 46.828125 14.421875 50.75 
Q 19.671875 54.6875 30.28125 54.6875 
L 51.65625 54.6875 
L 51.65625 0 
L 42.625 0 
L 42.625 23.09375 
L 31.453125 23.09375 
L 15.328125 0 
z
" id="DejaVuSans-1103"/>
      <path id="DejaVuSans-32"/>
      <path d="M 50.296875 -24.296875 
L 50.296875 -27.90625 
Q 33.5 -12.09375 23.703125 11.40625 
Q 13.90625 34.90625 13.90625 64.296875 
Q 13.90625 93.796875 23.953125 118.640625 
Q 34 143.5 50.296875 156.59375 
L 50.296875 153.296875 
Q 38.90625 141.59375 31.15625 118.84375 
Q 23.40625 96.09375 23.40625 64.296875 
Q 23.40625 8.796875 50.296875 -24.296875 
z
" id="STIXSizeTwoSym-Regular-40"/>
      <path d="M 108.90625 155.203125 
L 52.703125 -29.5 
L 48.5 -29.5 
L 25.40625 45.59375 
Q 24.296875 49.203125 22.890625 50.796875 
Q 21.5 52.40625 19.203125 52.40625 
Q 15.796875 52.40625 12.40625 49.703125 
L 11.203125 51.703125 
L 27.59375 64.296875 
L 30.09375 64.296875 
L 52.796875 -9.40625 
L 53.203125 -9.40625 
L 103.203125 155.203125 
z
" id="STIXSizeOneSym-Regular-8730"/>
      <path d="M 89.796875 33.015625 
L 83.40625 0 
L 74.421875 0 
L 80.71875 32.71875 
Q 81.109375 34.8125 81.296875 36.328125 
Q 81.5 37.84375 81.5 38.921875 
Q 81.5 43.3125 79.046875 45.75 
Q 76.609375 48.1875 72.21875 48.1875 
Q 65.671875 48.1875 60.546875 43.28125 
Q 55.421875 38.375 53.90625 30.515625 
L 47.90625 0 
L 38.921875 0 
L 45.3125 32.71875 
Q 45.703125 34.515625 45.890625 36.046875 
Q 46.09375 37.59375 46.09375 38.8125 
Q 46.09375 43.265625 43.65625 45.71875 
Q 41.21875 48.1875 36.921875 48.1875 
Q 30.28125 48.1875 25.140625 43.28125 
Q 20.015625 38.375 18.5 30.515625 
L 12.5 0 
L 3.515625 0 
L 14.203125 54.6875 
L 23.1875 54.6875 
L 21.484375 46.1875 
Q 25.140625 50.984375 30.046875 53.484375 
Q 34.96875 56 40.578125 56 
Q 46.53125 56 50.359375 52.875 
Q 54.203125 49.75 54.984375 44.1875 
Q 59.078125 49.953125 64.46875 52.96875 
Q 69.875 56 75.875 56 
Q 82.90625 56 86.734375 51.953125 
Q 90.578125 47.90625 90.578125 40.484375 
Q 90.578125 38.875 90.375 36.9375 
Q 90.1875 35.015625 89.796875 33.015625 
z
" id="DejaVuSans-Oblique-109"/>
      <path d="M 34.671875 47.5625 
Q 27.25 47.5625 22.21875 42.1875 
Q 16.890625 36.578125 15.140625 27.296875 
Q 13.1875 17.484375 16.3125 11.8125 
Q 19.390625 6.203125 26.65625 6.203125 
Q 33.84375 6.203125 39.109375 11.859375 
Q 44.4375 17.53125 46.34375 27.296875 
Q 48.046875 36.234375 45.015625 42.1875 
Q 42.1875 47.5625 34.671875 47.5625 
z
M 36.078125 54.734375 
L 65.921875 54.6875 
L 64.15625 45.703125 
L 54.109375 45.703125 
Q 57.90625 38.09375 55.859375 27.296875 
Q 53.21875 13.875 45.0625 6.25 
Q 36.859375 -1.421875 25.140625 -1.421875 
Q 13.375 -1.421875 8.203125 6.25 
Q 3.03125 13.875 5.671875 27.296875 
Q 8.25 40.765625 16.40625 48.390625 
Q 23.1875 54.734375 36.078125 54.734375 
z
" id="DejaVuSans-Oblique-963"/>
      <path d="M 19.734375 29.5 
Q 14.453125 30.671875 12.15625 33.84375 
Q 10.453125 36.078125 10.453125 39.109375 
Q 10.453125 47.40625 18.359375 52.25 
Q 24.609375 56.0625 34.1875 56.0625 
Q 37.890625 56.0625 41.9375 55.46875 
Q 46 54.890625 50.53125 53.71875 
L 48.96875 45.5625 
Q 44.484375 46.96875 40.71875 47.609375 
Q 36.859375 48.25 33.40625 48.25 
Q 27.59375 48.25 23.78125 46 
Q 19.1875 43.3125 19.1875 39.40625 
Q 19.1875 36.8125 21.578125 35.015625 
Q 24.421875 32.859375 30.078125 32.859375 
L 37.640625 32.859375 
L 36.234375 25.4375 
L 29 25.4375 
Q 22.265625 25.4375 18.3125 22.953125 
Q 12.9375 19.578125 12.9375 14.3125 
Q 12.9375 10.984375 15.828125 8.796875 
Q 19.4375 6.0625 26.8125 6.0625 
Q 31.34375 6.0625 35.6875 6.9375 
Q 40.046875 7.859375 43.84375 9.671875 
L 42.1875 1.3125 
Q 37.546875 -0.046875 33.296875 -0.734375 
Q 29.046875 -1.421875 25.140625 -1.421875 
Q 13.53125 -1.421875 8.0625 3.03125 
Q 3.90625 6.453125 3.90625 12.203125 
Q 3.90625 19.96875 9.375 24.75 
Q 13.421875 28.328125 19.734375 29.5 
z
" id="DejaVuSans-Oblique-949"/>
      <path d="M 11.40625 153 
L 11.40625 156.59375 
Q 28.203125 140.796875 38 117.296875 
Q 47.796875 93.796875 47.796875 64.296875 
Q 47.796875 34.90625 37.75 10.046875 
Q 27.703125 -14.796875 11.40625 -27.90625 
L 11.40625 -24.59375 
Q 22.796875 -12.90625 30.546875 9.890625 
Q 38.296875 32.703125 38.296875 64.296875 
Q 38.296875 119.90625 11.40625 153 
z
" id="STIXSizeTwoSym-Regular-41"/>
     </defs>
     <g style="fill:#262626;" transform="translate(249.9 445.249937)scale(0.12 -0.12)">
      <use transform="translate(0 0.457812)" xlink:href="#DejaVuSans-1042"/>
      <use transform="translate(68.603516 0.457812)" xlink:href="#DejaVuSans-1088"/>
      <use transform="translate(132.080078 0.457812)" xlink:href="#DejaVuSans-1077"/>
      <use transform="translate(193.603516 0.457812)" xlink:href="#DejaVuSans-1084"/>
      <use transform="translate(269.042969 0.457812)" xlink:href="#DejaVuSans-1103"/>
      <use transform="translate(329.199219 0.457812)" xlink:href="#DejaVuSans-32"/>
      <use transform="translate(360.986328 -1.28125)scale(0.93352)" xlink:href="#STIXSizeTwoSym-Regular-40"/>
      <use transform="translate(415.984192 -0.6875)scale(0.903604)" xlink:href="#STIXSizeOneSym-Regular-8730"/>
      <use transform="translate(524.010574 45.585938)scale(0.7)" xlink:href="#DejaVuSans-Oblique-109"/>
      <use transform="translate(592.199051 45.585938)scale(0.7)" xlink:href="#DejaVuSans-Oblique-963"/>
      <use transform="translate(639.695181 72.382812)scale(0.49)" xlink:href="#DejaVuSans-50"/>
      <use transform="translate(579.010574 -25.903125)scale(0.7)" xlink:href="#DejaVuSans-Oblique-949"/>
      <use transform="translate(697.784537 -1.28125)scale(0.93352)" xlink:href="#STIXSizeTwoSym-Regular-41"/>
      <path d="M 511.510574 132.5 
L 511.510574 138.75 
L 697.784537 138.75 
L 697.784537 132.5 
L 511.510574 132.5 
z
"/>
      <path d="M 524.010574 19.590625 
L 524.010574 25.840625 
L 672.784537 25.840625 
L 672.784537 19.590625 
L 524.010574 19.590625 
z
"/>
     </g>
    </g>
   </g>
   <g id="matplotlib.axis_2">
    <g id="ytick_1">
     <g id="line2d_7">
      <path clip-path="url(#p13982ed409)" d="M 72 393.302891 
L 518.4 393.302891 
" style="fill:none;stroke:#ffffff;stroke-linecap:round;"/>
     </g>
     <g id="text_8">
      <!-- 0 -->
      <g style="fill:#262626;" transform="translate(55.50125 397.482032)scale(0.11 -0.11)">
       <use xlink:href="#DejaVuSans-48"/>
      </g>
     </g>
    </g>
    <g id="ytick_2">
     <g id="line2d_8">
      <path clip-path="url(#p13982ed409)" d="M 72 326.670309 
L 518.4 326.670309 
" style="fill:none;stroke:#ffffff;stroke-linecap:round;"/>
     </g>
     <g id="text_9">
      <!-- 20 -->
      <g style="fill:#262626;" transform="translate(48.5025 330.849449)scale(0.11 -0.11)">
       <use xlink:href="#DejaVuSans-50"/>
       <use x="63.623047" xlink:href="#DejaVuSans-48"/>
      </g>
     </g>
    </g>
    <g id="ytick_3">
     <g id="line2d_9">
      <path clip-path="url(#p13982ed409)" d="M 72 260.037726 
L 518.4 260.037726 
" style="fill:none;stroke:#ffffff;stroke-linecap:round;"/>
     </g>
     <g id="text_10">
      <!-- 40 -->
      <defs>
       <path d="M 37.796875 64.3125 
L 12.890625 25.390625 
L 37.796875 25.390625 
z
M 35.203125 72.90625 
L 47.609375 72.90625 
L 47.609375 25.390625 
L 58.015625 25.390625 
L 58.015625 17.1875 
L 47.609375 17.1875 
L 47.609375 0 
L 37.796875 0 
L 37.796875 17.1875 
L 4.890625 17.1875 
L 4.890625 26.703125 
z
" id="DejaVuSans-52"/>
      </defs>
      <g style="fill:#262626;" transform="translate(48.5025 264.216867)scale(0.11 -0.11)">
       <use xlink:href="#DejaVuSans-52"/>
       <use x="63.623047" xlink:href="#DejaVuSans-48"/>
      </g>
     </g>
    </g>
    <g id="ytick_4">
     <g id="line2d_10">
      <path clip-path="url(#p13982ed409)" d="M 72 193.405144 
L 518.4 193.405144 
" style="fill:none;stroke:#ffffff;stroke-linecap:round;"/>
     </g>
     <g id="text_11">
      <!-- 60 -->
      <defs>
       <path d="M 33.015625 40.375 
Q 26.375 40.375 22.484375 35.828125 
Q 18.609375 31.296875 18.609375 23.390625 
Q 18.609375 15.53125 22.484375 10.953125 
Q 26.375 6.390625 33.015625 6.390625 
Q 39.65625 6.390625 43.53125 10.953125 
Q 47.40625 15.53125 47.40625 23.390625 
Q 47.40625 31.296875 43.53125 35.828125 
Q 39.65625 40.375 33.015625 40.375 
z
M 52.59375 71.296875 
L 52.59375 62.3125 
Q 48.875 64.0625 45.09375 64.984375 
Q 41.3125 65.921875 37.59375 65.921875 
Q 27.828125 65.921875 22.671875 59.328125 
Q 17.53125 52.734375 16.796875 39.40625 
Q 19.671875 43.65625 24.015625 45.921875 
Q 28.375 48.1875 33.59375 48.1875 
Q 44.578125 48.1875 50.953125 41.515625 
Q 57.328125 34.859375 57.328125 23.390625 
Q 57.328125 12.15625 50.6875 5.359375 
Q 44.046875 -1.421875 33.015625 -1.421875 
Q 20.359375 -1.421875 13.671875 8.265625 
Q 6.984375 17.96875 6.984375 36.375 
Q 6.984375 53.65625 15.1875 63.9375 
Q 23.390625 74.21875 37.203125 74.21875 
Q 40.921875 74.21875 44.703125 73.484375 
Q 48.484375 72.75 52.59375 71.296875 
z
" id="DejaVuSans-54"/>
      </defs>
      <g style="fill:#262626;" transform="translate(48.5025 197.584284)scale(0.11 -0.11)">
       <use xlink:href="#DejaVuSans-54"/>
       <use x="63.623047" xlink:href="#DejaVuSans-48"/>
      </g>
     </g>
    </g>
    <g id="ytick_5">
     <g id="line2d_11">
      <path clip-path="url(#p13982ed409)" d="M 72 126.772561 
L 518.4 126.772561 
" style="fill:none;stroke:#ffffff;stroke-linecap:round;"/>
     </g>
     <g id="text_12">
      <!-- 80 -->
      <defs>
       <path d="M 31.78125 34.625 
Q 24.75 34.625 20.71875 30.859375 
Q 16.703125 27.09375 16.703125 20.515625 
Q 16.703125 13.921875 20.71875 10.15625 
Q 24.75 6.390625 31.78125 6.390625 
Q 38.8125 6.390625 42.859375 10.171875 
Q 46.921875 13.96875 46.921875 20.515625 
Q 46.921875 27.09375 42.890625 30.859375 
Q 38.875 34.625 31.78125 34.625 
z
M 21.921875 38.8125 
Q 15.578125 40.375 12.03125 44.71875 
Q 8.5 49.078125 8.5 55.328125 
Q 8.5 64.0625 14.71875 69.140625 
Q 20.953125 74.21875 31.78125 74.21875 
Q 42.671875 74.21875 48.875 69.140625 
Q 55.078125 64.0625 55.078125 55.328125 
Q 55.078125 49.078125 51.53125 44.71875 
Q 48 40.375 41.703125 38.8125 
Q 48.828125 37.15625 52.796875 32.3125 
Q 56.78125 27.484375 56.78125 20.515625 
Q 56.78125 9.90625 50.3125 4.234375 
Q 43.84375 -1.421875 31.78125 -1.421875 
Q 19.734375 -1.421875 13.25 4.234375 
Q 6.78125 9.90625 6.78125 20.515625 
Q 6.78125 27.484375 10.78125 32.3125 
Q 14.796875 37.15625 21.921875 38.8125 
z
M 18.3125 54.390625 
Q 18.3125 48.734375 21.84375 45.5625 
Q 25.390625 42.390625 31.78125 42.390625 
Q 38.140625 42.390625 41.71875 45.5625 
Q 45.3125 48.734375 45.3125 54.390625 
Q 45.3125 60.0625 41.71875 63.234375 
Q 38.140625 66.40625 31.78125 66.40625 
Q 25.390625 66.40625 21.84375 63.234375 
Q 18.3125 60.0625 18.3125 54.390625 
z
" id="DejaVuSans-56"/>
      </defs>
      <g style="fill:#262626;" transform="translate(48.5025 130.951702)scale(0.11 -0.11)">
       <use xlink:href="#DejaVuSans-56"/>
       <use x="63.623047" xlink:href="#DejaVuSans-48"/>
      </g>
     </g>
    </g>
    <g id="ytick_6">
     <g id="line2d_12">
      <path clip-path="url(#p13982ed409)" d="M 72 60.139979 
L 518.4 60.139979 
" style="fill:none;stroke:#ffffff;stroke-linecap:round;"/>
     </g>
     <g id="text_13">
      <!-- 100 -->
      <g style="fill:#262626;" transform="translate(41.50375 64.31912)scale(0.11 -0.11)">
       <use xlink:href="#DejaVuSans-49"/>
       <use x="63.623047" xlink:href="#DejaVuSans-48"/>
       <use x="127.246094" xlink:href="#DejaVuSans-48"/>
      </g>
     </g>
    </g>
    <g id="text_14">
     <!-- $\left\langle r^2\right\rangle \left(\sigma^2\right)$ -->
     <defs>
      <path d="M 8.9375 31.34375 
L 22.703125 75.875 
L 31 75.875 
L 17.234375 31.34375 
L 31 -13.1875 
L 22.703125 -13.1875 
z
" id="DejaVuSans-10216"/>
      <path d="M 44.578125 46.390625 
Q 43.21875 47.125 41.453125 47.515625 
Q 39.703125 47.90625 37.703125 47.90625 
Q 30.515625 47.90625 25.140625 42.453125 
Q 19.78125 37.015625 18.015625 27.875 
L 12.5 0 
L 3.515625 0 
L 14.203125 54.6875 
L 23.1875 54.6875 
L 21.484375 46.1875 
Q 25.046875 50.921875 30 53.453125 
Q 34.96875 56 40.578125 56 
Q 42.046875 56 43.453125 55.828125 
Q 44.875 55.671875 46.296875 55.28125 
z
" id="DejaVuSans-Oblique-114"/>
      <path d="M 30.078125 31.34375 
L 16.3125 -13.1875 
L 8.015625 -13.1875 
L 21.78125 31.34375 
L 8.015625 75.875 
L 16.3125 75.875 
z
" id="DejaVuSans-10217"/>
      <path d="M 31 75.875 
Q 24.46875 64.65625 21.28125 53.65625 
Q 18.109375 42.671875 18.109375 31.390625 
Q 18.109375 20.125 21.3125 9.0625 
Q 24.515625 -2 31 -13.1875 
L 23.1875 -13.1875 
Q 15.875 -1.703125 12.234375 9.375 
Q 8.59375 20.453125 8.59375 31.390625 
Q 8.59375 42.28125 12.203125 53.3125 
Q 15.828125 64.359375 23.1875 75.875 
z
" id="DejaVuSans-40"/>
      <path d="M 8.015625 75.875 
L 15.828125 75.875 
Q 23.140625 64.359375 26.78125 53.3125 
Q 30.421875 42.28125 30.421875 31.390625 
Q 30.421875 20.453125 26.78125 9.375 
Q 23.140625 -1.703125 15.828125 -13.1875 
L 8.015625 -13.1875 
Q 14.5 -2 17.703125 9.0625 
Q 20.90625 20.125 20.90625 31.390625 
Q 20.90625 42.671875 17.703125 53.65625 
Q 14.5 64.65625 8.015625 75.875 
z
" id="DejaVuSans-41"/>
     </defs>
     <g style="fill:#262626;" transform="translate(35.008125 250.968)rotate(-90)scale(0.12 -0.12)">
      <use transform="translate(0 0.765625)" xlink:href="#DejaVuSans-10216"/>
      <use transform="translate(39.013672 0.765625)" xlink:href="#DejaVuSans-Oblique-114"/>
      <use transform="translate(84.776849 39.046875)scale(0.7)" xlink:href="#DejaVuSans-50"/>
      <use transform="translate(132.047357 0.765625)" xlink:href="#DejaVuSans-10217"/>
      <use transform="translate(171.061029 0.765625)" xlink:href="#DejaVuSans-40"/>
      <use transform="translate(210.074701 0.765625)" xlink:href="#DejaVuSans-Oblique-963"/>
      <use transform="translate(277.926315 39.046875)scale(0.7)" xlink:href="#DejaVuSans-50"/>
      <use transform="translate(325.196823 0.765625)" xlink:href="#DejaVuSans-41"/>
     </g>
    </g>
   </g>
   <g id="PathCollection_1">
    <defs>
     <path d="M 0 3 
C 0.795609 3 1.55874 2.683901 2.12132 2.12132 
C 2.683901 1.55874 3 0.795609 3 0 
C 3 -0.795609 2.683901 -1.55874 2.12132 -2.12132 
C 1.55874 -2.683901 0.795609 -3 0 -3 
C -0.795609 -3 -1.55874 -2.683901 -2.12132 -2.12132 
C -2.683901 -1.55874 -3 -0.795609 -3 0 
C -3 0.795609 -2.683901 1.55874 -2.12132 2.12132 
C -1.55874 2.683901 -0.795609 3 0 3 
z
" id="mf2fb7b4344" style="stroke:#56b4e9;"/>
    </defs>
    <g clip-path="url(#p13982ed409)">
     <use style="fill:#56b4e9;stroke:#56b4e9;" x="92.290919" xlink:href="#mf2fb7b4344" y="393.301269"/>
     <use style="fill:#56b4e9;stroke:#56b4e9;" x="93.107455" xlink:href="#mf2fb7b4344" y="393.296411"/>
     <use style="fill:#56b4e9;stroke:#56b4e9;" x="93.92399" xlink:href="#mf2fb7b4344" y="393.288335"/>
     <use style="fill:#56b4e9;stroke:#56b4e9;" x="94.740526" xlink:href="#mf2fb7b4344" y="393.277068"/>
     <use style="fill:#56b4e9;stroke:#56b4e9;" x="95.557061" xlink:href="#mf2fb7b4344" y="393.262643"/>
     <use style="fill:#56b4e9;stroke:#56b4e9;" x="96.373597" xlink:href="#mf2fb7b4344" y="393.245093"/>
     <use style="fill:#56b4e9;stroke:#56b4e9;" x="97.190132" xlink:href="#mf2fb7b4344" y="393.224451"/>
     <use style="fill:#56b4e9;stroke:#56b4e9;" x="98.006668" xlink:href="#mf2fb7b4344" y="393.200751"/>
     <use style="fill:#56b4e9;stroke:#56b4e9;" x="98.823203" xlink:href="#mf2fb7b4344" y="393.174027"/>
     <use style="fill:#56b4e9;stroke:#56b4e9;" x="99.639739" xlink:href="#mf2fb7b4344" y="393.14431"/>
     <use style="fill:#56b4e9;stroke:#56b4e9;" x="100.456274" xlink:href="#mf2fb7b4344" y="393.111634"/>
     <use style="fill:#56b4e9;stroke:#56b4e9;" x="101.27281" xlink:href="#mf2fb7b4344" y="393.076031"/>
     <use style="fill:#56b4e9;stroke:#56b4e9;" x="102.089345" xlink:href="#mf2fb7b4344" y="393.03753"/>
     <use style="fill:#56b4e9;stroke:#56b4e9;" x="102.905881" xlink:href="#mf2fb7b4344" y="392.996163"/>
     <use style="fill:#56b4e9;stroke:#56b4e9;" x="103.722417" xlink:href="#mf2fb7b4344" y="392.951959"/>
     <use style="fill:#56b4e9;stroke:#56b4e9;" x="104.538952" xlink:href="#mf2fb7b4344" y="392.904949"/>
     <use style="fill:#56b4e9;stroke:#56b4e9;" x="105.355488" xlink:href="#mf2fb7b4344" y="392.855164"/>
     <use style="fill:#56b4e9;stroke:#56b4e9;" x="106.172023" xlink:href="#mf2fb7b4344" y="392.802634"/>
     <use style="fill:#56b4e9;stroke:#56b4e9;" x="106.988559" xlink:href="#mf2fb7b4344" y="392.747388"/>
     <use style="fill:#56b4e9;stroke:#56b4e9;" x="107.805094" xlink:href="#mf2fb7b4344" y="392.689451"/>
     <use style="fill:#56b4e9;stroke:#56b4e9;" x="108.62163" xlink:href="#mf2fb7b4344" y="392.62885"/>
     <use style="fill:#56b4e9;stroke:#56b4e9;" x="109.438165" xlink:href="#mf2fb7b4344" y="392.56561"/>
     <use style="fill:#56b4e9;stroke:#56b4e9;" x="110.254701" xlink:href="#mf2fb7b4344" y="392.499756"/>
     <use style="fill:#56b4e9;stroke:#56b4e9;" x="111.071236" xlink:href="#mf2fb7b4344" y="392.431314"/>
     <use style="fill:#56b4e9;stroke:#56b4e9;" x="111.887772" xlink:href="#mf2fb7b4344" y="392.360307"/>
     <use style="fill:#56b4e9;stroke:#56b4e9;" x="112.704307" xlink:href="#mf2fb7b4344" y="392.286761"/>
     <use style="fill:#56b4e9;stroke:#56b4e9;" x="113.520843" xlink:href="#mf2fb7b4344" y="392.2107"/>
     <use style="fill:#56b4e9;stroke:#56b4e9;" x="114.337379" xlink:href="#mf2fb7b4344" y="392.132148"/>
     <use style="fill:#56b4e9;stroke:#56b4e9;" x="115.153914" xlink:href="#mf2fb7b4344" y="392.051131"/>
     <use style="fill:#56b4e9;stroke:#56b4e9;" x="115.97045" xlink:href="#mf2fb7b4344" y="391.967673"/>
     <use style="fill:#56b4e9;stroke:#56b4e9;" x="116.786985" xlink:href="#mf2fb7b4344" y="391.881795"/>
     <use style="fill:#56b4e9;stroke:#56b4e9;" x="117.603521" xlink:href="#mf2fb7b4344" y="391.793519"/>
     <use style="fill:#56b4e9;stroke:#56b4e9;" x="118.420056" xlink:href="#mf2fb7b4344" y="391.702867"/>
     <use style="fill:#56b4e9;stroke:#56b4e9;" x="119.236592" xlink:href="#mf2fb7b4344" y="391.609859"/>
     <use style="fill:#56b4e9;stroke:#56b4e9;" x="120.053127" xlink:href="#mf2fb7b4344" y="391.514515"/>
     <use style="fill:#56b4e9;stroke:#56b4e9;" x="120.869663" xlink:href="#mf2fb7b4344" y="391.416858"/>
     <use style="fill:#56b4e9;stroke:#56b4e9;" x="121.686198" xlink:href="#mf2fb7b4344" y="391.316909"/>
     <use style="fill:#56b4e9;stroke:#56b4e9;" x="122.502734" xlink:href="#mf2fb7b4344" y="391.214689"/>
     <use style="fill:#56b4e9;stroke:#56b4e9;" x="123.319269" xlink:href="#mf2fb7b4344" y="391.11022"/>
     <use style="fill:#56b4e9;stroke:#56b4e9;" x="124.135805" xlink:href="#mf2fb7b4344" y="391.003522"/>
     <use style="fill:#56b4e9;stroke:#56b4e9;" x="124.95234" xlink:href="#mf2fb7b4344" y="390.894618"/>
     <use style="fill:#56b4e9;stroke:#56b4e9;" x="125.768876" xlink:href="#mf2fb7b4344" y="390.783527"/>
     <use style="fill:#56b4e9;stroke:#56b4e9;" x="126.585412" xlink:href="#mf2fb7b4344" y="390.670271"/>
     <use style="fill:#56b4e9;stroke:#56b4e9;" x="127.401947" xlink:href="#mf2fb7b4344" y="390.554869"/>
     <use style="fill:#56b4e9;stroke:#56b4e9;" x="128.218483" xlink:href="#mf2fb7b4344" y="390.437342"/>
     <use style="fill:#56b4e9;stroke:#56b4e9;" x="129.035018" xlink:href="#mf2fb7b4344" y="390.317709"/>
     <use style="fill:#56b4e9;stroke:#56b4e9;" x="129.851554" xlink:href="#mf2fb7b4344" y="390.195988"/>
     <use style="fill:#56b4e9;stroke:#56b4e9;" x="130.668089" xlink:href="#mf2fb7b4344" y="390.0722"/>
     <use style="fill:#56b4e9;stroke:#56b4e9;" x="131.484625" xlink:href="#mf2fb7b4344" y="389.946365"/>
     <use style="fill:#56b4e9;stroke:#56b4e9;" x="132.30116" xlink:href="#mf2fb7b4344" y="389.818502"/>
     <use style="fill:#56b4e9;stroke:#56b4e9;" x="133.117696" xlink:href="#mf2fb7b4344" y="389.68863"/>
     <use style="fill:#56b4e9;stroke:#56b4e9;" x="133.934231" xlink:href="#mf2fb7b4344" y="389.556769"/>
     <use style="fill:#56b4e9;stroke:#56b4e9;" x="134.750767" xlink:href="#mf2fb7b4344" y="389.422939"/>
     <use style="fill:#56b4e9;stroke:#56b4e9;" x="135.567302" xlink:href="#mf2fb7b4344" y="389.287158"/>
     <use style="fill:#56b4e9;stroke:#56b4e9;" x="136.383838" xlink:href="#mf2fb7b4344" y="389.149443"/>
     <use style="fill:#56b4e9;stroke:#56b4e9;" x="137.200374" xlink:href="#mf2fb7b4344" y="389.009813"/>
     <use style="fill:#56b4e9;stroke:#56b4e9;" x="138.016909" xlink:href="#mf2fb7b4344" y="388.868291"/>
     <use style="fill:#56b4e9;stroke:#56b4e9;" x="138.833445" xlink:href="#mf2fb7b4344" y="388.724903"/>
     <use style="fill:#56b4e9;stroke:#56b4e9;" x="139.64998" xlink:href="#mf2fb7b4344" y="388.579673"/>
     <use style="fill:#56b4e9;stroke:#56b4e9;" x="140.466516" xlink:href="#mf2fb7b4344" y="388.432622"/>
     <use style="fill:#56b4e9;stroke:#56b4e9;" x="141.283051" xlink:href="#mf2fb7b4344" y="388.283773"/>
     <use style="fill:#56b4e9;stroke:#56b4e9;" x="142.099587" xlink:href="#mf2fb7b4344" y="388.133146"/>
     <use style="fill:#56b4e9;stroke:#56b4e9;" x="142.916122" xlink:href="#mf2fb7b4344" y="387.980764"/>
     <use style="fill:#56b4e9;stroke:#56b4e9;" x="143.732658" xlink:href="#mf2fb7b4344" y="387.82665"/>
     <use style="fill:#56b4e9;stroke:#56b4e9;" x="144.549193" xlink:href="#mf2fb7b4344" y="387.670824"/>
     <use style="fill:#56b4e9;stroke:#56b4e9;" x="145.365729" xlink:href="#mf2fb7b4344" y="387.513305"/>
     <use style="fill:#56b4e9;stroke:#56b4e9;" x="146.182264" xlink:href="#mf2fb7b4344" y="387.354109"/>
     <use style="fill:#56b4e9;stroke:#56b4e9;" x="146.9988" xlink:href="#mf2fb7b4344" y="387.19325"/>
     <use style="fill:#56b4e9;stroke:#56b4e9;" x="147.815336" xlink:href="#mf2fb7b4344" y="387.030746"/>
     <use style="fill:#56b4e9;stroke:#56b4e9;" x="148.631871" xlink:href="#mf2fb7b4344" y="386.866614"/>
     <use style="fill:#56b4e9;stroke:#56b4e9;" x="149.448407" xlink:href="#mf2fb7b4344" y="386.700872"/>
     <use style="fill:#56b4e9;stroke:#56b4e9;" x="150.264942" xlink:href="#mf2fb7b4344" y="386.533537"/>
     <use style="fill:#56b4e9;stroke:#56b4e9;" x="151.081478" xlink:href="#mf2fb7b4344" y="386.36462"/>
     <use style="fill:#56b4e9;stroke:#56b4e9;" x="151.898013" xlink:href="#mf2fb7b4344" y="386.194134"/>
     <use style="fill:#56b4e9;stroke:#56b4e9;" x="152.714549" xlink:href="#mf2fb7b4344" y="386.022093"/>
     <use style="fill:#56b4e9;stroke:#56b4e9;" x="153.531084" xlink:href="#mf2fb7b4344" y="385.848513"/>
     <use style="fill:#56b4e9;stroke:#56b4e9;" x="154.34762" xlink:href="#mf2fb7b4344" y="385.673412"/>
     <use style="fill:#56b4e9;stroke:#56b4e9;" x="155.164155" xlink:href="#mf2fb7b4344" y="385.496805"/>
     <use style="fill:#56b4e9;stroke:#56b4e9;" x="155.980691" xlink:href="#mf2fb7b4344" y="385.318699"/>
     <use style="fill:#56b4e9;stroke:#56b4e9;" x="156.797226" xlink:href="#mf2fb7b4344" y="385.139104"/>
     <use style="fill:#56b4e9;stroke:#56b4e9;" x="157.613762" xlink:href="#mf2fb7b4344" y="384.958034"/>
     <use style="fill:#56b4e9;stroke:#56b4e9;" x="158.430298" xlink:href="#mf2fb7b4344" y="384.775505"/>
     <use style="fill:#56b4e9;stroke:#56b4e9;" x="159.246833" xlink:href="#mf2fb7b4344" y="384.59153"/>
     <use style="fill:#56b4e9;stroke:#56b4e9;" x="160.063369" xlink:href="#mf2fb7b4344" y="384.40612"/>
     <use style="fill:#56b4e9;stroke:#56b4e9;" x="160.879904" xlink:href="#mf2fb7b4344" y="384.219282"/>
     <use style="fill:#56b4e9;stroke:#56b4e9;" x="161.69644" xlink:href="#mf2fb7b4344" y="384.031022"/>
     <use style="fill:#56b4e9;stroke:#56b4e9;" x="162.512975" xlink:href="#mf2fb7b4344" y="383.841343"/>
     <use style="fill:#56b4e9;stroke:#56b4e9;" x="163.329511" xlink:href="#mf2fb7b4344" y="383.65025"/>
     <use style="fill:#56b4e9;stroke:#56b4e9;" x="164.146046" xlink:href="#mf2fb7b4344" y="383.457748"/>
     <use style="fill:#56b4e9;stroke:#56b4e9;" x="164.962582" xlink:href="#mf2fb7b4344" y="383.263837"/>
     <use style="fill:#56b4e9;stroke:#56b4e9;" x="165.779117" xlink:href="#mf2fb7b4344" y="383.068523"/>
     <use style="fill:#56b4e9;stroke:#56b4e9;" x="166.595653" xlink:href="#mf2fb7b4344" y="382.87181"/>
     <use style="fill:#56b4e9;stroke:#56b4e9;" x="167.412188" xlink:href="#mf2fb7b4344" y="382.673707"/>
     <use style="fill:#56b4e9;stroke:#56b4e9;" x="168.228724" xlink:href="#mf2fb7b4344" y="382.474226"/>
     <use style="fill:#56b4e9;stroke:#56b4e9;" x="169.04526" xlink:href="#mf2fb7b4344" y="382.273383"/>
     <use style="fill:#56b4e9;stroke:#56b4e9;" x="169.861795" xlink:href="#mf2fb7b4344" y="382.071193"/>
     <use style="fill:#56b4e9;stroke:#56b4e9;" x="170.678331" xlink:href="#mf2fb7b4344" y="381.867667"/>
     <use style="fill:#56b4e9;stroke:#56b4e9;" x="171.494866" xlink:href="#mf2fb7b4344" y="381.662815"/>
     <use style="fill:#56b4e9;stroke:#56b4e9;" x="172.311402" xlink:href="#mf2fb7b4344" y="381.456645"/>
     <use style="fill:#56b4e9;stroke:#56b4e9;" x="173.127937" xlink:href="#mf2fb7b4344" y="381.249167"/>
     <use style="fill:#56b4e9;stroke:#56b4e9;" x="173.944473" xlink:href="#mf2fb7b4344" y="381.040392"/>
     <use style="fill:#56b4e9;stroke:#56b4e9;" x="174.761008" xlink:href="#mf2fb7b4344" y="380.830338"/>
     <use style="fill:#56b4e9;stroke:#56b4e9;" x="175.577544" xlink:href="#mf2fb7b4344" y="380.619026"/>
     <use style="fill:#56b4e9;stroke:#56b4e9;" x="176.394079" xlink:href="#mf2fb7b4344" y="380.406473"/>
     <use style="fill:#56b4e9;stroke:#56b4e9;" x="177.210615" xlink:href="#mf2fb7b4344" y="380.192693"/>
     <use style="fill:#56b4e9;stroke:#56b4e9;" x="178.02715" xlink:href="#mf2fb7b4344" y="379.977695"/>
     <use style="fill:#56b4e9;stroke:#56b4e9;" x="178.843686" xlink:href="#mf2fb7b4344" y="379.761493"/>
     <use style="fill:#56b4e9;stroke:#56b4e9;" x="179.660221" xlink:href="#mf2fb7b4344" y="379.544101"/>
     <use style="fill:#56b4e9;stroke:#56b4e9;" x="180.476757" xlink:href="#mf2fb7b4344" y="379.325536"/>
     <use style="fill:#56b4e9;stroke:#56b4e9;" x="181.293293" xlink:href="#mf2fb7b4344" y="379.105816"/>
     <use style="fill:#56b4e9;stroke:#56b4e9;" x="182.109828" xlink:href="#mf2fb7b4344" y="378.884951"/>
     <use style="fill:#56b4e9;stroke:#56b4e9;" x="182.926364" xlink:href="#mf2fb7b4344" y="378.662951"/>
     <use style="fill:#56b4e9;stroke:#56b4e9;" x="183.742899" xlink:href="#mf2fb7b4344" y="378.439824"/>
     <use style="fill:#56b4e9;stroke:#56b4e9;" x="184.559435" xlink:href="#mf2fb7b4344" y="378.215575"/>
     <use style="fill:#56b4e9;stroke:#56b4e9;" x="185.37597" xlink:href="#mf2fb7b4344" y="377.990212"/>
     <use style="fill:#56b4e9;stroke:#56b4e9;" x="186.192506" xlink:href="#mf2fb7b4344" y="377.763743"/>
     <use style="fill:#56b4e9;stroke:#56b4e9;" x="187.009041" xlink:href="#mf2fb7b4344" y="377.536182"/>
     <use style="fill:#56b4e9;stroke:#56b4e9;" x="187.825577" xlink:href="#mf2fb7b4344" y="377.307548"/>
     <use style="fill:#56b4e9;stroke:#56b4e9;" x="188.642112" xlink:href="#mf2fb7b4344" y="377.077858"/>
     <use style="fill:#56b4e9;stroke:#56b4e9;" x="189.458648" xlink:href="#mf2fb7b4344" y="376.847131"/>
     <use style="fill:#56b4e9;stroke:#56b4e9;" x="190.275183" xlink:href="#mf2fb7b4344" y="376.615383"/>
     <use style="fill:#56b4e9;stroke:#56b4e9;" x="191.091719" xlink:href="#mf2fb7b4344" y="376.382624"/>
     <use style="fill:#56b4e9;stroke:#56b4e9;" x="191.908255" xlink:href="#mf2fb7b4344" y="376.148864"/>
     <use style="fill:#56b4e9;stroke:#56b4e9;" x="192.72479" xlink:href="#mf2fb7b4344" y="375.914113"/>
     <use style="fill:#56b4e9;stroke:#56b4e9;" x="193.541326" xlink:href="#mf2fb7b4344" y="375.678378"/>
     <use style="fill:#56b4e9;stroke:#56b4e9;" x="194.357861" xlink:href="#mf2fb7b4344" y="375.441669"/>
     <use style="fill:#56b4e9;stroke:#56b4e9;" x="195.174397" xlink:href="#mf2fb7b4344" y="375.203992"/>
     <use style="fill:#56b4e9;stroke:#56b4e9;" x="195.990932" xlink:href="#mf2fb7b4344" y="374.965357"/>
     <use style="fill:#56b4e9;stroke:#56b4e9;" x="196.807468" xlink:href="#mf2fb7b4344" y="374.725772"/>
     <use style="fill:#56b4e9;stroke:#56b4e9;" x="197.624003" xlink:href="#mf2fb7b4344" y="374.485248"/>
     <use style="fill:#56b4e9;stroke:#56b4e9;" x="198.440539" xlink:href="#mf2fb7b4344" y="374.243793"/>
     <use style="fill:#56b4e9;stroke:#56b4e9;" x="199.257074" xlink:href="#mf2fb7b4344" y="374.001419"/>
     <use style="fill:#56b4e9;stroke:#56b4e9;" x="200.07361" xlink:href="#mf2fb7b4344" y="373.758142"/>
     <use style="fill:#56b4e9;stroke:#56b4e9;" x="200.890145" xlink:href="#mf2fb7b4344" y="373.513979"/>
     <use style="fill:#56b4e9;stroke:#56b4e9;" x="201.706681" xlink:href="#mf2fb7b4344" y="373.268947"/>
     <use style="fill:#56b4e9;stroke:#56b4e9;" x="202.523217" xlink:href="#mf2fb7b4344" y="373.023056"/>
     <use style="fill:#56b4e9;stroke:#56b4e9;" x="203.339752" xlink:href="#mf2fb7b4344" y="372.776315"/>
     <use style="fill:#56b4e9;stroke:#56b4e9;" x="204.156288" xlink:href="#mf2fb7b4344" y="372.528731"/>
     <use style="fill:#56b4e9;stroke:#56b4e9;" x="204.972823" xlink:href="#mf2fb7b4344" y="372.280311"/>
     <use style="fill:#56b4e9;stroke:#56b4e9;" x="205.789359" xlink:href="#mf2fb7b4344" y="372.031063"/>
     <use style="fill:#56b4e9;stroke:#56b4e9;" x="206.605894" xlink:href="#mf2fb7b4344" y="371.78099"/>
     <use style="fill:#56b4e9;stroke:#56b4e9;" x="207.42243" xlink:href="#mf2fb7b4344" y="371.530094"/>
     <use style="fill:#56b4e9;stroke:#56b4e9;" x="208.238965" xlink:href="#mf2fb7b4344" y="371.278371"/>
     <use style="fill:#56b4e9;stroke:#56b4e9;" x="209.055501" xlink:href="#mf2fb7b4344" y="371.02582"/>
     <use style="fill:#56b4e9;stroke:#56b4e9;" x="209.872036" xlink:href="#mf2fb7b4344" y="370.772443"/>
     <use style="fill:#56b4e9;stroke:#56b4e9;" x="210.688572" xlink:href="#mf2fb7b4344" y="370.518247"/>
     <use style="fill:#56b4e9;stroke:#56b4e9;" x="211.505107" xlink:href="#mf2fb7b4344" y="370.263236"/>
     <use style="fill:#56b4e9;stroke:#56b4e9;" x="212.321643" xlink:href="#mf2fb7b4344" y="370.007412"/>
     <use style="fill:#56b4e9;stroke:#56b4e9;" x="213.138179" xlink:href="#mf2fb7b4344" y="369.750779"/>
     <use style="fill:#56b4e9;stroke:#56b4e9;" x="213.954714" xlink:href="#mf2fb7b4344" y="369.493337"/>
     <use style="fill:#56b4e9;stroke:#56b4e9;" x="214.77125" xlink:href="#mf2fb7b4344" y="369.235087"/>
     <use style="fill:#56b4e9;stroke:#56b4e9;" x="215.587785" xlink:href="#mf2fb7b4344" y="368.976028"/>
     <use style="fill:#56b4e9;stroke:#56b4e9;" x="216.404321" xlink:href="#mf2fb7b4344" y="368.716158"/>
     <use style="fill:#56b4e9;stroke:#56b4e9;" x="217.220856" xlink:href="#mf2fb7b4344" y="368.455463"/>
     <use style="fill:#56b4e9;stroke:#56b4e9;" x="218.037392" xlink:href="#mf2fb7b4344" y="368.193925"/>
     <use style="fill:#56b4e9;stroke:#56b4e9;" x="218.853927" xlink:href="#mf2fb7b4344" y="367.931543"/>
     <use style="fill:#56b4e9;stroke:#56b4e9;" x="219.670463" xlink:href="#mf2fb7b4344" y="367.668323"/>
     <use style="fill:#56b4e9;stroke:#56b4e9;" x="220.486998" xlink:href="#mf2fb7b4344" y="367.404268"/>
     <use style="fill:#56b4e9;stroke:#56b4e9;" x="221.303534" xlink:href="#mf2fb7b4344" y="367.139385"/>
     <use style="fill:#56b4e9;stroke:#56b4e9;" x="222.120069" xlink:href="#mf2fb7b4344" y="366.87368"/>
     <use style="fill:#56b4e9;stroke:#56b4e9;" x="222.936605" xlink:href="#mf2fb7b4344" y="366.607158"/>
     <use style="fill:#56b4e9;stroke:#56b4e9;" x="223.75314" xlink:href="#mf2fb7b4344" y="366.339825"/>
     <use style="fill:#56b4e9;stroke:#56b4e9;" x="224.569676" xlink:href="#mf2fb7b4344" y="366.071689"/>
     <use style="fill:#56b4e9;stroke:#56b4e9;" x="225.386212" xlink:href="#mf2fb7b4344" y="365.802757"/>
     <use style="fill:#56b4e9;stroke:#56b4e9;" x="226.202747" xlink:href="#mf2fb7b4344" y="365.533038"/>
     <use style="fill:#56b4e9;stroke:#56b4e9;" x="227.019283" xlink:href="#mf2fb7b4344" y="365.26254"/>
     <use style="fill:#56b4e9;stroke:#56b4e9;" x="227.835818" xlink:href="#mf2fb7b4344" y="364.991269"/>
     <use style="fill:#56b4e9;stroke:#56b4e9;" x="228.652354" xlink:href="#mf2fb7b4344" y="364.719227"/>
     <use style="fill:#56b4e9;stroke:#56b4e9;" x="229.468889" xlink:href="#mf2fb7b4344" y="364.446419"/>
     <use style="fill:#56b4e9;stroke:#56b4e9;" x="230.285425" xlink:href="#mf2fb7b4344" y="364.172847"/>
     <use style="fill:#56b4e9;stroke:#56b4e9;" x="231.10196" xlink:href="#mf2fb7b4344" y="363.898515"/>
     <use style="fill:#56b4e9;stroke:#56b4e9;" x="231.918496" xlink:href="#mf2fb7b4344" y="363.623427"/>
     <use style="fill:#56b4e9;stroke:#56b4e9;" x="232.735031" xlink:href="#mf2fb7b4344" y="363.347585"/>
     <use style="fill:#56b4e9;stroke:#56b4e9;" x="233.551567" xlink:href="#mf2fb7b4344" y="363.070993"/>
     <use style="fill:#56b4e9;stroke:#56b4e9;" x="234.368102" xlink:href="#mf2fb7b4344" y="362.793652"/>
     <use style="fill:#56b4e9;stroke:#56b4e9;" x="235.184638" xlink:href="#mf2fb7b4344" y="362.515569"/>
     <use style="fill:#56b4e9;stroke:#56b4e9;" x="236.001174" xlink:href="#mf2fb7b4344" y="362.236755"/>
     <use style="fill:#56b4e9;stroke:#56b4e9;" x="236.817709" xlink:href="#mf2fb7b4344" y="361.957234"/>
     <use style="fill:#56b4e9;stroke:#56b4e9;" x="237.634245" xlink:href="#mf2fb7b4344" y="361.677035"/>
     <use style="fill:#56b4e9;stroke:#56b4e9;" x="238.45078" xlink:href="#mf2fb7b4344" y="361.396181"/>
     <use style="fill:#56b4e9;stroke:#56b4e9;" x="239.267316" xlink:href="#mf2fb7b4344" y="361.114703"/>
     <use style="fill:#56b4e9;stroke:#56b4e9;" x="240.083851" xlink:href="#mf2fb7b4344" y="360.832643"/>
     <use style="fill:#56b4e9;stroke:#56b4e9;" x="240.900387" xlink:href="#mf2fb7b4344" y="360.550029"/>
     <use style="fill:#56b4e9;stroke:#56b4e9;" x="241.716922" xlink:href="#mf2fb7b4344" y="360.266867"/>
     <use style="fill:#56b4e9;stroke:#56b4e9;" x="242.533458" xlink:href="#mf2fb7b4344" y="359.983149"/>
     <use style="fill:#56b4e9;stroke:#56b4e9;" x="243.349993" xlink:href="#mf2fb7b4344" y="359.698867"/>
     <use style="fill:#56b4e9;stroke:#56b4e9;" x="244.166529" xlink:href="#mf2fb7b4344" y="359.414022"/>
     <use style="fill:#56b4e9;stroke:#56b4e9;" x="244.983064" xlink:href="#mf2fb7b4344" y="359.128614"/>
     <use style="fill:#56b4e9;stroke:#56b4e9;" x="245.7996" xlink:href="#mf2fb7b4344" y="358.842635"/>
     <use style="fill:#56b4e9;stroke:#56b4e9;" x="246.616136" xlink:href="#mf2fb7b4344" y="358.556073"/>
     <use style="fill:#56b4e9;stroke:#56b4e9;" x="247.432671" xlink:href="#mf2fb7b4344" y="358.268922"/>
     <use style="fill:#56b4e9;stroke:#56b4e9;" x="248.249207" xlink:href="#mf2fb7b4344" y="357.981182"/>
     <use style="fill:#56b4e9;stroke:#56b4e9;" x="249.065742" xlink:href="#mf2fb7b4344" y="357.692858"/>
     <use style="fill:#56b4e9;stroke:#56b4e9;" x="249.882278" xlink:href="#mf2fb7b4344" y="357.40395"/>
     <use style="fill:#56b4e9;stroke:#56b4e9;" x="250.698813" xlink:href="#mf2fb7b4344" y="357.114456"/>
     <use style="fill:#56b4e9;stroke:#56b4e9;" x="251.515349" xlink:href="#mf2fb7b4344" y="356.824371"/>
     <use style="fill:#56b4e9;stroke:#56b4e9;" x="252.331884" xlink:href="#mf2fb7b4344" y="356.533691"/>
     <use style="fill:#56b4e9;stroke:#56b4e9;" x="253.14842" xlink:href="#mf2fb7b4344" y="356.242413"/>
     <use style="fill:#56b4e9;stroke:#56b4e9;" x="253.964955" xlink:href="#mf2fb7b4344" y="355.950534"/>
     <use style="fill:#56b4e9;stroke:#56b4e9;" x="254.781491" xlink:href="#mf2fb7b4344" y="355.658052"/>
     <use style="fill:#56b4e9;stroke:#56b4e9;" x="255.598026" xlink:href="#mf2fb7b4344" y="355.364964"/>
     <use style="fill:#56b4e9;stroke:#56b4e9;" x="256.414562" xlink:href="#mf2fb7b4344" y="355.071267"/>
     <use style="fill:#56b4e9;stroke:#56b4e9;" x="257.231098" xlink:href="#mf2fb7b4344" y="354.776961"/>
     <use style="fill:#56b4e9;stroke:#56b4e9;" x="258.047633" xlink:href="#mf2fb7b4344" y="354.482046"/>
     <use style="fill:#56b4e9;stroke:#56b4e9;" x="258.864169" xlink:href="#mf2fb7b4344" y="354.186521"/>
     <use style="fill:#56b4e9;stroke:#56b4e9;" x="259.680704" xlink:href="#mf2fb7b4344" y="353.890379"/>
     <use style="fill:#56b4e9;stroke:#56b4e9;" x="260.49724" xlink:href="#mf2fb7b4344" y="353.59359"/>
     <use style="fill:#56b4e9;stroke:#56b4e9;" x="261.313775" xlink:href="#mf2fb7b4344" y="353.296102"/>
     <use style="fill:#56b4e9;stroke:#56b4e9;" x="262.130311" xlink:href="#mf2fb7b4344" y="352.997906"/>
     <use style="fill:#56b4e9;stroke:#56b4e9;" x="262.946846" xlink:href="#mf2fb7b4344" y="352.698999"/>
     <use style="fill:#56b4e9;stroke:#56b4e9;" x="263.763382" xlink:href="#mf2fb7b4344" y="352.399378"/>
     <use style="fill:#56b4e9;stroke:#56b4e9;" x="264.579917" xlink:href="#mf2fb7b4344" y="352.099041"/>
     <use style="fill:#56b4e9;stroke:#56b4e9;" x="265.396453" xlink:href="#mf2fb7b4344" y="351.797987"/>
     <use style="fill:#56b4e9;stroke:#56b4e9;" x="266.212988" xlink:href="#mf2fb7b4344" y="351.496213"/>
     <use style="fill:#56b4e9;stroke:#56b4e9;" x="267.029524" xlink:href="#mf2fb7b4344" y="351.193716"/>
     <use style="fill:#56b4e9;stroke:#56b4e9;" x="267.84606" xlink:href="#mf2fb7b4344" y="350.890489"/>
     <use style="fill:#56b4e9;stroke:#56b4e9;" x="268.662595" xlink:href="#mf2fb7b4344" y="350.586531"/>
     <use style="fill:#56b4e9;stroke:#56b4e9;" x="269.479131" xlink:href="#mf2fb7b4344" y="350.281845"/>
     <use style="fill:#56b4e9;stroke:#56b4e9;" x="270.295666" xlink:href="#mf2fb7b4344" y="349.976437"/>
     <use style="fill:#56b4e9;stroke:#56b4e9;" x="271.112202" xlink:href="#mf2fb7b4344" y="349.670312"/>
     <use style="fill:#56b4e9;stroke:#56b4e9;" x="271.928737" xlink:href="#mf2fb7b4344" y="349.363476"/>
     <use style="fill:#56b4e9;stroke:#56b4e9;" x="272.745273" xlink:href="#mf2fb7b4344" y="349.055929"/>
     <use style="fill:#56b4e9;stroke:#56b4e9;" x="273.561808" xlink:href="#mf2fb7b4344" y="348.747675"/>
     <use style="fill:#56b4e9;stroke:#56b4e9;" x="274.378344" xlink:href="#mf2fb7b4344" y="348.438719"/>
     <use style="fill:#56b4e9;stroke:#56b4e9;" x="275.194879" xlink:href="#mf2fb7b4344" y="348.129066"/>
     <use style="fill:#56b4e9;stroke:#56b4e9;" x="276.011415" xlink:href="#mf2fb7b4344" y="347.818722"/>
     <use style="fill:#56b4e9;stroke:#56b4e9;" x="276.82795" xlink:href="#mf2fb7b4344" y="347.507684"/>
     <use style="fill:#56b4e9;stroke:#56b4e9;" x="277.644486" xlink:href="#mf2fb7b4344" y="347.195953"/>
     <use style="fill:#56b4e9;stroke:#56b4e9;" x="278.461021" xlink:href="#mf2fb7b4344" y="346.88353"/>
     <use style="fill:#56b4e9;stroke:#56b4e9;" x="279.277557" xlink:href="#mf2fb7b4344" y="346.570419"/>
     <use style="fill:#56b4e9;stroke:#56b4e9;" x="280.094093" xlink:href="#mf2fb7b4344" y="346.256625"/>
     <use style="fill:#56b4e9;stroke:#56b4e9;" x="280.910628" xlink:href="#mf2fb7b4344" y="345.942144"/>
     <use style="fill:#56b4e9;stroke:#56b4e9;" x="281.727164" xlink:href="#mf2fb7b4344" y="345.626961"/>
     <use style="fill:#56b4e9;stroke:#56b4e9;" x="282.543699" xlink:href="#mf2fb7b4344" y="345.311065"/>
     <use style="fill:#56b4e9;stroke:#56b4e9;" x="283.360235" xlink:href="#mf2fb7b4344" y="344.994459"/>
     <use style="fill:#56b4e9;stroke:#56b4e9;" x="284.17677" xlink:href="#mf2fb7b4344" y="344.677154"/>
     <use style="fill:#56b4e9;stroke:#56b4e9;" x="284.993306" xlink:href="#mf2fb7b4344" y="344.35917"/>
     <use style="fill:#56b4e9;stroke:#56b4e9;" x="285.809841" xlink:href="#mf2fb7b4344" y="344.040532"/>
     <use style="fill:#56b4e9;stroke:#56b4e9;" x="286.626377" xlink:href="#mf2fb7b4344" y="343.721258"/>
     <use style="fill:#56b4e9;stroke:#56b4e9;" x="287.442912" xlink:href="#mf2fb7b4344" y="343.401359"/>
     <use style="fill:#56b4e9;stroke:#56b4e9;" x="288.259448" xlink:href="#mf2fb7b4344" y="343.080841"/>
     <use style="fill:#56b4e9;stroke:#56b4e9;" x="289.075983" xlink:href="#mf2fb7b4344" y="342.759706"/>
     <use style="fill:#56b4e9;stroke:#56b4e9;" x="289.892519" xlink:href="#mf2fb7b4344" y="342.437954"/>
     <use style="fill:#56b4e9;stroke:#56b4e9;" x="290.709055" xlink:href="#mf2fb7b4344" y="342.115586"/>
     <use style="fill:#56b4e9;stroke:#56b4e9;" x="291.52559" xlink:href="#mf2fb7b4344" y="341.7926"/>
     <use style="fill:#56b4e9;stroke:#56b4e9;" x="292.342126" xlink:href="#mf2fb7b4344" y="341.468996"/>
     <use style="fill:#56b4e9;stroke:#56b4e9;" x="293.158661" xlink:href="#mf2fb7b4344" y="341.144778"/>
     <use style="fill:#56b4e9;stroke:#56b4e9;" x="293.975197" xlink:href="#mf2fb7b4344" y="340.819953"/>
     <use style="fill:#56b4e9;stroke:#56b4e9;" x="294.791732" xlink:href="#mf2fb7b4344" y="340.494523"/>
     <use style="fill:#56b4e9;stroke:#56b4e9;" x="295.608268" xlink:href="#mf2fb7b4344" y="340.168485"/>
     <use style="fill:#56b4e9;stroke:#56b4e9;" x="296.424803" xlink:href="#mf2fb7b4344" y="339.841811"/>
     <use style="fill:#56b4e9;stroke:#56b4e9;" x="297.241339" xlink:href="#mf2fb7b4344" y="339.514461"/>
     <use style="fill:#56b4e9;stroke:#56b4e9;" x="298.057874" xlink:href="#mf2fb7b4344" y="339.186422"/>
     <use style="fill:#56b4e9;stroke:#56b4e9;" x="298.87441" xlink:href="#mf2fb7b4344" y="338.85769"/>
     <use style="fill:#56b4e9;stroke:#56b4e9;" x="299.690945" xlink:href="#mf2fb7b4344" y="338.528262"/>
     <use style="fill:#56b4e9;stroke:#56b4e9;" x="300.507481" xlink:href="#mf2fb7b4344" y="338.198135"/>
     <use style="fill:#56b4e9;stroke:#56b4e9;" x="301.324017" xlink:href="#mf2fb7b4344" y="337.867307"/>
     <use style="fill:#56b4e9;stroke:#56b4e9;" x="302.140552" xlink:href="#mf2fb7b4344" y="337.535776"/>
     <use style="fill:#56b4e9;stroke:#56b4e9;" x="302.957088" xlink:href="#mf2fb7b4344" y="337.203548"/>
     <use style="fill:#56b4e9;stroke:#56b4e9;" x="303.773623" xlink:href="#mf2fb7b4344" y="336.870631"/>
     <use style="fill:#56b4e9;stroke:#56b4e9;" x="304.590159" xlink:href="#mf2fb7b4344" y="336.537021"/>
     <use style="fill:#56b4e9;stroke:#56b4e9;" x="305.406694" xlink:href="#mf2fb7b4344" y="336.202712"/>
     <use style="fill:#56b4e9;stroke:#56b4e9;" x="306.22323" xlink:href="#mf2fb7b4344" y="335.867697"/>
     <use style="fill:#56b4e9;stroke:#56b4e9;" x="307.039765" xlink:href="#mf2fb7b4344" y="335.531973"/>
     <use style="fill:#56b4e9;stroke:#56b4e9;" x="307.856301" xlink:href="#mf2fb7b4344" y="335.195539"/>
     <use style="fill:#56b4e9;stroke:#56b4e9;" x="308.672836" xlink:href="#mf2fb7b4344" y="334.858396"/>
     <use style="fill:#56b4e9;stroke:#56b4e9;" x="309.489372" xlink:href="#mf2fb7b4344" y="334.520546"/>
     <use style="fill:#56b4e9;stroke:#56b4e9;" x="310.305907" xlink:href="#mf2fb7b4344" y="334.181997"/>
     <use style="fill:#56b4e9;stroke:#56b4e9;" x="311.122443" xlink:href="#mf2fb7b4344" y="333.842751"/>
     <use style="fill:#56b4e9;stroke:#56b4e9;" x="311.938979" xlink:href="#mf2fb7b4344" y="333.502807"/>
     <use style="fill:#56b4e9;stroke:#56b4e9;" x="312.755514" xlink:href="#mf2fb7b4344" y="333.162161"/>
     <use style="fill:#56b4e9;stroke:#56b4e9;" x="313.57205" xlink:href="#mf2fb7b4344" y="332.820815"/>
     <use style="fill:#56b4e9;stroke:#56b4e9;" x="314.388585" xlink:href="#mf2fb7b4344" y="332.478784"/>
     <use style="fill:#56b4e9;stroke:#56b4e9;" x="315.205121" xlink:href="#mf2fb7b4344" y="332.136081"/>
     <use style="fill:#56b4e9;stroke:#56b4e9;" x="316.021656" xlink:href="#mf2fb7b4344" y="331.792717"/>
     <use style="fill:#56b4e9;stroke:#56b4e9;" x="316.838192" xlink:href="#mf2fb7b4344" y="331.448699"/>
     <use style="fill:#56b4e9;stroke:#56b4e9;" x="317.654727" xlink:href="#mf2fb7b4344" y="331.10403"/>
     <use style="fill:#56b4e9;stroke:#56b4e9;" x="318.471263" xlink:href="#mf2fb7b4344" y="330.758706"/>
     <use style="fill:#56b4e9;stroke:#56b4e9;" x="319.287798" xlink:href="#mf2fb7b4344" y="330.412723"/>
     <use style="fill:#56b4e9;stroke:#56b4e9;" x="320.104334" xlink:href="#mf2fb7b4344" y="330.066071"/>
     <use style="fill:#56b4e9;stroke:#56b4e9;" x="320.920869" xlink:href="#mf2fb7b4344" y="329.718743"/>
     <use style="fill:#56b4e9;stroke:#56b4e9;" x="321.737405" xlink:href="#mf2fb7b4344" y="329.370732"/>
     <use style="fill:#56b4e9;stroke:#56b4e9;" x="322.55394" xlink:href="#mf2fb7b4344" y="329.022028"/>
     <use style="fill:#56b4e9;stroke:#56b4e9;" x="323.370476" xlink:href="#mf2fb7b4344" y="328.67262"/>
     <use style="fill:#56b4e9;stroke:#56b4e9;" x="324.187012" xlink:href="#mf2fb7b4344" y="328.322494"/>
     <use style="fill:#56b4e9;stroke:#56b4e9;" x="325.003547" xlink:href="#mf2fb7b4344" y="327.971642"/>
     <use style="fill:#56b4e9;stroke:#56b4e9;" x="325.820083" xlink:href="#mf2fb7b4344" y="327.620062"/>
     <use style="fill:#56b4e9;stroke:#56b4e9;" x="326.636618" xlink:href="#mf2fb7b4344" y="327.267757"/>
     <use style="fill:#56b4e9;stroke:#56b4e9;" x="327.453154" xlink:href="#mf2fb7b4344" y="326.914736"/>
     <use style="fill:#56b4e9;stroke:#56b4e9;" x="328.269689" xlink:href="#mf2fb7b4344" y="326.561012"/>
     <use style="fill:#56b4e9;stroke:#56b4e9;" x="329.086225" xlink:href="#mf2fb7b4344" y="326.206602"/>
     <use style="fill:#56b4e9;stroke:#56b4e9;" x="329.90276" xlink:href="#mf2fb7b4344" y="325.851515"/>
     <use style="fill:#56b4e9;stroke:#56b4e9;" x="330.719296" xlink:href="#mf2fb7b4344" y="325.495758"/>
     <use style="fill:#56b4e9;stroke:#56b4e9;" x="331.535831" xlink:href="#mf2fb7b4344" y="325.139331"/>
     <use style="fill:#56b4e9;stroke:#56b4e9;" x="332.352367" xlink:href="#mf2fb7b4344" y="324.782234"/>
     <use style="fill:#56b4e9;stroke:#56b4e9;" x="333.168902" xlink:href="#mf2fb7b4344" y="324.424461"/>
     <use style="fill:#56b4e9;stroke:#56b4e9;" x="333.985438" xlink:href="#mf2fb7b4344" y="324.066"/>
     <use style="fill:#56b4e9;stroke:#56b4e9;" x="334.801974" xlink:href="#mf2fb7b4344" y="323.706829"/>
     <use style="fill:#56b4e9;stroke:#56b4e9;" x="335.618509" xlink:href="#mf2fb7b4344" y="323.346938"/>
     <use style="fill:#56b4e9;stroke:#56b4e9;" x="336.435045" xlink:href="#mf2fb7b4344" y="322.986321"/>
     <use style="fill:#56b4e9;stroke:#56b4e9;" x="337.25158" xlink:href="#mf2fb7b4344" y="322.624975"/>
     <use style="fill:#56b4e9;stroke:#56b4e9;" x="338.068116" xlink:href="#mf2fb7b4344" y="322.262905"/>
     <use style="fill:#56b4e9;stroke:#56b4e9;" x="338.884651" xlink:href="#mf2fb7b4344" y="321.90012"/>
     <use style="fill:#56b4e9;stroke:#56b4e9;" x="339.701187" xlink:href="#mf2fb7b4344" y="321.536627"/>
     <use style="fill:#56b4e9;stroke:#56b4e9;" x="340.517722" xlink:href="#mf2fb7b4344" y="321.172437"/>
     <use style="fill:#56b4e9;stroke:#56b4e9;" x="341.334258" xlink:href="#mf2fb7b4344" y="320.807561"/>
     <use style="fill:#56b4e9;stroke:#56b4e9;" x="342.150793" xlink:href="#mf2fb7b4344" y="320.442008"/>
     <use style="fill:#56b4e9;stroke:#56b4e9;" x="342.967329" xlink:href="#mf2fb7b4344" y="320.075785"/>
     <use style="fill:#56b4e9;stroke:#56b4e9;" x="343.783864" xlink:href="#mf2fb7b4344" y="319.7089"/>
     <use style="fill:#56b4e9;stroke:#56b4e9;" x="344.6004" xlink:href="#mf2fb7b4344" y="319.34136"/>
     <use style="fill:#56b4e9;stroke:#56b4e9;" x="345.416936" xlink:href="#mf2fb7b4344" y="318.973169"/>
     <use style="fill:#56b4e9;stroke:#56b4e9;" x="346.233471" xlink:href="#mf2fb7b4344" y="318.604331"/>
     <use style="fill:#56b4e9;stroke:#56b4e9;" x="347.050007" xlink:href="#mf2fb7b4344" y="318.234847"/>
     <use style="fill:#56b4e9;stroke:#56b4e9;" x="347.866542" xlink:href="#mf2fb7b4344" y="317.864715"/>
     <use style="fill:#56b4e9;stroke:#56b4e9;" x="348.683078" xlink:href="#mf2fb7b4344" y="317.493937"/>
     <use style="fill:#56b4e9;stroke:#56b4e9;" x="349.499613" xlink:href="#mf2fb7b4344" y="317.122514"/>
     <use style="fill:#56b4e9;stroke:#56b4e9;" x="350.316149" xlink:href="#mf2fb7b4344" y="316.750453"/>
     <use style="fill:#56b4e9;stroke:#56b4e9;" x="351.132684" xlink:href="#mf2fb7b4344" y="316.377759"/>
     <use style="fill:#56b4e9;stroke:#56b4e9;" x="351.94922" xlink:href="#mf2fb7b4344" y="316.004444"/>
     <use style="fill:#56b4e9;stroke:#56b4e9;" x="352.765755" xlink:href="#mf2fb7b4344" y="315.630522"/>
     <use style="fill:#56b4e9;stroke:#56b4e9;" x="353.582291" xlink:href="#mf2fb7b4344" y="315.25601"/>
     <use style="fill:#56b4e9;stroke:#56b4e9;" x="354.398826" xlink:href="#mf2fb7b4344" y="314.880916"/>
     <use style="fill:#56b4e9;stroke:#56b4e9;" x="355.215362" xlink:href="#mf2fb7b4344" y="314.505243"/>
     <use style="fill:#56b4e9;stroke:#56b4e9;" x="356.031898" xlink:href="#mf2fb7b4344" y="314.128991"/>
     <use style="fill:#56b4e9;stroke:#56b4e9;" x="356.848433" xlink:href="#mf2fb7b4344" y="313.752163"/>
     <use style="fill:#56b4e9;stroke:#56b4e9;" x="357.664969" xlink:href="#mf2fb7b4344" y="313.374758"/>
     <use style="fill:#56b4e9;stroke:#56b4e9;" x="358.481504" xlink:href="#mf2fb7b4344" y="312.996779"/>
     <use style="fill:#56b4e9;stroke:#56b4e9;" x="359.29804" xlink:href="#mf2fb7b4344" y="312.61822"/>
     <use style="fill:#56b4e9;stroke:#56b4e9;" x="360.114575" xlink:href="#mf2fb7b4344" y="312.239083"/>
     <use style="fill:#56b4e9;stroke:#56b4e9;" x="360.931111" xlink:href="#mf2fb7b4344" y="311.859377"/>
     <use style="fill:#56b4e9;stroke:#56b4e9;" x="361.747646" xlink:href="#mf2fb7b4344" y="311.479127"/>
     <use style="fill:#56b4e9;stroke:#56b4e9;" x="362.564182" xlink:href="#mf2fb7b4344" y="311.098361"/>
     <use style="fill:#56b4e9;stroke:#56b4e9;" x="363.380717" xlink:href="#mf2fb7b4344" y="310.717107"/>
     <use style="fill:#56b4e9;stroke:#56b4e9;" x="364.197253" xlink:href="#mf2fb7b4344" y="310.335387"/>
     <use style="fill:#56b4e9;stroke:#56b4e9;" x="365.013788" xlink:href="#mf2fb7b4344" y="309.953217"/>
     <use style="fill:#56b4e9;stroke:#56b4e9;" x="365.830324" xlink:href="#mf2fb7b4344" y="309.570606"/>
     <use style="fill:#56b4e9;stroke:#56b4e9;" x="366.64686" xlink:href="#mf2fb7b4344" y="309.187561"/>
     <use style="fill:#56b4e9;stroke:#56b4e9;" x="367.463395" xlink:href="#mf2fb7b4344" y="308.80409"/>
     <use style="fill:#56b4e9;stroke:#56b4e9;" x="368.279931" xlink:href="#mf2fb7b4344" y="308.420202"/>
     <use style="fill:#56b4e9;stroke:#56b4e9;" x="369.096466" xlink:href="#mf2fb7b4344" y="308.035902"/>
     <use style="fill:#56b4e9;stroke:#56b4e9;" x="369.913002" xlink:href="#mf2fb7b4344" y="307.651202"/>
     <use style="fill:#56b4e9;stroke:#56b4e9;" x="370.729537" xlink:href="#mf2fb7b4344" y="307.266114"/>
     <use style="fill:#56b4e9;stroke:#56b4e9;" x="371.546073" xlink:href="#mf2fb7b4344" y="306.880658"/>
     <use style="fill:#56b4e9;stroke:#56b4e9;" x="372.362608" xlink:href="#mf2fb7b4344" y="306.494858"/>
     <use style="fill:#56b4e9;stroke:#56b4e9;" x="373.179144" xlink:href="#mf2fb7b4344" y="306.108736"/>
     <use style="fill:#56b4e9;stroke:#56b4e9;" x="373.995679" xlink:href="#mf2fb7b4344" y="305.722305"/>
     <use style="fill:#56b4e9;stroke:#56b4e9;" x="374.812215" xlink:href="#mf2fb7b4344" y="305.335576"/>
     <use style="fill:#56b4e9;stroke:#56b4e9;" x="375.62875" xlink:href="#mf2fb7b4344" y="304.94855"/>
     <use style="fill:#56b4e9;stroke:#56b4e9;" x="376.445286" xlink:href="#mf2fb7b4344" y="304.561229"/>
     <use style="fill:#56b4e9;stroke:#56b4e9;" x="377.261821" xlink:href="#mf2fb7b4344" y="304.173611"/>
     <use style="fill:#56b4e9;stroke:#56b4e9;" x="378.078357" xlink:href="#mf2fb7b4344" y="303.785693"/>
     <use style="fill:#56b4e9;stroke:#56b4e9;" x="378.894893" xlink:href="#mf2fb7b4344" y="303.397474"/>
     <use style="fill:#56b4e9;stroke:#56b4e9;" x="379.711428" xlink:href="#mf2fb7b4344" y="303.008957"/>
     <use style="fill:#56b4e9;stroke:#56b4e9;" x="380.527964" xlink:href="#mf2fb7b4344" y="302.620145"/>
     <use style="fill:#56b4e9;stroke:#56b4e9;" x="381.344499" xlink:href="#mf2fb7b4344" y="302.23105"/>
     <use style="fill:#56b4e9;stroke:#56b4e9;" x="382.161035" xlink:href="#mf2fb7b4344" y="301.841686"/>
     <use style="fill:#56b4e9;stroke:#56b4e9;" x="382.97757" xlink:href="#mf2fb7b4344" y="301.45207"/>
     <use style="fill:#56b4e9;stroke:#56b4e9;" x="383.794106" xlink:href="#mf2fb7b4344" y="301.062216"/>
     <use style="fill:#56b4e9;stroke:#56b4e9;" x="384.610641" xlink:href="#mf2fb7b4344" y="300.672145"/>
     <use style="fill:#56b4e9;stroke:#56b4e9;" x="385.427177" xlink:href="#mf2fb7b4344" y="300.281878"/>
     <use style="fill:#56b4e9;stroke:#56b4e9;" x="386.243712" xlink:href="#mf2fb7b4344" y="299.891427"/>
     <use style="fill:#56b4e9;stroke:#56b4e9;" x="387.060248" xlink:href="#mf2fb7b4344" y="299.500796"/>
     <use style="fill:#56b4e9;stroke:#56b4e9;" x="387.876783" xlink:href="#mf2fb7b4344" y="299.109984"/>
     <use style="fill:#56b4e9;stroke:#56b4e9;" x="388.693319" xlink:href="#mf2fb7b4344" y="298.718993"/>
     <use style="fill:#56b4e9;stroke:#56b4e9;" x="389.509855" xlink:href="#mf2fb7b4344" y="298.327823"/>
     <use style="fill:#56b4e9;stroke:#56b4e9;" x="390.32639" xlink:href="#mf2fb7b4344" y="297.936475"/>
     <use style="fill:#56b4e9;stroke:#56b4e9;" x="391.142926" xlink:href="#mf2fb7b4344" y="297.544943"/>
     <use style="fill:#56b4e9;stroke:#56b4e9;" x="391.959461" xlink:href="#mf2fb7b4344" y="297.153223"/>
     <use style="fill:#56b4e9;stroke:#56b4e9;" x="392.775997" xlink:href="#mf2fb7b4344" y="296.761317"/>
     <use style="fill:#56b4e9;stroke:#56b4e9;" x="393.592532" xlink:href="#mf2fb7b4344" y="296.369216"/>
     <use style="fill:#56b4e9;stroke:#56b4e9;" x="394.409068" xlink:href="#mf2fb7b4344" y="295.976901"/>
     <use style="fill:#56b4e9;stroke:#56b4e9;" x="395.225603" xlink:href="#mf2fb7b4344" y="295.584344"/>
     <use style="fill:#56b4e9;stroke:#56b4e9;" x="396.042139" xlink:href="#mf2fb7b4344" y="295.191518"/>
     <use style="fill:#56b4e9;stroke:#56b4e9;" x="396.858674" xlink:href="#mf2fb7b4344" y="294.798408"/>
     <use style="fill:#56b4e9;stroke:#56b4e9;" x="397.67521" xlink:href="#mf2fb7b4344" y="294.405005"/>
     <use style="fill:#56b4e9;stroke:#56b4e9;" x="398.491745" xlink:href="#mf2fb7b4344" y="294.011306"/>
     <use style="fill:#56b4e9;stroke:#56b4e9;" x="399.308281" xlink:href="#mf2fb7b4344" y="293.617311"/>
     <use style="fill:#56b4e9;stroke:#56b4e9;" x="400.124817" xlink:href="#mf2fb7b4344" y="293.223018"/>
     <use style="fill:#56b4e9;stroke:#56b4e9;" x="400.941352" xlink:href="#mf2fb7b4344" y="292.828429"/>
     <use style="fill:#56b4e9;stroke:#56b4e9;" x="401.757888" xlink:href="#mf2fb7b4344" y="292.433548"/>
     <use style="fill:#56b4e9;stroke:#56b4e9;" x="402.574423" xlink:href="#mf2fb7b4344" y="292.038376"/>
     <use style="fill:#56b4e9;stroke:#56b4e9;" x="403.390959" xlink:href="#mf2fb7b4344" y="291.642909"/>
     <use style="fill:#56b4e9;stroke:#56b4e9;" x="404.207494" xlink:href="#mf2fb7b4344" y="291.24714"/>
     <use style="fill:#56b4e9;stroke:#56b4e9;" x="405.02403" xlink:href="#mf2fb7b4344" y="290.851064"/>
     <use style="fill:#56b4e9;stroke:#56b4e9;" x="405.840565" xlink:href="#mf2fb7b4344" y="290.454679"/>
     <use style="fill:#56b4e9;stroke:#56b4e9;" x="406.657101" xlink:href="#mf2fb7b4344" y="290.057985"/>
     <use style="fill:#56b4e9;stroke:#56b4e9;" x="407.473636" xlink:href="#mf2fb7b4344" y="289.660981"/>
     <use style="fill:#56b4e9;stroke:#56b4e9;" x="408.290172" xlink:href="#mf2fb7b4344" y="289.263665"/>
     <use style="fill:#56b4e9;stroke:#56b4e9;" x="409.106707" xlink:href="#mf2fb7b4344" y="288.866038"/>
     <use style="fill:#56b4e9;stroke:#56b4e9;" x="409.923243" xlink:href="#mf2fb7b4344" y="288.468103"/>
     <use style="fill:#56b4e9;stroke:#56b4e9;" x="410.739779" xlink:href="#mf2fb7b4344" y="288.069872"/>
     <use style="fill:#56b4e9;stroke:#56b4e9;" x="411.556314" xlink:href="#mf2fb7b4344" y="287.671365"/>
     <use style="fill:#56b4e9;stroke:#56b4e9;" x="412.37285" xlink:href="#mf2fb7b4344" y="287.272606"/>
     <use style="fill:#56b4e9;stroke:#56b4e9;" x="413.189385" xlink:href="#mf2fb7b4344" y="286.873615"/>
     <use style="fill:#56b4e9;stroke:#56b4e9;" x="414.005921" xlink:href="#mf2fb7b4344" y="286.474415"/>
     <use style="fill:#56b4e9;stroke:#56b4e9;" x="414.822456" xlink:href="#mf2fb7b4344" y="286.075031"/>
     <use style="fill:#56b4e9;stroke:#56b4e9;" x="415.638992" xlink:href="#mf2fb7b4344" y="285.675487"/>
     <use style="fill:#56b4e9;stroke:#56b4e9;" x="416.455527" xlink:href="#mf2fb7b4344" y="285.275798"/>
     <use style="fill:#56b4e9;stroke:#56b4e9;" x="417.272063" xlink:href="#mf2fb7b4344" y="284.87597"/>
     <use style="fill:#56b4e9;stroke:#56b4e9;" x="418.088598" xlink:href="#mf2fb7b4344" y="284.476015"/>
     <use style="fill:#56b4e9;stroke:#56b4e9;" x="418.905134" xlink:href="#mf2fb7b4344" y="284.075949"/>
     <use style="fill:#56b4e9;stroke:#56b4e9;" x="419.721669" xlink:href="#mf2fb7b4344" y="283.675785"/>
     <use style="fill:#56b4e9;stroke:#56b4e9;" x="420.538205" xlink:href="#mf2fb7b4344" y="283.275529"/>
     <use style="fill:#56b4e9;stroke:#56b4e9;" x="421.35474" xlink:href="#mf2fb7b4344" y="282.87518"/>
     <use style="fill:#56b4e9;stroke:#56b4e9;" x="422.171276" xlink:href="#mf2fb7b4344" y="282.474733"/>
     <use style="fill:#56b4e9;stroke:#56b4e9;" x="422.987812" xlink:href="#mf2fb7b4344" y="282.074182"/>
     <use style="fill:#56b4e9;stroke:#56b4e9;" x="423.804347" xlink:href="#mf2fb7b4344" y="281.673523"/>
     <use style="fill:#56b4e9;stroke:#56b4e9;" x="424.620883" xlink:href="#mf2fb7b4344" y="281.272749"/>
     <use style="fill:#56b4e9;stroke:#56b4e9;" x="425.437418" xlink:href="#mf2fb7b4344" y="280.87185"/>
     <use style="fill:#56b4e9;stroke:#56b4e9;" x="426.253954" xlink:href="#mf2fb7b4344" y="280.470815"/>
     <use style="fill:#56b4e9;stroke:#56b4e9;" x="427.070489" xlink:href="#mf2fb7b4344" y="280.069639"/>
     <use style="fill:#56b4e9;stroke:#56b4e9;" x="427.887025" xlink:href="#mf2fb7b4344" y="279.668315"/>
     <use style="fill:#56b4e9;stroke:#56b4e9;" x="428.70356" xlink:href="#mf2fb7b4344" y="279.266831"/>
     <use style="fill:#56b4e9;stroke:#56b4e9;" x="429.520096" xlink:href="#mf2fb7b4344" y="278.865173"/>
     <use style="fill:#56b4e9;stroke:#56b4e9;" x="430.336631" xlink:href="#mf2fb7b4344" y="278.463321"/>
     <use style="fill:#56b4e9;stroke:#56b4e9;" x="431.153167" xlink:href="#mf2fb7b4344" y="278.061265"/>
     <use style="fill:#56b4e9;stroke:#56b4e9;" x="431.969702" xlink:href="#mf2fb7b4344" y="277.659003"/>
     <use style="fill:#56b4e9;stroke:#56b4e9;" x="432.786238" xlink:href="#mf2fb7b4344" y="277.256552"/>
     <use style="fill:#56b4e9;stroke:#56b4e9;" x="433.602774" xlink:href="#mf2fb7b4344" y="276.853938"/>
     <use style="fill:#56b4e9;stroke:#56b4e9;" x="434.419309" xlink:href="#mf2fb7b4344" y="276.451192"/>
     <use style="fill:#56b4e9;stroke:#56b4e9;" x="435.235845" xlink:href="#mf2fb7b4344" y="276.04833"/>
     <use style="fill:#56b4e9;stroke:#56b4e9;" x="436.05238" xlink:href="#mf2fb7b4344" y="275.645351"/>
     <use style="fill:#56b4e9;stroke:#56b4e9;" x="436.868916" xlink:href="#mf2fb7b4344" y="275.242249"/>
     <use style="fill:#56b4e9;stroke:#56b4e9;" x="437.685451" xlink:href="#mf2fb7b4344" y="274.839023"/>
     <use style="fill:#56b4e9;stroke:#56b4e9;" x="438.501987" xlink:href="#mf2fb7b4344" y="274.43568"/>
     <use style="fill:#56b4e9;stroke:#56b4e9;" x="439.318522" xlink:href="#mf2fb7b4344" y="274.032223"/>
     <use style="fill:#56b4e9;stroke:#56b4e9;" x="440.135058" xlink:href="#mf2fb7b4344" y="273.62866"/>
     <use style="fill:#56b4e9;stroke:#56b4e9;" x="440.951593" xlink:href="#mf2fb7b4344" y="273.224996"/>
     <use style="fill:#56b4e9;stroke:#56b4e9;" x="441.768129" xlink:href="#mf2fb7b4344" y="272.821234"/>
     <use style="fill:#56b4e9;stroke:#56b4e9;" x="442.584664" xlink:href="#mf2fb7b4344" y="272.417371"/>
     <use style="fill:#56b4e9;stroke:#56b4e9;" x="443.4012" xlink:href="#mf2fb7b4344" y="272.013399"/>
     <use style="fill:#56b4e9;stroke:#56b4e9;" x="444.217736" xlink:href="#mf2fb7b4344" y="271.609302"/>
     <use style="fill:#56b4e9;stroke:#56b4e9;" x="445.034271" xlink:href="#mf2fb7b4344" y="271.20506"/>
     <use style="fill:#56b4e9;stroke:#56b4e9;" x="445.850807" xlink:href="#mf2fb7b4344" y="270.800661"/>
     <use style="fill:#56b4e9;stroke:#56b4e9;" x="446.667342" xlink:href="#mf2fb7b4344" y="270.3961"/>
     <use style="fill:#56b4e9;stroke:#56b4e9;" x="447.483878" xlink:href="#mf2fb7b4344" y="269.991382"/>
     <use style="fill:#56b4e9;stroke:#56b4e9;" x="448.300413" xlink:href="#mf2fb7b4344" y="269.58651"/>
     <use style="fill:#56b4e9;stroke:#56b4e9;" x="449.116949" xlink:href="#mf2fb7b4344" y="269.181468"/>
     <use style="fill:#56b4e9;stroke:#56b4e9;" x="449.933484" xlink:href="#mf2fb7b4344" y="268.77622"/>
     <use style="fill:#56b4e9;stroke:#56b4e9;" x="450.75002" xlink:href="#mf2fb7b4344" y="268.370729"/>
     <use style="fill:#56b4e9;stroke:#56b4e9;" x="451.566555" xlink:href="#mf2fb7b4344" y="267.964972"/>
     <use style="fill:#56b4e9;stroke:#56b4e9;" x="452.383091" xlink:href="#mf2fb7b4344" y="267.558936"/>
     <use style="fill:#56b4e9;stroke:#56b4e9;" x="453.199626" xlink:href="#mf2fb7b4344" y="267.152605"/>
     <use style="fill:#56b4e9;stroke:#56b4e9;" x="454.016162" xlink:href="#mf2fb7b4344" y="266.745968"/>
     <use style="fill:#56b4e9;stroke:#56b4e9;" x="454.832698" xlink:href="#mf2fb7b4344" y="266.339014"/>
     <use style="fill:#56b4e9;stroke:#56b4e9;" x="455.649233" xlink:href="#mf2fb7b4344" y="265.931747"/>
     <use style="fill:#56b4e9;stroke:#56b4e9;" x="456.465769" xlink:href="#mf2fb7b4344" y="265.524179"/>
     <use style="fill:#56b4e9;stroke:#56b4e9;" x="457.282304" xlink:href="#mf2fb7b4344" y="265.11634"/>
     <use style="fill:#56b4e9;stroke:#56b4e9;" x="458.09884" xlink:href="#mf2fb7b4344" y="264.708268"/>
     <use style="fill:#56b4e9;stroke:#56b4e9;" x="458.915375" xlink:href="#mf2fb7b4344" y="264.299995"/>
     <use style="fill:#56b4e9;stroke:#56b4e9;" x="459.731911" xlink:href="#mf2fb7b4344" y="263.891553"/>
     <use style="fill:#56b4e9;stroke:#56b4e9;" x="460.548446" xlink:href="#mf2fb7b4344" y="263.482974"/>
     <use style="fill:#56b4e9;stroke:#56b4e9;" x="461.364982" xlink:href="#mf2fb7b4344" y="263.074291"/>
     <use style="fill:#56b4e9;stroke:#56b4e9;" x="462.181517" xlink:href="#mf2fb7b4344" y="262.665537"/>
     <use style="fill:#56b4e9;stroke:#56b4e9;" x="462.998053" xlink:href="#mf2fb7b4344" y="262.256736"/>
     <use style="fill:#56b4e9;stroke:#56b4e9;" x="463.814588" xlink:href="#mf2fb7b4344" y="261.847907"/>
     <use style="fill:#56b4e9;stroke:#56b4e9;" x="464.631124" xlink:href="#mf2fb7b4344" y="261.439073"/>
     <use style="fill:#56b4e9;stroke:#56b4e9;" x="465.44766" xlink:href="#mf2fb7b4344" y="261.030266"/>
     <use style="fill:#56b4e9;stroke:#56b4e9;" x="466.264195" xlink:href="#mf2fb7b4344" y="260.621506"/>
     <use style="fill:#56b4e9;stroke:#56b4e9;" x="467.080731" xlink:href="#mf2fb7b4344" y="260.212794"/>
     <use style="fill:#56b4e9;stroke:#56b4e9;" x="467.897266" xlink:href="#mf2fb7b4344" y="259.804135"/>
     <use style="fill:#56b4e9;stroke:#56b4e9;" x="468.713802" xlink:href="#mf2fb7b4344" y="259.395528"/>
     <use style="fill:#56b4e9;stroke:#56b4e9;" x="469.530337" xlink:href="#mf2fb7b4344" y="258.986976"/>
     <use style="fill:#56b4e9;stroke:#56b4e9;" x="470.346873" xlink:href="#mf2fb7b4344" y="258.578481"/>
     <use style="fill:#56b4e9;stroke:#56b4e9;" x="471.163408" xlink:href="#mf2fb7b4344" y="258.170042"/>
     <use style="fill:#56b4e9;stroke:#56b4e9;" x="471.979944" xlink:href="#mf2fb7b4344" y="257.761657"/>
     <use style="fill:#56b4e9;stroke:#56b4e9;" x="472.796479" xlink:href="#mf2fb7b4344" y="257.353327"/>
     <use style="fill:#56b4e9;stroke:#56b4e9;" x="473.613015" xlink:href="#mf2fb7b4344" y="256.945057"/>
     <use style="fill:#56b4e9;stroke:#56b4e9;" x="474.42955" xlink:href="#mf2fb7b4344" y="256.536862"/>
     <use style="fill:#56b4e9;stroke:#56b4e9;" x="475.246086" xlink:href="#mf2fb7b4344" y="256.128764"/>
     <use style="fill:#56b4e9;stroke:#56b4e9;" x="476.062621" xlink:href="#mf2fb7b4344" y="255.720781"/>
     <use style="fill:#56b4e9;stroke:#56b4e9;" x="476.879157" xlink:href="#mf2fb7b4344" y="255.312927"/>
     <use style="fill:#56b4e9;stroke:#56b4e9;" x="477.695693" xlink:href="#mf2fb7b4344" y="254.905204"/>
     <use style="fill:#56b4e9;stroke:#56b4e9;" x="478.512228" xlink:href="#mf2fb7b4344" y="254.497614"/>
     <use style="fill:#56b4e9;stroke:#56b4e9;" x="479.328764" xlink:href="#mf2fb7b4344" y="254.090153"/>
     <use style="fill:#56b4e9;stroke:#56b4e9;" x="480.145299" xlink:href="#mf2fb7b4344" y="253.682817"/>
     <use style="fill:#56b4e9;stroke:#56b4e9;" x="480.961835" xlink:href="#mf2fb7b4344" y="253.275596"/>
     <use style="fill:#56b4e9;stroke:#56b4e9;" x="481.77837" xlink:href="#mf2fb7b4344" y="252.86847"/>
     <use style="fill:#56b4e9;stroke:#56b4e9;" x="482.594906" xlink:href="#mf2fb7b4344" y="252.461416"/>
     <use style="fill:#56b4e9;stroke:#56b4e9;" x="483.411441" xlink:href="#mf2fb7b4344" y="252.054409"/>
     <use style="fill:#56b4e9;stroke:#56b4e9;" x="484.227977" xlink:href="#mf2fb7b4344" y="251.647425"/>
     <use style="fill:#56b4e9;stroke:#56b4e9;" x="485.044512" xlink:href="#mf2fb7b4344" y="251.240441"/>
     <use style="fill:#56b4e9;stroke:#56b4e9;" x="485.861048" xlink:href="#mf2fb7b4344" y="250.833436"/>
     <use style="fill:#56b4e9;stroke:#56b4e9;" x="486.677583" xlink:href="#mf2fb7b4344" y="250.426389"/>
     <use style="fill:#56b4e9;stroke:#56b4e9;" x="487.494119" xlink:href="#mf2fb7b4344" y="250.019283"/>
     <use style="fill:#56b4e9;stroke:#56b4e9;" x="488.310655" xlink:href="#mf2fb7b4344" y="249.612103"/>
     <use style="fill:#56b4e9;stroke:#56b4e9;" x="489.12719" xlink:href="#mf2fb7b4344" y="249.204835"/>
     <use style="fill:#56b4e9;stroke:#56b4e9;" x="489.943726" xlink:href="#mf2fb7b4344" y="248.797464"/>
     <use style="fill:#56b4e9;stroke:#56b4e9;" x="490.760261" xlink:href="#mf2fb7b4344" y="248.389977"/>
     <use style="fill:#56b4e9;stroke:#56b4e9;" x="491.576797" xlink:href="#mf2fb7b4344" y="247.982362"/>
     <use style="fill:#56b4e9;stroke:#56b4e9;" x="492.393332" xlink:href="#mf2fb7b4344" y="247.574606"/>
     <use style="fill:#56b4e9;stroke:#56b4e9;" x="493.209868" xlink:href="#mf2fb7b4344" y="247.166696"/>
     <use style="fill:#56b4e9;stroke:#56b4e9;" x="494.026403" xlink:href="#mf2fb7b4344" y="246.758619"/>
     <use style="fill:#56b4e9;stroke:#56b4e9;" x="494.842939" xlink:href="#mf2fb7b4344" y="246.350371"/>
     <use style="fill:#56b4e9;stroke:#56b4e9;" x="495.659474" xlink:href="#mf2fb7b4344" y="245.941949"/>
     <use style="fill:#56b4e9;stroke:#56b4e9;" x="496.47601" xlink:href="#mf2fb7b4344" y="245.533352"/>
     <use style="fill:#56b4e9;stroke:#56b4e9;" x="497.292545" xlink:href="#mf2fb7b4344" y="245.124576"/>
     <use style="fill:#56b4e9;stroke:#56b4e9;" x="498.109081" xlink:href="#mf2fb7b4344" y="244.715619"/>
    </g>
   </g>
   <g id="line2d_13">
    <path clip-path="url(#p13982ed409)" d="M 92.290919 393.324023 
L 99.639739 393.135301 
L 106.988559 392.739602 
L 114.337379 392.136926 
L 121.686198 391.327274 
L 129.035018 390.310645 
L 136.383838 389.087039 
L 143.732658 387.656456 
L 151.081478 386.018896 
L 158.430298 384.17436 
L 166.595653 381.882124 
L 174.761008 379.334362 
L 182.926364 376.531072 
L 191.091719 373.472256 
L 199.257074 370.157912 
L 207.42243 366.588042 
L 215.587785 362.762645 
L 223.75314 358.681721 
L 231.918496 354.34527 
L 240.083851 349.753292 
L 248.249207 344.905787 
L 256.414562 339.802755 
L 264.579917 334.444197 
L 272.745273 328.830111 
L 280.910628 322.960499 
L 289.075983 316.835359 
L 297.241339 310.454693 
L 306.22323 303.140826 
L 315.205121 295.517772 
L 324.187012 287.58553 
L 333.168902 279.344101 
L 342.150793 270.793484 
L 351.132684 261.933679 
L 360.114575 252.764687 
L 369.096466 243.286507 
L 378.078357 233.49914 
L 387.060248 223.402585 
L 396.858674 212.035535 
L 406.657101 200.300525 
L 416.455527 188.197557 
L 426.253954 175.72663 
L 436.05238 162.887744 
L 445.850807 149.6809 
L 455.649233 136.106096 
L 465.44766 122.163334 
L 475.246086 107.852614 
L 485.044512 93.173934 
L 495.659474 76.8568 
L 498.109081 73.029981 
L 498.109081 73.029981 
" style="fill:none;stroke:#0173b2;stroke-linecap:round;stroke-width:1.5;"/>
   </g>
   <g id="line2d_14">
    <path clip-path="url(#p13982ed409)" d="M 92.290919 444.989596 
L 498.109081 244.911261 
L 498.109081 244.911261 
" style="fill:none;stroke:#cc78bc;stroke-linecap:round;stroke-width:1.5;"/>
   </g>
   <g id="patch_3">
    <path d="M 72 403.704 
L 72 54.432 
" style="fill:none;stroke:#ffffff;stroke-linecap:square;stroke-linejoin:miter;stroke-width:1.25;"/>
   </g>
   <g id="patch_4">
    <path d="M 518.4 403.704 
L 518.4 54.432 
" style="fill:none;stroke:#ffffff;stroke-linecap:square;stroke-linejoin:miter;stroke-width:1.25;"/>
   </g>
   <g id="patch_5">
    <path d="M 72 403.704 
L 518.4 403.704 
" style="fill:none;stroke:#ffffff;stroke-linecap:square;stroke-linejoin:miter;stroke-width:1.25;"/>
   </g>
   <g id="patch_6">
    <path d="M 72 54.432 
L 518.4 54.432 
" style="fill:none;stroke:#ffffff;stroke-linecap:square;stroke-linejoin:miter;stroke-width:1.25;"/>
   </g>
   <g id="text_15">
    <!-- Среднеквадратичное смещение в зависимости от времени -->
    <defs>
     <path d="M 64.40625 67.28125 
L 64.40625 56.890625 
Q 59.421875 61.53125 53.78125 63.8125 
Q 48.140625 66.109375 41.796875 66.109375 
Q 29.296875 66.109375 22.65625 58.46875 
Q 16.015625 50.828125 16.015625 36.375 
Q 16.015625 21.96875 22.65625 14.328125 
Q 29.296875 6.6875 41.796875 6.6875 
Q 48.140625 6.6875 53.78125 8.984375 
Q 59.421875 11.28125 64.40625 15.921875 
L 64.40625 5.609375 
Q 59.234375 2.09375 53.4375 0.328125 
Q 47.65625 -1.421875 41.21875 -1.421875 
Q 24.65625 -1.421875 15.125 8.703125 
Q 5.609375 18.84375 5.609375 36.375 
Q 5.609375 53.953125 15.125 64.078125 
Q 24.65625 74.21875 41.21875 74.21875 
Q 47.75 74.21875 53.53125 72.484375 
Q 59.328125 70.75 64.40625 67.28125 
z
" id="DejaVuSans-1057"/>
     <path d="M 21.625 7.171875 
L 47.703125 7.171875 
L 47.703125 47.515625 
L 28.8125 47.515625 
L 28.8125 40.671875 
Q 28.8125 20.5625 23.046875 9.8125 
z
M 8.59375 7.171875 
Q 13.03125 9.125 14.984375 13.28125 
Q 19.78125 23.578125 19.78125 44.34375 
L 19.78125 54.6875 
L 56.734375 54.6875 
L 56.734375 7.171875 
L 63.921875 7.171875 
L 63.921875 -13.8125 
L 56.734375 -13.8125 
L 56.734375 0 
L 12.40625 0 
L 12.40625 -13.8125 
L 5.21875 -13.8125 
L 5.21875 7.171875 
z
" id="DejaVuSans-1076"/>
     <path d="M 9.078125 54.6875 
L 18.109375 54.6875 
L 18.109375 32.375 
L 47.265625 32.375 
L 47.265625 54.6875 
L 56.296875 54.6875 
L 56.296875 0 
L 47.265625 0 
L 47.265625 25.203125 
L 18.109375 25.203125 
L 18.109375 0 
L 9.078125 0 
z
" id="DejaVuSans-1085"/>
     <path d="M 9.078125 54.6875 
L 18.015625 54.6875 
L 18.015625 29 
L 43.359375 54.6875 
L 54.390625 54.6875 
L 33.5 33.546875 
L 57.078125 0 
L 47.015625 0 
L 27.640625 27.59375 
L 18.015625 17.828125 
L 18.015625 0 
L 9.078125 0 
z
" id="DejaVuSans-1082"/>
     <path d="M 18.0625 25.203125 
L 18.0625 7.171875 
L 30.859375 7.171875 
Q 37.015625 7.171875 40.234375 9.484375 
Q 43.453125 11.8125 43.453125 16.21875 
Q 43.453125 20.609375 40.234375 22.90625 
Q 37.015625 25.203125 30.859375 25.203125 
z
M 18.0625 47.515625 
L 18.0625 32.375 
L 29.890625 32.375 
Q 34.96875 32.375 38.1875 34.390625 
Q 41.40625 36.421875 41.40625 40.046875 
Q 41.40625 43.65625 38.1875 45.578125 
Q 34.96875 47.515625 29.890625 47.515625 
z
M 9.078125 54.6875 
L 30.46875 54.6875 
Q 40.09375 54.6875 45.265625 51.171875 
Q 50.4375 47.65625 50.4375 41.15625 
Q 50.4375 36.140625 47.796875 33.171875 
Q 45.171875 30.21875 39.984375 29.5 
Q 46.1875 28.328125 49.609375 24.609375 
Q 53.03125 20.90625 53.03125 15.328125 
Q 53.03125 8.015625 47.390625 4 
Q 41.75 0 31.296875 0 
L 9.078125 0 
z
" id="DejaVuSans-1074"/>
     <path d="M 34.28125 27.484375 
Q 23.390625 27.484375 19.1875 25 
Q 14.984375 22.515625 14.984375 16.5 
Q 14.984375 11.71875 18.140625 8.90625 
Q 21.296875 6.109375 26.703125 6.109375 
Q 34.1875 6.109375 38.703125 11.40625 
Q 43.21875 16.703125 43.21875 25.484375 
L 43.21875 27.484375 
z
M 52.203125 31.203125 
L 52.203125 0 
L 43.21875 0 
L 43.21875 8.296875 
Q 40.140625 3.328125 35.546875 0.953125 
Q 30.953125 -1.421875 24.3125 -1.421875 
Q 15.921875 -1.421875 10.953125 3.296875 
Q 6 8.015625 6 15.921875 
Q 6 25.140625 12.171875 29.828125 
Q 18.359375 34.515625 30.609375 34.515625 
L 43.21875 34.515625 
L 43.21875 35.40625 
Q 43.21875 41.609375 39.140625 45 
Q 35.0625 48.390625 27.6875 48.390625 
Q 23 48.390625 18.546875 47.265625 
Q 14.109375 46.140625 10.015625 43.890625 
L 10.015625 52.203125 
Q 14.9375 54.109375 19.578125 55.046875 
Q 24.21875 56 28.609375 56 
Q 40.484375 56 46.34375 49.84375 
Q 52.203125 43.703125 52.203125 31.203125 
z
" id="DejaVuSans-1072"/>
     <path d="M 2.9375 54.6875 
L 55.328125 54.6875 
L 55.328125 47.515625 
L 33.546875 47.515625 
L 33.546875 0 
L 24.703125 0 
L 24.703125 47.515625 
L 2.9375 47.515625 
z
" id="DejaVuSans-1090"/>
     <path d="M 55.90625 54.6875 
L 55.90625 0 
L 46.96875 0 
L 46.96875 43.890625 
L 20.609375 0 
L 9.078125 0 
L 9.078125 54.6875 
L 18.015625 54.6875 
L 18.015625 10.890625 
L 44.34375 54.6875 
z
" id="DejaVuSans-1080"/>
     <path d="M 41.015625 0 
L 41.015625 23 
L 24.265625 23 
Q 16.796875 23 11.8125 27.640625 
Q 7.328125 31.84375 7.328125 40.828125 
L 7.328125 54.6875 
L 16.3125 54.6875 
L 16.3125 41.65625 
Q 16.3125 35.9375 18.84375 33.0625 
Q 21.4375 30.171875 26.515625 30.171875 
L 41.015625 30.171875 
L 41.015625 54.6875 
L 50 54.6875 
L 50 0 
z
" id="DejaVuSans-1095"/>
     <path d="M 30.609375 48.390625 
Q 23.390625 48.390625 19.1875 42.75 
Q 14.984375 37.109375 14.984375 27.296875 
Q 14.984375 17.484375 19.15625 11.84375 
Q 23.34375 6.203125 30.609375 6.203125 
Q 37.796875 6.203125 41.984375 11.859375 
Q 46.1875 17.53125 46.1875 27.296875 
Q 46.1875 37.015625 41.984375 42.703125 
Q 37.796875 48.390625 30.609375 48.390625 
z
M 30.609375 56 
Q 42.328125 56 49.015625 48.375 
Q 55.71875 40.765625 55.71875 27.296875 
Q 55.71875 13.875 49.015625 6.21875 
Q 42.328125 -1.421875 30.609375 -1.421875 
Q 18.84375 -1.421875 12.171875 6.21875 
Q 5.515625 13.875 5.515625 27.296875 
Q 5.515625 40.765625 12.171875 48.375 
Q 18.84375 56 30.609375 56 
z
" id="DejaVuSans-1086"/>
     <path d="M 48.78125 52.59375 
L 48.78125 44.1875 
Q 44.96875 46.296875 41.140625 47.34375 
Q 37.3125 48.390625 33.40625 48.390625 
Q 24.65625 48.390625 19.8125 42.84375 
Q 14.984375 37.3125 14.984375 27.296875 
Q 14.984375 17.28125 19.8125 11.734375 
Q 24.65625 6.203125 33.40625 6.203125 
Q 37.3125 6.203125 41.140625 7.25 
Q 44.96875 8.296875 48.78125 10.40625 
L 48.78125 2.09375 
Q 45.015625 0.34375 40.984375 -0.53125 
Q 36.96875 -1.421875 32.421875 -1.421875 
Q 20.0625 -1.421875 12.78125 6.34375 
Q 5.515625 14.109375 5.515625 27.296875 
Q 5.515625 40.671875 12.859375 48.328125 
Q 20.21875 56 33.015625 56 
Q 37.15625 56 41.109375 55.140625 
Q 45.0625 54.296875 48.78125 52.59375 
z
" id="DejaVuSans-1089"/>
     <path d="M 82.421875 0 
L 9.078125 0 
L 9.078125 54.6875 
L 18.109375 54.6875 
L 18.109375 7.171875 
L 41.21875 7.171875 
L 41.21875 54.6875 
L 50.25 54.6875 
L 50.25 7.171875 
L 73.390625 7.171875 
L 73.390625 54.6875 
L 82.421875 54.6875 
L 82.421875 7.171875 
L 89.59375 7.171875 
L 89.59375 -13.8125 
L 82.421875 -13.8125 
z
" id="DejaVuSans-1097"/>
     <path d="M 34.46875 29.5 
Q 40.53125 28.328125 43.890625 24.75 
Q 47.265625 21.1875 47.265625 15.921875 
Q 47.265625 7.46875 40.96875 3.015625 
Q 34.671875 -1.421875 23.046875 -1.421875 
Q 19.140625 -1.421875 15.015625 -0.734375 
Q 10.890625 -0.046875 6.5 1.3125 
L 6.5 9.671875 
Q 9.96875 7.859375 14.109375 6.953125 
Q 18.265625 6.0625 22.796875 6.0625 
Q 30.171875 6.0625 34.296875 8.796875 
Q 38.421875 11.53125 38.421875 15.921875 
Q 38.421875 20.21875 34.765625 22.828125 
Q 31.109375 25.4375 24.421875 25.4375 
L 17.1875 25.4375 
L 17.1875 32.859375 
L 24.75 32.859375 
Q 30.421875 32.859375 33.71875 35.03125 
Q 37.015625 37.203125 37.015625 40.625 
Q 37.015625 43.75 33.609375 46 
Q 30.21875 48.25 24.421875 48.25 
Q 20.953125 48.25 17.015625 47.609375 
Q 13.09375 46.96875 8.34375 45.5625 
L 8.34375 53.71875 
Q 13.140625 54.890625 17.28125 55.46875 
Q 21.4375 56.0625 25.140625 56.0625 
Q 34.71875 56.0625 40.25 52.21875 
Q 45.796875 48.390625 45.796875 41.5 
Q 45.796875 36.96875 42.859375 33.8125 
Q 39.9375 30.671875 34.46875 29.5 
z
" id="DejaVuSans-1079"/>
    </defs>
    <g style="fill:#262626;" transform="translate(106.971563 48.432)scale(0.12 -0.12)">
     <use xlink:href="#DejaVuSans-1057"/>
     <use x="69.824219" xlink:href="#DejaVuSans-1088"/>
     <use x="133.300781" xlink:href="#DejaVuSans-1077"/>
     <use x="194.824219" xlink:href="#DejaVuSans-1076"/>
     <use x="263.964844" xlink:href="#DejaVuSans-1085"/>
     <use x="329.345703" xlink:href="#DejaVuSans-1077"/>
     <use x="390.869141" xlink:href="#DejaVuSans-1082"/>
     <use x="451.269531" xlink:href="#DejaVuSans-1074"/>
     <use x="510.205078" xlink:href="#DejaVuSans-1072"/>
     <use x="571.484375" xlink:href="#DejaVuSans-1076"/>
     <use x="640.625" xlink:href="#DejaVuSans-1088"/>
     <use x="704.101562" xlink:href="#DejaVuSans-1072"/>
     <use x="765.380859" xlink:href="#DejaVuSans-1090"/>
     <use x="823.632812" xlink:href="#DejaVuSans-1080"/>
     <use x="888.623047" xlink:href="#DejaVuSans-1095"/>
     <use x="947.705078" xlink:href="#DejaVuSans-1085"/>
     <use x="1013.085938" xlink:href="#DejaVuSans-1086"/>
     <use x="1074.267578" xlink:href="#DejaVuSans-1077"/>
     <use x="1135.791016" xlink:href="#DejaVuSans-32"/>
     <use x="1167.578125" xlink:href="#DejaVuSans-1089"/>
     <use x="1222.558594" xlink:href="#DejaVuSans-1084"/>
     <use x="1297.998047" xlink:href="#DejaVuSans-1077"/>
     <use x="1359.521484" xlink:href="#DejaVuSans-1097"/>
     <use x="1453.710938" xlink:href="#DejaVuSans-1077"/>
     <use x="1515.234375" xlink:href="#DejaVuSans-1085"/>
     <use x="1580.615234" xlink:href="#DejaVuSans-1080"/>
     <use x="1645.605469" xlink:href="#DejaVuSans-1077"/>
     <use x="1707.128906" xlink:href="#DejaVuSans-32"/>
     <use x="1738.916016" xlink:href="#DejaVuSans-1074"/>
     <use x="1797.851562" xlink:href="#DejaVuSans-32"/>
     <use x="1829.638672" xlink:href="#DejaVuSans-1079"/>
     <use x="1882.8125" xlink:href="#DejaVuSans-1072"/>
     <use x="1944.091797" xlink:href="#DejaVuSans-1074"/>
     <use x="2003.027344" xlink:href="#DejaVuSans-1080"/>
     <use x="2068.017578" xlink:href="#DejaVuSans-1089"/>
     <use x="2122.998047" xlink:href="#DejaVuSans-1080"/>
     <use x="2187.988281" xlink:href="#DejaVuSans-1084"/>
     <use x="2263.427734" xlink:href="#DejaVuSans-1086"/>
     <use x="2324.609375" xlink:href="#DejaVuSans-1089"/>
     <use x="2379.589844" xlink:href="#DejaVuSans-1090"/>
     <use x="2437.841797" xlink:href="#DejaVuSans-1080"/>
     <use x="2502.832031" xlink:href="#DejaVuSans-32"/>
     <use x="2534.619141" xlink:href="#DejaVuSans-1086"/>
     <use x="2595.800781" xlink:href="#DejaVuSans-1090"/>
     <use x="2654.052734" xlink:href="#DejaVuSans-32"/>
     <use x="2685.839844" xlink:href="#DejaVuSans-1074"/>
     <use x="2744.775391" xlink:href="#DejaVuSans-1088"/>
     <use x="2808.251953" xlink:href="#DejaVuSans-1077"/>
     <use x="2869.775391" xlink:href="#DejaVuSans-1084"/>
     <use x="2945.214844" xlink:href="#DejaVuSans-1077"/>
     <use x="3006.738281" xlink:href="#DejaVuSans-1085"/>
     <use x="3072.119141" xlink:href="#DejaVuSans-1080"/>
    </g>
   </g>
   <g id="legend_1">
    <g id="patch_7">
     <path d="M 79.7 95.711219 
L 268.667969 95.711219 
Q 270.867969 95.711219 270.867969 93.511219 
L 270.867969 62.132 
Q 270.867969 59.932 268.667969 59.932 
L 79.7 59.932 
Q 77.5 59.932 77.5 62.132 
L 77.5 93.511219 
Q 77.5 95.711219 79.7 95.711219 
z
" style="fill:#eaeaf2;opacity:0.8;stroke:#cccccc;stroke-linejoin:miter;"/>
    </g>
    <g id="line2d_15">
     <path d="M 81.9 69.027625 
L 103.9 69.027625 
" style="fill:none;stroke:#0173b2;stroke-linecap:round;stroke-width:1.5;"/>
    </g>
    <g id="line2d_16"/>
    <g id="text_16">
     <!-- Параболическая асимтота -->
     <defs>
      <path d="M 65.375 72.90625 
L 65.375 0 
L 55.515625 0 
L 55.515625 64.59375 
L 19.671875 64.59375 
L 19.671875 0 
L 9.8125 0 
L 9.8125 72.90625 
z
" id="DejaVuSans-1055"/>
      <path d="M 31.109375 56 
Q 42.828125 56 49.515625 48.375 
Q 56.203125 40.765625 56.203125 27.296875 
Q 56.203125 13.875 49.515625 6.21875 
Q 42.828125 -1.421875 31.109375 -1.421875 
Q 19.34375 -1.421875 12.84375 6 
Q 6.34375 13.421875 6 27.296875 
L 5.71875 38.484375 
Q 5.46875 44.28125 5.46875 46.296875 
Q 5.46875 54.109375 8.296875 59.859375 
Q 12.75 68.890625 20.4375 72.796875 
Q 28.125 76.703125 41.015625 76.8125 
Q 46.96875 76.859375 49.609375 77.6875 
L 52.09375 70.5625 
Q 49.703125 69.578125 47.515625 69.53125 
L 35.296875 68.703125 
Q 29.15625 68.265625 25.4375 66.109375 
Q 15.71875 60.40625 14.796875 52.9375 
L 14.453125 50.203125 
Q 20.796875 56 31.109375 56 
z
M 31.109375 48.390625 
Q 23.875 48.390625 19.671875 42.75 
Q 15.484375 37.109375 15.484375 27.296875 
Q 15.484375 17.484375 19.65625 11.84375 
Q 23.828125 6.203125 31.109375 6.203125 
Q 38.28125 6.203125 42.484375 11.859375 
Q 46.6875 17.53125 46.6875 27.296875 
Q 46.6875 37.015625 42.484375 42.703125 
Q 38.28125 48.390625 31.109375 48.390625 
z
" id="DejaVuSans-1073"/>
      <path d="M 3.71875 0 
L 3.71875 7.46875 
Q 12.59375 8.84375 15.328125 14.984375 
Q 18.65625 23.640625 18.65625 45.75 
L 18.65625 54.6875 
L 55.609375 54.6875 
L 55.609375 0 
L 46.625 0 
L 46.625 47.515625 
L 27.640625 47.515625 
L 27.640625 42.09375 
Q 27.640625 21 23.34375 11.53125 
Q 18.75 1.421875 3.71875 0 
z
" id="DejaVuSans-1083"/>
     </defs>
     <g style="fill:#262626;" transform="translate(112.7 72.877625)scale(0.11 -0.11)">
      <use xlink:href="#DejaVuSans-1055"/>
      <use x="75.195312" xlink:href="#DejaVuSans-1072"/>
      <use x="136.474609" xlink:href="#DejaVuSans-1088"/>
      <use x="199.951172" xlink:href="#DejaVuSans-1072"/>
      <use x="261.230469" xlink:href="#DejaVuSans-1073"/>
      <use x="322.900391" xlink:href="#DejaVuSans-1086"/>
      <use x="384.082031" xlink:href="#DejaVuSans-1083"/>
      <use x="447.998047" xlink:href="#DejaVuSans-1080"/>
      <use x="512.988281" xlink:href="#DejaVuSans-1095"/>
      <use x="572.070312" xlink:href="#DejaVuSans-1077"/>
      <use x="633.59375" xlink:href="#DejaVuSans-1089"/>
      <use x="688.574219" xlink:href="#DejaVuSans-1082"/>
      <use x="748.974609" xlink:href="#DejaVuSans-1072"/>
      <use x="810.253906" xlink:href="#DejaVuSans-1103"/>
      <use x="870.410156" xlink:href="#DejaVuSans-32"/>
      <use x="902.197266" xlink:href="#DejaVuSans-1072"/>
      <use x="963.476562" xlink:href="#DejaVuSans-1089"/>
      <use x="1018.457031" xlink:href="#DejaVuSans-1080"/>
      <use x="1083.447266" xlink:href="#DejaVuSans-1084"/>
      <use x="1158.886719" xlink:href="#DejaVuSans-1090"/>
      <use x="1217.138672" xlink:href="#DejaVuSans-1086"/>
      <use x="1278.320312" xlink:href="#DejaVuSans-1090"/>
      <use x="1336.572266" xlink:href="#DejaVuSans-1072"/>
     </g>
    </g>
    <g id="line2d_17">
     <path d="M 81.9 85.173563 
L 103.9 85.173563 
" style="fill:none;stroke:#cc78bc;stroke-linecap:round;stroke-width:1.5;"/>
    </g>
    <g id="line2d_18"/>
    <g id="text_17">
     <!-- Линейная асимтота -->
     <defs>
      <path d="M 4.109375 0 
L 4.109375 8.296875 
Q 14.703125 10.59375 17.71875 18.609375 
Q 21.96875 31.203125 21.96875 60.5 
L 21.96875 72.90625 
L 65.328125 72.90625 
L 65.328125 0 
L 55.46875 0 
L 55.46875 64.59375 
L 31.78125 64.59375 
L 31.78125 55.609375 
Q 31.78125 27.984375 26.8125 15.09375 
Q 22.015625 2.734375 4.109375 0 
z
" id="DejaVuSans-1051"/>
      <path d="M 55.90625 54.6875 
L 55.90625 0 
L 46.96875 0 
L 46.96875 43.890625 
L 20.609375 0 
L 9.078125 0 
L 9.078125 54.6875 
L 18.015625 54.6875 
L 18.015625 10.890625 
L 44.34375 54.6875 
z
M 17.21875 75.515625 
L 22.984375 75.515625 
Q 23.515625 71.859375 25.875 70.015625 
Q 28.25 68.1875 32.5 68.1875 
Q 36.703125 68.1875 39.046875 70 
Q 41.390625 71.8125 42.015625 75.515625 
L 47.78125 75.515625 
Q 47.296875 68.53125 43.4375 65.015625 
Q 39.578125 61.5 32.5 61.5 
Q 25.421875 61.5 21.5625 65.015625 
Q 17.703125 68.53125 17.21875 75.515625 
z
" id="DejaVuSans-1081"/>
     </defs>
     <g style="fill:#262626;" transform="translate(112.7 89.023563)scale(0.11 -0.11)">
      <use xlink:href="#DejaVuSans-1051"/>
      <use x="75.195312" xlink:href="#DejaVuSans-1080"/>
      <use x="140.185547" xlink:href="#DejaVuSans-1085"/>
      <use x="205.566406" xlink:href="#DejaVuSans-1077"/>
      <use x="267.089844" xlink:href="#DejaVuSans-1081"/>
      <use x="332.080078" xlink:href="#DejaVuSans-1085"/>
      <use x="397.460938" xlink:href="#DejaVuSans-1072"/>
      <use x="458.740234" xlink:href="#DejaVuSans-1103"/>
      <use x="518.896484" xlink:href="#DejaVuSans-32"/>
      <use x="550.683594" xlink:href="#DejaVuSans-1072"/>
      <use x="611.962891" xlink:href="#DejaVuSans-1089"/>
      <use x="666.943359" xlink:href="#DejaVuSans-1080"/>
      <use x="731.933594" xlink:href="#DejaVuSans-1084"/>
      <use x="807.373047" xlink:href="#DejaVuSans-1090"/>
      <use x="865.625" xlink:href="#DejaVuSans-1086"/>
      <use x="926.806641" xlink:href="#DejaVuSans-1090"/>
      <use x="985.058594" xlink:href="#DejaVuSans-1072"/>
     </g>
    </g>
   </g>
  </g>
 </g>
 <defs>
  <clipPath id="p13982ed409">
   <rect height="349.272" width="446.4" x="72" y="54.432"/>
  </clipPath>
 </defs>
</svg>
