<?xml version="1.0" encoding="utf-8" standalone="no"?>
<!DOCTYPE svg PUBLIC "-//W3C//DTD SVG 1.1//EN"
  "http://www.w3.org/Graphics/SVG/1.1/DTD/svg11.dtd">
<!-- Created with matplotlib (https://matplotlib.org/) -->
<svg height="453.6pt" version="1.1" viewBox="0 0 576 453.6" width="576pt" xmlns="http://www.w3.org/2000/svg" xmlns:xlink="http://www.w3.org/1999/xlink">
 <defs>
  <style type="text/css">
*{stroke-linecap:butt;stroke-linejoin:round;}
  </style>
 </defs>
 <g id="figure_1">
  <g id="patch_1">
   <path d="M 0 453.6 
L 576 453.6 
L 576 0 
L 0 0 
z
" style="fill:#ffffff;"/>
  </g>
  <g id="axes_1">
   <g id="patch_2">
    <path d="M 72 403.704 
L 518.4 403.704 
L 518.4 54.432 
L 72 54.432 
z
" style="fill:#eaeaf2;"/>
   </g>
   <g id="matplotlib.axis_1">
    <g id="xtick_1">
     <g id="line2d_1">
      <path clip-path="url(#pebdd82a57d)" d="M 93.279809 403.704 
L 93.279809 54.432 
" style="fill:none;stroke:#ffffff;stroke-linecap:round;"/>
     </g>
     <g id="text_1">
      <!-- 0.0 -->
      <defs>
       <path d="M 31.78125 66.40625 
Q 24.171875 66.40625 20.328125 58.90625 
Q 16.5 51.421875 16.5 36.375 
Q 16.5 21.390625 20.328125 13.890625 
Q 24.171875 6.390625 31.78125 6.390625 
Q 39.453125 6.390625 43.28125 13.890625 
Q 47.125 21.390625 47.125 36.375 
Q 47.125 51.421875 43.28125 58.90625 
Q 39.453125 66.40625 31.78125 66.40625 
z
M 31.78125 74.21875 
Q 44.046875 74.21875 50.515625 64.515625 
Q 56.984375 54.828125 56.984375 36.375 
Q 56.984375 17.96875 50.515625 8.265625 
Q 44.046875 -1.421875 31.78125 -1.421875 
Q 19.53125 -1.421875 13.0625 8.265625 
Q 6.59375 17.96875 6.59375 36.375 
Q 6.59375 54.828125 13.0625 64.515625 
Q 19.53125 74.21875 31.78125 74.21875 
z
" id="DejaVuSans-48"/>
       <path d="M 10.6875 12.40625 
L 21 12.40625 
L 21 0 
L 10.6875 0 
z
" id="DejaVuSans-46"/>
      </defs>
      <g style="fill:#262626;" transform="translate(84.53309 421.562281)scale(0.11 -0.11)">
       <use xlink:href="#DejaVuSans-48"/>
       <use x="63.623047" xlink:href="#DejaVuSans-46"/>
       <use x="95.410156" xlink:href="#DejaVuSans-48"/>
      </g>
     </g>
    </g>
    <g id="xtick_2">
     <g id="line2d_2">
      <path clip-path="url(#pebdd82a57d)" d="M 175.028874 403.704 
L 175.028874 54.432 
" style="fill:none;stroke:#ffffff;stroke-linecap:round;"/>
     </g>
     <g id="text_2">
      <!-- 0.5 -->
      <defs>
       <path d="M 10.796875 72.90625 
L 49.515625 72.90625 
L 49.515625 64.59375 
L 19.828125 64.59375 
L 19.828125 46.734375 
Q 21.96875 47.46875 24.109375 47.828125 
Q 26.265625 48.1875 28.421875 48.1875 
Q 40.625 48.1875 47.75 41.5 
Q 54.890625 34.8125 54.890625 23.390625 
Q 54.890625 11.625 47.5625 5.09375 
Q 40.234375 -1.421875 26.90625 -1.421875 
Q 22.3125 -1.421875 17.546875 -0.640625 
Q 12.796875 0.140625 7.71875 1.703125 
L 7.71875 11.625 
Q 12.109375 9.234375 16.796875 8.0625 
Q 21.484375 6.890625 26.703125 6.890625 
Q 35.15625 6.890625 40.078125 11.328125 
Q 45.015625 15.765625 45.015625 23.390625 
Q 45.015625 31 40.078125 35.4375 
Q 35.15625 39.890625 26.703125 39.890625 
Q 22.75 39.890625 18.8125 39.015625 
Q 14.890625 38.140625 10.796875 36.28125 
z
" id="DejaVuSans-53"/>
      </defs>
      <g style="fill:#262626;" transform="translate(166.282155 421.562281)scale(0.11 -0.11)">
       <use xlink:href="#DejaVuSans-48"/>
       <use x="63.623047" xlink:href="#DejaVuSans-46"/>
       <use x="95.410156" xlink:href="#DejaVuSans-53"/>
      </g>
     </g>
    </g>
    <g id="xtick_3">
     <g id="line2d_3">
      <path clip-path="url(#pebdd82a57d)" d="M 256.777939 403.704 
L 256.777939 54.432 
" style="fill:none;stroke:#ffffff;stroke-linecap:round;"/>
     </g>
     <g id="text_3">
      <!-- 1.0 -->
      <defs>
       <path d="M 12.40625 8.296875 
L 28.515625 8.296875 
L 28.515625 63.921875 
L 10.984375 60.40625 
L 10.984375 69.390625 
L 28.421875 72.90625 
L 38.28125 72.90625 
L 38.28125 8.296875 
L 54.390625 8.296875 
L 54.390625 0 
L 12.40625 0 
z
" id="DejaVuSans-49"/>
      </defs>
      <g style="fill:#262626;" transform="translate(248.031221 421.562281)scale(0.11 -0.11)">
       <use xlink:href="#DejaVuSans-49"/>
       <use x="63.623047" xlink:href="#DejaVuSans-46"/>
       <use x="95.410156" xlink:href="#DejaVuSans-48"/>
      </g>
     </g>
    </g>
    <g id="xtick_4">
     <g id="line2d_4">
      <path clip-path="url(#pebdd82a57d)" d="M 338.527005 403.704 
L 338.527005 54.432 
" style="fill:none;stroke:#ffffff;stroke-linecap:round;"/>
     </g>
     <g id="text_4">
      <!-- 1.5 -->
      <g style="fill:#262626;" transform="translate(329.780286 421.562281)scale(0.11 -0.11)">
       <use xlink:href="#DejaVuSans-49"/>
       <use x="63.623047" xlink:href="#DejaVuSans-46"/>
       <use x="95.410156" xlink:href="#DejaVuSans-53"/>
      </g>
     </g>
    </g>
    <g id="xtick_5">
     <g id="line2d_5">
      <path clip-path="url(#pebdd82a57d)" d="M 420.27607 403.704 
L 420.27607 54.432 
" style="fill:none;stroke:#ffffff;stroke-linecap:round;"/>
     </g>
     <g id="text_5">
      <!-- 2.0 -->
      <defs>
       <path d="M 19.1875 8.296875 
L 53.609375 8.296875 
L 53.609375 0 
L 7.328125 0 
L 7.328125 8.296875 
Q 12.9375 14.109375 22.625 23.890625 
Q 32.328125 33.6875 34.8125 36.53125 
Q 39.546875 41.84375 41.421875 45.53125 
Q 43.3125 49.21875 43.3125 52.78125 
Q 43.3125 58.59375 39.234375 62.25 
Q 35.15625 65.921875 28.609375 65.921875 
Q 23.96875 65.921875 18.8125 64.3125 
Q 13.671875 62.703125 7.8125 59.421875 
L 7.8125 69.390625 
Q 13.765625 71.78125 18.9375 73 
Q 24.125 74.21875 28.421875 74.21875 
Q 39.75 74.21875 46.484375 68.546875 
Q 53.21875 62.890625 53.21875 53.421875 
Q 53.21875 48.921875 51.53125 44.890625 
Q 49.859375 40.875 45.40625 35.40625 
Q 44.1875 33.984375 37.640625 27.21875 
Q 31.109375 20.453125 19.1875 8.296875 
z
" id="DejaVuSans-50"/>
      </defs>
      <g style="fill:#262626;" transform="translate(411.529351 421.562281)scale(0.11 -0.11)">
       <use xlink:href="#DejaVuSans-50"/>
       <use x="63.623047" xlink:href="#DejaVuSans-46"/>
       <use x="95.410156" xlink:href="#DejaVuSans-48"/>
      </g>
     </g>
    </g>
    <g id="xtick_6">
     <g id="line2d_6">
      <path clip-path="url(#pebdd82a57d)" d="M 502.025135 403.704 
L 502.025135 54.432 
" style="fill:none;stroke:#ffffff;stroke-linecap:round;"/>
     </g>
     <g id="text_6">
      <!-- 2.5 -->
      <g style="fill:#262626;" transform="translate(493.278416 421.562281)scale(0.11 -0.11)">
       <use xlink:href="#DejaVuSans-50"/>
       <use x="63.623047" xlink:href="#DejaVuSans-46"/>
       <use x="95.410156" xlink:href="#DejaVuSans-53"/>
      </g>
     </g>
    </g>
    <g id="text_7">
     <!-- Время $\left(\sqrt{\frac{m\sigma^2}{\varepsilon} }\right)$ -->
     <defs>
      <path d="M 19.671875 34.8125 
L 19.671875 8.109375 
L 35.5 8.109375 
Q 43.453125 8.109375 47.28125 11.40625 
Q 51.125 14.703125 51.125 21.484375 
Q 51.125 28.328125 47.28125 31.5625 
Q 43.453125 34.8125 35.5 34.8125 
z
M 19.671875 64.796875 
L 19.671875 42.828125 
L 34.28125 42.828125 
Q 41.5 42.828125 45.03125 45.53125 
Q 48.578125 48.25 48.578125 53.8125 
Q 48.578125 59.328125 45.03125 62.0625 
Q 41.5 64.796875 34.28125 64.796875 
z
M 9.8125 72.90625 
L 35.015625 72.90625 
Q 46.296875 72.90625 52.390625 68.21875 
Q 58.5 63.53125 58.5 54.890625 
Q 58.5 48.1875 55.375 44.234375 
Q 52.25 40.28125 46.1875 39.3125 
Q 53.46875 37.75 57.5 32.78125 
Q 61.53125 27.828125 61.53125 20.40625 
Q 61.53125 10.640625 54.890625 5.3125 
Q 48.25 0 35.984375 0 
L 9.8125 0 
z
" id="DejaVuSans-1042"/>
      <path d="M 18.109375 8.203125 
L 18.109375 -20.796875 
L 9.078125 -20.796875 
L 9.078125 54.6875 
L 18.109375 54.6875 
L 18.109375 46.390625 
Q 20.953125 51.265625 25.265625 53.625 
Q 29.59375 56 35.59375 56 
Q 45.5625 56 51.78125 48.09375 
Q 58.015625 40.1875 58.015625 27.296875 
Q 58.015625 14.40625 51.78125 6.484375 
Q 45.5625 -1.421875 35.59375 -1.421875 
Q 29.59375 -1.421875 25.265625 0.953125 
Q 20.953125 3.328125 18.109375 8.203125 
z
M 48.6875 27.296875 
Q 48.6875 37.203125 44.609375 42.84375 
Q 40.53125 48.484375 33.40625 48.484375 
Q 26.265625 48.484375 22.1875 42.84375 
Q 18.109375 37.203125 18.109375 27.296875 
Q 18.109375 17.390625 22.1875 11.75 
Q 26.265625 6.109375 33.40625 6.109375 
Q 40.53125 6.109375 44.609375 11.75 
Q 48.6875 17.390625 48.6875 27.296875 
z
" id="DejaVuSans-1088"/>
      <path d="M 56.203125 29.59375 
L 56.203125 25.203125 
L 14.890625 25.203125 
Q 15.484375 15.921875 20.484375 11.0625 
Q 25.484375 6.203125 34.421875 6.203125 
Q 39.59375 6.203125 44.453125 7.46875 
Q 49.3125 8.734375 54.109375 11.28125 
L 54.109375 2.78125 
Q 49.265625 0.734375 44.1875 -0.34375 
Q 39.109375 -1.421875 33.890625 -1.421875 
Q 20.796875 -1.421875 13.15625 6.1875 
Q 5.515625 13.8125 5.515625 26.8125 
Q 5.515625 40.234375 12.765625 48.109375 
Q 20.015625 56 32.328125 56 
Q 43.359375 56 49.78125 48.890625 
Q 56.203125 41.796875 56.203125 29.59375 
z
M 47.21875 32.234375 
Q 47.125 39.59375 43.09375 43.984375 
Q 39.0625 48.390625 32.421875 48.390625 
Q 24.90625 48.390625 20.390625 44.140625 
Q 15.875 39.890625 15.1875 32.171875 
z
" id="DejaVuSans-1077"/>
      <path d="M 9.078125 54.6875 
L 22.21875 54.6875 
L 37.75 18.0625 
L 53.328125 54.6875 
L 66.359375 54.6875 
L 66.359375 0 
L 57.328125 0 
L 57.328125 46.09375 
L 42.234375 10.5 
L 33.25 10.5 
L 18.109375 46.09375 
L 18.109375 0 
L 9.078125 0 
z
" id="DejaVuSans-1084"/>
      <path d="M 18.453125 38.921875 
Q 18.453125 34.859375 21.578125 32.5625 
Q 24.703125 30.28125 30.515625 30.28125 
L 42.625 30.28125 
L 42.625 47.515625 
L 30.515625 47.515625 
Q 24.703125 47.515625 21.578125 45.265625 
Q 18.453125 43.015625 18.453125 38.921875 
z
M 5.671875 0 
L 22.359375 23.96875 
Q 16.703125 25.25 12.9375 28.59375 
Q 9.1875 31.9375 9.1875 38.921875 
Q 9.1875 46.828125 14.421875 50.75 
Q 19.671875 54.6875 30.28125 54.6875 
L 51.65625 54.6875 
L 51.65625 0 
L 42.625 0 
L 42.625 23.09375 
L 31.453125 23.09375 
L 15.328125 0 
z
" id="DejaVuSans-1103"/>
      <path id="DejaVuSans-32"/>
      <path d="M 50.296875 -24.296875 
L 50.296875 -27.90625 
Q 33.5 -12.09375 23.703125 11.40625 
Q 13.90625 34.90625 13.90625 64.296875 
Q 13.90625 93.796875 23.953125 118.640625 
Q 34 143.5 50.296875 156.59375 
L 50.296875 153.296875 
Q 38.90625 141.59375 31.15625 118.84375 
Q 23.40625 96.09375 23.40625 64.296875 
Q 23.40625 8.796875 50.296875 -24.296875 
z
" id="STIXSizeTwoSym-Regular-40"/>
      <path d="M 108.90625 155.203125 
L 52.703125 -29.5 
L 48.5 -29.5 
L 25.40625 45.59375 
Q 24.296875 49.203125 22.890625 50.796875 
Q 21.5 52.40625 19.203125 52.40625 
Q 15.796875 52.40625 12.40625 49.703125 
L 11.203125 51.703125 
L 27.59375 64.296875 
L 30.09375 64.296875 
L 52.796875 -9.40625 
L 53.203125 -9.40625 
L 103.203125 155.203125 
z
" id="STIXSizeOneSym-Regular-8730"/>
      <path d="M 89.796875 33.015625 
L 83.40625 0 
L 74.421875 0 
L 80.71875 32.71875 
Q 81.109375 34.8125 81.296875 36.328125 
Q 81.5 37.84375 81.5 38.921875 
Q 81.5 43.3125 79.046875 45.75 
Q 76.609375 48.1875 72.21875 48.1875 
Q 65.671875 48.1875 60.546875 43.28125 
Q 55.421875 38.375 53.90625 30.515625 
L 47.90625 0 
L 38.921875 0 
L 45.3125 32.71875 
Q 45.703125 34.515625 45.890625 36.046875 
Q 46.09375 37.59375 46.09375 38.8125 
Q 46.09375 43.265625 43.65625 45.71875 
Q 41.21875 48.1875 36.921875 48.1875 
Q 30.28125 48.1875 25.140625 43.28125 
Q 20.015625 38.375 18.5 30.515625 
L 12.5 0 
L 3.515625 0 
L 14.203125 54.6875 
L 23.1875 54.6875 
L 21.484375 46.1875 
Q 25.140625 50.984375 30.046875 53.484375 
Q 34.96875 56 40.578125 56 
Q 46.53125 56 50.359375 52.875 
Q 54.203125 49.75 54.984375 44.1875 
Q 59.078125 49.953125 64.46875 52.96875 
Q 69.875 56 75.875 56 
Q 82.90625 56 86.734375 51.953125 
Q 90.578125 47.90625 90.578125 40.484375 
Q 90.578125 38.875 90.375 36.9375 
Q 90.1875 35.015625 89.796875 33.015625 
z
" id="DejaVuSans-Oblique-109"/>
      <path d="M 34.671875 47.5625 
Q 27.25 47.5625 22.21875 42.1875 
Q 16.890625 36.578125 15.140625 27.296875 
Q 13.1875 17.484375 16.3125 11.8125 
Q 19.390625 6.203125 26.65625 6.203125 
Q 33.84375 6.203125 39.109375 11.859375 
Q 44.4375 17.53125 46.34375 27.296875 
Q 48.046875 36.234375 45.015625 42.1875 
Q 42.1875 47.5625 34.671875 47.5625 
z
M 36.078125 54.734375 
L 65.921875 54.6875 
L 64.15625 45.703125 
L 54.109375 45.703125 
Q 57.90625 38.09375 55.859375 27.296875 
Q 53.21875 13.875 45.0625 6.25 
Q 36.859375 -1.421875 25.140625 -1.421875 
Q 13.375 -1.421875 8.203125 6.25 
Q 3.03125 13.875 5.671875 27.296875 
Q 8.25 40.765625 16.40625 48.390625 
Q 23.1875 54.734375 36.078125 54.734375 
z
" id="DejaVuSans-Oblique-963"/>
      <path d="M 19.734375 29.5 
Q 14.453125 30.671875 12.15625 33.84375 
Q 10.453125 36.078125 10.453125 39.109375 
Q 10.453125 47.40625 18.359375 52.25 
Q 24.609375 56.0625 34.1875 56.0625 
Q 37.890625 56.0625 41.9375 55.46875 
Q 46 54.890625 50.53125 53.71875 
L 48.96875 45.5625 
Q 44.484375 46.96875 40.71875 47.609375 
Q 36.859375 48.25 33.40625 48.25 
Q 27.59375 48.25 23.78125 46 
Q 19.1875 43.3125 19.1875 39.40625 
Q 19.1875 36.8125 21.578125 35.015625 
Q 24.421875 32.859375 30.078125 32.859375 
L 37.640625 32.859375 
L 36.234375 25.4375 
L 29 25.4375 
Q 22.265625 25.4375 18.3125 22.953125 
Q 12.9375 19.578125 12.9375 14.3125 
Q 12.9375 10.984375 15.828125 8.796875 
Q 19.4375 6.0625 26.8125 6.0625 
Q 31.34375 6.0625 35.6875 6.9375 
Q 40.046875 7.859375 43.84375 9.671875 
L 42.1875 1.3125 
Q 37.546875 -0.046875 33.296875 -0.734375 
Q 29.046875 -1.421875 25.140625 -1.421875 
Q 13.53125 -1.421875 8.0625 3.03125 
Q 3.90625 6.453125 3.90625 12.203125 
Q 3.90625 19.96875 9.375 24.75 
Q 13.421875 28.328125 19.734375 29.5 
z
" id="DejaVuSans-Oblique-949"/>
      <path d="M 11.40625 153 
L 11.40625 156.59375 
Q 28.203125 140.796875 38 117.296875 
Q 47.796875 93.796875 47.796875 64.296875 
Q 47.796875 34.90625 37.75 10.046875 
Q 27.703125 -14.796875 11.40625 -27.90625 
L 11.40625 -24.59375 
Q 22.796875 -12.90625 30.546875 9.890625 
Q 38.296875 32.703125 38.296875 64.296875 
Q 38.296875 119.90625 11.40625 153 
z
" id="STIXSizeTwoSym-Regular-41"/>
     </defs>
     <g style="fill:#262626;" transform="translate(249.9 445.249937)scale(0.12 -0.12)">
      <use transform="translate(0 0.457812)" xlink:href="#DejaVuSans-1042"/>
      <use transform="translate(68.603516 0.457812)" xlink:href="#DejaVuSans-1088"/>
      <use transform="translate(132.080078 0.457812)" xlink:href="#DejaVuSans-1077"/>
      <use transform="translate(193.603516 0.457812)" xlink:href="#DejaVuSans-1084"/>
      <use transform="translate(269.042969 0.457812)" xlink:href="#DejaVuSans-1103"/>
      <use transform="translate(329.199219 0.457812)" xlink:href="#DejaVuSans-32"/>
      <use transform="translate(360.986328 -1.28125)scale(0.93352)" xlink:href="#STIXSizeTwoSym-Regular-40"/>
      <use transform="translate(415.984192 -0.6875)scale(0.903604)" xlink:href="#STIXSizeOneSym-Regular-8730"/>
      <use transform="translate(524.010574 45.585938)scale(0.7)" xlink:href="#DejaVuSans-Oblique-109"/>
      <use transform="translate(592.199051 45.585938)scale(0.7)" xlink:href="#DejaVuSans-Oblique-963"/>
      <use transform="translate(639.695181 72.382812)scale(0.49)" xlink:href="#DejaVuSans-50"/>
      <use transform="translate(579.010574 -25.903125)scale(0.7)" xlink:href="#DejaVuSans-Oblique-949"/>
      <use transform="translate(697.784537 -1.28125)scale(0.93352)" xlink:href="#STIXSizeTwoSym-Regular-41"/>
      <path d="M 511.510574 132.5 
L 511.510574 138.75 
L 697.784537 138.75 
L 697.784537 132.5 
L 511.510574 132.5 
z
"/>
      <path d="M 524.010574 19.590625 
L 524.010574 25.840625 
L 672.784537 25.840625 
L 672.784537 19.590625 
L 524.010574 19.590625 
z
"/>
     </g>
    </g>
   </g>
   <g id="matplotlib.axis_2">
    <g id="ytick_1">
     <g id="line2d_7">
      <path clip-path="url(#pebdd82a57d)" d="M 72 390.160147 
L 518.4 390.160147 
" style="fill:none;stroke:#ffffff;stroke-linecap:round;"/>
     </g>
     <g id="text_8">
      <!-- 0 -->
      <g style="fill:#262626;" transform="translate(55.50125 394.339288)scale(0.11 -0.11)">
       <use xlink:href="#DejaVuSans-48"/>
      </g>
     </g>
    </g>
    <g id="ytick_2">
     <g id="line2d_8">
      <path clip-path="url(#pebdd82a57d)" d="M 72 328.437586 
L 518.4 328.437586 
" style="fill:none;stroke:#ffffff;stroke-linecap:round;"/>
     </g>
     <g id="text_9">
      <!-- 5 -->
      <g style="fill:#262626;" transform="translate(55.50125 332.616727)scale(0.11 -0.11)">
       <use xlink:href="#DejaVuSans-53"/>
      </g>
     </g>
    </g>
    <g id="ytick_3">
     <g id="line2d_9">
      <path clip-path="url(#pebdd82a57d)" d="M 72 266.715025 
L 518.4 266.715025 
" style="fill:none;stroke:#ffffff;stroke-linecap:round;"/>
     </g>
     <g id="text_10">
      <!-- 10 -->
      <g style="fill:#262626;" transform="translate(48.5025 270.894166)scale(0.11 -0.11)">
       <use xlink:href="#DejaVuSans-49"/>
       <use x="63.623047" xlink:href="#DejaVuSans-48"/>
      </g>
     </g>
    </g>
    <g id="ytick_4">
     <g id="line2d_10">
      <path clip-path="url(#pebdd82a57d)" d="M 72 204.992464 
L 518.4 204.992464 
" style="fill:none;stroke:#ffffff;stroke-linecap:round;"/>
     </g>
     <g id="text_11">
      <!-- 15 -->
      <g style="fill:#262626;" transform="translate(48.5025 209.171605)scale(0.11 -0.11)">
       <use xlink:href="#DejaVuSans-49"/>
       <use x="63.623047" xlink:href="#DejaVuSans-53"/>
      </g>
     </g>
    </g>
    <g id="ytick_5">
     <g id="line2d_11">
      <path clip-path="url(#pebdd82a57d)" d="M 72 143.269904 
L 518.4 143.269904 
" style="fill:none;stroke:#ffffff;stroke-linecap:round;"/>
     </g>
     <g id="text_12">
      <!-- 20 -->
      <g style="fill:#262626;" transform="translate(48.5025 147.449044)scale(0.11 -0.11)">
       <use xlink:href="#DejaVuSans-50"/>
       <use x="63.623047" xlink:href="#DejaVuSans-48"/>
      </g>
     </g>
    </g>
    <g id="ytick_6">
     <g id="line2d_12">
      <path clip-path="url(#pebdd82a57d)" d="M 72 81.547343 
L 518.4 81.547343 
" style="fill:none;stroke:#ffffff;stroke-linecap:round;"/>
     </g>
     <g id="text_13">
      <!-- 25 -->
      <g style="fill:#262626;" transform="translate(48.5025 85.726483)scale(0.11 -0.11)">
       <use xlink:href="#DejaVuSans-50"/>
       <use x="63.623047" xlink:href="#DejaVuSans-53"/>
      </g>
     </g>
    </g>
    <g id="text_14">
     <!-- $\left\langle r^2\right\rangle \left(\sigma^2\right)$ -->
     <defs>
      <path d="M 8.9375 31.34375 
L 22.703125 75.875 
L 31 75.875 
L 17.234375 31.34375 
L 31 -13.1875 
L 22.703125 -13.1875 
z
" id="DejaVuSans-10216"/>
      <path d="M 44.578125 46.390625 
Q 43.21875 47.125 41.453125 47.515625 
Q 39.703125 47.90625 37.703125 47.90625 
Q 30.515625 47.90625 25.140625 42.453125 
Q 19.78125 37.015625 18.015625 27.875 
L 12.5 0 
L 3.515625 0 
L 14.203125 54.6875 
L 23.1875 54.6875 
L 21.484375 46.1875 
Q 25.046875 50.921875 30 53.453125 
Q 34.96875 56 40.578125 56 
Q 42.046875 56 43.453125 55.828125 
Q 44.875 55.671875 46.296875 55.28125 
z
" id="DejaVuSans-Oblique-114"/>
      <path d="M 30.078125 31.34375 
L 16.3125 -13.1875 
L 8.015625 -13.1875 
L 21.78125 31.34375 
L 8.015625 75.875 
L 16.3125 75.875 
z
" id="DejaVuSans-10217"/>
      <path d="M 31 75.875 
Q 24.46875 64.65625 21.28125 53.65625 
Q 18.109375 42.671875 18.109375 31.390625 
Q 18.109375 20.125 21.3125 9.0625 
Q 24.515625 -2 31 -13.1875 
L 23.1875 -13.1875 
Q 15.875 -1.703125 12.234375 9.375 
Q 8.59375 20.453125 8.59375 31.390625 
Q 8.59375 42.28125 12.203125 53.3125 
Q 15.828125 64.359375 23.1875 75.875 
z
" id="DejaVuSans-40"/>
      <path d="M 8.015625 75.875 
L 15.828125 75.875 
Q 23.140625 64.359375 26.78125 53.3125 
Q 30.421875 42.28125 30.421875 31.390625 
Q 30.421875 20.453125 26.78125 9.375 
Q 23.140625 -1.703125 15.828125 -13.1875 
L 8.015625 -13.1875 
Q 14.5 -2 17.703125 9.0625 
Q 20.90625 20.125 20.90625 31.390625 
Q 20.90625 42.671875 17.703125 53.65625 
Q 14.5 64.65625 8.015625 75.875 
z
" id="DejaVuSans-41"/>
     </defs>
     <g style="fill:#262626;" transform="translate(42.006875 250.968)rotate(-90)scale(0.12 -0.12)">
      <use transform="translate(0 0.765625)" xlink:href="#DejaVuSans-10216"/>
      <use transform="translate(39.013672 0.765625)" xlink:href="#DejaVuSans-Oblique-114"/>
      <use transform="translate(84.776849 39.046875)scale(0.7)" xlink:href="#DejaVuSans-50"/>
      <use transform="translate(132.047357 0.765625)" xlink:href="#DejaVuSans-10217"/>
      <use transform="translate(171.061029 0.765625)" xlink:href="#DejaVuSans-40"/>
      <use transform="translate(210.074701 0.765625)" xlink:href="#DejaVuSans-Oblique-963"/>
      <use transform="translate(277.926315 39.046875)scale(0.7)" xlink:href="#DejaVuSans-50"/>
      <use transform="translate(325.196823 0.765625)" xlink:href="#DejaVuSans-41"/>
     </g>
    </g>
   </g>
   <g id="PathCollection_1">
    <defs>
     <path d="M 0 3 
C 0.795609 3 1.55874 2.683901 2.12132 2.12132 
C 2.683901 1.55874 3 0.795609 3 0 
C 3 -0.795609 2.683901 -1.55874 2.12132 -2.12132 
C 1.55874 -2.683901 0.795609 -3 0 -3 
C -0.795609 -3 -1.55874 -2.683901 -2.12132 -2.12132 
C -2.683901 -1.55874 -3 -0.795609 -3 0 
C -3 0.795609 -2.683901 1.55874 -2.12132 2.12132 
C -1.55874 2.683901 -0.795609 3 0 3 
z
" id="m4f47f9c350" style="stroke:#56b4e9;"/>
    </defs>
    <g clip-path="url(#pebdd82a57d)">
     <use style="fill:#56b4e9;stroke:#56b4e9;" x="93.279809" xlink:href="#m4f47f9c350" y="390.153526"/>
     <use style="fill:#56b4e9;stroke:#56b4e9;" x="94.91479" xlink:href="#m4f47f9c350" y="390.133698"/>
     <use style="fill:#56b4e9;stroke:#56b4e9;" x="96.549772" xlink:href="#m4f47f9c350" y="390.100751"/>
     <use style="fill:#56b4e9;stroke:#56b4e9;" x="98.184753" xlink:href="#m4f47f9c350" y="390.054809"/>
     <use style="fill:#56b4e9;stroke:#56b4e9;" x="99.819734" xlink:href="#m4f47f9c350" y="389.996013"/>
     <use style="fill:#56b4e9;stroke:#56b4e9;" x="101.454716" xlink:href="#m4f47f9c350" y="389.924511"/>
     <use style="fill:#56b4e9;stroke:#56b4e9;" x="103.089697" xlink:href="#m4f47f9c350" y="389.84045"/>
     <use style="fill:#56b4e9;stroke:#56b4e9;" x="104.724678" xlink:href="#m4f47f9c350" y="389.74398"/>
     <use style="fill:#56b4e9;stroke:#56b4e9;" x="106.359659" xlink:href="#m4f47f9c350" y="389.635242"/>
     <use style="fill:#56b4e9;stroke:#56b4e9;" x="107.994641" xlink:href="#m4f47f9c350" y="389.514383"/>
     <use style="fill:#56b4e9;stroke:#56b4e9;" x="109.629622" xlink:href="#m4f47f9c350" y="389.381551"/>
     <use style="fill:#56b4e9;stroke:#56b4e9;" x="111.264603" xlink:href="#m4f47f9c350" y="389.236901"/>
     <use style="fill:#56b4e9;stroke:#56b4e9;" x="112.899585" xlink:href="#m4f47f9c350" y="389.080579"/>
     <use style="fill:#56b4e9;stroke:#56b4e9;" x="114.534566" xlink:href="#m4f47f9c350" y="388.912723"/>
     <use style="fill:#56b4e9;stroke:#56b4e9;" x="116.169547" xlink:href="#m4f47f9c350" y="388.733465"/>
     <use style="fill:#56b4e9;stroke:#56b4e9;" x="117.804529" xlink:href="#m4f47f9c350" y="388.542933"/>
     <use style="fill:#56b4e9;stroke:#56b4e9;" x="119.43951" xlink:href="#m4f47f9c350" y="388.341254"/>
     <use style="fill:#56b4e9;stroke:#56b4e9;" x="121.074491" xlink:href="#m4f47f9c350" y="388.128556"/>
     <use style="fill:#56b4e9;stroke:#56b4e9;" x="122.709473" xlink:href="#m4f47f9c350" y="387.904967"/>
     <use style="fill:#56b4e9;stroke:#56b4e9;" x="124.344454" xlink:href="#m4f47f9c350" y="387.67062"/>
     <use style="fill:#56b4e9;stroke:#56b4e9;" x="125.979435" xlink:href="#m4f47f9c350" y="387.425655"/>
     <use style="fill:#56b4e9;stroke:#56b4e9;" x="127.614416" xlink:href="#m4f47f9c350" y="387.170209"/>
     <use style="fill:#56b4e9;stroke:#56b4e9;" x="129.249398" xlink:href="#m4f47f9c350" y="386.904419"/>
     <use style="fill:#56b4e9;stroke:#56b4e9;" x="130.884379" xlink:href="#m4f47f9c350" y="386.628411"/>
     <use style="fill:#56b4e9;stroke:#56b4e9;" x="132.51936" xlink:href="#m4f47f9c350" y="386.342309"/>
     <use style="fill:#56b4e9;stroke:#56b4e9;" x="134.154342" xlink:href="#m4f47f9c350" y="386.046232"/>
     <use style="fill:#56b4e9;stroke:#56b4e9;" x="135.789323" xlink:href="#m4f47f9c350" y="385.740296"/>
     <use style="fill:#56b4e9;stroke:#56b4e9;" x="137.424304" xlink:href="#m4f47f9c350" y="385.424614"/>
     <use style="fill:#56b4e9;stroke:#56b4e9;" x="139.059286" xlink:href="#m4f47f9c350" y="385.099306"/>
     <use style="fill:#56b4e9;stroke:#56b4e9;" x="140.694267" xlink:href="#m4f47f9c350" y="384.7645"/>
     <use style="fill:#56b4e9;stroke:#56b4e9;" x="142.329248" xlink:href="#m4f47f9c350" y="384.420338"/>
     <use style="fill:#56b4e9;stroke:#56b4e9;" x="143.964229" xlink:href="#m4f47f9c350" y="384.066958"/>
     <use style="fill:#56b4e9;stroke:#56b4e9;" x="145.599211" xlink:href="#m4f47f9c350" y="383.704472"/>
     <use style="fill:#56b4e9;stroke:#56b4e9;" x="147.234192" xlink:href="#m4f47f9c350" y="383.332971"/>
     <use style="fill:#56b4e9;stroke:#56b4e9;" x="148.869173" xlink:href="#m4f47f9c350" y="382.952541"/>
     <use style="fill:#56b4e9;stroke:#56b4e9;" x="150.504155" xlink:href="#m4f47f9c350" y="382.563271"/>
     <use style="fill:#56b4e9;stroke:#56b4e9;" x="152.139136" xlink:href="#m4f47f9c350" y="382.165253"/>
     <use style="fill:#56b4e9;stroke:#56b4e9;" x="153.774117" xlink:href="#m4f47f9c350" y="381.758581"/>
     <use style="fill:#56b4e9;stroke:#56b4e9;" x="155.409099" xlink:href="#m4f47f9c350" y="381.34336"/>
     <use style="fill:#56b4e9;stroke:#56b4e9;" x="157.04408" xlink:href="#m4f47f9c350" y="380.919712"/>
     <use style="fill:#56b4e9;stroke:#56b4e9;" x="158.679061" xlink:href="#m4f47f9c350" y="380.487755"/>
     <use style="fill:#56b4e9;stroke:#56b4e9;" x="160.314042" xlink:href="#m4f47f9c350" y="380.047593"/>
     <use style="fill:#56b4e9;stroke:#56b4e9;" x="161.949024" xlink:href="#m4f47f9c350" y="379.599303"/>
     <use style="fill:#56b4e9;stroke:#56b4e9;" x="163.584005" xlink:href="#m4f47f9c350" y="379.142937"/>
     <use style="fill:#56b4e9;stroke:#56b4e9;" x="165.218986" xlink:href="#m4f47f9c350" y="378.678566"/>
     <use style="fill:#56b4e9;stroke:#56b4e9;" x="166.853968" xlink:href="#m4f47f9c350" y="378.206278"/>
     <use style="fill:#56b4e9;stroke:#56b4e9;" x="168.488949" xlink:href="#m4f47f9c350" y="377.726182"/>
     <use style="fill:#56b4e9;stroke:#56b4e9;" x="170.12393" xlink:href="#m4f47f9c350" y="377.238405"/>
     <use style="fill:#56b4e9;stroke:#56b4e9;" x="171.758912" xlink:href="#m4f47f9c350" y="376.743058"/>
     <use style="fill:#56b4e9;stroke:#56b4e9;" x="173.393893" xlink:href="#m4f47f9c350" y="376.240242"/>
     <use style="fill:#56b4e9;stroke:#56b4e9;" x="175.028874" xlink:href="#m4f47f9c350" y="375.730044"/>
     <use style="fill:#56b4e9;stroke:#56b4e9;" x="176.663856" xlink:href="#m4f47f9c350" y="375.212546"/>
     <use style="fill:#56b4e9;stroke:#56b4e9;" x="178.298837" xlink:href="#m4f47f9c350" y="374.687827"/>
     <use style="fill:#56b4e9;stroke:#56b4e9;" x="179.933818" xlink:href="#m4f47f9c350" y="374.155978"/>
     <use style="fill:#56b4e9;stroke:#56b4e9;" x="181.568799" xlink:href="#m4f47f9c350" y="373.617089"/>
     <use style="fill:#56b4e9;stroke:#56b4e9;" x="183.203781" xlink:href="#m4f47f9c350" y="373.071257"/>
     <use style="fill:#56b4e9;stroke:#56b4e9;" x="184.838762" xlink:href="#m4f47f9c350" y="372.518595"/>
     <use style="fill:#56b4e9;stroke:#56b4e9;" x="186.473743" xlink:href="#m4f47f9c350" y="371.959237"/>
     <use style="fill:#56b4e9;stroke:#56b4e9;" x="188.108725" xlink:href="#m4f47f9c350" y="371.393302"/>
     <use style="fill:#56b4e9;stroke:#56b4e9;" x="189.743706" xlink:href="#m4f47f9c350" y="370.82089"/>
     <use style="fill:#56b4e9;stroke:#56b4e9;" x="191.378687" xlink:href="#m4f47f9c350" y="370.242088"/>
     <use style="fill:#56b4e9;stroke:#56b4e9;" x="193.013669" xlink:href="#m4f47f9c350" y="369.656974"/>
     <use style="fill:#56b4e9;stroke:#56b4e9;" x="194.64865" xlink:href="#m4f47f9c350" y="369.065634"/>
     <use style="fill:#56b4e9;stroke:#56b4e9;" x="196.283631" xlink:href="#m4f47f9c350" y="368.468163"/>
     <use style="fill:#56b4e9;stroke:#56b4e9;" x="197.918612" xlink:href="#m4f47f9c350" y="367.864616"/>
     <use style="fill:#56b4e9;stroke:#56b4e9;" x="199.553594" xlink:href="#m4f47f9c350" y="367.255029"/>
     <use style="fill:#56b4e9;stroke:#56b4e9;" x="201.188575" xlink:href="#m4f47f9c350" y="366.639449"/>
     <use style="fill:#56b4e9;stroke:#56b4e9;" x="202.823556" xlink:href="#m4f47f9c350" y="366.017925"/>
     <use style="fill:#56b4e9;stroke:#56b4e9;" x="204.458538" xlink:href="#m4f47f9c350" y="365.390508"/>
     <use style="fill:#56b4e9;stroke:#56b4e9;" x="206.093519" xlink:href="#m4f47f9c350" y="364.757252"/>
     <use style="fill:#56b4e9;stroke:#56b4e9;" x="207.7285" xlink:href="#m4f47f9c350" y="364.118212"/>
     <use style="fill:#56b4e9;stroke:#56b4e9;" x="209.363482" xlink:href="#m4f47f9c350" y="363.47346"/>
     <use style="fill:#56b4e9;stroke:#56b4e9;" x="210.998463" xlink:href="#m4f47f9c350" y="362.823081"/>
     <use style="fill:#56b4e9;stroke:#56b4e9;" x="212.633444" xlink:href="#m4f47f9c350" y="362.167168"/>
     <use style="fill:#56b4e9;stroke:#56b4e9;" x="214.268425" xlink:href="#m4f47f9c350" y="361.505803"/>
     <use style="fill:#56b4e9;stroke:#56b4e9;" x="215.903407" xlink:href="#m4f47f9c350" y="360.839078"/>
     <use style="fill:#56b4e9;stroke:#56b4e9;" x="217.538388" xlink:href="#m4f47f9c350" y="360.167094"/>
     <use style="fill:#56b4e9;stroke:#56b4e9;" x="219.173369" xlink:href="#m4f47f9c350" y="359.489941"/>
     <use style="fill:#56b4e9;stroke:#56b4e9;" x="220.808351" xlink:href="#m4f47f9c350" y="358.807705"/>
     <use style="fill:#56b4e9;stroke:#56b4e9;" x="222.443332" xlink:href="#m4f47f9c350" y="358.120483"/>
     <use style="fill:#56b4e9;stroke:#56b4e9;" x="224.078313" xlink:href="#m4f47f9c350" y="357.428377"/>
     <use style="fill:#56b4e9;stroke:#56b4e9;" x="225.713295" xlink:href="#m4f47f9c350" y="356.731463"/>
     <use style="fill:#56b4e9;stroke:#56b4e9;" x="227.348276" xlink:href="#m4f47f9c350" y="356.02977"/>
     <use style="fill:#56b4e9;stroke:#56b4e9;" x="228.983257" xlink:href="#m4f47f9c350" y="355.323316"/>
     <use style="fill:#56b4e9;stroke:#56b4e9;" x="230.618239" xlink:href="#m4f47f9c350" y="354.612143"/>
     <use style="fill:#56b4e9;stroke:#56b4e9;" x="232.25322" xlink:href="#m4f47f9c350" y="353.896312"/>
     <use style="fill:#56b4e9;stroke:#56b4e9;" x="233.888201" xlink:href="#m4f47f9c350" y="353.175893"/>
     <use style="fill:#56b4e9;stroke:#56b4e9;" x="235.523182" xlink:href="#m4f47f9c350" y="352.450965"/>
     <use style="fill:#56b4e9;stroke:#56b4e9;" x="237.158164" xlink:href="#m4f47f9c350" y="351.721604"/>
     <use style="fill:#56b4e9;stroke:#56b4e9;" x="238.793145" xlink:href="#m4f47f9c350" y="350.987858"/>
     <use style="fill:#56b4e9;stroke:#56b4e9;" x="240.428126" xlink:href="#m4f47f9c350" y="350.249744"/>
     <use style="fill:#56b4e9;stroke:#56b4e9;" x="242.063108" xlink:href="#m4f47f9c350" y="349.507336"/>
     <use style="fill:#56b4e9;stroke:#56b4e9;" x="243.698089" xlink:href="#m4f47f9c350" y="348.760639"/>
     <use style="fill:#56b4e9;stroke:#56b4e9;" x="245.33307" xlink:href="#m4f47f9c350" y="348.009657"/>
     <use style="fill:#56b4e9;stroke:#56b4e9;" x="246.968052" xlink:href="#m4f47f9c350" y="347.254397"/>
     <use style="fill:#56b4e9;stroke:#56b4e9;" x="248.603033" xlink:href="#m4f47f9c350" y="346.494861"/>
     <use style="fill:#56b4e9;stroke:#56b4e9;" x="250.238014" xlink:href="#m4f47f9c350" y="345.731029"/>
     <use style="fill:#56b4e9;stroke:#56b4e9;" x="251.872995" xlink:href="#m4f47f9c350" y="344.96287"/>
     <use style="fill:#56b4e9;stroke:#56b4e9;" x="253.507977" xlink:href="#m4f47f9c350" y="344.190388"/>
     <use style="fill:#56b4e9;stroke:#56b4e9;" x="255.142958" xlink:href="#m4f47f9c350" y="343.4136"/>
     <use style="fill:#56b4e9;stroke:#56b4e9;" x="256.777939" xlink:href="#m4f47f9c350" y="342.632536"/>
     <use style="fill:#56b4e9;stroke:#56b4e9;" x="258.412921" xlink:href="#m4f47f9c350" y="341.847245"/>
     <use style="fill:#56b4e9;stroke:#56b4e9;" x="260.047902" xlink:href="#m4f47f9c350" y="341.057782"/>
     <use style="fill:#56b4e9;stroke:#56b4e9;" x="261.682883" xlink:href="#m4f47f9c350" y="340.264197"/>
     <use style="fill:#56b4e9;stroke:#56b4e9;" x="263.317865" xlink:href="#m4f47f9c350" y="339.466518"/>
     <use style="fill:#56b4e9;stroke:#56b4e9;" x="264.952846" xlink:href="#m4f47f9c350" y="338.664737"/>
     <use style="fill:#56b4e9;stroke:#56b4e9;" x="266.587827" xlink:href="#m4f47f9c350" y="337.858789"/>
     <use style="fill:#56b4e9;stroke:#56b4e9;" x="268.222808" xlink:href="#m4f47f9c350" y="337.048587"/>
     <use style="fill:#56b4e9;stroke:#56b4e9;" x="269.85779" xlink:href="#m4f47f9c350" y="336.234098"/>
     <use style="fill:#56b4e9;stroke:#56b4e9;" x="271.492771" xlink:href="#m4f47f9c350" y="335.415358"/>
     <use style="fill:#56b4e9;stroke:#56b4e9;" x="273.127752" xlink:href="#m4f47f9c350" y="334.592446"/>
     <use style="fill:#56b4e9;stroke:#56b4e9;" x="274.762734" xlink:href="#m4f47f9c350" y="333.765435"/>
     <use style="fill:#56b4e9;stroke:#56b4e9;" x="276.397715" xlink:href="#m4f47f9c350" y="332.934366"/>
     <use style="fill:#56b4e9;stroke:#56b4e9;" x="278.032696" xlink:href="#m4f47f9c350" y="332.099268"/>
     <use style="fill:#56b4e9;stroke:#56b4e9;" x="279.667678" xlink:href="#m4f47f9c350" y="331.260158"/>
     <use style="fill:#56b4e9;stroke:#56b4e9;" x="281.302659" xlink:href="#m4f47f9c350" y="330.417059"/>
     <use style="fill:#56b4e9;stroke:#56b4e9;" x="282.93764" xlink:href="#m4f47f9c350" y="329.57"/>
     <use style="fill:#56b4e9;stroke:#56b4e9;" x="284.572622" xlink:href="#m4f47f9c350" y="328.719026"/>
     <use style="fill:#56b4e9;stroke:#56b4e9;" x="286.207603" xlink:href="#m4f47f9c350" y="327.864191"/>
     <use style="fill:#56b4e9;stroke:#56b4e9;" x="287.842584" xlink:href="#m4f47f9c350" y="327.005533"/>
     <use style="fill:#56b4e9;stroke:#56b4e9;" x="289.477565" xlink:href="#m4f47f9c350" y="326.14304"/>
     <use style="fill:#56b4e9;stroke:#56b4e9;" x="291.112547" xlink:href="#m4f47f9c350" y="325.276682"/>
     <use style="fill:#56b4e9;stroke:#56b4e9;" x="292.747528" xlink:href="#m4f47f9c350" y="324.406444"/>
     <use style="fill:#56b4e9;stroke:#56b4e9;" x="294.382509" xlink:href="#m4f47f9c350" y="323.532306"/>
     <use style="fill:#56b4e9;stroke:#56b4e9;" x="296.017491" xlink:href="#m4f47f9c350" y="322.654235"/>
     <use style="fill:#56b4e9;stroke:#56b4e9;" x="297.652472" xlink:href="#m4f47f9c350" y="321.772235"/>
     <use style="fill:#56b4e9;stroke:#56b4e9;" x="299.287453" xlink:href="#m4f47f9c350" y="320.886343"/>
     <use style="fill:#56b4e9;stroke:#56b4e9;" x="300.922435" xlink:href="#m4f47f9c350" y="319.996644"/>
     <use style="fill:#56b4e9;stroke:#56b4e9;" x="302.557416" xlink:href="#m4f47f9c350" y="319.103259"/>
     <use style="fill:#56b4e9;stroke:#56b4e9;" x="304.192397" xlink:href="#m4f47f9c350" y="318.206306"/>
     <use style="fill:#56b4e9;stroke:#56b4e9;" x="305.827378" xlink:href="#m4f47f9c350" y="317.30589"/>
     <use style="fill:#56b4e9;stroke:#56b4e9;" x="307.46236" xlink:href="#m4f47f9c350" y="316.402091"/>
     <use style="fill:#56b4e9;stroke:#56b4e9;" x="309.097341" xlink:href="#m4f47f9c350" y="315.494966"/>
     <use style="fill:#56b4e9;stroke:#56b4e9;" x="310.732322" xlink:href="#m4f47f9c350" y="314.584563"/>
     <use style="fill:#56b4e9;stroke:#56b4e9;" x="312.367304" xlink:href="#m4f47f9c350" y="313.67093"/>
     <use style="fill:#56b4e9;stroke:#56b4e9;" x="314.002285" xlink:href="#m4f47f9c350" y="312.754118"/>
     <use style="fill:#56b4e9;stroke:#56b4e9;" x="315.637266" xlink:href="#m4f47f9c350" y="311.834176"/>
     <use style="fill:#56b4e9;stroke:#56b4e9;" x="317.272248" xlink:href="#m4f47f9c350" y="310.911137"/>
     <use style="fill:#56b4e9;stroke:#56b4e9;" x="318.907229" xlink:href="#m4f47f9c350" y="309.985021"/>
     <use style="fill:#56b4e9;stroke:#56b4e9;" x="320.54221" xlink:href="#m4f47f9c350" y="309.055821"/>
     <use style="fill:#56b4e9;stroke:#56b4e9;" x="322.177192" xlink:href="#m4f47f9c350" y="308.123497"/>
     <use style="fill:#56b4e9;stroke:#56b4e9;" x="323.812173" xlink:href="#m4f47f9c350" y="307.187972"/>
     <use style="fill:#56b4e9;stroke:#56b4e9;" x="325.447154" xlink:href="#m4f47f9c350" y="306.249187"/>
     <use style="fill:#56b4e9;stroke:#56b4e9;" x="327.082135" xlink:href="#m4f47f9c350" y="305.307103"/>
     <use style="fill:#56b4e9;stroke:#56b4e9;" x="328.717117" xlink:href="#m4f47f9c350" y="304.361662"/>
     <use style="fill:#56b4e9;stroke:#56b4e9;" x="330.352098" xlink:href="#m4f47f9c350" y="303.412864"/>
     <use style="fill:#56b4e9;stroke:#56b4e9;" x="331.987079" xlink:href="#m4f47f9c350" y="302.460785"/>
     <use style="fill:#56b4e9;stroke:#56b4e9;" x="333.622061" xlink:href="#m4f47f9c350" y="301.50551"/>
     <use style="fill:#56b4e9;stroke:#56b4e9;" x="335.257042" xlink:href="#m4f47f9c350" y="300.547106"/>
     <use style="fill:#56b4e9;stroke:#56b4e9;" x="336.892023" xlink:href="#m4f47f9c350" y="299.585617"/>
     <use style="fill:#56b4e9;stroke:#56b4e9;" x="338.527005" xlink:href="#m4f47f9c350" y="298.621081"/>
     <use style="fill:#56b4e9;stroke:#56b4e9;" x="340.161986" xlink:href="#m4f47f9c350" y="297.653542"/>
     <use style="fill:#56b4e9;stroke:#56b4e9;" x="341.796967" xlink:href="#m4f47f9c350" y="296.683069"/>
     <use style="fill:#56b4e9;stroke:#56b4e9;" x="343.431948" xlink:href="#m4f47f9c350" y="295.709779"/>
     <use style="fill:#56b4e9;stroke:#56b4e9;" x="345.06693" xlink:href="#m4f47f9c350" y="294.733793"/>
     <use style="fill:#56b4e9;stroke:#56b4e9;" x="346.701911" xlink:href="#m4f47f9c350" y="293.755168"/>
     <use style="fill:#56b4e9;stroke:#56b4e9;" x="348.336892" xlink:href="#m4f47f9c350" y="292.773918"/>
     <use style="fill:#56b4e9;stroke:#56b4e9;" x="349.971874" xlink:href="#m4f47f9c350" y="291.790058"/>
     <use style="fill:#56b4e9;stroke:#56b4e9;" x="351.606855" xlink:href="#m4f47f9c350" y="290.803619"/>
     <use style="fill:#56b4e9;stroke:#56b4e9;" x="353.241836" xlink:href="#m4f47f9c350" y="289.814637"/>
     <use style="fill:#56b4e9;stroke:#56b4e9;" x="354.876818" xlink:href="#m4f47f9c350" y="288.823137"/>
     <use style="fill:#56b4e9;stroke:#56b4e9;" x="356.511799" xlink:href="#m4f47f9c350" y="287.829128"/>
     <use style="fill:#56b4e9;stroke:#56b4e9;" x="358.14678" xlink:href="#m4f47f9c350" y="286.832625"/>
     <use style="fill:#56b4e9;stroke:#56b4e9;" x="359.781761" xlink:href="#m4f47f9c350" y="285.833654"/>
     <use style="fill:#56b4e9;stroke:#56b4e9;" x="361.416743" xlink:href="#m4f47f9c350" y="284.83226"/>
     <use style="fill:#56b4e9;stroke:#56b4e9;" x="363.051724" xlink:href="#m4f47f9c350" y="283.828505"/>
     <use style="fill:#56b4e9;stroke:#56b4e9;" x="364.686705" xlink:href="#m4f47f9c350" y="282.822471"/>
     <use style="fill:#56b4e9;stroke:#56b4e9;" x="366.321687" xlink:href="#m4f47f9c350" y="281.814283"/>
     <use style="fill:#56b4e9;stroke:#56b4e9;" x="367.956668" xlink:href="#m4f47f9c350" y="280.804062"/>
     <use style="fill:#56b4e9;stroke:#56b4e9;" x="369.591649" xlink:href="#m4f47f9c350" y="279.791833"/>
     <use style="fill:#56b4e9;stroke:#56b4e9;" x="371.226631" xlink:href="#m4f47f9c350" y="278.777471"/>
     <use style="fill:#56b4e9;stroke:#56b4e9;" x="372.861612" xlink:href="#m4f47f9c350" y="277.76095"/>
     <use style="fill:#56b4e9;stroke:#56b4e9;" x="374.496593" xlink:href="#m4f47f9c350" y="276.742296"/>
     <use style="fill:#56b4e9;stroke:#56b4e9;" x="376.131575" xlink:href="#m4f47f9c350" y="275.721578"/>
     <use style="fill:#56b4e9;stroke:#56b4e9;" x="377.766556" xlink:href="#m4f47f9c350" y="274.698888"/>
     <use style="fill:#56b4e9;stroke:#56b4e9;" x="379.401537" xlink:href="#m4f47f9c350" y="273.674274"/>
     <use style="fill:#56b4e9;stroke:#56b4e9;" x="381.036518" xlink:href="#m4f47f9c350" y="272.647772"/>
     <use style="fill:#56b4e9;stroke:#56b4e9;" x="382.6715" xlink:href="#m4f47f9c350" y="271.619408"/>
     <use style="fill:#56b4e9;stroke:#56b4e9;" x="384.306481" xlink:href="#m4f47f9c350" y="270.589193"/>
     <use style="fill:#56b4e9;stroke:#56b4e9;" x="385.941462" xlink:href="#m4f47f9c350" y="269.557138"/>
     <use style="fill:#56b4e9;stroke:#56b4e9;" x="387.576444" xlink:href="#m4f47f9c350" y="268.523273"/>
     <use style="fill:#56b4e9;stroke:#56b4e9;" x="389.211425" xlink:href="#m4f47f9c350" y="267.48764"/>
     <use style="fill:#56b4e9;stroke:#56b4e9;" x="390.846406" xlink:href="#m4f47f9c350" y="266.450289"/>
     <use style="fill:#56b4e9;stroke:#56b4e9;" x="392.481388" xlink:href="#m4f47f9c350" y="265.411273"/>
     <use style="fill:#56b4e9;stroke:#56b4e9;" x="394.116369" xlink:href="#m4f47f9c350" y="264.370659"/>
     <use style="fill:#56b4e9;stroke:#56b4e9;" x="395.75135" xlink:href="#m4f47f9c350" y="263.328502"/>
     <use style="fill:#56b4e9;stroke:#56b4e9;" x="397.386331" xlink:href="#m4f47f9c350" y="262.284802"/>
     <use style="fill:#56b4e9;stroke:#56b4e9;" x="399.021313" xlink:href="#m4f47f9c350" y="261.239532"/>
     <use style="fill:#56b4e9;stroke:#56b4e9;" x="400.656294" xlink:href="#m4f47f9c350" y="260.192675"/>
     <use style="fill:#56b4e9;stroke:#56b4e9;" x="402.291275" xlink:href="#m4f47f9c350" y="259.144253"/>
     <use style="fill:#56b4e9;stroke:#56b4e9;" x="403.926257" xlink:href="#m4f47f9c350" y="258.09433"/>
     <use style="fill:#56b4e9;stroke:#56b4e9;" x="405.561238" xlink:href="#m4f47f9c350" y="257.043008"/>
     <use style="fill:#56b4e9;stroke:#56b4e9;" x="407.196219" xlink:href="#m4f47f9c350" y="255.99037"/>
     <use style="fill:#56b4e9;stroke:#56b4e9;" x="408.831201" xlink:href="#m4f47f9c350" y="254.936454"/>
     <use style="fill:#56b4e9;stroke:#56b4e9;" x="410.466182" xlink:href="#m4f47f9c350" y="253.88128"/>
     <use style="fill:#56b4e9;stroke:#56b4e9;" x="412.101163" xlink:href="#m4f47f9c350" y="252.824855"/>
     <use style="fill:#56b4e9;stroke:#56b4e9;" x="413.736144" xlink:href="#m4f47f9c350" y="251.767183"/>
     <use style="fill:#56b4e9;stroke:#56b4e9;" x="415.371126" xlink:href="#m4f47f9c350" y="250.708254"/>
     <use style="fill:#56b4e9;stroke:#56b4e9;" x="417.006107" xlink:href="#m4f47f9c350" y="249.648052"/>
     <use style="fill:#56b4e9;stroke:#56b4e9;" x="418.641088" xlink:href="#m4f47f9c350" y="248.586557"/>
     <use style="fill:#56b4e9;stroke:#56b4e9;" x="420.27607" xlink:href="#m4f47f9c350" y="247.523743"/>
     <use style="fill:#56b4e9;stroke:#56b4e9;" x="421.911051" xlink:href="#m4f47f9c350" y="246.459572"/>
     <use style="fill:#56b4e9;stroke:#56b4e9;" x="423.546032" xlink:href="#m4f47f9c350" y="245.393939"/>
     <use style="fill:#56b4e9;stroke:#56b4e9;" x="425.181014" xlink:href="#m4f47f9c350" y="244.326681"/>
     <use style="fill:#56b4e9;stroke:#56b4e9;" x="426.815995" xlink:href="#m4f47f9c350" y="243.257733"/>
     <use style="fill:#56b4e9;stroke:#56b4e9;" x="428.450976" xlink:href="#m4f47f9c350" y="242.187149"/>
     <use style="fill:#56b4e9;stroke:#56b4e9;" x="430.085958" xlink:href="#m4f47f9c350" y="241.115234"/>
     <use style="fill:#56b4e9;stroke:#56b4e9;" x="431.720939" xlink:href="#m4f47f9c350" y="240.042159"/>
     <use style="fill:#56b4e9;stroke:#56b4e9;" x="433.35592" xlink:href="#m4f47f9c350" y="238.967984"/>
     <use style="fill:#56b4e9;stroke:#56b4e9;" x="434.990901" xlink:href="#m4f47f9c350" y="237.892729"/>
     <use style="fill:#56b4e9;stroke:#56b4e9;" x="436.625883" xlink:href="#m4f47f9c350" y="236.816438"/>
     <use style="fill:#56b4e9;stroke:#56b4e9;" x="438.260864" xlink:href="#m4f47f9c350" y="235.739186"/>
     <use style="fill:#56b4e9;stroke:#56b4e9;" x="439.895845" xlink:href="#m4f47f9c350" y="234.66109"/>
     <use style="fill:#56b4e9;stroke:#56b4e9;" x="441.530827" xlink:href="#m4f47f9c350" y="233.582315"/>
     <use style="fill:#56b4e9;stroke:#56b4e9;" x="443.165808" xlink:href="#m4f47f9c350" y="232.502965"/>
     <use style="fill:#56b4e9;stroke:#56b4e9;" x="444.800789" xlink:href="#m4f47f9c350" y="231.423101"/>
     <use style="fill:#56b4e9;stroke:#56b4e9;" x="446.435771" xlink:href="#m4f47f9c350" y="230.342756"/>
     <use style="fill:#56b4e9;stroke:#56b4e9;" x="448.070752" xlink:href="#m4f47f9c350" y="229.26196"/>
     <use style="fill:#56b4e9;stroke:#56b4e9;" x="449.705733" xlink:href="#m4f47f9c350" y="228.180735"/>
     <use style="fill:#56b4e9;stroke:#56b4e9;" x="451.340714" xlink:href="#m4f47f9c350" y="227.099099"/>
     <use style="fill:#56b4e9;stroke:#56b4e9;" x="452.975696" xlink:href="#m4f47f9c350" y="226.017068"/>
     <use style="fill:#56b4e9;stroke:#56b4e9;" x="454.610677" xlink:href="#m4f47f9c350" y="224.934661"/>
     <use style="fill:#56b4e9;stroke:#56b4e9;" x="456.245658" xlink:href="#m4f47f9c350" y="223.851899"/>
     <use style="fill:#56b4e9;stroke:#56b4e9;" x="457.88064" xlink:href="#m4f47f9c350" y="222.768813"/>
     <use style="fill:#56b4e9;stroke:#56b4e9;" x="459.515621" xlink:href="#m4f47f9c350" y="221.685427"/>
     <use style="fill:#56b4e9;stroke:#56b4e9;" x="461.150602" xlink:href="#m4f47f9c350" y="220.601725"/>
     <use style="fill:#56b4e9;stroke:#56b4e9;" x="462.785584" xlink:href="#m4f47f9c350" y="219.517572"/>
     <use style="fill:#56b4e9;stroke:#56b4e9;" x="464.420565" xlink:href="#m4f47f9c350" y="218.432908"/>
     <use style="fill:#56b4e9;stroke:#56b4e9;" x="466.055546" xlink:href="#m4f47f9c350" y="217.34772"/>
     <use style="fill:#56b4e9;stroke:#56b4e9;" x="467.690527" xlink:href="#m4f47f9c350" y="216.26202"/>
     <use style="fill:#56b4e9;stroke:#56b4e9;" x="469.325509" xlink:href="#m4f47f9c350" y="215.175866"/>
     <use style="fill:#56b4e9;stroke:#56b4e9;" x="470.96049" xlink:href="#m4f47f9c350" y="214.089405"/>
     <use style="fill:#56b4e9;stroke:#56b4e9;" x="472.595471" xlink:href="#m4f47f9c350" y="213.002827"/>
     <use style="fill:#56b4e9;stroke:#56b4e9;" x="474.230453" xlink:href="#m4f47f9c350" y="211.916204"/>
     <use style="fill:#56b4e9;stroke:#56b4e9;" x="475.865434" xlink:href="#m4f47f9c350" y="210.82953"/>
     <use style="fill:#56b4e9;stroke:#56b4e9;" x="477.500415" xlink:href="#m4f47f9c350" y="209.742713"/>
     <use style="fill:#56b4e9;stroke:#56b4e9;" x="479.135397" xlink:href="#m4f47f9c350" y="208.655585"/>
     <use style="fill:#56b4e9;stroke:#56b4e9;" x="480.770378" xlink:href="#m4f47f9c350" y="207.568087"/>
     <use style="fill:#56b4e9;stroke:#56b4e9;" x="482.405359" xlink:href="#m4f47f9c350" y="206.480216"/>
     <use style="fill:#56b4e9;stroke:#56b4e9;" x="484.040341" xlink:href="#m4f47f9c350" y="205.39197"/>
     <use style="fill:#56b4e9;stroke:#56b4e9;" x="485.675322" xlink:href="#m4f47f9c350" y="204.303347"/>
     <use style="fill:#56b4e9;stroke:#56b4e9;" x="487.310303" xlink:href="#m4f47f9c350" y="203.214375"/>
     <use style="fill:#56b4e9;stroke:#56b4e9;" x="488.945284" xlink:href="#m4f47f9c350" y="202.125115"/>
     <use style="fill:#56b4e9;stroke:#56b4e9;" x="490.580266" xlink:href="#m4f47f9c350" y="201.035635"/>
     <use style="fill:#56b4e9;stroke:#56b4e9;" x="492.215247" xlink:href="#m4f47f9c350" y="199.946001"/>
     <use style="fill:#56b4e9;stroke:#56b4e9;" x="493.850228" xlink:href="#m4f47f9c350" y="198.856264"/>
     <use style="fill:#56b4e9;stroke:#56b4e9;" x="495.48521" xlink:href="#m4f47f9c350" y="197.766451"/>
     <use style="fill:#56b4e9;stroke:#56b4e9;" x="497.120191" xlink:href="#m4f47f9c350" y="196.676535"/>
    </g>
   </g>
   <g id="line2d_13">
    <path clip-path="url(#pebdd82a57d)" d="M 93.279809 390.262996 
L 101.454716 389.923514 
L 109.629622 389.333026 
L 117.804529 388.491534 
L 125.979435 387.399036 
L 134.154342 386.055533 
L 142.329248 384.461025 
L 150.504155 382.615512 
L 158.679061 380.518994 
L 166.853968 378.171471 
L 175.028874 375.572942 
L 183.203781 372.723408 
L 191.378687 369.62287 
L 199.553594 366.271326 
L 207.7285 362.668777 
L 215.903407 358.815222 
L 224.078313 354.710663 
L 232.25322 350.355099 
L 240.428126 345.748529 
L 248.603033 340.890954 
L 256.777939 335.782374 
L 264.952846 330.422789 
L 273.127752 324.812199 
L 281.302659 318.950604 
L 289.477565 312.838003 
L 297.652472 306.474398 
L 305.827378 299.859787 
L 314.002285 292.994171 
L 322.177192 285.87755 
L 330.352098 278.509924 
L 340.161986 269.337446 
L 349.971874 259.80352 
L 359.781761 249.908147 
L 369.591649 239.651327 
L 379.401537 229.033059 
L 389.211425 218.053344 
L 399.021313 206.712181 
L 408.831201 195.009571 
L 418.641088 182.945514 
L 428.450976 170.520009 
L 438.260864 157.733057 
L 448.070752 144.584658 
L 457.88064 131.074811 
L 467.690527 117.203516 
L 477.500415 102.970775 
L 487.310303 88.376585 
L 497.120191 73.420949 
L 497.120191 73.420949 
" style="fill:none;stroke:#0173b2;stroke-linecap:round;stroke-width:1.5;"/>
   </g>
   <g id="line2d_14">
    <path clip-path="url(#pebdd82a57d)" d="M 93.279809 453.199928 
L 497.120191 198.283658 
L 497.120191 198.283658 
" style="fill:none;stroke:#cc78bc;stroke-linecap:round;stroke-width:1.5;"/>
   </g>
   <g id="patch_3">
    <path d="M 72 403.704 
L 72 54.432 
" style="fill:none;stroke:#ffffff;stroke-linecap:square;stroke-linejoin:miter;stroke-width:1.25;"/>
   </g>
   <g id="patch_4">
    <path d="M 518.4 403.704 
L 518.4 54.432 
" style="fill:none;stroke:#ffffff;stroke-linecap:square;stroke-linejoin:miter;stroke-width:1.25;"/>
   </g>
   <g id="patch_5">
    <path d="M 72 403.704 
L 518.4 403.704 
" style="fill:none;stroke:#ffffff;stroke-linecap:square;stroke-linejoin:miter;stroke-width:1.25;"/>
   </g>
   <g id="patch_6">
    <path d="M 72 54.432 
L 518.4 54.432 
" style="fill:none;stroke:#ffffff;stroke-linecap:square;stroke-linejoin:miter;stroke-width:1.25;"/>
   </g>
   <g id="text_15">
    <!-- Среднеквадратичное смещение в зависимости от времени -->
    <defs>
     <path d="M 64.40625 67.28125 
L 64.40625 56.890625 
Q 59.421875 61.53125 53.78125 63.8125 
Q 48.140625 66.109375 41.796875 66.109375 
Q 29.296875 66.109375 22.65625 58.46875 
Q 16.015625 50.828125 16.015625 36.375 
Q 16.015625 21.96875 22.65625 14.328125 
Q 29.296875 6.6875 41.796875 6.6875 
Q 48.140625 6.6875 53.78125 8.984375 
Q 59.421875 11.28125 64.40625 15.921875 
L 64.40625 5.609375 
Q 59.234375 2.09375 53.4375 0.328125 
Q 47.65625 -1.421875 41.21875 -1.421875 
Q 24.65625 -1.421875 15.125 8.703125 
Q 5.609375 18.84375 5.609375 36.375 
Q 5.609375 53.953125 15.125 64.078125 
Q 24.65625 74.21875 41.21875 74.21875 
Q 47.75 74.21875 53.53125 72.484375 
Q 59.328125 70.75 64.40625 67.28125 
z
" id="DejaVuSans-1057"/>
     <path d="M 21.625 7.171875 
L 47.703125 7.171875 
L 47.703125 47.515625 
L 28.8125 47.515625 
L 28.8125 40.671875 
Q 28.8125 20.5625 23.046875 9.8125 
z
M 8.59375 7.171875 
Q 13.03125 9.125 14.984375 13.28125 
Q 19.78125 23.578125 19.78125 44.34375 
L 19.78125 54.6875 
L 56.734375 54.6875 
L 56.734375 7.171875 
L 63.921875 7.171875 
L 63.921875 -13.8125 
L 56.734375 -13.8125 
L 56.734375 0 
L 12.40625 0 
L 12.40625 -13.8125 
L 5.21875 -13.8125 
L 5.21875 7.171875 
z
" id="DejaVuSans-1076"/>
     <path d="M 9.078125 54.6875 
L 18.109375 54.6875 
L 18.109375 32.375 
L 47.265625 32.375 
L 47.265625 54.6875 
L 56.296875 54.6875 
L 56.296875 0 
L 47.265625 0 
L 47.265625 25.203125 
L 18.109375 25.203125 
L 18.109375 0 
L 9.078125 0 
z
" id="DejaVuSans-1085"/>
     <path d="M 9.078125 54.6875 
L 18.015625 54.6875 
L 18.015625 29 
L 43.359375 54.6875 
L 54.390625 54.6875 
L 33.5 33.546875 
L 57.078125 0 
L 47.015625 0 
L 27.640625 27.59375 
L 18.015625 17.828125 
L 18.015625 0 
L 9.078125 0 
z
" id="DejaVuSans-1082"/>
     <path d="M 18.0625 25.203125 
L 18.0625 7.171875 
L 30.859375 7.171875 
Q 37.015625 7.171875 40.234375 9.484375 
Q 43.453125 11.8125 43.453125 16.21875 
Q 43.453125 20.609375 40.234375 22.90625 
Q 37.015625 25.203125 30.859375 25.203125 
z
M 18.0625 47.515625 
L 18.0625 32.375 
L 29.890625 32.375 
Q 34.96875 32.375 38.1875 34.390625 
Q 41.40625 36.421875 41.40625 40.046875 
Q 41.40625 43.65625 38.1875 45.578125 
Q 34.96875 47.515625 29.890625 47.515625 
z
M 9.078125 54.6875 
L 30.46875 54.6875 
Q 40.09375 54.6875 45.265625 51.171875 
Q 50.4375 47.65625 50.4375 41.15625 
Q 50.4375 36.140625 47.796875 33.171875 
Q 45.171875 30.21875 39.984375 29.5 
Q 46.1875 28.328125 49.609375 24.609375 
Q 53.03125 20.90625 53.03125 15.328125 
Q 53.03125 8.015625 47.390625 4 
Q 41.75 0 31.296875 0 
L 9.078125 0 
z
" id="DejaVuSans-1074"/>
     <path d="M 34.28125 27.484375 
Q 23.390625 27.484375 19.1875 25 
Q 14.984375 22.515625 14.984375 16.5 
Q 14.984375 11.71875 18.140625 8.90625 
Q 21.296875 6.109375 26.703125 6.109375 
Q 34.1875 6.109375 38.703125 11.40625 
Q 43.21875 16.703125 43.21875 25.484375 
L 43.21875 27.484375 
z
M 52.203125 31.203125 
L 52.203125 0 
L 43.21875 0 
L 43.21875 8.296875 
Q 40.140625 3.328125 35.546875 0.953125 
Q 30.953125 -1.421875 24.3125 -1.421875 
Q 15.921875 -1.421875 10.953125 3.296875 
Q 6 8.015625 6 15.921875 
Q 6 25.140625 12.171875 29.828125 
Q 18.359375 34.515625 30.609375 34.515625 
L 43.21875 34.515625 
L 43.21875 35.40625 
Q 43.21875 41.609375 39.140625 45 
Q 35.0625 48.390625 27.6875 48.390625 
Q 23 48.390625 18.546875 47.265625 
Q 14.109375 46.140625 10.015625 43.890625 
L 10.015625 52.203125 
Q 14.9375 54.109375 19.578125 55.046875 
Q 24.21875 56 28.609375 56 
Q 40.484375 56 46.34375 49.84375 
Q 52.203125 43.703125 52.203125 31.203125 
z
" id="DejaVuSans-1072"/>
     <path d="M 2.9375 54.6875 
L 55.328125 54.6875 
L 55.328125 47.515625 
L 33.546875 47.515625 
L 33.546875 0 
L 24.703125 0 
L 24.703125 47.515625 
L 2.9375 47.515625 
z
" id="DejaVuSans-1090"/>
     <path d="M 55.90625 54.6875 
L 55.90625 0 
L 46.96875 0 
L 46.96875 43.890625 
L 20.609375 0 
L 9.078125 0 
L 9.078125 54.6875 
L 18.015625 54.6875 
L 18.015625 10.890625 
L 44.34375 54.6875 
z
" id="DejaVuSans-1080"/>
     <path d="M 41.015625 0 
L 41.015625 23 
L 24.265625 23 
Q 16.796875 23 11.8125 27.640625 
Q 7.328125 31.84375 7.328125 40.828125 
L 7.328125 54.6875 
L 16.3125 54.6875 
L 16.3125 41.65625 
Q 16.3125 35.9375 18.84375 33.0625 
Q 21.4375 30.171875 26.515625 30.171875 
L 41.015625 30.171875 
L 41.015625 54.6875 
L 50 54.6875 
L 50 0 
z
" id="DejaVuSans-1095"/>
     <path d="M 30.609375 48.390625 
Q 23.390625 48.390625 19.1875 42.75 
Q 14.984375 37.109375 14.984375 27.296875 
Q 14.984375 17.484375 19.15625 11.84375 
Q 23.34375 6.203125 30.609375 6.203125 
Q 37.796875 6.203125 41.984375 11.859375 
Q 46.1875 17.53125 46.1875 27.296875 
Q 46.1875 37.015625 41.984375 42.703125 
Q 37.796875 48.390625 30.609375 48.390625 
z
M 30.609375 56 
Q 42.328125 56 49.015625 48.375 
Q 55.71875 40.765625 55.71875 27.296875 
Q 55.71875 13.875 49.015625 6.21875 
Q 42.328125 -1.421875 30.609375 -1.421875 
Q 18.84375 -1.421875 12.171875 6.21875 
Q 5.515625 13.875 5.515625 27.296875 
Q 5.515625 40.765625 12.171875 48.375 
Q 18.84375 56 30.609375 56 
z
" id="DejaVuSans-1086"/>
     <path d="M 48.78125 52.59375 
L 48.78125 44.1875 
Q 44.96875 46.296875 41.140625 47.34375 
Q 37.3125 48.390625 33.40625 48.390625 
Q 24.65625 48.390625 19.8125 42.84375 
Q 14.984375 37.3125 14.984375 27.296875 
Q 14.984375 17.28125 19.8125 11.734375 
Q 24.65625 6.203125 33.40625 6.203125 
Q 37.3125 6.203125 41.140625 7.25 
Q 44.96875 8.296875 48.78125 10.40625 
L 48.78125 2.09375 
Q 45.015625 0.34375 40.984375 -0.53125 
Q 36.96875 -1.421875 32.421875 -1.421875 
Q 20.0625 -1.421875 12.78125 6.34375 
Q 5.515625 14.109375 5.515625 27.296875 
Q 5.515625 40.671875 12.859375 48.328125 
Q 20.21875 56 33.015625 56 
Q 37.15625 56 41.109375 55.140625 
Q 45.0625 54.296875 48.78125 52.59375 
z
" id="DejaVuSans-1089"/>
     <path d="M 82.421875 0 
L 9.078125 0 
L 9.078125 54.6875 
L 18.109375 54.6875 
L 18.109375 7.171875 
L 41.21875 7.171875 
L 41.21875 54.6875 
L 50.25 54.6875 
L 50.25 7.171875 
L 73.390625 7.171875 
L 73.390625 54.6875 
L 82.421875 54.6875 
L 82.421875 7.171875 
L 89.59375 7.171875 
L 89.59375 -13.8125 
L 82.421875 -13.8125 
z
" id="DejaVuSans-1097"/>
     <path d="M 34.46875 29.5 
Q 40.53125 28.328125 43.890625 24.75 
Q 47.265625 21.1875 47.265625 15.921875 
Q 47.265625 7.46875 40.96875 3.015625 
Q 34.671875 -1.421875 23.046875 -1.421875 
Q 19.140625 -1.421875 15.015625 -0.734375 
Q 10.890625 -0.046875 6.5 1.3125 
L 6.5 9.671875 
Q 9.96875 7.859375 14.109375 6.953125 
Q 18.265625 6.0625 22.796875 6.0625 
Q 30.171875 6.0625 34.296875 8.796875 
Q 38.421875 11.53125 38.421875 15.921875 
Q 38.421875 20.21875 34.765625 22.828125 
Q 31.109375 25.4375 24.421875 25.4375 
L 17.1875 25.4375 
L 17.1875 32.859375 
L 24.75 32.859375 
Q 30.421875 32.859375 33.71875 35.03125 
Q 37.015625 37.203125 37.015625 40.625 
Q 37.015625 43.75 33.609375 46 
Q 30.21875 48.25 24.421875 48.25 
Q 20.953125 48.25 17.015625 47.609375 
Q 13.09375 46.96875 8.34375 45.5625 
L 8.34375 53.71875 
Q 13.140625 54.890625 17.28125 55.46875 
Q 21.4375 56.0625 25.140625 56.0625 
Q 34.71875 56.0625 40.25 52.21875 
Q 45.796875 48.390625 45.796875 41.5 
Q 45.796875 36.96875 42.859375 33.8125 
Q 39.9375 30.671875 34.46875 29.5 
z
" id="DejaVuSans-1079"/>
    </defs>
    <g style="fill:#262626;" transform="translate(106.971563 48.432)scale(0.12 -0.12)">
     <use xlink:href="#DejaVuSans-1057"/>
     <use x="69.824219" xlink:href="#DejaVuSans-1088"/>
     <use x="133.300781" xlink:href="#DejaVuSans-1077"/>
     <use x="194.824219" xlink:href="#DejaVuSans-1076"/>
     <use x="263.964844" xlink:href="#DejaVuSans-1085"/>
     <use x="329.345703" xlink:href="#DejaVuSans-1077"/>
     <use x="390.869141" xlink:href="#DejaVuSans-1082"/>
     <use x="451.269531" xlink:href="#DejaVuSans-1074"/>
     <use x="510.205078" xlink:href="#DejaVuSans-1072"/>
     <use x="571.484375" xlink:href="#DejaVuSans-1076"/>
     <use x="640.625" xlink:href="#DejaVuSans-1088"/>
     <use x="704.101562" xlink:href="#DejaVuSans-1072"/>
     <use x="765.380859" xlink:href="#DejaVuSans-1090"/>
     <use x="823.632812" xlink:href="#DejaVuSans-1080"/>
     <use x="888.623047" xlink:href="#DejaVuSans-1095"/>
     <use x="947.705078" xlink:href="#DejaVuSans-1085"/>
     <use x="1013.085938" xlink:href="#DejaVuSans-1086"/>
     <use x="1074.267578" xlink:href="#DejaVuSans-1077"/>
     <use x="1135.791016" xlink:href="#DejaVuSans-32"/>
     <use x="1167.578125" xlink:href="#DejaVuSans-1089"/>
     <use x="1222.558594" xlink:href="#DejaVuSans-1084"/>
     <use x="1297.998047" xlink:href="#DejaVuSans-1077"/>
     <use x="1359.521484" xlink:href="#DejaVuSans-1097"/>
     <use x="1453.710938" xlink:href="#DejaVuSans-1077"/>
     <use x="1515.234375" xlink:href="#DejaVuSans-1085"/>
     <use x="1580.615234" xlink:href="#DejaVuSans-1080"/>
     <use x="1645.605469" xlink:href="#DejaVuSans-1077"/>
     <use x="1707.128906" xlink:href="#DejaVuSans-32"/>
     <use x="1738.916016" xlink:href="#DejaVuSans-1074"/>
     <use x="1797.851562" xlink:href="#DejaVuSans-32"/>
     <use x="1829.638672" xlink:href="#DejaVuSans-1079"/>
     <use x="1882.8125" xlink:href="#DejaVuSans-1072"/>
     <use x="1944.091797" xlink:href="#DejaVuSans-1074"/>
     <use x="2003.027344" xlink:href="#DejaVuSans-1080"/>
     <use x="2068.017578" xlink:href="#DejaVuSans-1089"/>
     <use x="2122.998047" xlink:href="#DejaVuSans-1080"/>
     <use x="2187.988281" xlink:href="#DejaVuSans-1084"/>
     <use x="2263.427734" xlink:href="#DejaVuSans-1086"/>
     <use x="2324.609375" xlink:href="#DejaVuSans-1089"/>
     <use x="2379.589844" xlink:href="#DejaVuSans-1090"/>
     <use x="2437.841797" xlink:href="#DejaVuSans-1080"/>
     <use x="2502.832031" xlink:href="#DejaVuSans-32"/>
     <use x="2534.619141" xlink:href="#DejaVuSans-1086"/>
     <use x="2595.800781" xlink:href="#DejaVuSans-1090"/>
     <use x="2654.052734" xlink:href="#DejaVuSans-32"/>
     <use x="2685.839844" xlink:href="#DejaVuSans-1074"/>
     <use x="2744.775391" xlink:href="#DejaVuSans-1088"/>
     <use x="2808.251953" xlink:href="#DejaVuSans-1077"/>
     <use x="2869.775391" xlink:href="#DejaVuSans-1084"/>
     <use x="2945.214844" xlink:href="#DejaVuSans-1077"/>
     <use x="3006.738281" xlink:href="#DejaVuSans-1085"/>
     <use x="3072.119141" xlink:href="#DejaVuSans-1080"/>
    </g>
   </g>
   <g id="legend_1">
    <g id="patch_7">
     <path d="M 79.7 95.711219 
L 268.667969 95.711219 
Q 270.867969 95.711219 270.867969 93.511219 
L 270.867969 62.132 
Q 270.867969 59.932 268.667969 59.932 
L 79.7 59.932 
Q 77.5 59.932 77.5 62.132 
L 77.5 93.511219 
Q 77.5 95.711219 79.7 95.711219 
z
" style="fill:#eaeaf2;opacity:0.8;stroke:#cccccc;stroke-linejoin:miter;"/>
    </g>
    <g id="line2d_15">
     <path d="M 81.9 69.027625 
L 103.9 69.027625 
" style="fill:none;stroke:#0173b2;stroke-linecap:round;stroke-width:1.5;"/>
    </g>
    <g id="line2d_16"/>
    <g id="text_16">
     <!-- Параболическая асимтота -->
     <defs>
      <path d="M 65.375 72.90625 
L 65.375 0 
L 55.515625 0 
L 55.515625 64.59375 
L 19.671875 64.59375 
L 19.671875 0 
L 9.8125 0 
L 9.8125 72.90625 
z
" id="DejaVuSans-1055"/>
      <path d="M 31.109375 56 
Q 42.828125 56 49.515625 48.375 
Q 56.203125 40.765625 56.203125 27.296875 
Q 56.203125 13.875 49.515625 6.21875 
Q 42.828125 -1.421875 31.109375 -1.421875 
Q 19.34375 -1.421875 12.84375 6 
Q 6.34375 13.421875 6 27.296875 
L 5.71875 38.484375 
Q 5.46875 44.28125 5.46875 46.296875 
Q 5.46875 54.109375 8.296875 59.859375 
Q 12.75 68.890625 20.4375 72.796875 
Q 28.125 76.703125 41.015625 76.8125 
Q 46.96875 76.859375 49.609375 77.6875 
L 52.09375 70.5625 
Q 49.703125 69.578125 47.515625 69.53125 
L 35.296875 68.703125 
Q 29.15625 68.265625 25.4375 66.109375 
Q 15.71875 60.40625 14.796875 52.9375 
L 14.453125 50.203125 
Q 20.796875 56 31.109375 56 
z
M 31.109375 48.390625 
Q 23.875 48.390625 19.671875 42.75 
Q 15.484375 37.109375 15.484375 27.296875 
Q 15.484375 17.484375 19.65625 11.84375 
Q 23.828125 6.203125 31.109375 6.203125 
Q 38.28125 6.203125 42.484375 11.859375 
Q 46.6875 17.53125 46.6875 27.296875 
Q 46.6875 37.015625 42.484375 42.703125 
Q 38.28125 48.390625 31.109375 48.390625 
z
" id="DejaVuSans-1073"/>
      <path d="M 3.71875 0 
L 3.71875 7.46875 
Q 12.59375 8.84375 15.328125 14.984375 
Q 18.65625 23.640625 18.65625 45.75 
L 18.65625 54.6875 
L 55.609375 54.6875 
L 55.609375 0 
L 46.625 0 
L 46.625 47.515625 
L 27.640625 47.515625 
L 27.640625 42.09375 
Q 27.640625 21 23.34375 11.53125 
Q 18.75 1.421875 3.71875 0 
z
" id="DejaVuSans-1083"/>
     </defs>
     <g style="fill:#262626;" transform="translate(112.7 72.877625)scale(0.11 -0.11)">
      <use xlink:href="#DejaVuSans-1055"/>
      <use x="75.195312" xlink:href="#DejaVuSans-1072"/>
      <use x="136.474609" xlink:href="#DejaVuSans-1088"/>
      <use x="199.951172" xlink:href="#DejaVuSans-1072"/>
      <use x="261.230469" xlink:href="#DejaVuSans-1073"/>
      <use x="322.900391" xlink:href="#DejaVuSans-1086"/>
      <use x="384.082031" xlink:href="#DejaVuSans-1083"/>
      <use x="447.998047" xlink:href="#DejaVuSans-1080"/>
      <use x="512.988281" xlink:href="#DejaVuSans-1095"/>
      <use x="572.070312" xlink:href="#DejaVuSans-1077"/>
      <use x="633.59375" xlink:href="#DejaVuSans-1089"/>
      <use x="688.574219" xlink:href="#DejaVuSans-1082"/>
      <use x="748.974609" xlink:href="#DejaVuSans-1072"/>
      <use x="810.253906" xlink:href="#DejaVuSans-1103"/>
      <use x="870.410156" xlink:href="#DejaVuSans-32"/>
      <use x="902.197266" xlink:href="#DejaVuSans-1072"/>
      <use x="963.476562" xlink:href="#DejaVuSans-1089"/>
      <use x="1018.457031" xlink:href="#DejaVuSans-1080"/>
      <use x="1083.447266" xlink:href="#DejaVuSans-1084"/>
      <use x="1158.886719" xlink:href="#DejaVuSans-1090"/>
      <use x="1217.138672" xlink:href="#DejaVuSans-1086"/>
      <use x="1278.320312" xlink:href="#DejaVuSans-1090"/>
      <use x="1336.572266" xlink:href="#DejaVuSans-1072"/>
     </g>
    </g>
    <g id="line2d_17">
     <path d="M 81.9 85.173563 
L 103.9 85.173563 
" style="fill:none;stroke:#cc78bc;stroke-linecap:round;stroke-width:1.5;"/>
    </g>
    <g id="line2d_18"/>
    <g id="text_17">
     <!-- Линейная асимтота -->
     <defs>
      <path d="M 4.109375 0 
L 4.109375 8.296875 
Q 14.703125 10.59375 17.71875 18.609375 
Q 21.96875 31.203125 21.96875 60.5 
L 21.96875 72.90625 
L 65.328125 72.90625 
L 65.328125 0 
L 55.46875 0 
L 55.46875 64.59375 
L 31.78125 64.59375 
L 31.78125 55.609375 
Q 31.78125 27.984375 26.8125 15.09375 
Q 22.015625 2.734375 4.109375 0 
z
" id="DejaVuSans-1051"/>
      <path d="M 55.90625 54.6875 
L 55.90625 0 
L 46.96875 0 
L 46.96875 43.890625 
L 20.609375 0 
L 9.078125 0 
L 9.078125 54.6875 
L 18.015625 54.6875 
L 18.015625 10.890625 
L 44.34375 54.6875 
z
M 17.21875 75.515625 
L 22.984375 75.515625 
Q 23.515625 71.859375 25.875 70.015625 
Q 28.25 68.1875 32.5 68.1875 
Q 36.703125 68.1875 39.046875 70 
Q 41.390625 71.8125 42.015625 75.515625 
L 47.78125 75.515625 
Q 47.296875 68.53125 43.4375 65.015625 
Q 39.578125 61.5 32.5 61.5 
Q 25.421875 61.5 21.5625 65.015625 
Q 17.703125 68.53125 17.21875 75.515625 
z
" id="DejaVuSans-1081"/>
     </defs>
     <g style="fill:#262626;" transform="translate(112.7 89.023563)scale(0.11 -0.11)">
      <use xlink:href="#DejaVuSans-1051"/>
      <use x="75.195312" xlink:href="#DejaVuSans-1080"/>
      <use x="140.185547" xlink:href="#DejaVuSans-1085"/>
      <use x="205.566406" xlink:href="#DejaVuSans-1077"/>
      <use x="267.089844" xlink:href="#DejaVuSans-1081"/>
      <use x="332.080078" xlink:href="#DejaVuSans-1085"/>
      <use x="397.460938" xlink:href="#DejaVuSans-1072"/>
      <use x="458.740234" xlink:href="#DejaVuSans-1103"/>
      <use x="518.896484" xlink:href="#DejaVuSans-32"/>
      <use x="550.683594" xlink:href="#DejaVuSans-1072"/>
      <use x="611.962891" xlink:href="#DejaVuSans-1089"/>
      <use x="666.943359" xlink:href="#DejaVuSans-1080"/>
      <use x="731.933594" xlink:href="#DejaVuSans-1084"/>
      <use x="807.373047" xlink:href="#DejaVuSans-1090"/>
      <use x="865.625" xlink:href="#DejaVuSans-1086"/>
      <use x="926.806641" xlink:href="#DejaVuSans-1090"/>
      <use x="985.058594" xlink:href="#DejaVuSans-1072"/>
     </g>
    </g>
   </g>
  </g>
 </g>
 <defs>
  <clipPath id="pebdd82a57d">
   <rect height="349.272" width="446.4" x="72" y="54.432"/>
  </clipPath>
 </defs>
</svg>
