<?xml version="1.0" encoding="utf-8" standalone="no"?>
<!DOCTYPE svg PUBLIC "-//W3C//DTD SVG 1.1//EN"
  "http://www.w3.org/Graphics/SVG/1.1/DTD/svg11.dtd">
<!-- Created with matplotlib (https://matplotlib.org/) -->
<svg height="453.6pt" version="1.1" viewBox="0 0 576 453.6" width="576pt" xmlns="http://www.w3.org/2000/svg" xmlns:xlink="http://www.w3.org/1999/xlink">
 <defs>
  <style type="text/css">
*{stroke-linecap:butt;stroke-linejoin:round;}
  </style>
 </defs>
 <g id="figure_1">
  <g id="patch_1">
   <path d="M 0 453.6 
L 576 453.6 
L 576 0 
L 0 0 
z
" style="fill:#ffffff;"/>
  </g>
  <g id="axes_1">
   <g id="patch_2">
    <path d="M 72 403.704 
L 518.4 403.704 
L 518.4 54.432 
L 72 54.432 
z
" style="fill:#eaeaf2;"/>
   </g>
   <g id="matplotlib.axis_1">
    <g id="xtick_1">
     <g id="line2d_1">
      <path clip-path="url(#p9565468396)" d="M 92.290909 403.704 
L 92.290909 54.432 
" style="fill:none;stroke:#ffffff;stroke-linecap:round;"/>
     </g>
     <g id="text_1">
      <!-- $\mathdefault{10^{-2}}$ -->
      <defs>
       <path d="M 12.40625 8.296875 
L 28.515625 8.296875 
L 28.515625 63.921875 
L 10.984375 60.40625 
L 10.984375 69.390625 
L 28.421875 72.90625 
L 38.28125 72.90625 
L 38.28125 8.296875 
L 54.390625 8.296875 
L 54.390625 0 
L 12.40625 0 
z
" id="DejaVuSans-49"/>
       <path d="M 31.78125 66.40625 
Q 24.171875 66.40625 20.328125 58.90625 
Q 16.5 51.421875 16.5 36.375 
Q 16.5 21.390625 20.328125 13.890625 
Q 24.171875 6.390625 31.78125 6.390625 
Q 39.453125 6.390625 43.28125 13.890625 
Q 47.125 21.390625 47.125 36.375 
Q 47.125 51.421875 43.28125 58.90625 
Q 39.453125 66.40625 31.78125 66.40625 
z
M 31.78125 74.21875 
Q 44.046875 74.21875 50.515625 64.515625 
Q 56.984375 54.828125 56.984375 36.375 
Q 56.984375 17.96875 50.515625 8.265625 
Q 44.046875 -1.421875 31.78125 -1.421875 
Q 19.53125 -1.421875 13.0625 8.265625 
Q 6.59375 17.96875 6.59375 36.375 
Q 6.59375 54.828125 13.0625 64.515625 
Q 19.53125 74.21875 31.78125 74.21875 
z
" id="DejaVuSans-48"/>
       <path d="M 10.59375 35.5 
L 73.1875 35.5 
L 73.1875 27.203125 
L 10.59375 27.203125 
z
" id="DejaVuSans-8722"/>
       <path d="M 19.1875 8.296875 
L 53.609375 8.296875 
L 53.609375 0 
L 7.328125 0 
L 7.328125 8.296875 
Q 12.9375 14.109375 22.625 23.890625 
Q 32.328125 33.6875 34.8125 36.53125 
Q 39.546875 41.84375 41.421875 45.53125 
Q 43.3125 49.21875 43.3125 52.78125 
Q 43.3125 58.59375 39.234375 62.25 
Q 35.15625 65.921875 28.609375 65.921875 
Q 23.96875 65.921875 18.8125 64.3125 
Q 13.671875 62.703125 7.8125 59.421875 
L 7.8125 69.390625 
Q 13.765625 71.78125 18.9375 73 
Q 24.125 74.21875 28.421875 74.21875 
Q 39.75 74.21875 46.484375 68.546875 
Q 53.21875 62.890625 53.21875 53.421875 
Q 53.21875 48.921875 51.53125 44.890625 
Q 49.859375 40.875 45.40625 35.40625 
Q 44.1875 33.984375 37.640625 27.21875 
Q 31.109375 20.453125 19.1875 8.296875 
z
" id="DejaVuSans-50"/>
      </defs>
      <g style="fill:#262626;" transform="translate(79.365909 421.562281)scale(0.11 -0.11)">
       <use transform="translate(0 0.765625)" xlink:href="#DejaVuSans-49"/>
       <use transform="translate(63.623047 0.765625)" xlink:href="#DejaVuSans-48"/>
       <use transform="translate(128.203125 39.046875)scale(0.7)" xlink:href="#DejaVuSans-8722"/>
       <use transform="translate(186.855469 39.046875)scale(0.7)" xlink:href="#DejaVuSans-50"/>
      </g>
     </g>
    </g>
    <g id="xtick_2">
     <g id="line2d_2">
      <path clip-path="url(#p9565468396)" d="M 261.822662 403.704 
L 261.822662 54.432 
" style="fill:none;stroke:#ffffff;stroke-linecap:round;"/>
     </g>
     <g id="text_2">
      <!-- $\mathdefault{10^{-1}}$ -->
      <g style="fill:#262626;" transform="translate(248.897662 421.562281)scale(0.11 -0.11)">
       <use transform="translate(0 0.684375)" xlink:href="#DejaVuSans-49"/>
       <use transform="translate(63.623047 0.684375)" xlink:href="#DejaVuSans-48"/>
       <use transform="translate(128.203125 38.965625)scale(0.7)" xlink:href="#DejaVuSans-8722"/>
       <use transform="translate(186.855469 38.965625)scale(0.7)" xlink:href="#DejaVuSans-49"/>
      </g>
     </g>
    </g>
    <g id="xtick_3">
     <g id="line2d_3">
      <path clip-path="url(#p9565468396)" d="M 431.354416 403.704 
L 431.354416 54.432 
" style="fill:none;stroke:#ffffff;stroke-linecap:round;"/>
     </g>
     <g id="text_3">
      <!-- $\mathdefault{10^{0}}$ -->
      <g style="fill:#262626;" transform="translate(421.674416 421.562281)scale(0.11 -0.11)">
       <use transform="translate(0 0.765625)" xlink:href="#DejaVuSans-49"/>
       <use transform="translate(63.623047 0.765625)" xlink:href="#DejaVuSans-48"/>
       <use transform="translate(128.203125 39.046875)scale(0.7)" xlink:href="#DejaVuSans-48"/>
      </g>
     </g>
    </g>
    <g id="xtick_4"/>
    <g id="xtick_5"/>
    <g id="xtick_6"/>
    <g id="xtick_7"/>
    <g id="xtick_8"/>
    <g id="xtick_9"/>
    <g id="xtick_10"/>
    <g id="xtick_11"/>
    <g id="xtick_12"/>
    <g id="xtick_13"/>
    <g id="xtick_14"/>
    <g id="xtick_15"/>
    <g id="xtick_16"/>
    <g id="xtick_17"/>
    <g id="xtick_18"/>
    <g id="xtick_19"/>
    <g id="xtick_20"/>
    <g id="xtick_21"/>
    <g id="xtick_22"/>
    <g id="xtick_23"/>
    <g id="text_4">
     <!-- Время $\left(\sqrt{\frac{m\sigma^2}{\varepsilon} }\right)$ -->
     <defs>
      <path d="M 19.671875 34.8125 
L 19.671875 8.109375 
L 35.5 8.109375 
Q 43.453125 8.109375 47.28125 11.40625 
Q 51.125 14.703125 51.125 21.484375 
Q 51.125 28.328125 47.28125 31.5625 
Q 43.453125 34.8125 35.5 34.8125 
z
M 19.671875 64.796875 
L 19.671875 42.828125 
L 34.28125 42.828125 
Q 41.5 42.828125 45.03125 45.53125 
Q 48.578125 48.25 48.578125 53.8125 
Q 48.578125 59.328125 45.03125 62.0625 
Q 41.5 64.796875 34.28125 64.796875 
z
M 9.8125 72.90625 
L 35.015625 72.90625 
Q 46.296875 72.90625 52.390625 68.21875 
Q 58.5 63.53125 58.5 54.890625 
Q 58.5 48.1875 55.375 44.234375 
Q 52.25 40.28125 46.1875 39.3125 
Q 53.46875 37.75 57.5 32.78125 
Q 61.53125 27.828125 61.53125 20.40625 
Q 61.53125 10.640625 54.890625 5.3125 
Q 48.25 0 35.984375 0 
L 9.8125 0 
z
" id="DejaVuSans-1042"/>
      <path d="M 18.109375 8.203125 
L 18.109375 -20.796875 
L 9.078125 -20.796875 
L 9.078125 54.6875 
L 18.109375 54.6875 
L 18.109375 46.390625 
Q 20.953125 51.265625 25.265625 53.625 
Q 29.59375 56 35.59375 56 
Q 45.5625 56 51.78125 48.09375 
Q 58.015625 40.1875 58.015625 27.296875 
Q 58.015625 14.40625 51.78125 6.484375 
Q 45.5625 -1.421875 35.59375 -1.421875 
Q 29.59375 -1.421875 25.265625 0.953125 
Q 20.953125 3.328125 18.109375 8.203125 
z
M 48.6875 27.296875 
Q 48.6875 37.203125 44.609375 42.84375 
Q 40.53125 48.484375 33.40625 48.484375 
Q 26.265625 48.484375 22.1875 42.84375 
Q 18.109375 37.203125 18.109375 27.296875 
Q 18.109375 17.390625 22.1875 11.75 
Q 26.265625 6.109375 33.40625 6.109375 
Q 40.53125 6.109375 44.609375 11.75 
Q 48.6875 17.390625 48.6875 27.296875 
z
" id="DejaVuSans-1088"/>
      <path d="M 56.203125 29.59375 
L 56.203125 25.203125 
L 14.890625 25.203125 
Q 15.484375 15.921875 20.484375 11.0625 
Q 25.484375 6.203125 34.421875 6.203125 
Q 39.59375 6.203125 44.453125 7.46875 
Q 49.3125 8.734375 54.109375 11.28125 
L 54.109375 2.78125 
Q 49.265625 0.734375 44.1875 -0.34375 
Q 39.109375 -1.421875 33.890625 -1.421875 
Q 20.796875 -1.421875 13.15625 6.1875 
Q 5.515625 13.8125 5.515625 26.8125 
Q 5.515625 40.234375 12.765625 48.109375 
Q 20.015625 56 32.328125 56 
Q 43.359375 56 49.78125 48.890625 
Q 56.203125 41.796875 56.203125 29.59375 
z
M 47.21875 32.234375 
Q 47.125 39.59375 43.09375 43.984375 
Q 39.0625 48.390625 32.421875 48.390625 
Q 24.90625 48.390625 20.390625 44.140625 
Q 15.875 39.890625 15.1875 32.171875 
z
" id="DejaVuSans-1077"/>
      <path d="M 9.078125 54.6875 
L 22.21875 54.6875 
L 37.75 18.0625 
L 53.328125 54.6875 
L 66.359375 54.6875 
L 66.359375 0 
L 57.328125 0 
L 57.328125 46.09375 
L 42.234375 10.5 
L 33.25 10.5 
L 18.109375 46.09375 
L 18.109375 0 
L 9.078125 0 
z
" id="DejaVuSans-1084"/>
      <path d="M 18.453125 38.921875 
Q 18.453125 34.859375 21.578125 32.5625 
Q 24.703125 30.28125 30.515625 30.28125 
L 42.625 30.28125 
L 42.625 47.515625 
L 30.515625 47.515625 
Q 24.703125 47.515625 21.578125 45.265625 
Q 18.453125 43.015625 18.453125 38.921875 
z
M 5.671875 0 
L 22.359375 23.96875 
Q 16.703125 25.25 12.9375 28.59375 
Q 9.1875 31.9375 9.1875 38.921875 
Q 9.1875 46.828125 14.421875 50.75 
Q 19.671875 54.6875 30.28125 54.6875 
L 51.65625 54.6875 
L 51.65625 0 
L 42.625 0 
L 42.625 23.09375 
L 31.453125 23.09375 
L 15.328125 0 
z
" id="DejaVuSans-1103"/>
      <path id="DejaVuSans-32"/>
      <path d="M 50.296875 -24.296875 
L 50.296875 -27.90625 
Q 33.5 -12.09375 23.703125 11.40625 
Q 13.90625 34.90625 13.90625 64.296875 
Q 13.90625 93.796875 23.953125 118.640625 
Q 34 143.5 50.296875 156.59375 
L 50.296875 153.296875 
Q 38.90625 141.59375 31.15625 118.84375 
Q 23.40625 96.09375 23.40625 64.296875 
Q 23.40625 8.796875 50.296875 -24.296875 
z
" id="STIXSizeTwoSym-Regular-40"/>
      <path d="M 108.90625 155.203125 
L 52.703125 -29.5 
L 48.5 -29.5 
L 25.40625 45.59375 
Q 24.296875 49.203125 22.890625 50.796875 
Q 21.5 52.40625 19.203125 52.40625 
Q 15.796875 52.40625 12.40625 49.703125 
L 11.203125 51.703125 
L 27.59375 64.296875 
L 30.09375 64.296875 
L 52.796875 -9.40625 
L 53.203125 -9.40625 
L 103.203125 155.203125 
z
" id="STIXSizeOneSym-Regular-8730"/>
      <path d="M 89.796875 33.015625 
L 83.40625 0 
L 74.421875 0 
L 80.71875 32.71875 
Q 81.109375 34.8125 81.296875 36.328125 
Q 81.5 37.84375 81.5 38.921875 
Q 81.5 43.3125 79.046875 45.75 
Q 76.609375 48.1875 72.21875 48.1875 
Q 65.671875 48.1875 60.546875 43.28125 
Q 55.421875 38.375 53.90625 30.515625 
L 47.90625 0 
L 38.921875 0 
L 45.3125 32.71875 
Q 45.703125 34.515625 45.890625 36.046875 
Q 46.09375 37.59375 46.09375 38.8125 
Q 46.09375 43.265625 43.65625 45.71875 
Q 41.21875 48.1875 36.921875 48.1875 
Q 30.28125 48.1875 25.140625 43.28125 
Q 20.015625 38.375 18.5 30.515625 
L 12.5 0 
L 3.515625 0 
L 14.203125 54.6875 
L 23.1875 54.6875 
L 21.484375 46.1875 
Q 25.140625 50.984375 30.046875 53.484375 
Q 34.96875 56 40.578125 56 
Q 46.53125 56 50.359375 52.875 
Q 54.203125 49.75 54.984375 44.1875 
Q 59.078125 49.953125 64.46875 52.96875 
Q 69.875 56 75.875 56 
Q 82.90625 56 86.734375 51.953125 
Q 90.578125 47.90625 90.578125 40.484375 
Q 90.578125 38.875 90.375 36.9375 
Q 90.1875 35.015625 89.796875 33.015625 
z
" id="DejaVuSans-Oblique-109"/>
      <path d="M 34.671875 47.5625 
Q 27.25 47.5625 22.21875 42.1875 
Q 16.890625 36.578125 15.140625 27.296875 
Q 13.1875 17.484375 16.3125 11.8125 
Q 19.390625 6.203125 26.65625 6.203125 
Q 33.84375 6.203125 39.109375 11.859375 
Q 44.4375 17.53125 46.34375 27.296875 
Q 48.046875 36.234375 45.015625 42.1875 
Q 42.1875 47.5625 34.671875 47.5625 
z
M 36.078125 54.734375 
L 65.921875 54.6875 
L 64.15625 45.703125 
L 54.109375 45.703125 
Q 57.90625 38.09375 55.859375 27.296875 
Q 53.21875 13.875 45.0625 6.25 
Q 36.859375 -1.421875 25.140625 -1.421875 
Q 13.375 -1.421875 8.203125 6.25 
Q 3.03125 13.875 5.671875 27.296875 
Q 8.25 40.765625 16.40625 48.390625 
Q 23.1875 54.734375 36.078125 54.734375 
z
" id="DejaVuSans-Oblique-963"/>
      <path d="M 19.734375 29.5 
Q 14.453125 30.671875 12.15625 33.84375 
Q 10.453125 36.078125 10.453125 39.109375 
Q 10.453125 47.40625 18.359375 52.25 
Q 24.609375 56.0625 34.1875 56.0625 
Q 37.890625 56.0625 41.9375 55.46875 
Q 46 54.890625 50.53125 53.71875 
L 48.96875 45.5625 
Q 44.484375 46.96875 40.71875 47.609375 
Q 36.859375 48.25 33.40625 48.25 
Q 27.59375 48.25 23.78125 46 
Q 19.1875 43.3125 19.1875 39.40625 
Q 19.1875 36.8125 21.578125 35.015625 
Q 24.421875 32.859375 30.078125 32.859375 
L 37.640625 32.859375 
L 36.234375 25.4375 
L 29 25.4375 
Q 22.265625 25.4375 18.3125 22.953125 
Q 12.9375 19.578125 12.9375 14.3125 
Q 12.9375 10.984375 15.828125 8.796875 
Q 19.4375 6.0625 26.8125 6.0625 
Q 31.34375 6.0625 35.6875 6.9375 
Q 40.046875 7.859375 43.84375 9.671875 
L 42.1875 1.3125 
Q 37.546875 -0.046875 33.296875 -0.734375 
Q 29.046875 -1.421875 25.140625 -1.421875 
Q 13.53125 -1.421875 8.0625 3.03125 
Q 3.90625 6.453125 3.90625 12.203125 
Q 3.90625 19.96875 9.375 24.75 
Q 13.421875 28.328125 19.734375 29.5 
z
" id="DejaVuSans-Oblique-949"/>
      <path d="M 11.40625 153 
L 11.40625 156.59375 
Q 28.203125 140.796875 38 117.296875 
Q 47.796875 93.796875 47.796875 64.296875 
Q 47.796875 34.90625 37.75 10.046875 
Q 27.703125 -14.796875 11.40625 -27.90625 
L 11.40625 -24.59375 
Q 22.796875 -12.90625 30.546875 9.890625 
Q 38.296875 32.703125 38.296875 64.296875 
Q 38.296875 119.90625 11.40625 153 
z
" id="STIXSizeTwoSym-Regular-41"/>
     </defs>
     <g style="fill:#262626;" transform="translate(249.9 445.249937)scale(0.12 -0.12)">
      <use transform="translate(0 0.457812)" xlink:href="#DejaVuSans-1042"/>
      <use transform="translate(68.603516 0.457812)" xlink:href="#DejaVuSans-1088"/>
      <use transform="translate(132.080078 0.457812)" xlink:href="#DejaVuSans-1077"/>
      <use transform="translate(193.603516 0.457812)" xlink:href="#DejaVuSans-1084"/>
      <use transform="translate(269.042969 0.457812)" xlink:href="#DejaVuSans-1103"/>
      <use transform="translate(329.199219 0.457812)" xlink:href="#DejaVuSans-32"/>
      <use transform="translate(360.986328 -1.28125)scale(0.93352)" xlink:href="#STIXSizeTwoSym-Regular-40"/>
      <use transform="translate(415.984192 -0.6875)scale(0.903604)" xlink:href="#STIXSizeOneSym-Regular-8730"/>
      <use transform="translate(524.010574 45.585938)scale(0.7)" xlink:href="#DejaVuSans-Oblique-109"/>
      <use transform="translate(592.199051 45.585938)scale(0.7)" xlink:href="#DejaVuSans-Oblique-963"/>
      <use transform="translate(639.695181 72.382812)scale(0.49)" xlink:href="#DejaVuSans-50"/>
      <use transform="translate(579.010574 -25.903125)scale(0.7)" xlink:href="#DejaVuSans-Oblique-949"/>
      <use transform="translate(697.784537 -1.28125)scale(0.93352)" xlink:href="#STIXSizeTwoSym-Regular-41"/>
      <path d="M 511.510574 132.5 
L 511.510574 138.75 
L 697.784537 138.75 
L 697.784537 132.5 
L 511.510574 132.5 
z
"/>
      <path d="M 524.010574 19.590625 
L 524.010574 25.840625 
L 672.784537 25.840625 
L 672.784537 19.590625 
L 524.010574 19.590625 
z
"/>
     </g>
    </g>
   </g>
   <g id="matplotlib.axis_2">
    <g id="ytick_1">
     <g id="line2d_4">
      <path clip-path="url(#p9565468396)" d="M 72 364.163148 
L 518.4 364.163148 
" style="fill:none;stroke:#ffffff;stroke-linecap:round;"/>
     </g>
     <g id="text_5">
      <!-- $\mathdefault{10^{-3}}$ -->
      <defs>
       <path d="M 40.578125 39.3125 
Q 47.65625 37.796875 51.625 33 
Q 55.609375 28.21875 55.609375 21.1875 
Q 55.609375 10.40625 48.1875 4.484375 
Q 40.765625 -1.421875 27.09375 -1.421875 
Q 22.515625 -1.421875 17.65625 -0.515625 
Q 12.796875 0.390625 7.625 2.203125 
L 7.625 11.71875 
Q 11.71875 9.328125 16.59375 8.109375 
Q 21.484375 6.890625 26.8125 6.890625 
Q 36.078125 6.890625 40.9375 10.546875 
Q 45.796875 14.203125 45.796875 21.1875 
Q 45.796875 27.640625 41.28125 31.265625 
Q 36.765625 34.90625 28.71875 34.90625 
L 20.21875 34.90625 
L 20.21875 43.015625 
L 29.109375 43.015625 
Q 36.375 43.015625 40.234375 45.921875 
Q 44.09375 48.828125 44.09375 54.296875 
Q 44.09375 59.90625 40.109375 62.90625 
Q 36.140625 65.921875 28.71875 65.921875 
Q 24.65625 65.921875 20.015625 65.03125 
Q 15.375 64.15625 9.8125 62.3125 
L 9.8125 71.09375 
Q 15.4375 72.65625 20.34375 73.4375 
Q 25.25 74.21875 29.59375 74.21875 
Q 40.828125 74.21875 47.359375 69.109375 
Q 53.90625 64.015625 53.90625 55.328125 
Q 53.90625 49.265625 50.4375 45.09375 
Q 46.96875 40.921875 40.578125 39.3125 
z
" id="DejaVuSans-51"/>
      </defs>
      <g style="fill:#262626;" transform="translate(36.65 368.342289)scale(0.11 -0.11)">
       <use transform="translate(0 0.765625)" xlink:href="#DejaVuSans-49"/>
       <use transform="translate(63.623047 0.765625)" xlink:href="#DejaVuSans-48"/>
       <use transform="translate(128.203125 39.046875)scale(0.7)" xlink:href="#DejaVuSans-8722"/>
       <use transform="translate(186.855469 39.046875)scale(0.7)" xlink:href="#DejaVuSans-51"/>
      </g>
     </g>
    </g>
    <g id="ytick_2">
     <g id="line2d_5">
      <path clip-path="url(#p9565468396)" d="M 72 299.996256 
L 518.4 299.996256 
" style="fill:none;stroke:#ffffff;stroke-linecap:round;"/>
     </g>
     <g id="text_6">
      <!-- $\mathdefault{10^{-2}}$ -->
      <g style="fill:#262626;" transform="translate(36.65 304.175397)scale(0.11 -0.11)">
       <use transform="translate(0 0.765625)" xlink:href="#DejaVuSans-49"/>
       <use transform="translate(63.623047 0.765625)" xlink:href="#DejaVuSans-48"/>
       <use transform="translate(128.203125 39.046875)scale(0.7)" xlink:href="#DejaVuSans-8722"/>
       <use transform="translate(186.855469 39.046875)scale(0.7)" xlink:href="#DejaVuSans-50"/>
      </g>
     </g>
    </g>
    <g id="ytick_3">
     <g id="line2d_6">
      <path clip-path="url(#p9565468396)" d="M 72 235.829364 
L 518.4 235.829364 
" style="fill:none;stroke:#ffffff;stroke-linecap:round;"/>
     </g>
     <g id="text_7">
      <!-- $\mathdefault{10^{-1}}$ -->
      <g style="fill:#262626;" transform="translate(36.65 240.008505)scale(0.11 -0.11)">
       <use transform="translate(0 0.684375)" xlink:href="#DejaVuSans-49"/>
       <use transform="translate(63.623047 0.684375)" xlink:href="#DejaVuSans-48"/>
       <use transform="translate(128.203125 38.965625)scale(0.7)" xlink:href="#DejaVuSans-8722"/>
       <use transform="translate(186.855469 38.965625)scale(0.7)" xlink:href="#DejaVuSans-49"/>
      </g>
     </g>
    </g>
    <g id="ytick_4">
     <g id="line2d_7">
      <path clip-path="url(#p9565468396)" d="M 72 171.662473 
L 518.4 171.662473 
" style="fill:none;stroke:#ffffff;stroke-linecap:round;"/>
     </g>
     <g id="text_8">
      <!-- $\mathdefault{10^{0}}$ -->
      <g style="fill:#262626;" transform="translate(43.14 175.841613)scale(0.11 -0.11)">
       <use transform="translate(0 0.765625)" xlink:href="#DejaVuSans-49"/>
       <use transform="translate(63.623047 0.765625)" xlink:href="#DejaVuSans-48"/>
       <use transform="translate(128.203125 39.046875)scale(0.7)" xlink:href="#DejaVuSans-48"/>
      </g>
     </g>
    </g>
    <g id="ytick_5">
     <g id="line2d_8">
      <path clip-path="url(#p9565468396)" d="M 72 107.495581 
L 518.4 107.495581 
" style="fill:none;stroke:#ffffff;stroke-linecap:round;"/>
     </g>
     <g id="text_9">
      <!-- $\mathdefault{10^{1}}$ -->
      <g style="fill:#262626;" transform="translate(43.14 111.674721)scale(0.11 -0.11)">
       <use transform="translate(0 0.684375)" xlink:href="#DejaVuSans-49"/>
       <use transform="translate(63.623047 0.684375)" xlink:href="#DejaVuSans-48"/>
       <use transform="translate(128.203125 38.965625)scale(0.7)" xlink:href="#DejaVuSans-49"/>
      </g>
     </g>
    </g>
    <g id="ytick_6"/>
    <g id="ytick_7"/>
    <g id="ytick_8"/>
    <g id="ytick_9"/>
    <g id="ytick_10"/>
    <g id="ytick_11"/>
    <g id="ytick_12"/>
    <g id="ytick_13"/>
    <g id="ytick_14"/>
    <g id="ytick_15"/>
    <g id="ytick_16"/>
    <g id="ytick_17"/>
    <g id="ytick_18"/>
    <g id="ytick_19"/>
    <g id="ytick_20"/>
    <g id="ytick_21"/>
    <g id="ytick_22"/>
    <g id="ytick_23"/>
    <g id="ytick_24"/>
    <g id="ytick_25"/>
    <g id="ytick_26"/>
    <g id="ytick_27"/>
    <g id="ytick_28"/>
    <g id="ytick_29"/>
    <g id="ytick_30"/>
    <g id="ytick_31"/>
    <g id="ytick_32"/>
    <g id="ytick_33"/>
    <g id="ytick_34"/>
    <g id="ytick_35"/>
    <g id="ytick_36"/>
    <g id="ytick_37"/>
    <g id="ytick_38"/>
    <g id="ytick_39"/>
    <g id="ytick_40"/>
    <g id="ytick_41"/>
    <g id="ytick_42"/>
    <g id="ytick_43"/>
    <g id="ytick_44"/>
    <g id="ytick_45"/>
    <g id="ytick_46"/>
    <g id="ytick_47"/>
    <g id="ytick_48"/>
    <g id="ytick_49"/>
    <g id="text_10">
     <!-- $\left\langle r^2\right\rangle \left(\sigma^2\right)$ -->
     <defs>
      <path d="M 8.9375 31.34375 
L 22.703125 75.875 
L 31 75.875 
L 17.234375 31.34375 
L 31 -13.1875 
L 22.703125 -13.1875 
z
" id="DejaVuSans-10216"/>
      <path d="M 44.578125 46.390625 
Q 43.21875 47.125 41.453125 47.515625 
Q 39.703125 47.90625 37.703125 47.90625 
Q 30.515625 47.90625 25.140625 42.453125 
Q 19.78125 37.015625 18.015625 27.875 
L 12.5 0 
L 3.515625 0 
L 14.203125 54.6875 
L 23.1875 54.6875 
L 21.484375 46.1875 
Q 25.046875 50.921875 30 53.453125 
Q 34.96875 56 40.578125 56 
Q 42.046875 56 43.453125 55.828125 
Q 44.875 55.671875 46.296875 55.28125 
z
" id="DejaVuSans-Oblique-114"/>
      <path d="M 30.078125 31.34375 
L 16.3125 -13.1875 
L 8.015625 -13.1875 
L 21.78125 31.34375 
L 8.015625 75.875 
L 16.3125 75.875 
z
" id="DejaVuSans-10217"/>
      <path d="M 31 75.875 
Q 24.46875 64.65625 21.28125 53.65625 
Q 18.109375 42.671875 18.109375 31.390625 
Q 18.109375 20.125 21.3125 9.0625 
Q 24.515625 -2 31 -13.1875 
L 23.1875 -13.1875 
Q 15.875 -1.703125 12.234375 9.375 
Q 8.59375 20.453125 8.59375 31.390625 
Q 8.59375 42.28125 12.203125 53.3125 
Q 15.828125 64.359375 23.1875 75.875 
z
" id="DejaVuSans-40"/>
      <path d="M 8.015625 75.875 
L 15.828125 75.875 
Q 23.140625 64.359375 26.78125 53.3125 
Q 30.421875 42.28125 30.421875 31.390625 
Q 30.421875 20.453125 26.78125 9.375 
Q 23.140625 -1.703125 15.828125 -13.1875 
L 8.015625 -13.1875 
Q 14.5 -2 17.703125 9.0625 
Q 20.90625 20.125 20.90625 31.390625 
Q 20.90625 42.671875 17.703125 53.65625 
Q 14.5 64.65625 8.015625 75.875 
z
" id="DejaVuSans-41"/>
     </defs>
     <g style="fill:#262626;" transform="translate(30.154375 250.968)rotate(-90)scale(0.12 -0.12)">
      <use transform="translate(0 0.765625)" xlink:href="#DejaVuSans-10216"/>
      <use transform="translate(39.013672 0.765625)" xlink:href="#DejaVuSans-Oblique-114"/>
      <use transform="translate(84.776849 39.046875)scale(0.7)" xlink:href="#DejaVuSans-50"/>
      <use transform="translate(132.047357 0.765625)" xlink:href="#DejaVuSans-10217"/>
      <use transform="translate(171.061029 0.765625)" xlink:href="#DejaVuSans-40"/>
      <use transform="translate(210.074701 0.765625)" xlink:href="#DejaVuSans-Oblique-963"/>
      <use transform="translate(277.926315 39.046875)scale(0.7)" xlink:href="#DejaVuSans-50"/>
      <use transform="translate(325.196823 0.765625)" xlink:href="#DejaVuSans-41"/>
     </g>
    </g>
   </g>
   <g id="PathCollection_1">
    <defs>
     <path d="M 0 3 
C 0.795609 3 1.55874 2.683901 2.12132 2.12132 
C 2.683901 1.55874 3 0.795609 3 0 
C 3 -0.795609 2.683901 -1.55874 2.12132 -2.12132 
C 1.55874 -2.683901 0.795609 -3 0 -3 
C -0.795609 -3 -1.55874 -2.683901 -2.12132 -2.12132 
C -2.683901 -1.55874 -3 -0.795609 -3 0 
C -3 0.795609 -2.683901 1.55874 -2.12132 2.12132 
C -1.55874 2.683901 -0.795609 3 0 3 
z
" id="m6788926b6b" style="stroke:#56b4e9;"/>
    </defs>
    <g clip-path="url(#p9565468396)">
     <use style="fill:#56b4e9;stroke:#56b4e9;" x="-1" xlink:href="#m6788926b6b" y="342.948704"/>
     <use style="fill:#56b4e9;stroke:#56b4e9;" x="92.290909" xlink:href="#m6788926b6b" y="342.927422"/>
     <use style="fill:#56b4e9;stroke:#56b4e9;" x="143.325052" xlink:href="#m6788926b6b" y="320.382878"/>
     <use style="fill:#56b4e9;stroke:#56b4e9;" x="173.178112" xlink:href="#m6788926b6b" y="304.416582"/>
     <use style="fill:#56b4e9;stroke:#56b4e9;" x="194.359195" xlink:href="#m6788926b6b" y="292.057209"/>
     <use style="fill:#56b4e9;stroke:#56b4e9;" x="210.788519" xlink:href="#m6788926b6b" y="281.980188"/>
     <use style="fill:#56b4e9;stroke:#56b4e9;" x="224.212255" xlink:href="#m6788926b6b" y="273.478367"/>
     <use style="fill:#56b4e9;stroke:#56b4e9;" x="235.561862" xlink:href="#m6788926b6b" y="266.129334"/>
     <use style="fill:#56b4e9;stroke:#56b4e9;" x="245.393338" xlink:href="#m6788926b6b" y="259.660519"/>
     <use style="fill:#56b4e9;stroke:#56b4e9;" x="254.065315" xlink:href="#m6788926b6b" y="253.885929"/>
     <use style="fill:#56b4e9;stroke:#56b4e9;" x="261.822662" xlink:href="#m6788926b6b" y="248.673111"/>
     <use style="fill:#56b4e9;stroke:#56b4e9;" x="268.840037" xlink:href="#m6788926b6b" y="243.924415"/>
     <use style="fill:#56b4e9;stroke:#56b4e9;" x="275.246398" xlink:href="#m6788926b6b" y="239.565402"/>
     <use style="fill:#56b4e9;stroke:#56b4e9;" x="281.139679" xlink:href="#m6788926b6b" y="235.538028"/>
     <use style="fill:#56b4e9;stroke:#56b4e9;" x="286.596004" xlink:href="#m6788926b6b" y="231.796259"/>
     <use style="fill:#56b4e9;stroke:#56b4e9;" x="291.675722" xlink:href="#m6788926b6b" y="228.303001"/>
     <use style="fill:#56b4e9;stroke:#56b4e9;" x="296.427481" xlink:href="#m6788926b6b" y="225.027947"/>
     <use style="fill:#56b4e9;stroke:#56b4e9;" x="300.891072" xlink:href="#m6788926b6b" y="221.946058"/>
     <use style="fill:#56b4e9;stroke:#56b4e9;" x="305.099458" xlink:href="#m6788926b6b" y="219.036415"/>
     <use style="fill:#56b4e9;stroke:#56b4e9;" x="309.080249" xlink:href="#m6788926b6b" y="216.281378"/>
     <use style="fill:#56b4e9;stroke:#56b4e9;" x="312.856805" xlink:href="#m6788926b6b" y="213.665939"/>
     <use style="fill:#56b4e9;stroke:#56b4e9;" x="316.449064" xlink:href="#m6788926b6b" y="211.177201"/>
     <use style="fill:#56b4e9;stroke:#56b4e9;" x="319.87418" xlink:href="#m6788926b6b" y="208.803924"/>
     <use style="fill:#56b4e9;stroke:#56b4e9;" x="323.147017" xlink:href="#m6788926b6b" y="206.536257"/>
     <use style="fill:#56b4e9;stroke:#56b4e9;" x="326.280541" xlink:href="#m6788926b6b" y="204.365539"/>
     <use style="fill:#56b4e9;stroke:#56b4e9;" x="329.28613" xlink:href="#m6788926b6b" y="202.284108"/>
     <use style="fill:#56b4e9;stroke:#56b4e9;" x="332.173822" xlink:href="#m6788926b6b" y="200.285159"/>
     <use style="fill:#56b4e9;stroke:#56b4e9;" x="334.952518" xlink:href="#m6788926b6b" y="198.362642"/>
     <use style="fill:#56b4e9;stroke:#56b4e9;" x="337.630147" xlink:href="#m6788926b6b" y="196.511181"/>
     <use style="fill:#56b4e9;stroke:#56b4e9;" x="340.213806" xlink:href="#m6788926b6b" y="194.726004"/>
     <use style="fill:#56b4e9;stroke:#56b4e9;" x="342.709865" xlink:href="#m6788926b6b" y="193.002873"/>
     <use style="fill:#56b4e9;stroke:#56b4e9;" x="345.124072" xlink:href="#m6788926b6b" y="191.337919"/>
     <use style="fill:#56b4e9;stroke:#56b4e9;" x="347.461624" xlink:href="#m6788926b6b" y="189.727521"/>
     <use style="fill:#56b4e9;stroke:#56b4e9;" x="349.72724" xlink:href="#m6788926b6b" y="188.168304"/>
     <use style="fill:#56b4e9;stroke:#56b4e9;" x="351.925215" xlink:href="#m6788926b6b" y="186.657176"/>
     <use style="fill:#56b4e9;stroke:#56b4e9;" x="354.059472" xlink:href="#m6788926b6b" y="185.191349"/>
     <use style="fill:#56b4e9;stroke:#56b4e9;" x="356.133601" xlink:href="#m6788926b6b" y="183.768278"/>
     <use style="fill:#56b4e9;stroke:#56b4e9;" x="358.150897" xlink:href="#m6788926b6b" y="182.385637"/>
     <use style="fill:#56b4e9;stroke:#56b4e9;" x="360.114392" xlink:href="#m6788926b6b" y="181.041336"/>
     <use style="fill:#56b4e9;stroke:#56b4e9;" x="362.026882" xlink:href="#m6788926b6b" y="179.733481"/>
     <use style="fill:#56b4e9;stroke:#56b4e9;" x="363.890948" xlink:href="#m6788926b6b" y="178.460316"/>
     <use style="fill:#56b4e9;stroke:#56b4e9;" x="365.708984" xlink:href="#m6788926b6b" y="177.220163"/>
     <use style="fill:#56b4e9;stroke:#56b4e9;" x="367.483207" xlink:href="#m6788926b6b" y="176.011402"/>
     <use style="fill:#56b4e9;stroke:#56b4e9;" x="369.21568" xlink:href="#m6788926b6b" y="174.832464"/>
     <use style="fill:#56b4e9;stroke:#56b4e9;" x="370.908323" xlink:href="#m6788926b6b" y="173.681949"/>
     <use style="fill:#56b4e9;stroke:#56b4e9;" x="372.562925" xlink:href="#m6788926b6b" y="172.55859"/>
     <use style="fill:#56b4e9;stroke:#56b4e9;" x="374.18116" xlink:href="#m6788926b6b" y="171.461264"/>
     <use style="fill:#56b4e9;stroke:#56b4e9;" x="375.764591" xlink:href="#m6788926b6b" y="170.388943"/>
     <use style="fill:#56b4e9;stroke:#56b4e9;" x="377.314684" xlink:href="#m6788926b6b" y="169.340633"/>
     <use style="fill:#56b4e9;stroke:#56b4e9;" x="378.832814" xlink:href="#m6788926b6b" y="168.315377"/>
     <use style="fill:#56b4e9;stroke:#56b4e9;" x="380.320273" xlink:href="#m6788926b6b" y="167.312247"/>
     <use style="fill:#56b4e9;stroke:#56b4e9;" x="381.778275" xlink:href="#m6788926b6b" y="166.330359"/>
     <use style="fill:#56b4e9;stroke:#56b4e9;" x="383.207965" xlink:href="#m6788926b6b" y="165.368887"/>
     <use style="fill:#56b4e9;stroke:#56b4e9;" x="384.61042" xlink:href="#m6788926b6b" y="164.427065"/>
     <use style="fill:#56b4e9;stroke:#56b4e9;" x="385.986661" xlink:href="#m6788926b6b" y="163.504174"/>
     <use style="fill:#56b4e9;stroke:#56b4e9;" x="387.337647" xlink:href="#m6788926b6b" y="162.599545"/>
     <use style="fill:#56b4e9;stroke:#56b4e9;" x="388.66429" xlink:href="#m6788926b6b" y="161.712571"/>
     <use style="fill:#56b4e9;stroke:#56b4e9;" x="389.967452" xlink:href="#m6788926b6b" y="160.842704"/>
     <use style="fill:#56b4e9;stroke:#56b4e9;" x="391.247949" xlink:href="#m6788926b6b" y="159.989403"/>
     <use style="fill:#56b4e9;stroke:#56b4e9;" x="392.506555" xlink:href="#m6788926b6b" y="159.15212"/>
     <use style="fill:#56b4e9;stroke:#56b4e9;" x="393.744008" xlink:href="#m6788926b6b" y="158.33032"/>
     <use style="fill:#56b4e9;stroke:#56b4e9;" x="394.961006" xlink:href="#m6788926b6b" y="157.523482"/>
     <use style="fill:#56b4e9;stroke:#56b4e9;" x="396.158215" xlink:href="#m6788926b6b" y="156.73112"/>
     <use style="fill:#56b4e9;stroke:#56b4e9;" x="397.336267" xlink:href="#m6788926b6b" y="155.952791"/>
     <use style="fill:#56b4e9;stroke:#56b4e9;" x="398.495767" xlink:href="#m6788926b6b" y="155.188015"/>
     <use style="fill:#56b4e9;stroke:#56b4e9;" x="399.637289" xlink:href="#m6788926b6b" y="154.436319"/>
     <use style="fill:#56b4e9;stroke:#56b4e9;" x="400.761383" xlink:href="#m6788926b6b" y="153.697265"/>
     <use style="fill:#56b4e9;stroke:#56b4e9;" x="401.868572" xlink:href="#m6788926b6b" y="152.970444"/>
     <use style="fill:#56b4e9;stroke:#56b4e9;" x="402.959358" xlink:href="#m6788926b6b" y="152.255469"/>
     <use style="fill:#56b4e9;stroke:#56b4e9;" x="404.034219" xlink:href="#m6788926b6b" y="151.551973"/>
     <use style="fill:#56b4e9;stroke:#56b4e9;" x="405.093615" xlink:href="#m6788926b6b" y="150.85961"/>
     <use style="fill:#56b4e9;stroke:#56b4e9;" x="406.137983" xlink:href="#m6788926b6b" y="150.178067"/>
     <use style="fill:#56b4e9;stroke:#56b4e9;" x="407.167744" xlink:href="#m6788926b6b" y="149.507058"/>
     <use style="fill:#56b4e9;stroke:#56b4e9;" x="408.183301" xlink:href="#m6788926b6b" y="148.846318"/>
     <use style="fill:#56b4e9;stroke:#56b4e9;" x="409.18504" xlink:href="#m6788926b6b" y="148.195579"/>
     <use style="fill:#56b4e9;stroke:#56b4e9;" x="410.173333" xlink:href="#m6788926b6b" y="147.554594"/>
     <use style="fill:#56b4e9;stroke:#56b4e9;" x="411.148535" xlink:href="#m6788926b6b" y="146.923136"/>
     <use style="fill:#56b4e9;stroke:#56b4e9;" x="412.110989" xlink:href="#m6788926b6b" y="146.300973"/>
     <use style="fill:#56b4e9;stroke:#56b4e9;" x="413.061024" xlink:href="#m6788926b6b" y="145.687879"/>
     <use style="fill:#56b4e9;stroke:#56b4e9;" x="413.998957" xlink:href="#m6788926b6b" y="145.083646"/>
     <use style="fill:#56b4e9;stroke:#56b4e9;" x="414.925091" xlink:href="#m6788926b6b" y="144.488079"/>
     <use style="fill:#56b4e9;stroke:#56b4e9;" x="415.83972" xlink:href="#m6788926b6b" y="143.900965"/>
     <use style="fill:#56b4e9;stroke:#56b4e9;" x="416.743127" xlink:href="#m6788926b6b" y="143.322064"/>
     <use style="fill:#56b4e9;stroke:#56b4e9;" x="417.635583" xlink:href="#m6788926b6b" y="142.751135"/>
     <use style="fill:#56b4e9;stroke:#56b4e9;" x="418.51735" xlink:href="#m6788926b6b" y="142.18797"/>
     <use style="fill:#56b4e9;stroke:#56b4e9;" x="419.388682" xlink:href="#m6788926b6b" y="141.63238"/>
     <use style="fill:#56b4e9;stroke:#56b4e9;" x="420.249823" xlink:href="#m6788926b6b" y="141.084194"/>
     <use style="fill:#56b4e9;stroke:#56b4e9;" x="421.101009" xlink:href="#m6788926b6b" y="140.543251"/>
     <use style="fill:#56b4e9;stroke:#56b4e9;" x="421.942466" xlink:href="#m6788926b6b" y="140.009395"/>
     <use style="fill:#56b4e9;stroke:#56b4e9;" x="422.774415" xlink:href="#m6788926b6b" y="139.482454"/>
     <use style="fill:#56b4e9;stroke:#56b4e9;" x="423.597068" xlink:href="#m6788926b6b" y="138.962243"/>
     <use style="fill:#56b4e9;stroke:#56b4e9;" x="424.410631" xlink:href="#m6788926b6b" y="138.448621"/>
     <use style="fill:#56b4e9;stroke:#56b4e9;" x="425.215303" xlink:href="#m6788926b6b" y="137.941408"/>
     <use style="fill:#56b4e9;stroke:#56b4e9;" x="426.011275" xlink:href="#m6788926b6b" y="137.440428"/>
     <use style="fill:#56b4e9;stroke:#56b4e9;" x="426.798734" xlink:href="#m6788926b6b" y="136.945517"/>
     <use style="fill:#56b4e9;stroke:#56b4e9;" x="427.577859" xlink:href="#m6788926b6b" y="136.456513"/>
     <use style="fill:#56b4e9;stroke:#56b4e9;" x="428.348827" xlink:href="#m6788926b6b" y="135.973248"/>
     <use style="fill:#56b4e9;stroke:#56b4e9;" x="429.111805" xlink:href="#m6788926b6b" y="135.495552"/>
     <use style="fill:#56b4e9;stroke:#56b4e9;" x="429.866957" xlink:href="#m6788926b6b" y="135.023287"/>
     <use style="fill:#56b4e9;stroke:#56b4e9;" x="430.614443" xlink:href="#m6788926b6b" y="134.556324"/>
     <use style="fill:#56b4e9;stroke:#56b4e9;" x="431.354416" xlink:href="#m6788926b6b" y="134.094551"/>
     <use style="fill:#56b4e9;stroke:#56b4e9;" x="432.087026" xlink:href="#m6788926b6b" y="133.637866"/>
     <use style="fill:#56b4e9;stroke:#56b4e9;" x="432.812418" xlink:href="#m6788926b6b" y="133.186177"/>
     <use style="fill:#56b4e9;stroke:#56b4e9;" x="433.530733" xlink:href="#m6788926b6b" y="132.73939"/>
     <use style="fill:#56b4e9;stroke:#56b4e9;" x="434.242108" xlink:href="#m6788926b6b" y="132.297403"/>
     <use style="fill:#56b4e9;stroke:#56b4e9;" x="434.946675" xlink:href="#m6788926b6b" y="131.860097"/>
     <use style="fill:#56b4e9;stroke:#56b4e9;" x="435.644563" xlink:href="#m6788926b6b" y="131.427327"/>
     <use style="fill:#56b4e9;stroke:#56b4e9;" x="436.335899" xlink:href="#m6788926b6b" y="130.998943"/>
     <use style="fill:#56b4e9;stroke:#56b4e9;" x="437.020804" xlink:href="#m6788926b6b" y="130.574829"/>
     <use style="fill:#56b4e9;stroke:#56b4e9;" x="437.699395" xlink:href="#m6788926b6b" y="130.154909"/>
     <use style="fill:#56b4e9;stroke:#56b4e9;" x="438.37179" xlink:href="#m6788926b6b" y="129.73913"/>
     <use style="fill:#56b4e9;stroke:#56b4e9;" x="439.0381" xlink:href="#m6788926b6b" y="129.327438"/>
     <use style="fill:#56b4e9;stroke:#56b4e9;" x="439.698433" xlink:href="#m6788926b6b" y="128.919764"/>
     <use style="fill:#56b4e9;stroke:#56b4e9;" x="440.352897" xlink:href="#m6788926b6b" y="128.516034"/>
     <use style="fill:#56b4e9;stroke:#56b4e9;" x="441.001595" xlink:href="#m6788926b6b" y="128.116171"/>
     <use style="fill:#56b4e9;stroke:#56b4e9;" x="441.644627" xlink:href="#m6788926b6b" y="127.720104"/>
     <use style="fill:#56b4e9;stroke:#56b4e9;" x="442.282092" xlink:href="#m6788926b6b" y="127.327766"/>
     <use style="fill:#56b4e9;stroke:#56b4e9;" x="442.914084" xlink:href="#m6788926b6b" y="126.939099"/>
     <use style="fill:#56b4e9;stroke:#56b4e9;" x="443.540698" xlink:href="#m6788926b6b" y="126.554051"/>
     <use style="fill:#56b4e9;stroke:#56b4e9;" x="444.162024" xlink:href="#m6788926b6b" y="126.172564"/>
     <use style="fill:#56b4e9;stroke:#56b4e9;" x="444.778151" xlink:href="#m6788926b6b" y="125.79456"/>
     <use style="fill:#56b4e9;stroke:#56b4e9;" x="445.389165" xlink:href="#m6788926b6b" y="125.419954"/>
     <use style="fill:#56b4e9;stroke:#56b4e9;" x="445.995149" xlink:href="#m6788926b6b" y="125.048672"/>
     <use style="fill:#56b4e9;stroke:#56b4e9;" x="446.596187" xlink:href="#m6788926b6b" y="124.680641"/>
     <use style="fill:#56b4e9;stroke:#56b4e9;" x="447.192358" xlink:href="#m6788926b6b" y="124.315785"/>
     <use style="fill:#56b4e9;stroke:#56b4e9;" x="447.78374" xlink:href="#m6788926b6b" y="123.954041"/>
     <use style="fill:#56b4e9;stroke:#56b4e9;" x="448.37041" xlink:href="#m6788926b6b" y="123.595368"/>
     <use style="fill:#56b4e9;stroke:#56b4e9;" x="448.952442" xlink:href="#m6788926b6b" y="123.23974"/>
     <use style="fill:#56b4e9;stroke:#56b4e9;" x="449.52991" xlink:href="#m6788926b6b" y="122.887149"/>
     <use style="fill:#56b4e9;stroke:#56b4e9;" x="450.102883" xlink:href="#m6788926b6b" y="122.53758"/>
     <use style="fill:#56b4e9;stroke:#56b4e9;" x="450.671432" xlink:href="#m6788926b6b" y="122.191018"/>
     <use style="fill:#56b4e9;stroke:#56b4e9;" x="451.235624" xlink:href="#m6788926b6b" y="121.847434"/>
     <use style="fill:#56b4e9;stroke:#56b4e9;" x="451.795526" xlink:href="#m6788926b6b" y="121.506795"/>
     <use style="fill:#56b4e9;stroke:#56b4e9;" x="452.351202" xlink:href="#m6788926b6b" y="121.169059"/>
     <use style="fill:#56b4e9;stroke:#56b4e9;" x="452.902715" xlink:href="#m6788926b6b" y="120.834191"/>
     <use style="fill:#56b4e9;stroke:#56b4e9;" x="453.450128" xlink:href="#m6788926b6b" y="120.502155"/>
     <use style="fill:#56b4e9;stroke:#56b4e9;" x="453.993501" xlink:href="#m6788926b6b" y="120.172914"/>
     <use style="fill:#56b4e9;stroke:#56b4e9;" x="454.532893" xlink:href="#m6788926b6b" y="119.84643"/>
     <use style="fill:#56b4e9;stroke:#56b4e9;" x="455.068362" xlink:href="#m6788926b6b" y="119.522656"/>
     <use style="fill:#56b4e9;stroke:#56b4e9;" x="455.599965" xlink:href="#m6788926b6b" y="119.201541"/>
     <use style="fill:#56b4e9;stroke:#56b4e9;" x="456.127758" xlink:href="#m6788926b6b" y="118.883023"/>
     <use style="fill:#56b4e9;stroke:#56b4e9;" x="456.651793" xlink:href="#m6788926b6b" y="118.56703"/>
     <use style="fill:#56b4e9;stroke:#56b4e9;" x="457.172126" xlink:href="#m6788926b6b" y="118.253497"/>
     <use style="fill:#56b4e9;stroke:#56b4e9;" x="457.688806" xlink:href="#m6788926b6b" y="117.942368"/>
     <use style="fill:#56b4e9;stroke:#56b4e9;" x="458.201887" xlink:href="#m6788926b6b" y="117.633585"/>
     <use style="fill:#56b4e9;stroke:#56b4e9;" x="458.711416" xlink:href="#m6788926b6b" y="117.327107"/>
     <use style="fill:#56b4e9;stroke:#56b4e9;" x="459.217443" xlink:href="#m6788926b6b" y="117.02292"/>
     <use style="fill:#56b4e9;stroke:#56b4e9;" x="459.720017" xlink:href="#m6788926b6b" y="116.721014"/>
     <use style="fill:#56b4e9;stroke:#56b4e9;" x="460.219183" xlink:href="#m6788926b6b" y="116.42137"/>
     <use style="fill:#56b4e9;stroke:#56b4e9;" x="460.714987" xlink:href="#m6788926b6b" y="116.123964"/>
     <use style="fill:#56b4e9;stroke:#56b4e9;" x="461.207476" xlink:href="#m6788926b6b" y="115.828772"/>
     <use style="fill:#56b4e9;stroke:#56b4e9;" x="461.696691" xlink:href="#m6788926b6b" y="115.535769"/>
     <use style="fill:#56b4e9;stroke:#56b4e9;" x="462.182678" xlink:href="#m6788926b6b" y="115.24494"/>
     <use style="fill:#56b4e9;stroke:#56b4e9;" x="462.665478" xlink:href="#m6788926b6b" y="114.956283"/>
     <use style="fill:#56b4e9;stroke:#56b4e9;" x="463.145132" xlink:href="#m6788926b6b" y="114.669799"/>
     <use style="fill:#56b4e9;stroke:#56b4e9;" x="463.621682" xlink:href="#m6788926b6b" y="114.385467"/>
     <use style="fill:#56b4e9;stroke:#56b4e9;" x="464.095167" xlink:href="#m6788926b6b" y="114.103255"/>
     <use style="fill:#56b4e9;stroke:#56b4e9;" x="464.565627" xlink:href="#m6788926b6b" y="113.823134"/>
     <use style="fill:#56b4e9;stroke:#56b4e9;" x="465.0331" xlink:href="#m6788926b6b" y="113.545076"/>
     <use style="fill:#56b4e9;stroke:#56b4e9;" x="465.497623" xlink:href="#m6788926b6b" y="113.26906"/>
     <use style="fill:#56b4e9;stroke:#56b4e9;" x="465.959234" xlink:href="#m6788926b6b" y="112.995059"/>
     <use style="fill:#56b4e9;stroke:#56b4e9;" x="466.417969" xlink:href="#m6788926b6b" y="112.723041"/>
     <use style="fill:#56b4e9;stroke:#56b4e9;" x="466.873863" xlink:href="#m6788926b6b" y="112.452981"/>
     <use style="fill:#56b4e9;stroke:#56b4e9;" x="467.326952" xlink:href="#m6788926b6b" y="112.184854"/>
     <use style="fill:#56b4e9;stroke:#56b4e9;" x="467.77727" xlink:href="#m6788926b6b" y="111.918641"/>
     <use style="fill:#56b4e9;stroke:#56b4e9;" x="468.22485" xlink:href="#m6788926b6b" y="111.654328"/>
     <use style="fill:#56b4e9;stroke:#56b4e9;" x="468.669726" xlink:href="#m6788926b6b" y="111.391906"/>
     <use style="fill:#56b4e9;stroke:#56b4e9;" x="469.11193" xlink:href="#m6788926b6b" y="111.131379"/>
     <use style="fill:#56b4e9;stroke:#56b4e9;" x="469.551493" xlink:href="#m6788926b6b" y="110.872747"/>
     <use style="fill:#56b4e9;stroke:#56b4e9;" x="469.988448" xlink:href="#m6788926b6b" y="110.615986"/>
     <use style="fill:#56b4e9;stroke:#56b4e9;" x="470.422825" xlink:href="#m6788926b6b" y="110.361036"/>
     <use style="fill:#56b4e9;stroke:#56b4e9;" x="470.854655" xlink:href="#m6788926b6b" y="110.107861"/>
     <use style="fill:#56b4e9;stroke:#56b4e9;" x="471.283966" xlink:href="#m6788926b6b" y="109.856442"/>
     <use style="fill:#56b4e9;stroke:#56b4e9;" x="471.710789" xlink:href="#m6788926b6b" y="109.606769"/>
     <use style="fill:#56b4e9;stroke:#56b4e9;" x="472.135151" xlink:href="#m6788926b6b" y="109.358836"/>
     <use style="fill:#56b4e9;stroke:#56b4e9;" x="472.557082" xlink:href="#m6788926b6b" y="109.11263"/>
     <use style="fill:#56b4e9;stroke:#56b4e9;" x="472.976609" xlink:href="#m6788926b6b" y="108.868132"/>
     <use style="fill:#56b4e9;stroke:#56b4e9;" x="473.393758" xlink:href="#m6788926b6b" y="108.625322"/>
     <use style="fill:#56b4e9;stroke:#56b4e9;" x="473.808558" xlink:href="#m6788926b6b" y="108.384179"/>
     <use style="fill:#56b4e9;stroke:#56b4e9;" x="474.221033" xlink:href="#m6788926b6b" y="108.144679"/>
     <use style="fill:#56b4e9;stroke:#56b4e9;" x="474.631211" xlink:href="#m6788926b6b" y="107.906806"/>
     <use style="fill:#56b4e9;stroke:#56b4e9;" x="475.039116" xlink:href="#m6788926b6b" y="107.670544"/>
     <use style="fill:#56b4e9;stroke:#56b4e9;" x="475.444774" xlink:href="#m6788926b6b" y="107.435881"/>
     <use style="fill:#56b4e9;stroke:#56b4e9;" x="475.848209" xlink:href="#m6788926b6b" y="107.202806"/>
     <use style="fill:#56b4e9;stroke:#56b4e9;" x="476.249445" xlink:href="#m6788926b6b" y="106.971311"/>
     <use style="fill:#56b4e9;stroke:#56b4e9;" x="476.648507" xlink:href="#m6788926b6b" y="106.741383"/>
     <use style="fill:#56b4e9;stroke:#56b4e9;" x="477.045418" xlink:href="#m6788926b6b" y="106.513"/>
     <use style="fill:#56b4e9;stroke:#56b4e9;" x="477.4402" xlink:href="#m6788926b6b" y="106.286135"/>
     <use style="fill:#56b4e9;stroke:#56b4e9;" x="477.832877" xlink:href="#m6788926b6b" y="106.060762"/>
     <use style="fill:#56b4e9;stroke:#56b4e9;" x="478.22347" xlink:href="#m6788926b6b" y="105.836863"/>
     <use style="fill:#56b4e9;stroke:#56b4e9;" x="478.612002" xlink:href="#m6788926b6b" y="105.614433"/>
     <use style="fill:#56b4e9;stroke:#56b4e9;" x="478.998495" xlink:href="#m6788926b6b" y="105.393471"/>
     <use style="fill:#56b4e9;stroke:#56b4e9;" x="479.38297" xlink:href="#m6788926b6b" y="105.173973"/>
     <use style="fill:#56b4e9;stroke:#56b4e9;" x="479.765447" xlink:href="#m6788926b6b" y="104.955928"/>
     <use style="fill:#56b4e9;stroke:#56b4e9;" x="480.145948" xlink:href="#m6788926b6b" y="104.739319"/>
     <use style="fill:#56b4e9;stroke:#56b4e9;" x="480.524492" xlink:href="#m6788926b6b" y="104.524126"/>
     <use style="fill:#56b4e9;stroke:#56b4e9;" x="480.9011" xlink:href="#m6788926b6b" y="104.310331"/>
     <use style="fill:#56b4e9;stroke:#56b4e9;" x="481.275791" xlink:href="#m6788926b6b" y="104.097913"/>
     <use style="fill:#56b4e9;stroke:#56b4e9;" x="481.648586" xlink:href="#m6788926b6b" y="103.886849"/>
     <use style="fill:#56b4e9;stroke:#56b4e9;" x="482.019502" xlink:href="#m6788926b6b" y="103.677117"/>
     <use style="fill:#56b4e9;stroke:#56b4e9;" x="482.388559" xlink:href="#m6788926b6b" y="103.468694"/>
     <use style="fill:#56b4e9;stroke:#56b4e9;" x="482.755775" xlink:href="#m6788926b6b" y="103.261556"/>
     <use style="fill:#56b4e9;stroke:#56b4e9;" x="483.121169" xlink:href="#m6788926b6b" y="103.055664"/>
     <use style="fill:#56b4e9;stroke:#56b4e9;" x="483.484758" xlink:href="#m6788926b6b" y="102.850972"/>
     <use style="fill:#56b4e9;stroke:#56b4e9;" x="483.846561" xlink:href="#m6788926b6b" y="102.647451"/>
     <use style="fill:#56b4e9;stroke:#56b4e9;" x="484.206594" xlink:href="#m6788926b6b" y="102.445098"/>
     <use style="fill:#56b4e9;stroke:#56b4e9;" x="484.564876" xlink:href="#m6788926b6b" y="102.243955"/>
     <use style="fill:#56b4e9;stroke:#56b4e9;" x="484.921422" xlink:href="#m6788926b6b" y="102.044038"/>
     <use style="fill:#56b4e9;stroke:#56b4e9;" x="485.27625" xlink:href="#m6788926b6b" y="101.845343"/>
     <use style="fill:#56b4e9;stroke:#56b4e9;" x="485.629377" xlink:href="#m6788926b6b" y="101.647856"/>
     <use style="fill:#56b4e9;stroke:#56b4e9;" x="485.980818" xlink:href="#m6788926b6b" y="101.451571"/>
     <use style="fill:#56b4e9;stroke:#56b4e9;" x="486.330589" xlink:href="#m6788926b6b" y="101.256485"/>
     <use style="fill:#56b4e9;stroke:#56b4e9;" x="486.678706" xlink:href="#m6788926b6b" y="101.062604"/>
     <use style="fill:#56b4e9;stroke:#56b4e9;" x="487.025186" xlink:href="#m6788926b6b" y="100.869942"/>
     <use style="fill:#56b4e9;stroke:#56b4e9;" x="487.370042" xlink:href="#m6788926b6b" y="100.678501"/>
     <use style="fill:#56b4e9;stroke:#56b4e9;" x="487.713291" xlink:href="#m6788926b6b" y="100.488276"/>
     <use style="fill:#56b4e9;stroke:#56b4e9;" x="488.054946" xlink:href="#m6788926b6b" y="100.299257"/>
     <use style="fill:#56b4e9;stroke:#56b4e9;" x="488.395024" xlink:href="#m6788926b6b" y="100.111433"/>
     <use style="fill:#56b4e9;stroke:#56b4e9;" x="488.733538" xlink:href="#m6788926b6b" y="99.924793"/>
     <use style="fill:#56b4e9;stroke:#56b4e9;" x="489.070503" xlink:href="#m6788926b6b" y="99.739325"/>
     <use style="fill:#56b4e9;stroke:#56b4e9;" x="489.405933" xlink:href="#m6788926b6b" y="99.555015"/>
     <use style="fill:#56b4e9;stroke:#56b4e9;" x="489.739842" xlink:href="#m6788926b6b" y="99.371853"/>
     <use style="fill:#56b4e9;stroke:#56b4e9;" x="490.072243" xlink:href="#m6788926b6b" y="99.189827"/>
     <use style="fill:#56b4e9;stroke:#56b4e9;" x="490.40315" xlink:href="#m6788926b6b" y="99.008929"/>
     <use style="fill:#56b4e9;stroke:#56b4e9;" x="490.732576" xlink:href="#m6788926b6b" y="98.829148"/>
     <use style="fill:#56b4e9;stroke:#56b4e9;" x="491.060535" xlink:href="#m6788926b6b" y="98.650468"/>
     <use style="fill:#56b4e9;stroke:#56b4e9;" x="491.38704" xlink:href="#m6788926b6b" y="98.472852"/>
     <use style="fill:#56b4e9;stroke:#56b4e9;" x="491.712103" xlink:href="#m6788926b6b" y="98.296278"/>
     <use style="fill:#56b4e9;stroke:#56b4e9;" x="492.035738" xlink:href="#m6788926b6b" y="98.120731"/>
     <use style="fill:#56b4e9;stroke:#56b4e9;" x="492.357956" xlink:href="#m6788926b6b" y="97.946202"/>
     <use style="fill:#56b4e9;stroke:#56b4e9;" x="492.67877" xlink:href="#m6788926b6b" y="97.772686"/>
     <use style="fill:#56b4e9;stroke:#56b4e9;" x="492.998192" xlink:href="#m6788926b6b" y="97.600195"/>
     <use style="fill:#56b4e9;stroke:#56b4e9;" x="493.316235" xlink:href="#m6788926b6b" y="97.428747"/>
     <use style="fill:#56b4e9;stroke:#56b4e9;" x="493.632909" xlink:href="#m6788926b6b" y="97.25834"/>
     <use style="fill:#56b4e9;stroke:#56b4e9;" x="493.948227" xlink:href="#m6788926b6b" y="97.088961"/>
     <use style="fill:#56b4e9;stroke:#56b4e9;" x="494.262201" xlink:href="#m6788926b6b" y="96.920584"/>
     <use style="fill:#56b4e9;stroke:#56b4e9;" x="494.574841" xlink:href="#m6788926b6b" y="96.75317"/>
     <use style="fill:#56b4e9;stroke:#56b4e9;" x="494.88616" xlink:href="#m6788926b6b" y="96.586699"/>
     <use style="fill:#56b4e9;stroke:#56b4e9;" x="495.196167" xlink:href="#m6788926b6b" y="96.42116"/>
     <use style="fill:#56b4e9;stroke:#56b4e9;" x="495.504875" xlink:href="#m6788926b6b" y="96.256542"/>
     <use style="fill:#56b4e9;stroke:#56b4e9;" x="495.812294" xlink:href="#m6788926b6b" y="96.092834"/>
     <use style="fill:#56b4e9;stroke:#56b4e9;" x="496.118435" xlink:href="#m6788926b6b" y="95.93003"/>
     <use style="fill:#56b4e9;stroke:#56b4e9;" x="496.423308" xlink:href="#m6788926b6b" y="95.768129"/>
     <use style="fill:#56b4e9;stroke:#56b4e9;" x="496.726923" xlink:href="#m6788926b6b" y="95.607131"/>
     <use style="fill:#56b4e9;stroke:#56b4e9;" x="497.029292" xlink:href="#m6788926b6b" y="95.447035"/>
     <use style="fill:#56b4e9;stroke:#56b4e9;" x="497.330424" xlink:href="#m6788926b6b" y="95.287839"/>
     <use style="fill:#56b4e9;stroke:#56b4e9;" x="497.63033" xlink:href="#m6788926b6b" y="95.129536"/>
     <use style="fill:#56b4e9;stroke:#56b4e9;" x="497.929019" xlink:href="#m6788926b6b" y="94.972112"/>
    </g>
   </g>
   <g id="line2d_9">
    <path clip-path="url(#p9565468396)" d="M 92.290909 317.835965 
L 497.929019 94.921421 
L 497.929019 94.921421 
" style="fill:none;stroke:#56b4e9;stroke-linecap:round;stroke-width:1.5;"/>
   </g>
   <g id="line2d_10">
    <path clip-path="url(#p9565468396)" d="M 92.290909 387.828 
L 497.929019 70.308 
L 497.929019 70.308 
" style="fill:none;stroke:#029e73;stroke-linecap:round;stroke-width:1.5;"/>
   </g>
   <g id="line2d_11">
    <defs>
     <path d="M 0 3 
C 0.795609 3 1.55874 2.683901 2.12132 2.12132 
C 2.683901 1.55874 3 0.795609 3 0 
C 3 -0.795609 2.683901 -1.55874 2.12132 -2.12132 
C 1.55874 -2.683901 0.795609 -3 0 -3 
C -0.795609 -3 -1.55874 -2.683901 -2.12132 -2.12132 
C -2.683901 -1.55874 -3 -0.795609 -3 0 
C -3 0.795609 -2.683901 1.55874 -2.12132 2.12132 
C -1.55874 2.683901 -0.795609 3 0 3 
z
" id="m10e5f9b47b" style="stroke:#000000;"/>
    </defs>
    <g clip-path="url(#p9565468396)">
     <use style="stroke:#000000;" x="392.394497" xlink:href="#m10e5f9b47b" y="152.916908"/>
    </g>
   </g>
   <g id="patch_3">
    <path d="M 72 403.704 
L 72 54.432 
" style="fill:none;stroke:#ffffff;stroke-linecap:square;stroke-linejoin:miter;stroke-width:1.25;"/>
   </g>
   <g id="patch_4">
    <path d="M 518.4 403.704 
L 518.4 54.432 
" style="fill:none;stroke:#ffffff;stroke-linecap:square;stroke-linejoin:miter;stroke-width:1.25;"/>
   </g>
   <g id="patch_5">
    <path d="M 72 403.704 
L 518.4 403.704 
" style="fill:none;stroke:#ffffff;stroke-linecap:square;stroke-linejoin:miter;stroke-width:1.25;"/>
   </g>
   <g id="patch_6">
    <path d="M 72 54.432 
L 518.4 54.432 
" style="fill:none;stroke:#ffffff;stroke-linecap:square;stroke-linejoin:miter;stroke-width:1.25;"/>
   </g>
   <g id="text_11">
    <!-- Среднеквадратичное смещение в зависимости от времени -->
    <defs>
     <path d="M 64.40625 67.28125 
L 64.40625 56.890625 
Q 59.421875 61.53125 53.78125 63.8125 
Q 48.140625 66.109375 41.796875 66.109375 
Q 29.296875 66.109375 22.65625 58.46875 
Q 16.015625 50.828125 16.015625 36.375 
Q 16.015625 21.96875 22.65625 14.328125 
Q 29.296875 6.6875 41.796875 6.6875 
Q 48.140625 6.6875 53.78125 8.984375 
Q 59.421875 11.28125 64.40625 15.921875 
L 64.40625 5.609375 
Q 59.234375 2.09375 53.4375 0.328125 
Q 47.65625 -1.421875 41.21875 -1.421875 
Q 24.65625 -1.421875 15.125 8.703125 
Q 5.609375 18.84375 5.609375 36.375 
Q 5.609375 53.953125 15.125 64.078125 
Q 24.65625 74.21875 41.21875 74.21875 
Q 47.75 74.21875 53.53125 72.484375 
Q 59.328125 70.75 64.40625 67.28125 
z
" id="DejaVuSans-1057"/>
     <path d="M 21.625 7.171875 
L 47.703125 7.171875 
L 47.703125 47.515625 
L 28.8125 47.515625 
L 28.8125 40.671875 
Q 28.8125 20.5625 23.046875 9.8125 
z
M 8.59375 7.171875 
Q 13.03125 9.125 14.984375 13.28125 
Q 19.78125 23.578125 19.78125 44.34375 
L 19.78125 54.6875 
L 56.734375 54.6875 
L 56.734375 7.171875 
L 63.921875 7.171875 
L 63.921875 -13.8125 
L 56.734375 -13.8125 
L 56.734375 0 
L 12.40625 0 
L 12.40625 -13.8125 
L 5.21875 -13.8125 
L 5.21875 7.171875 
z
" id="DejaVuSans-1076"/>
     <path d="M 9.078125 54.6875 
L 18.109375 54.6875 
L 18.109375 32.375 
L 47.265625 32.375 
L 47.265625 54.6875 
L 56.296875 54.6875 
L 56.296875 0 
L 47.265625 0 
L 47.265625 25.203125 
L 18.109375 25.203125 
L 18.109375 0 
L 9.078125 0 
z
" id="DejaVuSans-1085"/>
     <path d="M 9.078125 54.6875 
L 18.015625 54.6875 
L 18.015625 29 
L 43.359375 54.6875 
L 54.390625 54.6875 
L 33.5 33.546875 
L 57.078125 0 
L 47.015625 0 
L 27.640625 27.59375 
L 18.015625 17.828125 
L 18.015625 0 
L 9.078125 0 
z
" id="DejaVuSans-1082"/>
     <path d="M 18.0625 25.203125 
L 18.0625 7.171875 
L 30.859375 7.171875 
Q 37.015625 7.171875 40.234375 9.484375 
Q 43.453125 11.8125 43.453125 16.21875 
Q 43.453125 20.609375 40.234375 22.90625 
Q 37.015625 25.203125 30.859375 25.203125 
z
M 18.0625 47.515625 
L 18.0625 32.375 
L 29.890625 32.375 
Q 34.96875 32.375 38.1875 34.390625 
Q 41.40625 36.421875 41.40625 40.046875 
Q 41.40625 43.65625 38.1875 45.578125 
Q 34.96875 47.515625 29.890625 47.515625 
z
M 9.078125 54.6875 
L 30.46875 54.6875 
Q 40.09375 54.6875 45.265625 51.171875 
Q 50.4375 47.65625 50.4375 41.15625 
Q 50.4375 36.140625 47.796875 33.171875 
Q 45.171875 30.21875 39.984375 29.5 
Q 46.1875 28.328125 49.609375 24.609375 
Q 53.03125 20.90625 53.03125 15.328125 
Q 53.03125 8.015625 47.390625 4 
Q 41.75 0 31.296875 0 
L 9.078125 0 
z
" id="DejaVuSans-1074"/>
     <path d="M 34.28125 27.484375 
Q 23.390625 27.484375 19.1875 25 
Q 14.984375 22.515625 14.984375 16.5 
Q 14.984375 11.71875 18.140625 8.90625 
Q 21.296875 6.109375 26.703125 6.109375 
Q 34.1875 6.109375 38.703125 11.40625 
Q 43.21875 16.703125 43.21875 25.484375 
L 43.21875 27.484375 
z
M 52.203125 31.203125 
L 52.203125 0 
L 43.21875 0 
L 43.21875 8.296875 
Q 40.140625 3.328125 35.546875 0.953125 
Q 30.953125 -1.421875 24.3125 -1.421875 
Q 15.921875 -1.421875 10.953125 3.296875 
Q 6 8.015625 6 15.921875 
Q 6 25.140625 12.171875 29.828125 
Q 18.359375 34.515625 30.609375 34.515625 
L 43.21875 34.515625 
L 43.21875 35.40625 
Q 43.21875 41.609375 39.140625 45 
Q 35.0625 48.390625 27.6875 48.390625 
Q 23 48.390625 18.546875 47.265625 
Q 14.109375 46.140625 10.015625 43.890625 
L 10.015625 52.203125 
Q 14.9375 54.109375 19.578125 55.046875 
Q 24.21875 56 28.609375 56 
Q 40.484375 56 46.34375 49.84375 
Q 52.203125 43.703125 52.203125 31.203125 
z
" id="DejaVuSans-1072"/>
     <path d="M 2.9375 54.6875 
L 55.328125 54.6875 
L 55.328125 47.515625 
L 33.546875 47.515625 
L 33.546875 0 
L 24.703125 0 
L 24.703125 47.515625 
L 2.9375 47.515625 
z
" id="DejaVuSans-1090"/>
     <path d="M 55.90625 54.6875 
L 55.90625 0 
L 46.96875 0 
L 46.96875 43.890625 
L 20.609375 0 
L 9.078125 0 
L 9.078125 54.6875 
L 18.015625 54.6875 
L 18.015625 10.890625 
L 44.34375 54.6875 
z
" id="DejaVuSans-1080"/>
     <path d="M 41.015625 0 
L 41.015625 23 
L 24.265625 23 
Q 16.796875 23 11.8125 27.640625 
Q 7.328125 31.84375 7.328125 40.828125 
L 7.328125 54.6875 
L 16.3125 54.6875 
L 16.3125 41.65625 
Q 16.3125 35.9375 18.84375 33.0625 
Q 21.4375 30.171875 26.515625 30.171875 
L 41.015625 30.171875 
L 41.015625 54.6875 
L 50 54.6875 
L 50 0 
z
" id="DejaVuSans-1095"/>
     <path d="M 30.609375 48.390625 
Q 23.390625 48.390625 19.1875 42.75 
Q 14.984375 37.109375 14.984375 27.296875 
Q 14.984375 17.484375 19.15625 11.84375 
Q 23.34375 6.203125 30.609375 6.203125 
Q 37.796875 6.203125 41.984375 11.859375 
Q 46.1875 17.53125 46.1875 27.296875 
Q 46.1875 37.015625 41.984375 42.703125 
Q 37.796875 48.390625 30.609375 48.390625 
z
M 30.609375 56 
Q 42.328125 56 49.015625 48.375 
Q 55.71875 40.765625 55.71875 27.296875 
Q 55.71875 13.875 49.015625 6.21875 
Q 42.328125 -1.421875 30.609375 -1.421875 
Q 18.84375 -1.421875 12.171875 6.21875 
Q 5.515625 13.875 5.515625 27.296875 
Q 5.515625 40.765625 12.171875 48.375 
Q 18.84375 56 30.609375 56 
z
" id="DejaVuSans-1086"/>
     <path d="M 48.78125 52.59375 
L 48.78125 44.1875 
Q 44.96875 46.296875 41.140625 47.34375 
Q 37.3125 48.390625 33.40625 48.390625 
Q 24.65625 48.390625 19.8125 42.84375 
Q 14.984375 37.3125 14.984375 27.296875 
Q 14.984375 17.28125 19.8125 11.734375 
Q 24.65625 6.203125 33.40625 6.203125 
Q 37.3125 6.203125 41.140625 7.25 
Q 44.96875 8.296875 48.78125 10.40625 
L 48.78125 2.09375 
Q 45.015625 0.34375 40.984375 -0.53125 
Q 36.96875 -1.421875 32.421875 -1.421875 
Q 20.0625 -1.421875 12.78125 6.34375 
Q 5.515625 14.109375 5.515625 27.296875 
Q 5.515625 40.671875 12.859375 48.328125 
Q 20.21875 56 33.015625 56 
Q 37.15625 56 41.109375 55.140625 
Q 45.0625 54.296875 48.78125 52.59375 
z
" id="DejaVuSans-1089"/>
     <path d="M 82.421875 0 
L 9.078125 0 
L 9.078125 54.6875 
L 18.109375 54.6875 
L 18.109375 7.171875 
L 41.21875 7.171875 
L 41.21875 54.6875 
L 50.25 54.6875 
L 50.25 7.171875 
L 73.390625 7.171875 
L 73.390625 54.6875 
L 82.421875 54.6875 
L 82.421875 7.171875 
L 89.59375 7.171875 
L 89.59375 -13.8125 
L 82.421875 -13.8125 
z
" id="DejaVuSans-1097"/>
     <path d="M 34.46875 29.5 
Q 40.53125 28.328125 43.890625 24.75 
Q 47.265625 21.1875 47.265625 15.921875 
Q 47.265625 7.46875 40.96875 3.015625 
Q 34.671875 -1.421875 23.046875 -1.421875 
Q 19.140625 -1.421875 15.015625 -0.734375 
Q 10.890625 -0.046875 6.5 1.3125 
L 6.5 9.671875 
Q 9.96875 7.859375 14.109375 6.953125 
Q 18.265625 6.0625 22.796875 6.0625 
Q 30.171875 6.0625 34.296875 8.796875 
Q 38.421875 11.53125 38.421875 15.921875 
Q 38.421875 20.21875 34.765625 22.828125 
Q 31.109375 25.4375 24.421875 25.4375 
L 17.1875 25.4375 
L 17.1875 32.859375 
L 24.75 32.859375 
Q 30.421875 32.859375 33.71875 35.03125 
Q 37.015625 37.203125 37.015625 40.625 
Q 37.015625 43.75 33.609375 46 
Q 30.21875 48.25 24.421875 48.25 
Q 20.953125 48.25 17.015625 47.609375 
Q 13.09375 46.96875 8.34375 45.5625 
L 8.34375 53.71875 
Q 13.140625 54.890625 17.28125 55.46875 
Q 21.4375 56.0625 25.140625 56.0625 
Q 34.71875 56.0625 40.25 52.21875 
Q 45.796875 48.390625 45.796875 41.5 
Q 45.796875 36.96875 42.859375 33.8125 
Q 39.9375 30.671875 34.46875 29.5 
z
" id="DejaVuSans-1079"/>
    </defs>
    <g style="fill:#262626;" transform="translate(106.971563 48.432)scale(0.12 -0.12)">
     <use xlink:href="#DejaVuSans-1057"/>
     <use x="69.824219" xlink:href="#DejaVuSans-1088"/>
     <use x="133.300781" xlink:href="#DejaVuSans-1077"/>
     <use x="194.824219" xlink:href="#DejaVuSans-1076"/>
     <use x="263.964844" xlink:href="#DejaVuSans-1085"/>
     <use x="329.345703" xlink:href="#DejaVuSans-1077"/>
     <use x="390.869141" xlink:href="#DejaVuSans-1082"/>
     <use x="451.269531" xlink:href="#DejaVuSans-1074"/>
     <use x="510.205078" xlink:href="#DejaVuSans-1072"/>
     <use x="571.484375" xlink:href="#DejaVuSans-1076"/>
     <use x="640.625" xlink:href="#DejaVuSans-1088"/>
     <use x="704.101562" xlink:href="#DejaVuSans-1072"/>
     <use x="765.380859" xlink:href="#DejaVuSans-1090"/>
     <use x="823.632812" xlink:href="#DejaVuSans-1080"/>
     <use x="888.623047" xlink:href="#DejaVuSans-1095"/>
     <use x="947.705078" xlink:href="#DejaVuSans-1085"/>
     <use x="1013.085938" xlink:href="#DejaVuSans-1086"/>
     <use x="1074.267578" xlink:href="#DejaVuSans-1077"/>
     <use x="1135.791016" xlink:href="#DejaVuSans-32"/>
     <use x="1167.578125" xlink:href="#DejaVuSans-1089"/>
     <use x="1222.558594" xlink:href="#DejaVuSans-1084"/>
     <use x="1297.998047" xlink:href="#DejaVuSans-1077"/>
     <use x="1359.521484" xlink:href="#DejaVuSans-1097"/>
     <use x="1453.710938" xlink:href="#DejaVuSans-1077"/>
     <use x="1515.234375" xlink:href="#DejaVuSans-1085"/>
     <use x="1580.615234" xlink:href="#DejaVuSans-1080"/>
     <use x="1645.605469" xlink:href="#DejaVuSans-1077"/>
     <use x="1707.128906" xlink:href="#DejaVuSans-32"/>
     <use x="1738.916016" xlink:href="#DejaVuSans-1074"/>
     <use x="1797.851562" xlink:href="#DejaVuSans-32"/>
     <use x="1829.638672" xlink:href="#DejaVuSans-1079"/>
     <use x="1882.8125" xlink:href="#DejaVuSans-1072"/>
     <use x="1944.091797" xlink:href="#DejaVuSans-1074"/>
     <use x="2003.027344" xlink:href="#DejaVuSans-1080"/>
     <use x="2068.017578" xlink:href="#DejaVuSans-1089"/>
     <use x="2122.998047" xlink:href="#DejaVuSans-1080"/>
     <use x="2187.988281" xlink:href="#DejaVuSans-1084"/>
     <use x="2263.427734" xlink:href="#DejaVuSans-1086"/>
     <use x="2324.609375" xlink:href="#DejaVuSans-1089"/>
     <use x="2379.589844" xlink:href="#DejaVuSans-1090"/>
     <use x="2437.841797" xlink:href="#DejaVuSans-1080"/>
     <use x="2502.832031" xlink:href="#DejaVuSans-32"/>
     <use x="2534.619141" xlink:href="#DejaVuSans-1086"/>
     <use x="2595.800781" xlink:href="#DejaVuSans-1090"/>
     <use x="2654.052734" xlink:href="#DejaVuSans-32"/>
     <use x="2685.839844" xlink:href="#DejaVuSans-1074"/>
     <use x="2744.775391" xlink:href="#DejaVuSans-1088"/>
     <use x="2808.251953" xlink:href="#DejaVuSans-1077"/>
     <use x="2869.775391" xlink:href="#DejaVuSans-1084"/>
     <use x="2945.214844" xlink:href="#DejaVuSans-1077"/>
     <use x="3006.738281" xlink:href="#DejaVuSans-1085"/>
     <use x="3072.119141" xlink:href="#DejaVuSans-1080"/>
    </g>
   </g>
   <g id="legend_1">
    <g id="patch_7">
     <path d="M 79.7 112.101219 
L 357.364063 112.101219 
Q 359.564063 112.101219 359.564063 109.901219 
L 359.564063 62.132 
Q 359.564063 59.932 357.364063 59.932 
L 79.7 59.932 
Q 77.5 59.932 77.5 62.132 
L 77.5 109.901219 
Q 77.5 112.101219 79.7 112.101219 
z
" style="fill:#eaeaf2;opacity:0.8;stroke:#cccccc;stroke-linejoin:miter;"/>
    </g>
    <g id="line2d_12">
     <path d="M 81.9 68.840281 
L 103.9 68.840281 
" style="fill:none;stroke:#56b4e9;stroke-linecap:round;stroke-width:1.5;"/>
    </g>
    <g id="line2d_13"/>
    <g id="text_12">
     <!-- Экстраполяция линейного участка -->
     <defs>
      <path d="M 5.421875 15.921875 
Q 15.71875 6.6875 28.21875 6.6875 
Q 41.109375 6.6875 46.921875 13.625 
Q 52.734375 20.5625 53.8125 32.234375 
L 14.84375 32.234375 
L 14.84375 40.53125 
L 53.8125 40.53125 
Q 52.734375 52.203125 46.921875 59.15625 
Q 41.109375 66.109375 28.21875 66.109375 
Q 15.71875 66.109375 5.421875 56.890625 
L 5.421875 67.28125 
Q 15.578125 74.21875 28.8125 74.21875 
Q 45.171875 74.21875 54.6875 64.078125 
Q 64.203125 53.953125 64.203125 36.421875 
Q 64.203125 18.84375 54.6875 8.703125 
Q 45.171875 -1.421875 28.8125 -1.421875 
Q 15.765625 -1.421875 5.421875 5.609375 
z
" id="DejaVuSans-1069"/>
      <path d="M 56.296875 54.6875 
L 56.296875 0 
L 47.265625 0 
L 47.265625 47.515625 
L 18.109375 47.515625 
L 18.109375 0 
L 9.078125 0 
L 9.078125 54.6875 
z
" id="DejaVuSans-1087"/>
      <path d="M 3.71875 0 
L 3.71875 7.46875 
Q 12.59375 8.84375 15.328125 14.984375 
Q 18.65625 23.640625 18.65625 45.75 
L 18.65625 54.6875 
L 55.609375 54.6875 
L 55.609375 0 
L 46.625 0 
L 46.625 47.515625 
L 27.640625 47.515625 
L 27.640625 42.09375 
Q 27.640625 21 23.34375 11.53125 
Q 18.75 1.421875 3.71875 0 
z
" id="DejaVuSans-1083"/>
      <path d="M 56.296875 0 
L 9.078125 0 
L 9.078125 54.6875 
L 18.109375 54.6875 
L 18.109375 7.171875 
L 47.265625 7.171875 
L 47.265625 54.6875 
L 56.296875 54.6875 
L 56.296875 7.171875 
L 63.484375 7.171875 
L 63.484375 -13.8125 
L 56.296875 -13.8125 
z
" id="DejaVuSans-1094"/>
      <path d="M 55.90625 54.6875 
L 55.90625 0 
L 46.96875 0 
L 46.96875 43.890625 
L 20.609375 0 
L 9.078125 0 
L 9.078125 54.6875 
L 18.015625 54.6875 
L 18.015625 10.890625 
L 44.34375 54.6875 
z
M 17.21875 75.515625 
L 22.984375 75.515625 
Q 23.515625 71.859375 25.875 70.015625 
Q 28.25 68.1875 32.5 68.1875 
Q 36.703125 68.1875 39.046875 70 
Q 41.390625 71.8125 42.015625 75.515625 
L 47.78125 75.515625 
Q 47.296875 68.53125 43.4375 65.015625 
Q 39.578125 61.5 32.5 61.5 
Q 25.421875 61.5 21.5625 65.015625 
Q 17.703125 68.53125 17.21875 75.515625 
z
" id="DejaVuSans-1081"/>
      <path d="M 9.078125 0 
L 9.078125 54.6875 
L 47.65625 54.6875 
L 47.65625 47.515625 
L 18.109375 47.515625 
L 18.109375 0 
z
" id="DejaVuSans-1075"/>
      <path d="M 32.171875 -5.078125 
Q 28.375 -14.84375 24.75 -17.8125 
Q 21.140625 -20.796875 15.09375 -20.796875 
L 7.90625 -20.796875 
L 7.90625 -13.28125 
L 13.1875 -13.28125 
Q 16.890625 -13.28125 18.9375 -11.515625 
Q 21 -9.765625 23.484375 -3.21875 
L 25.09375 0.875 
L 2.984375 54.6875 
L 12.5 54.6875 
L 29.59375 11.921875 
L 46.6875 54.6875 
L 56.203125 54.6875 
z
" id="DejaVuSans-1091"/>
     </defs>
     <g style="fill:#262626;" transform="translate(112.7 72.690281)scale(0.11 -0.11)">
      <use xlink:href="#DejaVuSans-1069"/>
      <use x="69.824219" xlink:href="#DejaVuSans-1082"/>
      <use x="130.224609" xlink:href="#DejaVuSans-1089"/>
      <use x="185.205078" xlink:href="#DejaVuSans-1090"/>
      <use x="243.457031" xlink:href="#DejaVuSans-1088"/>
      <use x="306.933594" xlink:href="#DejaVuSans-1072"/>
      <use x="368.212891" xlink:href="#DejaVuSans-1087"/>
      <use x="433.59375" xlink:href="#DejaVuSans-1086"/>
      <use x="494.775391" xlink:href="#DejaVuSans-1083"/>
      <use x="558.691406" xlink:href="#DejaVuSans-1103"/>
      <use x="618.847656" xlink:href="#DejaVuSans-1094"/>
      <use x="686.914062" xlink:href="#DejaVuSans-1080"/>
      <use x="751.904297" xlink:href="#DejaVuSans-1103"/>
      <use x="812.060547" xlink:href="#DejaVuSans-32"/>
      <use x="843.847656" xlink:href="#DejaVuSans-1083"/>
      <use x="907.763672" xlink:href="#DejaVuSans-1080"/>
      <use x="972.753906" xlink:href="#DejaVuSans-1085"/>
      <use x="1038.134766" xlink:href="#DejaVuSans-1077"/>
      <use x="1099.658203" xlink:href="#DejaVuSans-1081"/>
      <use x="1164.648438" xlink:href="#DejaVuSans-1085"/>
      <use x="1230.029297" xlink:href="#DejaVuSans-1086"/>
      <use x="1291.210938" xlink:href="#DejaVuSans-1075"/>
      <use x="1343.75" xlink:href="#DejaVuSans-1086"/>
      <use x="1404.931641" xlink:href="#DejaVuSans-32"/>
      <use x="1436.71875" xlink:href="#DejaVuSans-1091"/>
      <use x="1495.898438" xlink:href="#DejaVuSans-1095"/>
      <use x="1554.980469" xlink:href="#DejaVuSans-1072"/>
      <use x="1616.259766" xlink:href="#DejaVuSans-1089"/>
      <use x="1671.240234" xlink:href="#DejaVuSans-1090"/>
      <use x="1729.492188" xlink:href="#DejaVuSans-1082"/>
      <use x="1789.892578" xlink:href="#DejaVuSans-1072"/>
     </g>
    </g>
    <g id="line2d_14">
     <path d="M 81.9 85.173563 
L 103.9 85.173563 
" style="fill:none;stroke:#029e73;stroke-linecap:round;stroke-width:1.5;"/>
    </g>
    <g id="line2d_15"/>
    <g id="text_13">
     <!-- Экстраполяция параболического участка -->
     <defs>
      <path d="M 31.109375 56 
Q 42.828125 56 49.515625 48.375 
Q 56.203125 40.765625 56.203125 27.296875 
Q 56.203125 13.875 49.515625 6.21875 
Q 42.828125 -1.421875 31.109375 -1.421875 
Q 19.34375 -1.421875 12.84375 6 
Q 6.34375 13.421875 6 27.296875 
L 5.71875 38.484375 
Q 5.46875 44.28125 5.46875 46.296875 
Q 5.46875 54.109375 8.296875 59.859375 
Q 12.75 68.890625 20.4375 72.796875 
Q 28.125 76.703125 41.015625 76.8125 
Q 46.96875 76.859375 49.609375 77.6875 
L 52.09375 70.5625 
Q 49.703125 69.578125 47.515625 69.53125 
L 35.296875 68.703125 
Q 29.15625 68.265625 25.4375 66.109375 
Q 15.71875 60.40625 14.796875 52.9375 
L 14.453125 50.203125 
Q 20.796875 56 31.109375 56 
z
M 31.109375 48.390625 
Q 23.875 48.390625 19.671875 42.75 
Q 15.484375 37.109375 15.484375 27.296875 
Q 15.484375 17.484375 19.65625 11.84375 
Q 23.828125 6.203125 31.109375 6.203125 
Q 38.28125 6.203125 42.484375 11.859375 
Q 46.6875 17.53125 46.6875 27.296875 
Q 46.6875 37.015625 42.484375 42.703125 
Q 38.28125 48.390625 31.109375 48.390625 
z
" id="DejaVuSans-1073"/>
     </defs>
     <g style="fill:#262626;" transform="translate(112.7 89.023563)scale(0.11 -0.11)">
      <use xlink:href="#DejaVuSans-1069"/>
      <use x="69.824219" xlink:href="#DejaVuSans-1082"/>
      <use x="130.224609" xlink:href="#DejaVuSans-1089"/>
      <use x="185.205078" xlink:href="#DejaVuSans-1090"/>
      <use x="243.457031" xlink:href="#DejaVuSans-1088"/>
      <use x="306.933594" xlink:href="#DejaVuSans-1072"/>
      <use x="368.212891" xlink:href="#DejaVuSans-1087"/>
      <use x="433.59375" xlink:href="#DejaVuSans-1086"/>
      <use x="494.775391" xlink:href="#DejaVuSans-1083"/>
      <use x="558.691406" xlink:href="#DejaVuSans-1103"/>
      <use x="618.847656" xlink:href="#DejaVuSans-1094"/>
      <use x="686.914062" xlink:href="#DejaVuSans-1080"/>
      <use x="751.904297" xlink:href="#DejaVuSans-1103"/>
      <use x="812.060547" xlink:href="#DejaVuSans-32"/>
      <use x="843.847656" xlink:href="#DejaVuSans-1087"/>
      <use x="909.228516" xlink:href="#DejaVuSans-1072"/>
      <use x="970.507812" xlink:href="#DejaVuSans-1088"/>
      <use x="1033.984375" xlink:href="#DejaVuSans-1072"/>
      <use x="1095.263672" xlink:href="#DejaVuSans-1073"/>
      <use x="1156.933594" xlink:href="#DejaVuSans-1086"/>
      <use x="1218.115234" xlink:href="#DejaVuSans-1083"/>
      <use x="1282.03125" xlink:href="#DejaVuSans-1080"/>
      <use x="1347.021484" xlink:href="#DejaVuSans-1095"/>
      <use x="1406.103516" xlink:href="#DejaVuSans-1077"/>
      <use x="1467.626953" xlink:href="#DejaVuSans-1089"/>
      <use x="1522.607422" xlink:href="#DejaVuSans-1082"/>
      <use x="1583.007812" xlink:href="#DejaVuSans-1086"/>
      <use x="1644.189453" xlink:href="#DejaVuSans-1075"/>
      <use x="1696.728516" xlink:href="#DejaVuSans-1086"/>
      <use x="1757.910156" xlink:href="#DejaVuSans-32"/>
      <use x="1789.697266" xlink:href="#DejaVuSans-1091"/>
      <use x="1848.876953" xlink:href="#DejaVuSans-1095"/>
      <use x="1907.958984" xlink:href="#DejaVuSans-1072"/>
      <use x="1969.238281" xlink:href="#DejaVuSans-1089"/>
      <use x="2024.21875" xlink:href="#DejaVuSans-1090"/>
      <use x="2082.470703" xlink:href="#DejaVuSans-1082"/>
      <use x="2142.871094" xlink:href="#DejaVuSans-1072"/>
     </g>
    </g>
    <g id="line2d_16"/>
    <g id="line2d_17">
     <g>
      <use style="stroke:#000000;" x="92.9" xlink:href="#m10e5f9b47b" y="101.541219"/>
     </g>
    </g>
    <g id="text_14">
     <!-- Время свободного пробега $\tau=$0.59 -->
     <defs>
      <path d="M 32.859375 9.96875 
Q 34.1875 7.625 39.453125 7.625 
L 43.75 7.625 
L 42.28125 0 
L 36.921875 0 
Q 28.125 0 25 4.6875 
Q 21.921875 9.46875 23.96875 19.828125 
L 29 45.703125 
L 8.453125 45.703125 
L 10.203125 54.6875 
L 60.640625 54.6875 
L 58.890625 45.703125 
L 38.1875 45.703125 
L 33.015625 19.28125 
Q 31.640625 12.203125 32.859375 9.96875 
z
" id="DejaVuSans-Oblique-964"/>
      <path d="M 10.59375 45.40625 
L 73.1875 45.40625 
L 73.1875 37.203125 
L 10.59375 37.203125 
z
M 10.59375 25.484375 
L 73.1875 25.484375 
L 73.1875 17.1875 
L 10.59375 17.1875 
z
" id="DejaVuSans-61"/>
      <path d="M 10.6875 12.40625 
L 21 12.40625 
L 21 0 
L 10.6875 0 
z
" id="DejaVuSans-46"/>
      <path d="M 10.796875 72.90625 
L 49.515625 72.90625 
L 49.515625 64.59375 
L 19.828125 64.59375 
L 19.828125 46.734375 
Q 21.96875 47.46875 24.109375 47.828125 
Q 26.265625 48.1875 28.421875 48.1875 
Q 40.625 48.1875 47.75 41.5 
Q 54.890625 34.8125 54.890625 23.390625 
Q 54.890625 11.625 47.5625 5.09375 
Q 40.234375 -1.421875 26.90625 -1.421875 
Q 22.3125 -1.421875 17.546875 -0.640625 
Q 12.796875 0.140625 7.71875 1.703125 
L 7.71875 11.625 
Q 12.109375 9.234375 16.796875 8.0625 
Q 21.484375 6.890625 26.703125 6.890625 
Q 35.15625 6.890625 40.078125 11.328125 
Q 45.015625 15.765625 45.015625 23.390625 
Q 45.015625 31 40.078125 35.4375 
Q 35.15625 39.890625 26.703125 39.890625 
Q 22.75 39.890625 18.8125 39.015625 
Q 14.890625 38.140625 10.796875 36.28125 
z
" id="DejaVuSans-53"/>
      <path d="M 10.984375 1.515625 
L 10.984375 10.5 
Q 14.703125 8.734375 18.5 7.8125 
Q 22.3125 6.890625 25.984375 6.890625 
Q 35.75 6.890625 40.890625 13.453125 
Q 46.046875 20.015625 46.78125 33.40625 
Q 43.953125 29.203125 39.59375 26.953125 
Q 35.25 24.703125 29.984375 24.703125 
Q 19.046875 24.703125 12.671875 31.3125 
Q 6.296875 37.9375 6.296875 49.421875 
Q 6.296875 60.640625 12.9375 67.421875 
Q 19.578125 74.21875 30.609375 74.21875 
Q 43.265625 74.21875 49.921875 64.515625 
Q 56.59375 54.828125 56.59375 36.375 
Q 56.59375 19.140625 48.40625 8.859375 
Q 40.234375 -1.421875 26.421875 -1.421875 
Q 22.703125 -1.421875 18.890625 -0.6875 
Q 15.09375 0.046875 10.984375 1.515625 
z
M 30.609375 32.421875 
Q 37.25 32.421875 41.125 36.953125 
Q 45.015625 41.5 45.015625 49.421875 
Q 45.015625 57.28125 41.125 61.84375 
Q 37.25 66.40625 30.609375 66.40625 
Q 23.96875 66.40625 20.09375 61.84375 
Q 16.21875 57.28125 16.21875 49.421875 
Q 16.21875 41.5 20.09375 36.953125 
Q 23.96875 32.421875 30.609375 32.421875 
z
" id="DejaVuSans-57"/>
     </defs>
     <g style="fill:#262626;" transform="translate(112.7 105.391219)scale(0.11 -0.11)">
      <use transform="translate(0 0.3125)" xlink:href="#DejaVuSans-1042"/>
      <use transform="translate(68.603516 0.3125)" xlink:href="#DejaVuSans-1088"/>
      <use transform="translate(132.080078 0.3125)" xlink:href="#DejaVuSans-1077"/>
      <use transform="translate(193.603516 0.3125)" xlink:href="#DejaVuSans-1084"/>
      <use transform="translate(269.042969 0.3125)" xlink:href="#DejaVuSans-1103"/>
      <use transform="translate(329.199219 0.3125)" xlink:href="#DejaVuSans-32"/>
      <use transform="translate(360.986328 0.3125)" xlink:href="#DejaVuSans-1089"/>
      <use transform="translate(415.966797 0.3125)" xlink:href="#DejaVuSans-1074"/>
      <use transform="translate(474.902344 0.3125)" xlink:href="#DejaVuSans-1086"/>
      <use transform="translate(536.083984 0.3125)" xlink:href="#DejaVuSans-1073"/>
      <use transform="translate(597.753906 0.3125)" xlink:href="#DejaVuSans-1086"/>
      <use transform="translate(658.935547 0.3125)" xlink:href="#DejaVuSans-1076"/>
      <use transform="translate(728.076172 0.3125)" xlink:href="#DejaVuSans-1085"/>
      <use transform="translate(793.457031 0.3125)" xlink:href="#DejaVuSans-1086"/>
      <use transform="translate(854.638672 0.3125)" xlink:href="#DejaVuSans-1075"/>
      <use transform="translate(907.177734 0.3125)" xlink:href="#DejaVuSans-1086"/>
      <use transform="translate(968.359375 0.3125)" xlink:href="#DejaVuSans-32"/>
      <use transform="translate(1000.146484 0.3125)" xlink:href="#DejaVuSans-1087"/>
      <use transform="translate(1065.527344 0.3125)" xlink:href="#DejaVuSans-1088"/>
      <use transform="translate(1129.003906 0.3125)" xlink:href="#DejaVuSans-1086"/>
      <use transform="translate(1190.185547 0.3125)" xlink:href="#DejaVuSans-1073"/>
      <use transform="translate(1251.855469 0.3125)" xlink:href="#DejaVuSans-1077"/>
      <use transform="translate(1313.378906 0.3125)" xlink:href="#DejaVuSans-1075"/>
      <use transform="translate(1365.917969 0.3125)" xlink:href="#DejaVuSans-1072"/>
      <use transform="translate(1427.197266 0.3125)" xlink:href="#DejaVuSans-32"/>
      <use transform="translate(1458.984375 0.3125)" xlink:href="#DejaVuSans-Oblique-964"/>
      <use transform="translate(1538.671875 0.3125)" xlink:href="#DejaVuSans-61"/>
      <use transform="translate(1641.943359 0.3125)" xlink:href="#DejaVuSans-48"/>
      <use transform="translate(1705.566406 0.3125)" xlink:href="#DejaVuSans-46"/>
      <use transform="translate(1737.353516 0.3125)" xlink:href="#DejaVuSans-53"/>
      <use transform="translate(1800.898438 0.3125)" xlink:href="#DejaVuSans-57"/>
     </g>
    </g>
   </g>
  </g>
 </g>
 <defs>
  <clipPath id="p9565468396">
   <rect height="349.272" width="446.4" x="72" y="54.432"/>
  </clipPath>
 </defs>
</svg>
