<?xml version="1.0" encoding="utf-8" standalone="no"?>
<!DOCTYPE svg PUBLIC "-//W3C//DTD SVG 1.1//EN"
  "http://www.w3.org/Graphics/SVG/1.1/DTD/svg11.dtd">
<!-- Created with matplotlib (https://matplotlib.org/) -->
<svg height="453.6pt" version="1.1" viewBox="0 0 576 453.6" width="576pt" xmlns="http://www.w3.org/2000/svg" xmlns:xlink="http://www.w3.org/1999/xlink">
 <defs>
  <style type="text/css">
*{stroke-linecap:butt;stroke-linejoin:round;}
  </style>
 </defs>
 <g id="figure_1">
  <g id="patch_1">
   <path d="M 0 453.6 
L 576 453.6 
L 576 0 
L 0 0 
z
" style="fill:#ffffff;"/>
  </g>
  <g id="axes_1">
   <g id="patch_2">
    <path d="M 72 403.704 
L 518.4 403.704 
L 518.4 54.432 
L 72 54.432 
z
" style="fill:#eaeaf2;"/>
   </g>
   <g id="matplotlib.axis_1">
    <g id="xtick_1">
     <g id="line2d_1">
      <path clip-path="url(#pcf5a489623)" d="M 92.783582 403.704 
L 92.783582 54.432 
" style="fill:none;stroke:#ffffff;stroke-linecap:round;"/>
     </g>
     <g id="text_1">
      <!-- 0 -->
      <defs>
       <path d="M 31.78125 66.40625 
Q 24.171875 66.40625 20.328125 58.90625 
Q 16.5 51.421875 16.5 36.375 
Q 16.5 21.390625 20.328125 13.890625 
Q 24.171875 6.390625 31.78125 6.390625 
Q 39.453125 6.390625 43.28125 13.890625 
Q 47.125 21.390625 47.125 36.375 
Q 47.125 51.421875 43.28125 58.90625 
Q 39.453125 66.40625 31.78125 66.40625 
z
M 31.78125 74.21875 
Q 44.046875 74.21875 50.515625 64.515625 
Q 56.984375 54.828125 56.984375 36.375 
Q 56.984375 17.96875 50.515625 8.265625 
Q 44.046875 -1.421875 31.78125 -1.421875 
Q 19.53125 -1.421875 13.0625 8.265625 
Q 6.59375 17.96875 6.59375 36.375 
Q 6.59375 54.828125 13.0625 64.515625 
Q 19.53125 74.21875 31.78125 74.21875 
z
" id="DejaVuSans-48"/>
      </defs>
      <g style="fill:#262626;" transform="translate(89.284207 421.562281)scale(0.11 -0.11)">
       <use xlink:href="#DejaVuSans-48"/>
      </g>
     </g>
    </g>
    <g id="xtick_2">
     <g id="line2d_2">
      <path clip-path="url(#pcf5a489623)" d="M 174.238881 403.704 
L 174.238881 54.432 
" style="fill:none;stroke:#ffffff;stroke-linecap:round;"/>
     </g>
     <g id="text_2">
      <!-- 1 -->
      <defs>
       <path d="M 12.40625 8.296875 
L 28.515625 8.296875 
L 28.515625 63.921875 
L 10.984375 60.40625 
L 10.984375 69.390625 
L 28.421875 72.90625 
L 38.28125 72.90625 
L 38.28125 8.296875 
L 54.390625 8.296875 
L 54.390625 0 
L 12.40625 0 
z
" id="DejaVuSans-49"/>
      </defs>
      <g style="fill:#262626;" transform="translate(170.739506 421.562281)scale(0.11 -0.11)">
       <use xlink:href="#DejaVuSans-49"/>
      </g>
     </g>
    </g>
    <g id="xtick_3">
     <g id="line2d_3">
      <path clip-path="url(#pcf5a489623)" d="M 255.69418 403.704 
L 255.69418 54.432 
" style="fill:none;stroke:#ffffff;stroke-linecap:round;"/>
     </g>
     <g id="text_3">
      <!-- 2 -->
      <defs>
       <path d="M 19.1875 8.296875 
L 53.609375 8.296875 
L 53.609375 0 
L 7.328125 0 
L 7.328125 8.296875 
Q 12.9375 14.109375 22.625 23.890625 
Q 32.328125 33.6875 34.8125 36.53125 
Q 39.546875 41.84375 41.421875 45.53125 
Q 43.3125 49.21875 43.3125 52.78125 
Q 43.3125 58.59375 39.234375 62.25 
Q 35.15625 65.921875 28.609375 65.921875 
Q 23.96875 65.921875 18.8125 64.3125 
Q 13.671875 62.703125 7.8125 59.421875 
L 7.8125 69.390625 
Q 13.765625 71.78125 18.9375 73 
Q 24.125 74.21875 28.421875 74.21875 
Q 39.75 74.21875 46.484375 68.546875 
Q 53.21875 62.890625 53.21875 53.421875 
Q 53.21875 48.921875 51.53125 44.890625 
Q 49.859375 40.875 45.40625 35.40625 
Q 44.1875 33.984375 37.640625 27.21875 
Q 31.109375 20.453125 19.1875 8.296875 
z
" id="DejaVuSans-50"/>
      </defs>
      <g style="fill:#262626;" transform="translate(252.194805 421.562281)scale(0.11 -0.11)">
       <use xlink:href="#DejaVuSans-50"/>
      </g>
     </g>
    </g>
    <g id="xtick_4">
     <g id="line2d_4">
      <path clip-path="url(#pcf5a489623)" d="M 337.149479 403.704 
L 337.149479 54.432 
" style="fill:none;stroke:#ffffff;stroke-linecap:round;"/>
     </g>
     <g id="text_4">
      <!-- 3 -->
      <defs>
       <path d="M 40.578125 39.3125 
Q 47.65625 37.796875 51.625 33 
Q 55.609375 28.21875 55.609375 21.1875 
Q 55.609375 10.40625 48.1875 4.484375 
Q 40.765625 -1.421875 27.09375 -1.421875 
Q 22.515625 -1.421875 17.65625 -0.515625 
Q 12.796875 0.390625 7.625 2.203125 
L 7.625 11.71875 
Q 11.71875 9.328125 16.59375 8.109375 
Q 21.484375 6.890625 26.8125 6.890625 
Q 36.078125 6.890625 40.9375 10.546875 
Q 45.796875 14.203125 45.796875 21.1875 
Q 45.796875 27.640625 41.28125 31.265625 
Q 36.765625 34.90625 28.71875 34.90625 
L 20.21875 34.90625 
L 20.21875 43.015625 
L 29.109375 43.015625 
Q 36.375 43.015625 40.234375 45.921875 
Q 44.09375 48.828125 44.09375 54.296875 
Q 44.09375 59.90625 40.109375 62.90625 
Q 36.140625 65.921875 28.71875 65.921875 
Q 24.65625 65.921875 20.015625 65.03125 
Q 15.375 64.15625 9.8125 62.3125 
L 9.8125 71.09375 
Q 15.4375 72.65625 20.34375 73.4375 
Q 25.25 74.21875 29.59375 74.21875 
Q 40.828125 74.21875 47.359375 69.109375 
Q 53.90625 64.015625 53.90625 55.328125 
Q 53.90625 49.265625 50.4375 45.09375 
Q 46.96875 40.921875 40.578125 39.3125 
z
" id="DejaVuSans-51"/>
      </defs>
      <g style="fill:#262626;" transform="translate(333.650104 421.562281)scale(0.11 -0.11)">
       <use xlink:href="#DejaVuSans-51"/>
      </g>
     </g>
    </g>
    <g id="xtick_5">
     <g id="line2d_5">
      <path clip-path="url(#pcf5a489623)" d="M 418.604778 403.704 
L 418.604778 54.432 
" style="fill:none;stroke:#ffffff;stroke-linecap:round;"/>
     </g>
     <g id="text_5">
      <!-- 4 -->
      <defs>
       <path d="M 37.796875 64.3125 
L 12.890625 25.390625 
L 37.796875 25.390625 
z
M 35.203125 72.90625 
L 47.609375 72.90625 
L 47.609375 25.390625 
L 58.015625 25.390625 
L 58.015625 17.1875 
L 47.609375 17.1875 
L 47.609375 0 
L 37.796875 0 
L 37.796875 17.1875 
L 4.890625 17.1875 
L 4.890625 26.703125 
z
" id="DejaVuSans-52"/>
      </defs>
      <g style="fill:#262626;" transform="translate(415.105403 421.562281)scale(0.11 -0.11)">
       <use xlink:href="#DejaVuSans-52"/>
      </g>
     </g>
    </g>
    <g id="xtick_6">
     <g id="line2d_6">
      <path clip-path="url(#pcf5a489623)" d="M 500.060077 403.704 
L 500.060077 54.432 
" style="fill:none;stroke:#ffffff;stroke-linecap:round;"/>
     </g>
     <g id="text_6">
      <!-- 5 -->
      <defs>
       <path d="M 10.796875 72.90625 
L 49.515625 72.90625 
L 49.515625 64.59375 
L 19.828125 64.59375 
L 19.828125 46.734375 
Q 21.96875 47.46875 24.109375 47.828125 
Q 26.265625 48.1875 28.421875 48.1875 
Q 40.625 48.1875 47.75 41.5 
Q 54.890625 34.8125 54.890625 23.390625 
Q 54.890625 11.625 47.5625 5.09375 
Q 40.234375 -1.421875 26.90625 -1.421875 
Q 22.3125 -1.421875 17.546875 -0.640625 
Q 12.796875 0.140625 7.71875 1.703125 
L 7.71875 11.625 
Q 12.109375 9.234375 16.796875 8.0625 
Q 21.484375 6.890625 26.703125 6.890625 
Q 35.15625 6.890625 40.078125 11.328125 
Q 45.015625 15.765625 45.015625 23.390625 
Q 45.015625 31 40.078125 35.4375 
Q 35.15625 39.890625 26.703125 39.890625 
Q 22.75 39.890625 18.8125 39.015625 
Q 14.890625 38.140625 10.796875 36.28125 
z
" id="DejaVuSans-53"/>
      </defs>
      <g style="fill:#262626;" transform="translate(496.560702 421.562281)scale(0.11 -0.11)">
       <use xlink:href="#DejaVuSans-53"/>
      </g>
     </g>
    </g>
    <g id="text_7">
     <!-- Время $\left(\sqrt{\frac{m\sigma^2}{\varepsilon} }\right)$ -->
     <defs>
      <path d="M 19.671875 34.8125 
L 19.671875 8.109375 
L 35.5 8.109375 
Q 43.453125 8.109375 47.28125 11.40625 
Q 51.125 14.703125 51.125 21.484375 
Q 51.125 28.328125 47.28125 31.5625 
Q 43.453125 34.8125 35.5 34.8125 
z
M 19.671875 64.796875 
L 19.671875 42.828125 
L 34.28125 42.828125 
Q 41.5 42.828125 45.03125 45.53125 
Q 48.578125 48.25 48.578125 53.8125 
Q 48.578125 59.328125 45.03125 62.0625 
Q 41.5 64.796875 34.28125 64.796875 
z
M 9.8125 72.90625 
L 35.015625 72.90625 
Q 46.296875 72.90625 52.390625 68.21875 
Q 58.5 63.53125 58.5 54.890625 
Q 58.5 48.1875 55.375 44.234375 
Q 52.25 40.28125 46.1875 39.3125 
Q 53.46875 37.75 57.5 32.78125 
Q 61.53125 27.828125 61.53125 20.40625 
Q 61.53125 10.640625 54.890625 5.3125 
Q 48.25 0 35.984375 0 
L 9.8125 0 
z
" id="DejaVuSans-1042"/>
      <path d="M 18.109375 8.203125 
L 18.109375 -20.796875 
L 9.078125 -20.796875 
L 9.078125 54.6875 
L 18.109375 54.6875 
L 18.109375 46.390625 
Q 20.953125 51.265625 25.265625 53.625 
Q 29.59375 56 35.59375 56 
Q 45.5625 56 51.78125 48.09375 
Q 58.015625 40.1875 58.015625 27.296875 
Q 58.015625 14.40625 51.78125 6.484375 
Q 45.5625 -1.421875 35.59375 -1.421875 
Q 29.59375 -1.421875 25.265625 0.953125 
Q 20.953125 3.328125 18.109375 8.203125 
z
M 48.6875 27.296875 
Q 48.6875 37.203125 44.609375 42.84375 
Q 40.53125 48.484375 33.40625 48.484375 
Q 26.265625 48.484375 22.1875 42.84375 
Q 18.109375 37.203125 18.109375 27.296875 
Q 18.109375 17.390625 22.1875 11.75 
Q 26.265625 6.109375 33.40625 6.109375 
Q 40.53125 6.109375 44.609375 11.75 
Q 48.6875 17.390625 48.6875 27.296875 
z
" id="DejaVuSans-1088"/>
      <path d="M 56.203125 29.59375 
L 56.203125 25.203125 
L 14.890625 25.203125 
Q 15.484375 15.921875 20.484375 11.0625 
Q 25.484375 6.203125 34.421875 6.203125 
Q 39.59375 6.203125 44.453125 7.46875 
Q 49.3125 8.734375 54.109375 11.28125 
L 54.109375 2.78125 
Q 49.265625 0.734375 44.1875 -0.34375 
Q 39.109375 -1.421875 33.890625 -1.421875 
Q 20.796875 -1.421875 13.15625 6.1875 
Q 5.515625 13.8125 5.515625 26.8125 
Q 5.515625 40.234375 12.765625 48.109375 
Q 20.015625 56 32.328125 56 
Q 43.359375 56 49.78125 48.890625 
Q 56.203125 41.796875 56.203125 29.59375 
z
M 47.21875 32.234375 
Q 47.125 39.59375 43.09375 43.984375 
Q 39.0625 48.390625 32.421875 48.390625 
Q 24.90625 48.390625 20.390625 44.140625 
Q 15.875 39.890625 15.1875 32.171875 
z
" id="DejaVuSans-1077"/>
      <path d="M 9.078125 54.6875 
L 22.21875 54.6875 
L 37.75 18.0625 
L 53.328125 54.6875 
L 66.359375 54.6875 
L 66.359375 0 
L 57.328125 0 
L 57.328125 46.09375 
L 42.234375 10.5 
L 33.25 10.5 
L 18.109375 46.09375 
L 18.109375 0 
L 9.078125 0 
z
" id="DejaVuSans-1084"/>
      <path d="M 18.453125 38.921875 
Q 18.453125 34.859375 21.578125 32.5625 
Q 24.703125 30.28125 30.515625 30.28125 
L 42.625 30.28125 
L 42.625 47.515625 
L 30.515625 47.515625 
Q 24.703125 47.515625 21.578125 45.265625 
Q 18.453125 43.015625 18.453125 38.921875 
z
M 5.671875 0 
L 22.359375 23.96875 
Q 16.703125 25.25 12.9375 28.59375 
Q 9.1875 31.9375 9.1875 38.921875 
Q 9.1875 46.828125 14.421875 50.75 
Q 19.671875 54.6875 30.28125 54.6875 
L 51.65625 54.6875 
L 51.65625 0 
L 42.625 0 
L 42.625 23.09375 
L 31.453125 23.09375 
L 15.328125 0 
z
" id="DejaVuSans-1103"/>
      <path id="DejaVuSans-32"/>
      <path d="M 50.296875 -24.296875 
L 50.296875 -27.90625 
Q 33.5 -12.09375 23.703125 11.40625 
Q 13.90625 34.90625 13.90625 64.296875 
Q 13.90625 93.796875 23.953125 118.640625 
Q 34 143.5 50.296875 156.59375 
L 50.296875 153.296875 
Q 38.90625 141.59375 31.15625 118.84375 
Q 23.40625 96.09375 23.40625 64.296875 
Q 23.40625 8.796875 50.296875 -24.296875 
z
" id="STIXSizeTwoSym-Regular-40"/>
      <path d="M 108.90625 155.203125 
L 52.703125 -29.5 
L 48.5 -29.5 
L 25.40625 45.59375 
Q 24.296875 49.203125 22.890625 50.796875 
Q 21.5 52.40625 19.203125 52.40625 
Q 15.796875 52.40625 12.40625 49.703125 
L 11.203125 51.703125 
L 27.59375 64.296875 
L 30.09375 64.296875 
L 52.796875 -9.40625 
L 53.203125 -9.40625 
L 103.203125 155.203125 
z
" id="STIXSizeOneSym-Regular-8730"/>
      <path d="M 89.796875 33.015625 
L 83.40625 0 
L 74.421875 0 
L 80.71875 32.71875 
Q 81.109375 34.8125 81.296875 36.328125 
Q 81.5 37.84375 81.5 38.921875 
Q 81.5 43.3125 79.046875 45.75 
Q 76.609375 48.1875 72.21875 48.1875 
Q 65.671875 48.1875 60.546875 43.28125 
Q 55.421875 38.375 53.90625 30.515625 
L 47.90625 0 
L 38.921875 0 
L 45.3125 32.71875 
Q 45.703125 34.515625 45.890625 36.046875 
Q 46.09375 37.59375 46.09375 38.8125 
Q 46.09375 43.265625 43.65625 45.71875 
Q 41.21875 48.1875 36.921875 48.1875 
Q 30.28125 48.1875 25.140625 43.28125 
Q 20.015625 38.375 18.5 30.515625 
L 12.5 0 
L 3.515625 0 
L 14.203125 54.6875 
L 23.1875 54.6875 
L 21.484375 46.1875 
Q 25.140625 50.984375 30.046875 53.484375 
Q 34.96875 56 40.578125 56 
Q 46.53125 56 50.359375 52.875 
Q 54.203125 49.75 54.984375 44.1875 
Q 59.078125 49.953125 64.46875 52.96875 
Q 69.875 56 75.875 56 
Q 82.90625 56 86.734375 51.953125 
Q 90.578125 47.90625 90.578125 40.484375 
Q 90.578125 38.875 90.375 36.9375 
Q 90.1875 35.015625 89.796875 33.015625 
z
" id="DejaVuSans-Oblique-109"/>
      <path d="M 34.671875 47.5625 
Q 27.25 47.5625 22.21875 42.1875 
Q 16.890625 36.578125 15.140625 27.296875 
Q 13.1875 17.484375 16.3125 11.8125 
Q 19.390625 6.203125 26.65625 6.203125 
Q 33.84375 6.203125 39.109375 11.859375 
Q 44.4375 17.53125 46.34375 27.296875 
Q 48.046875 36.234375 45.015625 42.1875 
Q 42.1875 47.5625 34.671875 47.5625 
z
M 36.078125 54.734375 
L 65.921875 54.6875 
L 64.15625 45.703125 
L 54.109375 45.703125 
Q 57.90625 38.09375 55.859375 27.296875 
Q 53.21875 13.875 45.0625 6.25 
Q 36.859375 -1.421875 25.140625 -1.421875 
Q 13.375 -1.421875 8.203125 6.25 
Q 3.03125 13.875 5.671875 27.296875 
Q 8.25 40.765625 16.40625 48.390625 
Q 23.1875 54.734375 36.078125 54.734375 
z
" id="DejaVuSans-Oblique-963"/>
      <path d="M 19.734375 29.5 
Q 14.453125 30.671875 12.15625 33.84375 
Q 10.453125 36.078125 10.453125 39.109375 
Q 10.453125 47.40625 18.359375 52.25 
Q 24.609375 56.0625 34.1875 56.0625 
Q 37.890625 56.0625 41.9375 55.46875 
Q 46 54.890625 50.53125 53.71875 
L 48.96875 45.5625 
Q 44.484375 46.96875 40.71875 47.609375 
Q 36.859375 48.25 33.40625 48.25 
Q 27.59375 48.25 23.78125 46 
Q 19.1875 43.3125 19.1875 39.40625 
Q 19.1875 36.8125 21.578125 35.015625 
Q 24.421875 32.859375 30.078125 32.859375 
L 37.640625 32.859375 
L 36.234375 25.4375 
L 29 25.4375 
Q 22.265625 25.4375 18.3125 22.953125 
Q 12.9375 19.578125 12.9375 14.3125 
Q 12.9375 10.984375 15.828125 8.796875 
Q 19.4375 6.0625 26.8125 6.0625 
Q 31.34375 6.0625 35.6875 6.9375 
Q 40.046875 7.859375 43.84375 9.671875 
L 42.1875 1.3125 
Q 37.546875 -0.046875 33.296875 -0.734375 
Q 29.046875 -1.421875 25.140625 -1.421875 
Q 13.53125 -1.421875 8.0625 3.03125 
Q 3.90625 6.453125 3.90625 12.203125 
Q 3.90625 19.96875 9.375 24.75 
Q 13.421875 28.328125 19.734375 29.5 
z
" id="DejaVuSans-Oblique-949"/>
      <path d="M 11.40625 153 
L 11.40625 156.59375 
Q 28.203125 140.796875 38 117.296875 
Q 47.796875 93.796875 47.796875 64.296875 
Q 47.796875 34.90625 37.75 10.046875 
Q 27.703125 -14.796875 11.40625 -27.90625 
L 11.40625 -24.59375 
Q 22.796875 -12.90625 30.546875 9.890625 
Q 38.296875 32.703125 38.296875 64.296875 
Q 38.296875 119.90625 11.40625 153 
z
" id="STIXSizeTwoSym-Regular-41"/>
     </defs>
     <g style="fill:#262626;" transform="translate(249.9 445.249937)scale(0.12 -0.12)">
      <use transform="translate(0 0.457812)" xlink:href="#DejaVuSans-1042"/>
      <use transform="translate(68.603516 0.457812)" xlink:href="#DejaVuSans-1088"/>
      <use transform="translate(132.080078 0.457812)" xlink:href="#DejaVuSans-1077"/>
      <use transform="translate(193.603516 0.457812)" xlink:href="#DejaVuSans-1084"/>
      <use transform="translate(269.042969 0.457812)" xlink:href="#DejaVuSans-1103"/>
      <use transform="translate(329.199219 0.457812)" xlink:href="#DejaVuSans-32"/>
      <use transform="translate(360.986328 -1.28125)scale(0.93352)" xlink:href="#STIXSizeTwoSym-Regular-40"/>
      <use transform="translate(415.984192 -0.6875)scale(0.903604)" xlink:href="#STIXSizeOneSym-Regular-8730"/>
      <use transform="translate(524.010574 45.585938)scale(0.7)" xlink:href="#DejaVuSans-Oblique-109"/>
      <use transform="translate(592.199051 45.585938)scale(0.7)" xlink:href="#DejaVuSans-Oblique-963"/>
      <use transform="translate(639.695181 72.382812)scale(0.49)" xlink:href="#DejaVuSans-50"/>
      <use transform="translate(579.010574 -25.903125)scale(0.7)" xlink:href="#DejaVuSans-Oblique-949"/>
      <use transform="translate(697.784537 -1.28125)scale(0.93352)" xlink:href="#STIXSizeTwoSym-Regular-41"/>
      <path d="M 511.510574 132.5 
L 511.510574 138.75 
L 697.784537 138.75 
L 697.784537 132.5 
L 511.510574 132.5 
z
"/>
      <path d="M 524.010574 19.590625 
L 524.010574 25.840625 
L 672.784537 25.840625 
L 672.784537 19.590625 
L 524.010574 19.590625 
z
"/>
     </g>
    </g>
   </g>
   <g id="matplotlib.axis_2">
    <g id="ytick_1">
     <g id="line2d_7">
      <path clip-path="url(#pcf5a489623)" d="M 72 393.302891 
L 518.4 393.302891 
" style="fill:none;stroke:#ffffff;stroke-linecap:round;"/>
     </g>
     <g id="text_8">
      <!-- 0 -->
      <g style="fill:#262626;" transform="translate(55.50125 397.482031)scale(0.11 -0.11)">
       <use xlink:href="#DejaVuSans-48"/>
      </g>
     </g>
    </g>
    <g id="ytick_2">
     <g id="line2d_8">
      <path clip-path="url(#pcf5a489623)" d="M 72 326.670308 
L 518.4 326.670308 
" style="fill:none;stroke:#ffffff;stroke-linecap:round;"/>
     </g>
     <g id="text_9">
      <!-- 20 -->
      <g style="fill:#262626;" transform="translate(48.5025 330.849448)scale(0.11 -0.11)">
       <use xlink:href="#DejaVuSans-50"/>
       <use x="63.623047" xlink:href="#DejaVuSans-48"/>
      </g>
     </g>
    </g>
    <g id="ytick_3">
     <g id="line2d_9">
      <path clip-path="url(#pcf5a489623)" d="M 72 260.037725 
L 518.4 260.037725 
" style="fill:none;stroke:#ffffff;stroke-linecap:round;"/>
     </g>
     <g id="text_10">
      <!-- 40 -->
      <g style="fill:#262626;" transform="translate(48.5025 264.216865)scale(0.11 -0.11)">
       <use xlink:href="#DejaVuSans-52"/>
       <use x="63.623047" xlink:href="#DejaVuSans-48"/>
      </g>
     </g>
    </g>
    <g id="ytick_4">
     <g id="line2d_10">
      <path clip-path="url(#pcf5a489623)" d="M 72 193.405142 
L 518.4 193.405142 
" style="fill:none;stroke:#ffffff;stroke-linecap:round;"/>
     </g>
     <g id="text_11">
      <!-- 60 -->
      <defs>
       <path d="M 33.015625 40.375 
Q 26.375 40.375 22.484375 35.828125 
Q 18.609375 31.296875 18.609375 23.390625 
Q 18.609375 15.53125 22.484375 10.953125 
Q 26.375 6.390625 33.015625 6.390625 
Q 39.65625 6.390625 43.53125 10.953125 
Q 47.40625 15.53125 47.40625 23.390625 
Q 47.40625 31.296875 43.53125 35.828125 
Q 39.65625 40.375 33.015625 40.375 
z
M 52.59375 71.296875 
L 52.59375 62.3125 
Q 48.875 64.0625 45.09375 64.984375 
Q 41.3125 65.921875 37.59375 65.921875 
Q 27.828125 65.921875 22.671875 59.328125 
Q 17.53125 52.734375 16.796875 39.40625 
Q 19.671875 43.65625 24.015625 45.921875 
Q 28.375 48.1875 33.59375 48.1875 
Q 44.578125 48.1875 50.953125 41.515625 
Q 57.328125 34.859375 57.328125 23.390625 
Q 57.328125 12.15625 50.6875 5.359375 
Q 44.046875 -1.421875 33.015625 -1.421875 
Q 20.359375 -1.421875 13.671875 8.265625 
Q 6.984375 17.96875 6.984375 36.375 
Q 6.984375 53.65625 15.1875 63.9375 
Q 23.390625 74.21875 37.203125 74.21875 
Q 40.921875 74.21875 44.703125 73.484375 
Q 48.484375 72.75 52.59375 71.296875 
z
" id="DejaVuSans-54"/>
      </defs>
      <g style="fill:#262626;" transform="translate(48.5025 197.584282)scale(0.11 -0.11)">
       <use xlink:href="#DejaVuSans-54"/>
       <use x="63.623047" xlink:href="#DejaVuSans-48"/>
      </g>
     </g>
    </g>
    <g id="ytick_5">
     <g id="line2d_11">
      <path clip-path="url(#pcf5a489623)" d="M 72 126.772559 
L 518.4 126.772559 
" style="fill:none;stroke:#ffffff;stroke-linecap:round;"/>
     </g>
     <g id="text_12">
      <!-- 80 -->
      <defs>
       <path d="M 31.78125 34.625 
Q 24.75 34.625 20.71875 30.859375 
Q 16.703125 27.09375 16.703125 20.515625 
Q 16.703125 13.921875 20.71875 10.15625 
Q 24.75 6.390625 31.78125 6.390625 
Q 38.8125 6.390625 42.859375 10.171875 
Q 46.921875 13.96875 46.921875 20.515625 
Q 46.921875 27.09375 42.890625 30.859375 
Q 38.875 34.625 31.78125 34.625 
z
M 21.921875 38.8125 
Q 15.578125 40.375 12.03125 44.71875 
Q 8.5 49.078125 8.5 55.328125 
Q 8.5 64.0625 14.71875 69.140625 
Q 20.953125 74.21875 31.78125 74.21875 
Q 42.671875 74.21875 48.875 69.140625 
Q 55.078125 64.0625 55.078125 55.328125 
Q 55.078125 49.078125 51.53125 44.71875 
Q 48 40.375 41.703125 38.8125 
Q 48.828125 37.15625 52.796875 32.3125 
Q 56.78125 27.484375 56.78125 20.515625 
Q 56.78125 9.90625 50.3125 4.234375 
Q 43.84375 -1.421875 31.78125 -1.421875 
Q 19.734375 -1.421875 13.25 4.234375 
Q 6.78125 9.90625 6.78125 20.515625 
Q 6.78125 27.484375 10.78125 32.3125 
Q 14.796875 37.15625 21.921875 38.8125 
z
M 18.3125 54.390625 
Q 18.3125 48.734375 21.84375 45.5625 
Q 25.390625 42.390625 31.78125 42.390625 
Q 38.140625 42.390625 41.71875 45.5625 
Q 45.3125 48.734375 45.3125 54.390625 
Q 45.3125 60.0625 41.71875 63.234375 
Q 38.140625 66.40625 31.78125 66.40625 
Q 25.390625 66.40625 21.84375 63.234375 
Q 18.3125 60.0625 18.3125 54.390625 
z
" id="DejaVuSans-56"/>
      </defs>
      <g style="fill:#262626;" transform="translate(48.5025 130.951699)scale(0.11 -0.11)">
       <use xlink:href="#DejaVuSans-56"/>
       <use x="63.623047" xlink:href="#DejaVuSans-48"/>
      </g>
     </g>
    </g>
    <g id="ytick_6">
     <g id="line2d_12">
      <path clip-path="url(#pcf5a489623)" d="M 72 60.139976 
L 518.4 60.139976 
" style="fill:none;stroke:#ffffff;stroke-linecap:round;"/>
     </g>
     <g id="text_13">
      <!-- 100 -->
      <g style="fill:#262626;" transform="translate(41.50375 64.319116)scale(0.11 -0.11)">
       <use xlink:href="#DejaVuSans-49"/>
       <use x="63.623047" xlink:href="#DejaVuSans-48"/>
       <use x="127.246094" xlink:href="#DejaVuSans-48"/>
      </g>
     </g>
    </g>
    <g id="text_14">
     <!-- $\left\langle r^2\right\rangle \left(\sigma^2\right)$ -->
     <defs>
      <path d="M 8.9375 31.34375 
L 22.703125 75.875 
L 31 75.875 
L 17.234375 31.34375 
L 31 -13.1875 
L 22.703125 -13.1875 
z
" id="DejaVuSans-10216"/>
      <path d="M 44.578125 46.390625 
Q 43.21875 47.125 41.453125 47.515625 
Q 39.703125 47.90625 37.703125 47.90625 
Q 30.515625 47.90625 25.140625 42.453125 
Q 19.78125 37.015625 18.015625 27.875 
L 12.5 0 
L 3.515625 0 
L 14.203125 54.6875 
L 23.1875 54.6875 
L 21.484375 46.1875 
Q 25.046875 50.921875 30 53.453125 
Q 34.96875 56 40.578125 56 
Q 42.046875 56 43.453125 55.828125 
Q 44.875 55.671875 46.296875 55.28125 
z
" id="DejaVuSans-Oblique-114"/>
      <path d="M 30.078125 31.34375 
L 16.3125 -13.1875 
L 8.015625 -13.1875 
L 21.78125 31.34375 
L 8.015625 75.875 
L 16.3125 75.875 
z
" id="DejaVuSans-10217"/>
      <path d="M 31 75.875 
Q 24.46875 64.65625 21.28125 53.65625 
Q 18.109375 42.671875 18.109375 31.390625 
Q 18.109375 20.125 21.3125 9.0625 
Q 24.515625 -2 31 -13.1875 
L 23.1875 -13.1875 
Q 15.875 -1.703125 12.234375 9.375 
Q 8.59375 20.453125 8.59375 31.390625 
Q 8.59375 42.28125 12.203125 53.3125 
Q 15.828125 64.359375 23.1875 75.875 
z
" id="DejaVuSans-40"/>
      <path d="M 8.015625 75.875 
L 15.828125 75.875 
Q 23.140625 64.359375 26.78125 53.3125 
Q 30.421875 42.28125 30.421875 31.390625 
Q 30.421875 20.453125 26.78125 9.375 
Q 23.140625 -1.703125 15.828125 -13.1875 
L 8.015625 -13.1875 
Q 14.5 -2 17.703125 9.0625 
Q 20.90625 20.125 20.90625 31.390625 
Q 20.90625 42.671875 17.703125 53.65625 
Q 14.5 64.65625 8.015625 75.875 
z
" id="DejaVuSans-41"/>
     </defs>
     <g style="fill:#262626;" transform="translate(35.008125 250.968)rotate(-90)scale(0.12 -0.12)">
      <use transform="translate(0 0.765625)" xlink:href="#DejaVuSans-10216"/>
      <use transform="translate(39.013672 0.765625)" xlink:href="#DejaVuSans-Oblique-114"/>
      <use transform="translate(84.776849 39.046875)scale(0.7)" xlink:href="#DejaVuSans-50"/>
      <use transform="translate(132.047357 0.765625)" xlink:href="#DejaVuSans-10217"/>
      <use transform="translate(171.061029 0.765625)" xlink:href="#DejaVuSans-40"/>
      <use transform="translate(210.074701 0.765625)" xlink:href="#DejaVuSans-Oblique-963"/>
      <use transform="translate(277.926315 39.046875)scale(0.7)" xlink:href="#DejaVuSans-50"/>
      <use transform="translate(325.196823 0.765625)" xlink:href="#DejaVuSans-41"/>
     </g>
    </g>
   </g>
   <g id="PathCollection_1">
    <defs>
     <path d="M 0 3 
C 0.795609 3 1.55874 2.683901 2.12132 2.12132 
C 2.683901 1.55874 3 0.795609 3 0 
C 3 -0.795609 2.683901 -1.55874 2.12132 -2.12132 
C 1.55874 -2.683901 0.795609 -3 0 -3 
C -0.795609 -3 -1.55874 -2.683901 -2.12132 -2.12132 
C -2.683901 -1.55874 -3 -0.795609 -3 0 
C -3 0.795609 -2.683901 1.55874 -2.12132 2.12132 
C -1.55874 2.683901 -0.795609 3 0 3 
z
" id="m6043745303" style="stroke:#56b4e9;"/>
    </defs>
    <g clip-path="url(#pcf5a489623)">
     <use style="fill:#56b4e9;stroke:#56b4e9;" x="92.783582" xlink:href="#m6043745303" y="393.301269"/>
     <use style="fill:#56b4e9;stroke:#56b4e9;" x="93.598135" xlink:href="#m6043745303" y="393.29641"/>
     <use style="fill:#56b4e9;stroke:#56b4e9;" x="94.412688" xlink:href="#m6043745303" y="393.288334"/>
     <use style="fill:#56b4e9;stroke:#56b4e9;" x="95.227241" xlink:href="#m6043745303" y="393.277068"/>
     <use style="fill:#56b4e9;stroke:#56b4e9;" x="96.041794" xlink:href="#m6043745303" y="393.262643"/>
     <use style="fill:#56b4e9;stroke:#56b4e9;" x="96.856347" xlink:href="#m6043745303" y="393.245093"/>
     <use style="fill:#56b4e9;stroke:#56b4e9;" x="97.6709" xlink:href="#m6043745303" y="393.224451"/>
     <use style="fill:#56b4e9;stroke:#56b4e9;" x="98.485453" xlink:href="#m6043745303" y="393.200751"/>
     <use style="fill:#56b4e9;stroke:#56b4e9;" x="99.300006" xlink:href="#m6043745303" y="393.174026"/>
     <use style="fill:#56b4e9;stroke:#56b4e9;" x="100.114559" xlink:href="#m6043745303" y="393.14431"/>
     <use style="fill:#56b4e9;stroke:#56b4e9;" x="100.929112" xlink:href="#m6043745303" y="393.111634"/>
     <use style="fill:#56b4e9;stroke:#56b4e9;" x="101.743665" xlink:href="#m6043745303" y="393.076031"/>
     <use style="fill:#56b4e9;stroke:#56b4e9;" x="102.558218" xlink:href="#m6043745303" y="393.03753"/>
     <use style="fill:#56b4e9;stroke:#56b4e9;" x="103.372771" xlink:href="#m6043745303" y="392.996163"/>
     <use style="fill:#56b4e9;stroke:#56b4e9;" x="104.187324" xlink:href="#m6043745303" y="392.951959"/>
     <use style="fill:#56b4e9;stroke:#56b4e9;" x="105.001877" xlink:href="#m6043745303" y="392.904949"/>
     <use style="fill:#56b4e9;stroke:#56b4e9;" x="105.81643" xlink:href="#m6043745303" y="392.855164"/>
     <use style="fill:#56b4e9;stroke:#56b4e9;" x="106.630983" xlink:href="#m6043745303" y="392.802634"/>
     <use style="fill:#56b4e9;stroke:#56b4e9;" x="107.445536" xlink:href="#m6043745303" y="392.747388"/>
     <use style="fill:#56b4e9;stroke:#56b4e9;" x="108.260089" xlink:href="#m6043745303" y="392.689451"/>
     <use style="fill:#56b4e9;stroke:#56b4e9;" x="109.074642" xlink:href="#m6043745303" y="392.62885"/>
     <use style="fill:#56b4e9;stroke:#56b4e9;" x="109.889195" xlink:href="#m6043745303" y="392.56561"/>
     <use style="fill:#56b4e9;stroke:#56b4e9;" x="110.703748" xlink:href="#m6043745303" y="392.499756"/>
     <use style="fill:#56b4e9;stroke:#56b4e9;" x="111.518301" xlink:href="#m6043745303" y="392.431313"/>
     <use style="fill:#56b4e9;stroke:#56b4e9;" x="112.332854" xlink:href="#m6043745303" y="392.360307"/>
     <use style="fill:#56b4e9;stroke:#56b4e9;" x="113.147407" xlink:href="#m6043745303" y="392.286761"/>
     <use style="fill:#56b4e9;stroke:#56b4e9;" x="113.96196" xlink:href="#m6043745303" y="392.2107"/>
     <use style="fill:#56b4e9;stroke:#56b4e9;" x="114.776513" xlink:href="#m6043745303" y="392.132148"/>
     <use style="fill:#56b4e9;stroke:#56b4e9;" x="115.591066" xlink:href="#m6043745303" y="392.051131"/>
     <use style="fill:#56b4e9;stroke:#56b4e9;" x="116.405619" xlink:href="#m6043745303" y="391.967672"/>
     <use style="fill:#56b4e9;stroke:#56b4e9;" x="117.220172" xlink:href="#m6043745303" y="391.881795"/>
     <use style="fill:#56b4e9;stroke:#56b4e9;" x="118.034725" xlink:href="#m6043745303" y="391.793519"/>
     <use style="fill:#56b4e9;stroke:#56b4e9;" x="118.849278" xlink:href="#m6043745303" y="391.702867"/>
     <use style="fill:#56b4e9;stroke:#56b4e9;" x="119.663831" xlink:href="#m6043745303" y="391.609859"/>
     <use style="fill:#56b4e9;stroke:#56b4e9;" x="120.478384" xlink:href="#m6043745303" y="391.514515"/>
     <use style="fill:#56b4e9;stroke:#56b4e9;" x="121.292937" xlink:href="#m6043745303" y="391.416858"/>
     <use style="fill:#56b4e9;stroke:#56b4e9;" x="122.10749" xlink:href="#m6043745303" y="391.316909"/>
     <use style="fill:#56b4e9;stroke:#56b4e9;" x="122.922043" xlink:href="#m6043745303" y="391.214689"/>
     <use style="fill:#56b4e9;stroke:#56b4e9;" x="123.736596" xlink:href="#m6043745303" y="391.11022"/>
     <use style="fill:#56b4e9;stroke:#56b4e9;" x="124.551149" xlink:href="#m6043745303" y="391.003522"/>
     <use style="fill:#56b4e9;stroke:#56b4e9;" x="125.365702" xlink:href="#m6043745303" y="390.894617"/>
     <use style="fill:#56b4e9;stroke:#56b4e9;" x="126.180255" xlink:href="#m6043745303" y="390.783527"/>
     <use style="fill:#56b4e9;stroke:#56b4e9;" x="126.994808" xlink:href="#m6043745303" y="390.670271"/>
     <use style="fill:#56b4e9;stroke:#56b4e9;" x="127.809361" xlink:href="#m6043745303" y="390.554869"/>
     <use style="fill:#56b4e9;stroke:#56b4e9;" x="128.623914" xlink:href="#m6043745303" y="390.437342"/>
     <use style="fill:#56b4e9;stroke:#56b4e9;" x="129.438467" xlink:href="#m6043745303" y="390.317708"/>
     <use style="fill:#56b4e9;stroke:#56b4e9;" x="130.25302" xlink:href="#m6043745303" y="390.195988"/>
     <use style="fill:#56b4e9;stroke:#56b4e9;" x="131.067573" xlink:href="#m6043745303" y="390.0722"/>
     <use style="fill:#56b4e9;stroke:#56b4e9;" x="131.882126" xlink:href="#m6043745303" y="389.946365"/>
     <use style="fill:#56b4e9;stroke:#56b4e9;" x="132.696679" xlink:href="#m6043745303" y="389.818501"/>
     <use style="fill:#56b4e9;stroke:#56b4e9;" x="133.511232" xlink:href="#m6043745303" y="389.68863"/>
     <use style="fill:#56b4e9;stroke:#56b4e9;" x="134.325785" xlink:href="#m6043745303" y="389.556769"/>
     <use style="fill:#56b4e9;stroke:#56b4e9;" x="135.140338" xlink:href="#m6043745303" y="389.422939"/>
     <use style="fill:#56b4e9;stroke:#56b4e9;" x="135.954891" xlink:href="#m6043745303" y="389.287158"/>
     <use style="fill:#56b4e9;stroke:#56b4e9;" x="136.769444" xlink:href="#m6043745303" y="389.149443"/>
     <use style="fill:#56b4e9;stroke:#56b4e9;" x="137.583997" xlink:href="#m6043745303" y="389.009812"/>
     <use style="fill:#56b4e9;stroke:#56b4e9;" x="138.39855" xlink:href="#m6043745303" y="388.868291"/>
     <use style="fill:#56b4e9;stroke:#56b4e9;" x="139.213103" xlink:href="#m6043745303" y="388.724903"/>
     <use style="fill:#56b4e9;stroke:#56b4e9;" x="140.027656" xlink:href="#m6043745303" y="388.579673"/>
     <use style="fill:#56b4e9;stroke:#56b4e9;" x="140.842209" xlink:href="#m6043745303" y="388.432622"/>
     <use style="fill:#56b4e9;stroke:#56b4e9;" x="141.656762" xlink:href="#m6043745303" y="388.283773"/>
     <use style="fill:#56b4e9;stroke:#56b4e9;" x="142.471315" xlink:href="#m6043745303" y="388.133146"/>
     <use style="fill:#56b4e9;stroke:#56b4e9;" x="143.285868" xlink:href="#m6043745303" y="387.980764"/>
     <use style="fill:#56b4e9;stroke:#56b4e9;" x="144.100421" xlink:href="#m6043745303" y="387.82665"/>
     <use style="fill:#56b4e9;stroke:#56b4e9;" x="144.914974" xlink:href="#m6043745303" y="387.670824"/>
     <use style="fill:#56b4e9;stroke:#56b4e9;" x="145.729527" xlink:href="#m6043745303" y="387.513305"/>
     <use style="fill:#56b4e9;stroke:#56b4e9;" x="146.54408" xlink:href="#m6043745303" y="387.354108"/>
     <use style="fill:#56b4e9;stroke:#56b4e9;" x="147.358633" xlink:href="#m6043745303" y="387.19325"/>
     <use style="fill:#56b4e9;stroke:#56b4e9;" x="148.173186" xlink:href="#m6043745303" y="387.030746"/>
     <use style="fill:#56b4e9;stroke:#56b4e9;" x="148.987739" xlink:href="#m6043745303" y="386.866614"/>
     <use style="fill:#56b4e9;stroke:#56b4e9;" x="149.802291" xlink:href="#m6043745303" y="386.700872"/>
     <use style="fill:#56b4e9;stroke:#56b4e9;" x="150.616844" xlink:href="#m6043745303" y="386.533537"/>
     <use style="fill:#56b4e9;stroke:#56b4e9;" x="151.431397" xlink:href="#m6043745303" y="386.36462"/>
     <use style="fill:#56b4e9;stroke:#56b4e9;" x="152.24595" xlink:href="#m6043745303" y="386.194134"/>
     <use style="fill:#56b4e9;stroke:#56b4e9;" x="153.060503" xlink:href="#m6043745303" y="386.022092"/>
     <use style="fill:#56b4e9;stroke:#56b4e9;" x="153.875056" xlink:href="#m6043745303" y="385.848513"/>
     <use style="fill:#56b4e9;stroke:#56b4e9;" x="154.689609" xlink:href="#m6043745303" y="385.673412"/>
     <use style="fill:#56b4e9;stroke:#56b4e9;" x="155.504162" xlink:href="#m6043745303" y="385.496805"/>
     <use style="fill:#56b4e9;stroke:#56b4e9;" x="156.318715" xlink:href="#m6043745303" y="385.318699"/>
     <use style="fill:#56b4e9;stroke:#56b4e9;" x="157.133268" xlink:href="#m6043745303" y="385.139104"/>
     <use style="fill:#56b4e9;stroke:#56b4e9;" x="157.947821" xlink:href="#m6043745303" y="384.958034"/>
     <use style="fill:#56b4e9;stroke:#56b4e9;" x="158.762374" xlink:href="#m6043745303" y="384.775505"/>
     <use style="fill:#56b4e9;stroke:#56b4e9;" x="159.576927" xlink:href="#m6043745303" y="384.591529"/>
     <use style="fill:#56b4e9;stroke:#56b4e9;" x="160.39148" xlink:href="#m6043745303" y="384.406119"/>
     <use style="fill:#56b4e9;stroke:#56b4e9;" x="161.206033" xlink:href="#m6043745303" y="384.219282"/>
     <use style="fill:#56b4e9;stroke:#56b4e9;" x="162.020586" xlink:href="#m6043745303" y="384.031021"/>
     <use style="fill:#56b4e9;stroke:#56b4e9;" x="162.835139" xlink:href="#m6043745303" y="383.841342"/>
     <use style="fill:#56b4e9;stroke:#56b4e9;" x="163.649692" xlink:href="#m6043745303" y="383.65025"/>
     <use style="fill:#56b4e9;stroke:#56b4e9;" x="164.464245" xlink:href="#m6043745303" y="383.457748"/>
     <use style="fill:#56b4e9;stroke:#56b4e9;" x="165.278798" xlink:href="#m6043745303" y="383.263837"/>
     <use style="fill:#56b4e9;stroke:#56b4e9;" x="166.093351" xlink:href="#m6043745303" y="383.068523"/>
     <use style="fill:#56b4e9;stroke:#56b4e9;" x="166.907904" xlink:href="#m6043745303" y="382.87181"/>
     <use style="fill:#56b4e9;stroke:#56b4e9;" x="167.722457" xlink:href="#m6043745303" y="382.673707"/>
     <use style="fill:#56b4e9;stroke:#56b4e9;" x="168.53701" xlink:href="#m6043745303" y="382.474226"/>
     <use style="fill:#56b4e9;stroke:#56b4e9;" x="169.351563" xlink:href="#m6043745303" y="382.273383"/>
     <use style="fill:#56b4e9;stroke:#56b4e9;" x="170.166116" xlink:href="#m6043745303" y="382.071193"/>
     <use style="fill:#56b4e9;stroke:#56b4e9;" x="170.980669" xlink:href="#m6043745303" y="381.867667"/>
     <use style="fill:#56b4e9;stroke:#56b4e9;" x="171.795222" xlink:href="#m6043745303" y="381.662815"/>
     <use style="fill:#56b4e9;stroke:#56b4e9;" x="172.609775" xlink:href="#m6043745303" y="381.456645"/>
     <use style="fill:#56b4e9;stroke:#56b4e9;" x="173.424328" xlink:href="#m6043745303" y="381.249167"/>
     <use style="fill:#56b4e9;stroke:#56b4e9;" x="174.238881" xlink:href="#m6043745303" y="381.040392"/>
     <use style="fill:#56b4e9;stroke:#56b4e9;" x="175.053434" xlink:href="#m6043745303" y="380.830337"/>
     <use style="fill:#56b4e9;stroke:#56b4e9;" x="175.867987" xlink:href="#m6043745303" y="380.619026"/>
     <use style="fill:#56b4e9;stroke:#56b4e9;" x="176.68254" xlink:href="#m6043745303" y="380.406473"/>
     <use style="fill:#56b4e9;stroke:#56b4e9;" x="177.497093" xlink:href="#m6043745303" y="380.192693"/>
     <use style="fill:#56b4e9;stroke:#56b4e9;" x="178.311646" xlink:href="#m6043745303" y="379.977695"/>
     <use style="fill:#56b4e9;stroke:#56b4e9;" x="179.126199" xlink:href="#m6043745303" y="379.761492"/>
     <use style="fill:#56b4e9;stroke:#56b4e9;" x="179.940752" xlink:href="#m6043745303" y="379.5441"/>
     <use style="fill:#56b4e9;stroke:#56b4e9;" x="180.755305" xlink:href="#m6043745303" y="379.325536"/>
     <use style="fill:#56b4e9;stroke:#56b4e9;" x="181.569858" xlink:href="#m6043745303" y="379.105816"/>
     <use style="fill:#56b4e9;stroke:#56b4e9;" x="182.384411" xlink:href="#m6043745303" y="378.884951"/>
     <use style="fill:#56b4e9;stroke:#56b4e9;" x="183.198964" xlink:href="#m6043745303" y="378.662951"/>
     <use style="fill:#56b4e9;stroke:#56b4e9;" x="184.013517" xlink:href="#m6043745303" y="378.439824"/>
     <use style="fill:#56b4e9;stroke:#56b4e9;" x="184.82807" xlink:href="#m6043745303" y="378.215575"/>
     <use style="fill:#56b4e9;stroke:#56b4e9;" x="185.642623" xlink:href="#m6043745303" y="377.990212"/>
     <use style="fill:#56b4e9;stroke:#56b4e9;" x="186.457176" xlink:href="#m6043745303" y="377.763743"/>
     <use style="fill:#56b4e9;stroke:#56b4e9;" x="187.271729" xlink:href="#m6043745303" y="377.536182"/>
     <use style="fill:#56b4e9;stroke:#56b4e9;" x="188.086282" xlink:href="#m6043745303" y="377.307547"/>
     <use style="fill:#56b4e9;stroke:#56b4e9;" x="188.900835" xlink:href="#m6043745303" y="377.077858"/>
     <use style="fill:#56b4e9;stroke:#56b4e9;" x="189.715388" xlink:href="#m6043745303" y="376.847131"/>
     <use style="fill:#56b4e9;stroke:#56b4e9;" x="190.529941" xlink:href="#m6043745303" y="376.615383"/>
     <use style="fill:#56b4e9;stroke:#56b4e9;" x="191.344494" xlink:href="#m6043745303" y="376.382623"/>
     <use style="fill:#56b4e9;stroke:#56b4e9;" x="192.159047" xlink:href="#m6043745303" y="376.148864"/>
     <use style="fill:#56b4e9;stroke:#56b4e9;" x="192.9736" xlink:href="#m6043745303" y="375.914113"/>
     <use style="fill:#56b4e9;stroke:#56b4e9;" x="193.788153" xlink:href="#m6043745303" y="375.678378"/>
     <use style="fill:#56b4e9;stroke:#56b4e9;" x="194.602706" xlink:href="#m6043745303" y="375.441669"/>
     <use style="fill:#56b4e9;stroke:#56b4e9;" x="195.417259" xlink:href="#m6043745303" y="375.203992"/>
     <use style="fill:#56b4e9;stroke:#56b4e9;" x="196.231812" xlink:href="#m6043745303" y="374.965357"/>
     <use style="fill:#56b4e9;stroke:#56b4e9;" x="197.046365" xlink:href="#m6043745303" y="374.725772"/>
     <use style="fill:#56b4e9;stroke:#56b4e9;" x="197.860918" xlink:href="#m6043745303" y="374.485247"/>
     <use style="fill:#56b4e9;stroke:#56b4e9;" x="198.675471" xlink:href="#m6043745303" y="374.243792"/>
     <use style="fill:#56b4e9;stroke:#56b4e9;" x="199.490024" xlink:href="#m6043745303" y="374.001419"/>
     <use style="fill:#56b4e9;stroke:#56b4e9;" x="200.304577" xlink:href="#m6043745303" y="373.758142"/>
     <use style="fill:#56b4e9;stroke:#56b4e9;" x="201.11913" xlink:href="#m6043745303" y="373.513979"/>
     <use style="fill:#56b4e9;stroke:#56b4e9;" x="201.933683" xlink:href="#m6043745303" y="373.268947"/>
     <use style="fill:#56b4e9;stroke:#56b4e9;" x="202.748236" xlink:href="#m6043745303" y="373.023056"/>
     <use style="fill:#56b4e9;stroke:#56b4e9;" x="203.562789" xlink:href="#m6043745303" y="372.776315"/>
     <use style="fill:#56b4e9;stroke:#56b4e9;" x="204.377342" xlink:href="#m6043745303" y="372.528731"/>
     <use style="fill:#56b4e9;stroke:#56b4e9;" x="205.191895" xlink:href="#m6043745303" y="372.280311"/>
     <use style="fill:#56b4e9;stroke:#56b4e9;" x="206.006448" xlink:href="#m6043745303" y="372.031063"/>
     <use style="fill:#56b4e9;stroke:#56b4e9;" x="206.821001" xlink:href="#m6043745303" y="371.78099"/>
     <use style="fill:#56b4e9;stroke:#56b4e9;" x="207.635554" xlink:href="#m6043745303" y="371.530094"/>
     <use style="fill:#56b4e9;stroke:#56b4e9;" x="208.450107" xlink:href="#m6043745303" y="371.278371"/>
     <use style="fill:#56b4e9;stroke:#56b4e9;" x="209.26466" xlink:href="#m6043745303" y="371.025819"/>
     <use style="fill:#56b4e9;stroke:#56b4e9;" x="210.079213" xlink:href="#m6043745303" y="370.772443"/>
     <use style="fill:#56b4e9;stroke:#56b4e9;" x="210.893766" xlink:href="#m6043745303" y="370.518247"/>
     <use style="fill:#56b4e9;stroke:#56b4e9;" x="211.708319" xlink:href="#m6043745303" y="370.263236"/>
     <use style="fill:#56b4e9;stroke:#56b4e9;" x="212.522872" xlink:href="#m6043745303" y="370.007412"/>
     <use style="fill:#56b4e9;stroke:#56b4e9;" x="213.337425" xlink:href="#m6043745303" y="369.750778"/>
     <use style="fill:#56b4e9;stroke:#56b4e9;" x="214.151978" xlink:href="#m6043745303" y="369.493336"/>
     <use style="fill:#56b4e9;stroke:#56b4e9;" x="214.966531" xlink:href="#m6043745303" y="369.235086"/>
     <use style="fill:#56b4e9;stroke:#56b4e9;" x="215.781084" xlink:href="#m6043745303" y="368.976027"/>
     <use style="fill:#56b4e9;stroke:#56b4e9;" x="216.595637" xlink:href="#m6043745303" y="368.716158"/>
     <use style="fill:#56b4e9;stroke:#56b4e9;" x="217.41019" xlink:href="#m6043745303" y="368.455462"/>
     <use style="fill:#56b4e9;stroke:#56b4e9;" x="218.224743" xlink:href="#m6043745303" y="368.193924"/>
     <use style="fill:#56b4e9;stroke:#56b4e9;" x="219.039296" xlink:href="#m6043745303" y="367.931543"/>
     <use style="fill:#56b4e9;stroke:#56b4e9;" x="219.853849" xlink:href="#m6043745303" y="367.668323"/>
     <use style="fill:#56b4e9;stroke:#56b4e9;" x="220.668402" xlink:href="#m6043745303" y="367.404268"/>
     <use style="fill:#56b4e9;stroke:#56b4e9;" x="221.482955" xlink:href="#m6043745303" y="367.139385"/>
     <use style="fill:#56b4e9;stroke:#56b4e9;" x="222.297507" xlink:href="#m6043745303" y="366.87368"/>
     <use style="fill:#56b4e9;stroke:#56b4e9;" x="223.11206" xlink:href="#m6043745303" y="366.607158"/>
     <use style="fill:#56b4e9;stroke:#56b4e9;" x="223.926613" xlink:href="#m6043745303" y="366.339825"/>
     <use style="fill:#56b4e9;stroke:#56b4e9;" x="224.741166" xlink:href="#m6043745303" y="366.071689"/>
     <use style="fill:#56b4e9;stroke:#56b4e9;" x="225.555719" xlink:href="#m6043745303" y="365.802757"/>
     <use style="fill:#56b4e9;stroke:#56b4e9;" x="226.370272" xlink:href="#m6043745303" y="365.533038"/>
     <use style="fill:#56b4e9;stroke:#56b4e9;" x="227.184825" xlink:href="#m6043745303" y="365.26254"/>
     <use style="fill:#56b4e9;stroke:#56b4e9;" x="227.999378" xlink:href="#m6043745303" y="364.991268"/>
     <use style="fill:#56b4e9;stroke:#56b4e9;" x="228.813931" xlink:href="#m6043745303" y="364.719227"/>
     <use style="fill:#56b4e9;stroke:#56b4e9;" x="229.628484" xlink:href="#m6043745303" y="364.446419"/>
     <use style="fill:#56b4e9;stroke:#56b4e9;" x="230.443037" xlink:href="#m6043745303" y="364.172847"/>
     <use style="fill:#56b4e9;stroke:#56b4e9;" x="231.25759" xlink:href="#m6043745303" y="363.898515"/>
     <use style="fill:#56b4e9;stroke:#56b4e9;" x="232.072143" xlink:href="#m6043745303" y="363.623427"/>
     <use style="fill:#56b4e9;stroke:#56b4e9;" x="232.886696" xlink:href="#m6043745303" y="363.347585"/>
     <use style="fill:#56b4e9;stroke:#56b4e9;" x="233.701249" xlink:href="#m6043745303" y="363.070992"/>
     <use style="fill:#56b4e9;stroke:#56b4e9;" x="234.515802" xlink:href="#m6043745303" y="362.793652"/>
     <use style="fill:#56b4e9;stroke:#56b4e9;" x="235.330355" xlink:href="#m6043745303" y="362.515568"/>
     <use style="fill:#56b4e9;stroke:#56b4e9;" x="236.144908" xlink:href="#m6043745303" y="362.236754"/>
     <use style="fill:#56b4e9;stroke:#56b4e9;" x="236.959461" xlink:href="#m6043745303" y="361.957233"/>
     <use style="fill:#56b4e9;stroke:#56b4e9;" x="237.774014" xlink:href="#m6043745303" y="361.677034"/>
     <use style="fill:#56b4e9;stroke:#56b4e9;" x="238.588567" xlink:href="#m6043745303" y="361.396181"/>
     <use style="fill:#56b4e9;stroke:#56b4e9;" x="239.40312" xlink:href="#m6043745303" y="361.114703"/>
     <use style="fill:#56b4e9;stroke:#56b4e9;" x="240.217673" xlink:href="#m6043745303" y="360.832643"/>
     <use style="fill:#56b4e9;stroke:#56b4e9;" x="241.032226" xlink:href="#m6043745303" y="360.550029"/>
     <use style="fill:#56b4e9;stroke:#56b4e9;" x="241.846779" xlink:href="#m6043745303" y="360.266867"/>
     <use style="fill:#56b4e9;stroke:#56b4e9;" x="242.661332" xlink:href="#m6043745303" y="359.983148"/>
     <use style="fill:#56b4e9;stroke:#56b4e9;" x="243.475885" xlink:href="#m6043745303" y="359.698867"/>
     <use style="fill:#56b4e9;stroke:#56b4e9;" x="244.290438" xlink:href="#m6043745303" y="359.414022"/>
     <use style="fill:#56b4e9;stroke:#56b4e9;" x="245.104991" xlink:href="#m6043745303" y="359.128613"/>
     <use style="fill:#56b4e9;stroke:#56b4e9;" x="245.919544" xlink:href="#m6043745303" y="358.842635"/>
     <use style="fill:#56b4e9;stroke:#56b4e9;" x="246.734097" xlink:href="#m6043745303" y="358.556072"/>
     <use style="fill:#56b4e9;stroke:#56b4e9;" x="247.54865" xlink:href="#m6043745303" y="358.268921"/>
     <use style="fill:#56b4e9;stroke:#56b4e9;" x="248.363203" xlink:href="#m6043745303" y="357.981182"/>
     <use style="fill:#56b4e9;stroke:#56b4e9;" x="249.177756" xlink:href="#m6043745303" y="357.692858"/>
     <use style="fill:#56b4e9;stroke:#56b4e9;" x="249.992309" xlink:href="#m6043745303" y="357.403949"/>
     <use style="fill:#56b4e9;stroke:#56b4e9;" x="250.806862" xlink:href="#m6043745303" y="357.114455"/>
     <use style="fill:#56b4e9;stroke:#56b4e9;" x="251.621415" xlink:href="#m6043745303" y="356.824371"/>
     <use style="fill:#56b4e9;stroke:#56b4e9;" x="252.435968" xlink:href="#m6043745303" y="356.53369"/>
     <use style="fill:#56b4e9;stroke:#56b4e9;" x="253.250521" xlink:href="#m6043745303" y="356.242412"/>
     <use style="fill:#56b4e9;stroke:#56b4e9;" x="254.065074" xlink:href="#m6043745303" y="355.950534"/>
     <use style="fill:#56b4e9;stroke:#56b4e9;" x="254.879627" xlink:href="#m6043745303" y="355.658052"/>
     <use style="fill:#56b4e9;stroke:#56b4e9;" x="255.69418" xlink:href="#m6043745303" y="355.364964"/>
     <use style="fill:#56b4e9;stroke:#56b4e9;" x="256.508733" xlink:href="#m6043745303" y="355.071267"/>
     <use style="fill:#56b4e9;stroke:#56b4e9;" x="257.323286" xlink:href="#m6043745303" y="354.776961"/>
     <use style="fill:#56b4e9;stroke:#56b4e9;" x="258.137839" xlink:href="#m6043745303" y="354.482045"/>
     <use style="fill:#56b4e9;stroke:#56b4e9;" x="258.952392" xlink:href="#m6043745303" y="354.18652"/>
     <use style="fill:#56b4e9;stroke:#56b4e9;" x="259.766945" xlink:href="#m6043745303" y="353.890379"/>
     <use style="fill:#56b4e9;stroke:#56b4e9;" x="260.581498" xlink:href="#m6043745303" y="353.593589"/>
     <use style="fill:#56b4e9;stroke:#56b4e9;" x="261.396051" xlink:href="#m6043745303" y="353.296102"/>
     <use style="fill:#56b4e9;stroke:#56b4e9;" x="262.210604" xlink:href="#m6043745303" y="352.997906"/>
     <use style="fill:#56b4e9;stroke:#56b4e9;" x="263.025157" xlink:href="#m6043745303" y="352.698998"/>
     <use style="fill:#56b4e9;stroke:#56b4e9;" x="263.83971" xlink:href="#m6043745303" y="352.399377"/>
     <use style="fill:#56b4e9;stroke:#56b4e9;" x="264.654263" xlink:href="#m6043745303" y="352.099041"/>
     <use style="fill:#56b4e9;stroke:#56b4e9;" x="265.468816" xlink:href="#m6043745303" y="351.797987"/>
     <use style="fill:#56b4e9;stroke:#56b4e9;" x="266.283369" xlink:href="#m6043745303" y="351.496213"/>
     <use style="fill:#56b4e9;stroke:#56b4e9;" x="267.097922" xlink:href="#m6043745303" y="351.193716"/>
     <use style="fill:#56b4e9;stroke:#56b4e9;" x="267.912475" xlink:href="#m6043745303" y="350.890489"/>
     <use style="fill:#56b4e9;stroke:#56b4e9;" x="268.727028" xlink:href="#m6043745303" y="350.58653"/>
     <use style="fill:#56b4e9;stroke:#56b4e9;" x="269.541581" xlink:href="#m6043745303" y="350.281844"/>
     <use style="fill:#56b4e9;stroke:#56b4e9;" x="270.356134" xlink:href="#m6043745303" y="349.976436"/>
     <use style="fill:#56b4e9;stroke:#56b4e9;" x="271.170687" xlink:href="#m6043745303" y="349.670312"/>
     <use style="fill:#56b4e9;stroke:#56b4e9;" x="271.98524" xlink:href="#m6043745303" y="349.363475"/>
     <use style="fill:#56b4e9;stroke:#56b4e9;" x="272.799793" xlink:href="#m6043745303" y="349.055928"/>
     <use style="fill:#56b4e9;stroke:#56b4e9;" x="273.614346" xlink:href="#m6043745303" y="348.747674"/>
     <use style="fill:#56b4e9;stroke:#56b4e9;" x="274.428899" xlink:href="#m6043745303" y="348.438718"/>
     <use style="fill:#56b4e9;stroke:#56b4e9;" x="275.243452" xlink:href="#m6043745303" y="348.129066"/>
     <use style="fill:#56b4e9;stroke:#56b4e9;" x="276.058005" xlink:href="#m6043745303" y="347.818721"/>
     <use style="fill:#56b4e9;stroke:#56b4e9;" x="276.872558" xlink:href="#m6043745303" y="347.507683"/>
     <use style="fill:#56b4e9;stroke:#56b4e9;" x="277.687111" xlink:href="#m6043745303" y="347.195952"/>
     <use style="fill:#56b4e9;stroke:#56b4e9;" x="278.501664" xlink:href="#m6043745303" y="346.883529"/>
     <use style="fill:#56b4e9;stroke:#56b4e9;" x="279.316217" xlink:href="#m6043745303" y="346.570419"/>
     <use style="fill:#56b4e9;stroke:#56b4e9;" x="280.13077" xlink:href="#m6043745303" y="346.256625"/>
     <use style="fill:#56b4e9;stroke:#56b4e9;" x="280.945323" xlink:href="#m6043745303" y="345.942143"/>
     <use style="fill:#56b4e9;stroke:#56b4e9;" x="281.759876" xlink:href="#m6043745303" y="345.62696"/>
     <use style="fill:#56b4e9;stroke:#56b4e9;" x="282.574429" xlink:href="#m6043745303" y="345.311065"/>
     <use style="fill:#56b4e9;stroke:#56b4e9;" x="283.388982" xlink:href="#m6043745303" y="344.994458"/>
     <use style="fill:#56b4e9;stroke:#56b4e9;" x="284.203535" xlink:href="#m6043745303" y="344.677153"/>
     <use style="fill:#56b4e9;stroke:#56b4e9;" x="285.018088" xlink:href="#m6043745303" y="344.35917"/>
     <use style="fill:#56b4e9;stroke:#56b4e9;" x="285.832641" xlink:href="#m6043745303" y="344.040532"/>
     <use style="fill:#56b4e9;stroke:#56b4e9;" x="286.647194" xlink:href="#m6043745303" y="343.721258"/>
     <use style="fill:#56b4e9;stroke:#56b4e9;" x="287.461747" xlink:href="#m6043745303" y="343.401359"/>
     <use style="fill:#56b4e9;stroke:#56b4e9;" x="288.2763" xlink:href="#m6043745303" y="343.080841"/>
     <use style="fill:#56b4e9;stroke:#56b4e9;" x="289.090853" xlink:href="#m6043745303" y="342.759705"/>
     <use style="fill:#56b4e9;stroke:#56b4e9;" x="289.905406" xlink:href="#m6043745303" y="342.437954"/>
     <use style="fill:#56b4e9;stroke:#56b4e9;" x="290.719959" xlink:href="#m6043745303" y="342.115585"/>
     <use style="fill:#56b4e9;stroke:#56b4e9;" x="291.534512" xlink:href="#m6043745303" y="341.792599"/>
     <use style="fill:#56b4e9;stroke:#56b4e9;" x="292.349065" xlink:href="#m6043745303" y="341.468995"/>
     <use style="fill:#56b4e9;stroke:#56b4e9;" x="293.163618" xlink:href="#m6043745303" y="341.144778"/>
     <use style="fill:#56b4e9;stroke:#56b4e9;" x="293.978171" xlink:href="#m6043745303" y="340.819952"/>
     <use style="fill:#56b4e9;stroke:#56b4e9;" x="294.792724" xlink:href="#m6043745303" y="340.494522"/>
     <use style="fill:#56b4e9;stroke:#56b4e9;" x="295.607276" xlink:href="#m6043745303" y="340.168485"/>
     <use style="fill:#56b4e9;stroke:#56b4e9;" x="296.421829" xlink:href="#m6043745303" y="339.84181"/>
     <use style="fill:#56b4e9;stroke:#56b4e9;" x="297.236382" xlink:href="#m6043745303" y="339.51446"/>
     <use style="fill:#56b4e9;stroke:#56b4e9;" x="298.050935" xlink:href="#m6043745303" y="339.186422"/>
     <use style="fill:#56b4e9;stroke:#56b4e9;" x="298.865488" xlink:href="#m6043745303" y="338.85769"/>
     <use style="fill:#56b4e9;stroke:#56b4e9;" x="299.680041" xlink:href="#m6043745303" y="338.528261"/>
     <use style="fill:#56b4e9;stroke:#56b4e9;" x="300.494594" xlink:href="#m6043745303" y="338.198135"/>
     <use style="fill:#56b4e9;stroke:#56b4e9;" x="301.309147" xlink:href="#m6043745303" y="337.867306"/>
     <use style="fill:#56b4e9;stroke:#56b4e9;" x="302.1237" xlink:href="#m6043745303" y="337.535775"/>
     <use style="fill:#56b4e9;stroke:#56b4e9;" x="302.938253" xlink:href="#m6043745303" y="337.203548"/>
     <use style="fill:#56b4e9;stroke:#56b4e9;" x="303.752806" xlink:href="#m6043745303" y="336.87063"/>
     <use style="fill:#56b4e9;stroke:#56b4e9;" x="304.567359" xlink:href="#m6043745303" y="336.537021"/>
     <use style="fill:#56b4e9;stroke:#56b4e9;" x="305.381912" xlink:href="#m6043745303" y="336.202712"/>
     <use style="fill:#56b4e9;stroke:#56b4e9;" x="306.196465" xlink:href="#m6043745303" y="335.867697"/>
     <use style="fill:#56b4e9;stroke:#56b4e9;" x="307.011018" xlink:href="#m6043745303" y="335.531973"/>
     <use style="fill:#56b4e9;stroke:#56b4e9;" x="307.825571" xlink:href="#m6043745303" y="335.195538"/>
     <use style="fill:#56b4e9;stroke:#56b4e9;" x="308.640124" xlink:href="#m6043745303" y="334.858395"/>
     <use style="fill:#56b4e9;stroke:#56b4e9;" x="309.454677" xlink:href="#m6043745303" y="334.520546"/>
     <use style="fill:#56b4e9;stroke:#56b4e9;" x="310.26923" xlink:href="#m6043745303" y="334.181996"/>
     <use style="fill:#56b4e9;stroke:#56b4e9;" x="311.083783" xlink:href="#m6043745303" y="333.84275"/>
     <use style="fill:#56b4e9;stroke:#56b4e9;" x="311.898336" xlink:href="#m6043745303" y="333.502807"/>
     <use style="fill:#56b4e9;stroke:#56b4e9;" x="312.712889" xlink:href="#m6043745303" y="333.16216"/>
     <use style="fill:#56b4e9;stroke:#56b4e9;" x="313.527442" xlink:href="#m6043745303" y="332.820814"/>
     <use style="fill:#56b4e9;stroke:#56b4e9;" x="314.341995" xlink:href="#m6043745303" y="332.478783"/>
     <use style="fill:#56b4e9;stroke:#56b4e9;" x="315.156548" xlink:href="#m6043745303" y="332.13608"/>
     <use style="fill:#56b4e9;stroke:#56b4e9;" x="315.971101" xlink:href="#m6043745303" y="331.792716"/>
     <use style="fill:#56b4e9;stroke:#56b4e9;" x="316.785654" xlink:href="#m6043745303" y="331.448698"/>
     <use style="fill:#56b4e9;stroke:#56b4e9;" x="317.600207" xlink:href="#m6043745303" y="331.104029"/>
     <use style="fill:#56b4e9;stroke:#56b4e9;" x="318.41476" xlink:href="#m6043745303" y="330.758706"/>
     <use style="fill:#56b4e9;stroke:#56b4e9;" x="319.229313" xlink:href="#m6043745303" y="330.412722"/>
     <use style="fill:#56b4e9;stroke:#56b4e9;" x="320.043866" xlink:href="#m6043745303" y="330.06607"/>
     <use style="fill:#56b4e9;stroke:#56b4e9;" x="320.858419" xlink:href="#m6043745303" y="329.718742"/>
     <use style="fill:#56b4e9;stroke:#56b4e9;" x="321.672972" xlink:href="#m6043745303" y="329.370731"/>
     <use style="fill:#56b4e9;stroke:#56b4e9;" x="322.487525" xlink:href="#m6043745303" y="329.022028"/>
     <use style="fill:#56b4e9;stroke:#56b4e9;" x="323.302078" xlink:href="#m6043745303" y="328.672619"/>
     <use style="fill:#56b4e9;stroke:#56b4e9;" x="324.116631" xlink:href="#m6043745303" y="328.322493"/>
     <use style="fill:#56b4e9;stroke:#56b4e9;" x="324.931184" xlink:href="#m6043745303" y="327.971641"/>
     <use style="fill:#56b4e9;stroke:#56b4e9;" x="325.745737" xlink:href="#m6043745303" y="327.620061"/>
     <use style="fill:#56b4e9;stroke:#56b4e9;" x="326.56029" xlink:href="#m6043745303" y="327.267756"/>
     <use style="fill:#56b4e9;stroke:#56b4e9;" x="327.374843" xlink:href="#m6043745303" y="326.914735"/>
     <use style="fill:#56b4e9;stroke:#56b4e9;" x="328.189396" xlink:href="#m6043745303" y="326.561012"/>
     <use style="fill:#56b4e9;stroke:#56b4e9;" x="329.003949" xlink:href="#m6043745303" y="326.206601"/>
     <use style="fill:#56b4e9;stroke:#56b4e9;" x="329.818502" xlink:href="#m6043745303" y="325.851514"/>
     <use style="fill:#56b4e9;stroke:#56b4e9;" x="330.633055" xlink:href="#m6043745303" y="325.495757"/>
     <use style="fill:#56b4e9;stroke:#56b4e9;" x="331.447608" xlink:href="#m6043745303" y="325.139331"/>
     <use style="fill:#56b4e9;stroke:#56b4e9;" x="332.262161" xlink:href="#m6043745303" y="324.782233"/>
     <use style="fill:#56b4e9;stroke:#56b4e9;" x="333.076714" xlink:href="#m6043745303" y="324.42446"/>
     <use style="fill:#56b4e9;stroke:#56b4e9;" x="333.891267" xlink:href="#m6043745303" y="324.065999"/>
     <use style="fill:#56b4e9;stroke:#56b4e9;" x="334.70582" xlink:href="#m6043745303" y="323.706828"/>
     <use style="fill:#56b4e9;stroke:#56b4e9;" x="335.520373" xlink:href="#m6043745303" y="323.346938"/>
     <use style="fill:#56b4e9;stroke:#56b4e9;" x="336.334926" xlink:href="#m6043745303" y="322.98632"/>
     <use style="fill:#56b4e9;stroke:#56b4e9;" x="337.149479" xlink:href="#m6043745303" y="322.624974"/>
     <use style="fill:#56b4e9;stroke:#56b4e9;" x="337.964032" xlink:href="#m6043745303" y="322.262905"/>
     <use style="fill:#56b4e9;stroke:#56b4e9;" x="338.778585" xlink:href="#m6043745303" y="321.900119"/>
     <use style="fill:#56b4e9;stroke:#56b4e9;" x="339.593138" xlink:href="#m6043745303" y="321.536626"/>
     <use style="fill:#56b4e9;stroke:#56b4e9;" x="340.407691" xlink:href="#m6043745303" y="321.172436"/>
     <use style="fill:#56b4e9;stroke:#56b4e9;" x="341.222244" xlink:href="#m6043745303" y="320.80756"/>
     <use style="fill:#56b4e9;stroke:#56b4e9;" x="342.036797" xlink:href="#m6043745303" y="320.442007"/>
     <use style="fill:#56b4e9;stroke:#56b4e9;" x="342.85135" xlink:href="#m6043745303" y="320.075785"/>
     <use style="fill:#56b4e9;stroke:#56b4e9;" x="343.665903" xlink:href="#m6043745303" y="319.708899"/>
     <use style="fill:#56b4e9;stroke:#56b4e9;" x="344.480456" xlink:href="#m6043745303" y="319.341359"/>
     <use style="fill:#56b4e9;stroke:#56b4e9;" x="345.295009" xlink:href="#m6043745303" y="318.973169"/>
     <use style="fill:#56b4e9;stroke:#56b4e9;" x="346.109562" xlink:href="#m6043745303" y="318.604331"/>
     <use style="fill:#56b4e9;stroke:#56b4e9;" x="346.924115" xlink:href="#m6043745303" y="318.234846"/>
     <use style="fill:#56b4e9;stroke:#56b4e9;" x="347.738668" xlink:href="#m6043745303" y="317.864714"/>
     <use style="fill:#56b4e9;stroke:#56b4e9;" x="348.553221" xlink:href="#m6043745303" y="317.493936"/>
     <use style="fill:#56b4e9;stroke:#56b4e9;" x="349.367774" xlink:href="#m6043745303" y="317.122513"/>
     <use style="fill:#56b4e9;stroke:#56b4e9;" x="350.182327" xlink:href="#m6043745303" y="316.750452"/>
     <use style="fill:#56b4e9;stroke:#56b4e9;" x="350.99688" xlink:href="#m6043745303" y="316.377759"/>
     <use style="fill:#56b4e9;stroke:#56b4e9;" x="351.811433" xlink:href="#m6043745303" y="316.004444"/>
     <use style="fill:#56b4e9;stroke:#56b4e9;" x="352.625986" xlink:href="#m6043745303" y="315.630522"/>
     <use style="fill:#56b4e9;stroke:#56b4e9;" x="353.440539" xlink:href="#m6043745303" y="315.256009"/>
     <use style="fill:#56b4e9;stroke:#56b4e9;" x="354.255092" xlink:href="#m6043745303" y="314.880915"/>
     <use style="fill:#56b4e9;stroke:#56b4e9;" x="355.069645" xlink:href="#m6043745303" y="314.505243"/>
     <use style="fill:#56b4e9;stroke:#56b4e9;" x="355.884198" xlink:href="#m6043745303" y="314.128991"/>
     <use style="fill:#56b4e9;stroke:#56b4e9;" x="356.698751" xlink:href="#m6043745303" y="313.752162"/>
     <use style="fill:#56b4e9;stroke:#56b4e9;" x="357.513304" xlink:href="#m6043745303" y="313.374757"/>
     <use style="fill:#56b4e9;stroke:#56b4e9;" x="358.327857" xlink:href="#m6043745303" y="312.996778"/>
     <use style="fill:#56b4e9;stroke:#56b4e9;" x="359.14241" xlink:href="#m6043745303" y="312.618219"/>
     <use style="fill:#56b4e9;stroke:#56b4e9;" x="359.956963" xlink:href="#m6043745303" y="312.239082"/>
     <use style="fill:#56b4e9;stroke:#56b4e9;" x="360.771516" xlink:href="#m6043745303" y="311.859377"/>
     <use style="fill:#56b4e9;stroke:#56b4e9;" x="361.586069" xlink:href="#m6043745303" y="311.479126"/>
     <use style="fill:#56b4e9;stroke:#56b4e9;" x="362.400622" xlink:href="#m6043745303" y="311.09836"/>
     <use style="fill:#56b4e9;stroke:#56b4e9;" x="363.215175" xlink:href="#m6043745303" y="310.717106"/>
     <use style="fill:#56b4e9;stroke:#56b4e9;" x="364.029728" xlink:href="#m6043745303" y="310.335387"/>
     <use style="fill:#56b4e9;stroke:#56b4e9;" x="364.844281" xlink:href="#m6043745303" y="309.953216"/>
     <use style="fill:#56b4e9;stroke:#56b4e9;" x="365.658834" xlink:href="#m6043745303" y="309.570605"/>
     <use style="fill:#56b4e9;stroke:#56b4e9;" x="366.473387" xlink:href="#m6043745303" y="309.18756"/>
     <use style="fill:#56b4e9;stroke:#56b4e9;" x="367.28794" xlink:href="#m6043745303" y="308.80409"/>
     <use style="fill:#56b4e9;stroke:#56b4e9;" x="368.102493" xlink:href="#m6043745303" y="308.420201"/>
     <use style="fill:#56b4e9;stroke:#56b4e9;" x="368.917045" xlink:href="#m6043745303" y="308.035901"/>
     <use style="fill:#56b4e9;stroke:#56b4e9;" x="369.731598" xlink:href="#m6043745303" y="307.651201"/>
     <use style="fill:#56b4e9;stroke:#56b4e9;" x="370.546151" xlink:href="#m6043745303" y="307.266113"/>
     <use style="fill:#56b4e9;stroke:#56b4e9;" x="371.360704" xlink:href="#m6043745303" y="306.880657"/>
     <use style="fill:#56b4e9;stroke:#56b4e9;" x="372.175257" xlink:href="#m6043745303" y="306.494857"/>
     <use style="fill:#56b4e9;stroke:#56b4e9;" x="372.98981" xlink:href="#m6043745303" y="306.108735"/>
     <use style="fill:#56b4e9;stroke:#56b4e9;" x="373.804363" xlink:href="#m6043745303" y="305.722304"/>
     <use style="fill:#56b4e9;stroke:#56b4e9;" x="374.618916" xlink:href="#m6043745303" y="305.335575"/>
     <use style="fill:#56b4e9;stroke:#56b4e9;" x="375.433469" xlink:href="#m6043745303" y="304.948549"/>
     <use style="fill:#56b4e9;stroke:#56b4e9;" x="376.248022" xlink:href="#m6043745303" y="304.561228"/>
     <use style="fill:#56b4e9;stroke:#56b4e9;" x="377.062575" xlink:href="#m6043745303" y="304.17361"/>
     <use style="fill:#56b4e9;stroke:#56b4e9;" x="377.877128" xlink:href="#m6043745303" y="303.785692"/>
     <use style="fill:#56b4e9;stroke:#56b4e9;" x="378.691681" xlink:href="#m6043745303" y="303.397473"/>
     <use style="fill:#56b4e9;stroke:#56b4e9;" x="379.506234" xlink:href="#m6043745303" y="303.008956"/>
     <use style="fill:#56b4e9;stroke:#56b4e9;" x="380.320787" xlink:href="#m6043745303" y="302.620144"/>
     <use style="fill:#56b4e9;stroke:#56b4e9;" x="381.13534" xlink:href="#m6043745303" y="302.231049"/>
     <use style="fill:#56b4e9;stroke:#56b4e9;" x="381.949893" xlink:href="#m6043745303" y="301.841685"/>
     <use style="fill:#56b4e9;stroke:#56b4e9;" x="382.764446" xlink:href="#m6043745303" y="301.452069"/>
     <use style="fill:#56b4e9;stroke:#56b4e9;" x="383.578999" xlink:href="#m6043745303" y="301.062215"/>
     <use style="fill:#56b4e9;stroke:#56b4e9;" x="384.393552" xlink:href="#m6043745303" y="300.672144"/>
     <use style="fill:#56b4e9;stroke:#56b4e9;" x="385.208105" xlink:href="#m6043745303" y="300.281877"/>
     <use style="fill:#56b4e9;stroke:#56b4e9;" x="386.022658" xlink:href="#m6043745303" y="299.891426"/>
     <use style="fill:#56b4e9;stroke:#56b4e9;" x="386.837211" xlink:href="#m6043745303" y="299.500795"/>
     <use style="fill:#56b4e9;stroke:#56b4e9;" x="387.651764" xlink:href="#m6043745303" y="299.109983"/>
     <use style="fill:#56b4e9;stroke:#56b4e9;" x="388.466317" xlink:href="#m6043745303" y="298.718992"/>
     <use style="fill:#56b4e9;stroke:#56b4e9;" x="389.28087" xlink:href="#m6043745303" y="298.327822"/>
     <use style="fill:#56b4e9;stroke:#56b4e9;" x="390.095423" xlink:href="#m6043745303" y="297.936474"/>
     <use style="fill:#56b4e9;stroke:#56b4e9;" x="390.909976" xlink:href="#m6043745303" y="297.544942"/>
     <use style="fill:#56b4e9;stroke:#56b4e9;" x="391.724529" xlink:href="#m6043745303" y="297.153222"/>
     <use style="fill:#56b4e9;stroke:#56b4e9;" x="392.539082" xlink:href="#m6043745303" y="296.761316"/>
     <use style="fill:#56b4e9;stroke:#56b4e9;" x="393.353635" xlink:href="#m6043745303" y="296.369215"/>
     <use style="fill:#56b4e9;stroke:#56b4e9;" x="394.168188" xlink:href="#m6043745303" y="295.9769"/>
     <use style="fill:#56b4e9;stroke:#56b4e9;" x="394.982741" xlink:href="#m6043745303" y="295.584343"/>
     <use style="fill:#56b4e9;stroke:#56b4e9;" x="395.797294" xlink:href="#m6043745303" y="295.191517"/>
     <use style="fill:#56b4e9;stroke:#56b4e9;" x="396.611847" xlink:href="#m6043745303" y="294.798407"/>
     <use style="fill:#56b4e9;stroke:#56b4e9;" x="397.4264" xlink:href="#m6043745303" y="294.405004"/>
     <use style="fill:#56b4e9;stroke:#56b4e9;" x="398.240953" xlink:href="#m6043745303" y="294.011305"/>
     <use style="fill:#56b4e9;stroke:#56b4e9;" x="399.055506" xlink:href="#m6043745303" y="293.61731"/>
     <use style="fill:#56b4e9;stroke:#56b4e9;" x="399.870059" xlink:href="#m6043745303" y="293.223017"/>
     <use style="fill:#56b4e9;stroke:#56b4e9;" x="400.684612" xlink:href="#m6043745303" y="292.828428"/>
     <use style="fill:#56b4e9;stroke:#56b4e9;" x="401.499165" xlink:href="#m6043745303" y="292.433547"/>
     <use style="fill:#56b4e9;stroke:#56b4e9;" x="402.313718" xlink:href="#m6043745303" y="292.038374"/>
     <use style="fill:#56b4e9;stroke:#56b4e9;" x="403.128271" xlink:href="#m6043745303" y="291.642908"/>
     <use style="fill:#56b4e9;stroke:#56b4e9;" x="403.942824" xlink:href="#m6043745303" y="291.247139"/>
     <use style="fill:#56b4e9;stroke:#56b4e9;" x="404.757377" xlink:href="#m6043745303" y="290.851063"/>
     <use style="fill:#56b4e9;stroke:#56b4e9;" x="405.57193" xlink:href="#m6043745303" y="290.454677"/>
     <use style="fill:#56b4e9;stroke:#56b4e9;" x="406.386483" xlink:href="#m6043745303" y="290.057983"/>
     <use style="fill:#56b4e9;stroke:#56b4e9;" x="407.201036" xlink:href="#m6043745303" y="289.660979"/>
     <use style="fill:#56b4e9;stroke:#56b4e9;" x="408.015589" xlink:href="#m6043745303" y="289.263664"/>
     <use style="fill:#56b4e9;stroke:#56b4e9;" x="408.830142" xlink:href="#m6043745303" y="288.866037"/>
     <use style="fill:#56b4e9;stroke:#56b4e9;" x="409.644695" xlink:href="#m6043745303" y="288.468102"/>
     <use style="fill:#56b4e9;stroke:#56b4e9;" x="410.459248" xlink:href="#m6043745303" y="288.069871"/>
     <use style="fill:#56b4e9;stroke:#56b4e9;" x="411.273801" xlink:href="#m6043745303" y="287.671364"/>
     <use style="fill:#56b4e9;stroke:#56b4e9;" x="412.088354" xlink:href="#m6043745303" y="287.272605"/>
     <use style="fill:#56b4e9;stroke:#56b4e9;" x="412.902907" xlink:href="#m6043745303" y="286.873614"/>
     <use style="fill:#56b4e9;stroke:#56b4e9;" x="413.71746" xlink:href="#m6043745303" y="286.474414"/>
     <use style="fill:#56b4e9;stroke:#56b4e9;" x="414.532013" xlink:href="#m6043745303" y="286.07503"/>
     <use style="fill:#56b4e9;stroke:#56b4e9;" x="415.346566" xlink:href="#m6043745303" y="285.675486"/>
     <use style="fill:#56b4e9;stroke:#56b4e9;" x="416.161119" xlink:href="#m6043745303" y="285.275796"/>
     <use style="fill:#56b4e9;stroke:#56b4e9;" x="416.975672" xlink:href="#m6043745303" y="284.875969"/>
     <use style="fill:#56b4e9;stroke:#56b4e9;" x="417.790225" xlink:href="#m6043745303" y="284.476014"/>
     <use style="fill:#56b4e9;stroke:#56b4e9;" x="418.604778" xlink:href="#m6043745303" y="284.075948"/>
     <use style="fill:#56b4e9;stroke:#56b4e9;" x="419.419331" xlink:href="#m6043745303" y="283.675784"/>
     <use style="fill:#56b4e9;stroke:#56b4e9;" x="420.233884" xlink:href="#m6043745303" y="283.275528"/>
     <use style="fill:#56b4e9;stroke:#56b4e9;" x="421.048437" xlink:href="#m6043745303" y="282.875179"/>
     <use style="fill:#56b4e9;stroke:#56b4e9;" x="421.86299" xlink:href="#m6043745303" y="282.474732"/>
     <use style="fill:#56b4e9;stroke:#56b4e9;" x="422.677543" xlink:href="#m6043745303" y="282.074181"/>
     <use style="fill:#56b4e9;stroke:#56b4e9;" x="423.492096" xlink:href="#m6043745303" y="281.673522"/>
     <use style="fill:#56b4e9;stroke:#56b4e9;" x="424.306649" xlink:href="#m6043745303" y="281.272748"/>
     <use style="fill:#56b4e9;stroke:#56b4e9;" x="425.121202" xlink:href="#m6043745303" y="280.871849"/>
     <use style="fill:#56b4e9;stroke:#56b4e9;" x="425.935755" xlink:href="#m6043745303" y="280.470814"/>
     <use style="fill:#56b4e9;stroke:#56b4e9;" x="426.750308" xlink:href="#m6043745303" y="280.069638"/>
     <use style="fill:#56b4e9;stroke:#56b4e9;" x="427.564861" xlink:href="#m6043745303" y="279.668313"/>
     <use style="fill:#56b4e9;stroke:#56b4e9;" x="428.379414" xlink:href="#m6043745303" y="279.26683"/>
     <use style="fill:#56b4e9;stroke:#56b4e9;" x="429.193967" xlink:href="#m6043745303" y="278.865171"/>
     <use style="fill:#56b4e9;stroke:#56b4e9;" x="430.00852" xlink:href="#m6043745303" y="278.46332"/>
     <use style="fill:#56b4e9;stroke:#56b4e9;" x="430.823073" xlink:href="#m6043745303" y="278.061264"/>
     <use style="fill:#56b4e9;stroke:#56b4e9;" x="431.637626" xlink:href="#m6043745303" y="277.659002"/>
     <use style="fill:#56b4e9;stroke:#56b4e9;" x="432.452179" xlink:href="#m6043745303" y="277.256551"/>
     <use style="fill:#56b4e9;stroke:#56b4e9;" x="433.266732" xlink:href="#m6043745303" y="276.853937"/>
     <use style="fill:#56b4e9;stroke:#56b4e9;" x="434.081285" xlink:href="#m6043745303" y="276.451191"/>
     <use style="fill:#56b4e9;stroke:#56b4e9;" x="434.895838" xlink:href="#m6043745303" y="276.048329"/>
     <use style="fill:#56b4e9;stroke:#56b4e9;" x="435.710391" xlink:href="#m6043745303" y="275.64535"/>
     <use style="fill:#56b4e9;stroke:#56b4e9;" x="436.524944" xlink:href="#m6043745303" y="275.242248"/>
     <use style="fill:#56b4e9;stroke:#56b4e9;" x="437.339497" xlink:href="#m6043745303" y="274.839022"/>
     <use style="fill:#56b4e9;stroke:#56b4e9;" x="438.15405" xlink:href="#m6043745303" y="274.435678"/>
     <use style="fill:#56b4e9;stroke:#56b4e9;" x="438.968603" xlink:href="#m6043745303" y="274.032222"/>
     <use style="fill:#56b4e9;stroke:#56b4e9;" x="439.783156" xlink:href="#m6043745303" y="273.628659"/>
     <use style="fill:#56b4e9;stroke:#56b4e9;" x="440.597709" xlink:href="#m6043745303" y="273.224995"/>
     <use style="fill:#56b4e9;stroke:#56b4e9;" x="441.412261" xlink:href="#m6043745303" y="272.821233"/>
     <use style="fill:#56b4e9;stroke:#56b4e9;" x="442.226814" xlink:href="#m6043745303" y="272.41737"/>
     <use style="fill:#56b4e9;stroke:#56b4e9;" x="443.041367" xlink:href="#m6043745303" y="272.013398"/>
     <use style="fill:#56b4e9;stroke:#56b4e9;" x="443.85592" xlink:href="#m6043745303" y="271.609301"/>
     <use style="fill:#56b4e9;stroke:#56b4e9;" x="444.670473" xlink:href="#m6043745303" y="271.205059"/>
     <use style="fill:#56b4e9;stroke:#56b4e9;" x="445.485026" xlink:href="#m6043745303" y="270.800659"/>
     <use style="fill:#56b4e9;stroke:#56b4e9;" x="446.299579" xlink:href="#m6043745303" y="270.396099"/>
     <use style="fill:#56b4e9;stroke:#56b4e9;" x="447.114132" xlink:href="#m6043745303" y="269.991381"/>
     <use style="fill:#56b4e9;stroke:#56b4e9;" x="447.928685" xlink:href="#m6043745303" y="269.586508"/>
     <use style="fill:#56b4e9;stroke:#56b4e9;" x="448.743238" xlink:href="#m6043745303" y="269.181466"/>
     <use style="fill:#56b4e9;stroke:#56b4e9;" x="449.557791" xlink:href="#m6043745303" y="268.776218"/>
     <use style="fill:#56b4e9;stroke:#56b4e9;" x="450.372344" xlink:href="#m6043745303" y="268.370727"/>
     <use style="fill:#56b4e9;stroke:#56b4e9;" x="451.186897" xlink:href="#m6043745303" y="267.964971"/>
     <use style="fill:#56b4e9;stroke:#56b4e9;" x="452.00145" xlink:href="#m6043745303" y="267.558934"/>
     <use style="fill:#56b4e9;stroke:#56b4e9;" x="452.816003" xlink:href="#m6043745303" y="267.152604"/>
     <use style="fill:#56b4e9;stroke:#56b4e9;" x="453.630556" xlink:href="#m6043745303" y="266.745966"/>
     <use style="fill:#56b4e9;stroke:#56b4e9;" x="454.445109" xlink:href="#m6043745303" y="266.339013"/>
     <use style="fill:#56b4e9;stroke:#56b4e9;" x="455.259662" xlink:href="#m6043745303" y="265.931745"/>
     <use style="fill:#56b4e9;stroke:#56b4e9;" x="456.074215" xlink:href="#m6043745303" y="265.524177"/>
     <use style="fill:#56b4e9;stroke:#56b4e9;" x="456.888768" xlink:href="#m6043745303" y="265.116339"/>
     <use style="fill:#56b4e9;stroke:#56b4e9;" x="457.703321" xlink:href="#m6043745303" y="264.708267"/>
     <use style="fill:#56b4e9;stroke:#56b4e9;" x="458.517874" xlink:href="#m6043745303" y="264.299994"/>
     <use style="fill:#56b4e9;stroke:#56b4e9;" x="459.332427" xlink:href="#m6043745303" y="263.891551"/>
     <use style="fill:#56b4e9;stroke:#56b4e9;" x="460.14698" xlink:href="#m6043745303" y="263.482972"/>
     <use style="fill:#56b4e9;stroke:#56b4e9;" x="460.961533" xlink:href="#m6043745303" y="263.07429"/>
     <use style="fill:#56b4e9;stroke:#56b4e9;" x="461.776086" xlink:href="#m6043745303" y="262.665535"/>
     <use style="fill:#56b4e9;stroke:#56b4e9;" x="462.590639" xlink:href="#m6043745303" y="262.256735"/>
     <use style="fill:#56b4e9;stroke:#56b4e9;" x="463.405192" xlink:href="#m6043745303" y="261.847906"/>
     <use style="fill:#56b4e9;stroke:#56b4e9;" x="464.219745" xlink:href="#m6043745303" y="261.439071"/>
     <use style="fill:#56b4e9;stroke:#56b4e9;" x="465.034298" xlink:href="#m6043745303" y="261.030265"/>
     <use style="fill:#56b4e9;stroke:#56b4e9;" x="465.848851" xlink:href="#m6043745303" y="260.621504"/>
     <use style="fill:#56b4e9;stroke:#56b4e9;" x="466.663404" xlink:href="#m6043745303" y="260.212793"/>
     <use style="fill:#56b4e9;stroke:#56b4e9;" x="467.477957" xlink:href="#m6043745303" y="259.804133"/>
     <use style="fill:#56b4e9;stroke:#56b4e9;" x="468.29251" xlink:href="#m6043745303" y="259.395527"/>
     <use style="fill:#56b4e9;stroke:#56b4e9;" x="469.107063" xlink:href="#m6043745303" y="258.986975"/>
     <use style="fill:#56b4e9;stroke:#56b4e9;" x="469.921616" xlink:href="#m6043745303" y="258.578479"/>
     <use style="fill:#56b4e9;stroke:#56b4e9;" x="470.736169" xlink:href="#m6043745303" y="258.17004"/>
     <use style="fill:#56b4e9;stroke:#56b4e9;" x="471.550722" xlink:href="#m6043745303" y="257.761656"/>
     <use style="fill:#56b4e9;stroke:#56b4e9;" x="472.365275" xlink:href="#m6043745303" y="257.353326"/>
     <use style="fill:#56b4e9;stroke:#56b4e9;" x="473.179828" xlink:href="#m6043745303" y="256.945056"/>
     <use style="fill:#56b4e9;stroke:#56b4e9;" x="473.994381" xlink:href="#m6043745303" y="256.536861"/>
     <use style="fill:#56b4e9;stroke:#56b4e9;" x="474.808934" xlink:href="#m6043745303" y="256.128762"/>
     <use style="fill:#56b4e9;stroke:#56b4e9;" x="475.623487" xlink:href="#m6043745303" y="255.72078"/>
     <use style="fill:#56b4e9;stroke:#56b4e9;" x="476.43804" xlink:href="#m6043745303" y="255.312925"/>
     <use style="fill:#56b4e9;stroke:#56b4e9;" x="477.252593" xlink:href="#m6043745303" y="254.905203"/>
     <use style="fill:#56b4e9;stroke:#56b4e9;" x="478.067146" xlink:href="#m6043745303" y="254.497612"/>
     <use style="fill:#56b4e9;stroke:#56b4e9;" x="478.881699" xlink:href="#m6043745303" y="254.090152"/>
     <use style="fill:#56b4e9;stroke:#56b4e9;" x="479.696252" xlink:href="#m6043745303" y="253.682816"/>
     <use style="fill:#56b4e9;stroke:#56b4e9;" x="480.510805" xlink:href="#m6043745303" y="253.275595"/>
     <use style="fill:#56b4e9;stroke:#56b4e9;" x="481.325358" xlink:href="#m6043745303" y="252.868469"/>
     <use style="fill:#56b4e9;stroke:#56b4e9;" x="482.139911" xlink:href="#m6043745303" y="252.461415"/>
     <use style="fill:#56b4e9;stroke:#56b4e9;" x="482.954464" xlink:href="#m6043745303" y="252.054408"/>
     <use style="fill:#56b4e9;stroke:#56b4e9;" x="483.769017" xlink:href="#m6043745303" y="251.647424"/>
     <use style="fill:#56b4e9;stroke:#56b4e9;" x="484.58357" xlink:href="#m6043745303" y="251.24044"/>
     <use style="fill:#56b4e9;stroke:#56b4e9;" x="485.398123" xlink:href="#m6043745303" y="250.833434"/>
     <use style="fill:#56b4e9;stroke:#56b4e9;" x="486.212676" xlink:href="#m6043745303" y="250.426387"/>
     <use style="fill:#56b4e9;stroke:#56b4e9;" x="487.027229" xlink:href="#m6043745303" y="250.019281"/>
     <use style="fill:#56b4e9;stroke:#56b4e9;" x="487.841782" xlink:href="#m6043745303" y="249.612101"/>
     <use style="fill:#56b4e9;stroke:#56b4e9;" x="488.656335" xlink:href="#m6043745303" y="249.204833"/>
     <use style="fill:#56b4e9;stroke:#56b4e9;" x="489.470888" xlink:href="#m6043745303" y="248.797462"/>
     <use style="fill:#56b4e9;stroke:#56b4e9;" x="490.285441" xlink:href="#m6043745303" y="248.389975"/>
     <use style="fill:#56b4e9;stroke:#56b4e9;" x="491.099994" xlink:href="#m6043745303" y="247.98236"/>
     <use style="fill:#56b4e9;stroke:#56b4e9;" x="491.914547" xlink:href="#m6043745303" y="247.574604"/>
     <use style="fill:#56b4e9;stroke:#56b4e9;" x="492.7291" xlink:href="#m6043745303" y="247.166694"/>
     <use style="fill:#56b4e9;stroke:#56b4e9;" x="493.543653" xlink:href="#m6043745303" y="246.758617"/>
     <use style="fill:#56b4e9;stroke:#56b4e9;" x="494.358206" xlink:href="#m6043745303" y="246.350369"/>
     <use style="fill:#56b4e9;stroke:#56b4e9;" x="495.172759" xlink:href="#m6043745303" y="245.941948"/>
     <use style="fill:#56b4e9;stroke:#56b4e9;" x="495.987312" xlink:href="#m6043745303" y="245.53335"/>
     <use style="fill:#56b4e9;stroke:#56b4e9;" x="496.801865" xlink:href="#m6043745303" y="245.124575"/>
     <use style="fill:#56b4e9;stroke:#56b4e9;" x="497.616418" xlink:href="#m6043745303" y="244.715617"/>
    </g>
   </g>
   <g id="line2d_13">
    <path clip-path="url(#pcf5a489623)" d="M 92.783582 393.324023 
L 100.114559 393.135301 
L 107.445536 392.739602 
L 114.776513 392.136926 
L 122.10749 391.327274 
L 129.438467 390.310645 
L 136.769444 389.087039 
L 144.100421 387.656456 
L 151.431397 386.018896 
L 158.762374 384.174359 
L 166.907904 381.882124 
L 175.053434 379.334361 
L 183.198964 376.531072 
L 191.344494 373.472256 
L 199.490024 370.157912 
L 207.635554 366.588042 
L 215.781084 362.762645 
L 223.926613 358.681721 
L 232.072143 354.34527 
L 240.217673 349.753292 
L 248.363203 344.905787 
L 256.508733 339.802755 
L 264.654263 334.444197 
L 272.799793 328.830111 
L 280.945323 322.960498 
L 289.090853 316.835359 
L 297.236382 310.454693 
L 306.196465 303.140826 
L 315.156548 295.517772 
L 324.116631 287.58553 
L 333.076714 279.344101 
L 342.036797 270.793484 
L 350.99688 261.933679 
L 359.956963 252.764687 
L 368.917045 243.286507 
L 377.877128 233.49914 
L 386.837211 223.402585 
L 396.611847 212.035534 
L 406.386483 200.300525 
L 416.161119 188.197557 
L 425.935755 175.72663 
L 435.710391 162.887744 
L 445.485026 149.6809 
L 455.259662 136.106096 
L 465.034298 122.163334 
L 474.808934 107.852614 
L 484.58357 93.173934 
L 495.172759 76.8568 
L 497.616418 73.029981 
L 497.616418 73.029981 
" style="fill:none;stroke:#0173b2;stroke-linecap:round;stroke-width:1.5;"/>
   </g>
   <g id="line2d_14">
    <path clip-path="url(#pcf5a489623)" d="M 92.783582 444.989597 
L 497.616418 244.911259 
L 497.616418 244.911259 
" style="fill:none;stroke:#cc78bc;stroke-linecap:round;stroke-width:1.5;"/>
   </g>
   <g id="patch_3">
    <path d="M 72 403.704 
L 72 54.432 
" style="fill:none;stroke:#ffffff;stroke-linecap:square;stroke-linejoin:miter;stroke-width:1.25;"/>
   </g>
   <g id="patch_4">
    <path d="M 518.4 403.704 
L 518.4 54.432 
" style="fill:none;stroke:#ffffff;stroke-linecap:square;stroke-linejoin:miter;stroke-width:1.25;"/>
   </g>
   <g id="patch_5">
    <path d="M 72 403.704 
L 518.4 403.704 
" style="fill:none;stroke:#ffffff;stroke-linecap:square;stroke-linejoin:miter;stroke-width:1.25;"/>
   </g>
   <g id="patch_6">
    <path d="M 72 54.432 
L 518.4 54.432 
" style="fill:none;stroke:#ffffff;stroke-linecap:square;stroke-linejoin:miter;stroke-width:1.25;"/>
   </g>
   <g id="text_15">
    <!-- Среднеквадратичное смещение в зависимости от времени -->
    <defs>
     <path d="M 64.40625 67.28125 
L 64.40625 56.890625 
Q 59.421875 61.53125 53.78125 63.8125 
Q 48.140625 66.109375 41.796875 66.109375 
Q 29.296875 66.109375 22.65625 58.46875 
Q 16.015625 50.828125 16.015625 36.375 
Q 16.015625 21.96875 22.65625 14.328125 
Q 29.296875 6.6875 41.796875 6.6875 
Q 48.140625 6.6875 53.78125 8.984375 
Q 59.421875 11.28125 64.40625 15.921875 
L 64.40625 5.609375 
Q 59.234375 2.09375 53.4375 0.328125 
Q 47.65625 -1.421875 41.21875 -1.421875 
Q 24.65625 -1.421875 15.125 8.703125 
Q 5.609375 18.84375 5.609375 36.375 
Q 5.609375 53.953125 15.125 64.078125 
Q 24.65625 74.21875 41.21875 74.21875 
Q 47.75 74.21875 53.53125 72.484375 
Q 59.328125 70.75 64.40625 67.28125 
z
" id="DejaVuSans-1057"/>
     <path d="M 21.625 7.171875 
L 47.703125 7.171875 
L 47.703125 47.515625 
L 28.8125 47.515625 
L 28.8125 40.671875 
Q 28.8125 20.5625 23.046875 9.8125 
z
M 8.59375 7.171875 
Q 13.03125 9.125 14.984375 13.28125 
Q 19.78125 23.578125 19.78125 44.34375 
L 19.78125 54.6875 
L 56.734375 54.6875 
L 56.734375 7.171875 
L 63.921875 7.171875 
L 63.921875 -13.8125 
L 56.734375 -13.8125 
L 56.734375 0 
L 12.40625 0 
L 12.40625 -13.8125 
L 5.21875 -13.8125 
L 5.21875 7.171875 
z
" id="DejaVuSans-1076"/>
     <path d="M 9.078125 54.6875 
L 18.109375 54.6875 
L 18.109375 32.375 
L 47.265625 32.375 
L 47.265625 54.6875 
L 56.296875 54.6875 
L 56.296875 0 
L 47.265625 0 
L 47.265625 25.203125 
L 18.109375 25.203125 
L 18.109375 0 
L 9.078125 0 
z
" id="DejaVuSans-1085"/>
     <path d="M 9.078125 54.6875 
L 18.015625 54.6875 
L 18.015625 29 
L 43.359375 54.6875 
L 54.390625 54.6875 
L 33.5 33.546875 
L 57.078125 0 
L 47.015625 0 
L 27.640625 27.59375 
L 18.015625 17.828125 
L 18.015625 0 
L 9.078125 0 
z
" id="DejaVuSans-1082"/>
     <path d="M 18.0625 25.203125 
L 18.0625 7.171875 
L 30.859375 7.171875 
Q 37.015625 7.171875 40.234375 9.484375 
Q 43.453125 11.8125 43.453125 16.21875 
Q 43.453125 20.609375 40.234375 22.90625 
Q 37.015625 25.203125 30.859375 25.203125 
z
M 18.0625 47.515625 
L 18.0625 32.375 
L 29.890625 32.375 
Q 34.96875 32.375 38.1875 34.390625 
Q 41.40625 36.421875 41.40625 40.046875 
Q 41.40625 43.65625 38.1875 45.578125 
Q 34.96875 47.515625 29.890625 47.515625 
z
M 9.078125 54.6875 
L 30.46875 54.6875 
Q 40.09375 54.6875 45.265625 51.171875 
Q 50.4375 47.65625 50.4375 41.15625 
Q 50.4375 36.140625 47.796875 33.171875 
Q 45.171875 30.21875 39.984375 29.5 
Q 46.1875 28.328125 49.609375 24.609375 
Q 53.03125 20.90625 53.03125 15.328125 
Q 53.03125 8.015625 47.390625 4 
Q 41.75 0 31.296875 0 
L 9.078125 0 
z
" id="DejaVuSans-1074"/>
     <path d="M 34.28125 27.484375 
Q 23.390625 27.484375 19.1875 25 
Q 14.984375 22.515625 14.984375 16.5 
Q 14.984375 11.71875 18.140625 8.90625 
Q 21.296875 6.109375 26.703125 6.109375 
Q 34.1875 6.109375 38.703125 11.40625 
Q 43.21875 16.703125 43.21875 25.484375 
L 43.21875 27.484375 
z
M 52.203125 31.203125 
L 52.203125 0 
L 43.21875 0 
L 43.21875 8.296875 
Q 40.140625 3.328125 35.546875 0.953125 
Q 30.953125 -1.421875 24.3125 -1.421875 
Q 15.921875 -1.421875 10.953125 3.296875 
Q 6 8.015625 6 15.921875 
Q 6 25.140625 12.171875 29.828125 
Q 18.359375 34.515625 30.609375 34.515625 
L 43.21875 34.515625 
L 43.21875 35.40625 
Q 43.21875 41.609375 39.140625 45 
Q 35.0625 48.390625 27.6875 48.390625 
Q 23 48.390625 18.546875 47.265625 
Q 14.109375 46.140625 10.015625 43.890625 
L 10.015625 52.203125 
Q 14.9375 54.109375 19.578125 55.046875 
Q 24.21875 56 28.609375 56 
Q 40.484375 56 46.34375 49.84375 
Q 52.203125 43.703125 52.203125 31.203125 
z
" id="DejaVuSans-1072"/>
     <path d="M 2.9375 54.6875 
L 55.328125 54.6875 
L 55.328125 47.515625 
L 33.546875 47.515625 
L 33.546875 0 
L 24.703125 0 
L 24.703125 47.515625 
L 2.9375 47.515625 
z
" id="DejaVuSans-1090"/>
     <path d="M 55.90625 54.6875 
L 55.90625 0 
L 46.96875 0 
L 46.96875 43.890625 
L 20.609375 0 
L 9.078125 0 
L 9.078125 54.6875 
L 18.015625 54.6875 
L 18.015625 10.890625 
L 44.34375 54.6875 
z
" id="DejaVuSans-1080"/>
     <path d="M 41.015625 0 
L 41.015625 23 
L 24.265625 23 
Q 16.796875 23 11.8125 27.640625 
Q 7.328125 31.84375 7.328125 40.828125 
L 7.328125 54.6875 
L 16.3125 54.6875 
L 16.3125 41.65625 
Q 16.3125 35.9375 18.84375 33.0625 
Q 21.4375 30.171875 26.515625 30.171875 
L 41.015625 30.171875 
L 41.015625 54.6875 
L 50 54.6875 
L 50 0 
z
" id="DejaVuSans-1095"/>
     <path d="M 30.609375 48.390625 
Q 23.390625 48.390625 19.1875 42.75 
Q 14.984375 37.109375 14.984375 27.296875 
Q 14.984375 17.484375 19.15625 11.84375 
Q 23.34375 6.203125 30.609375 6.203125 
Q 37.796875 6.203125 41.984375 11.859375 
Q 46.1875 17.53125 46.1875 27.296875 
Q 46.1875 37.015625 41.984375 42.703125 
Q 37.796875 48.390625 30.609375 48.390625 
z
M 30.609375 56 
Q 42.328125 56 49.015625 48.375 
Q 55.71875 40.765625 55.71875 27.296875 
Q 55.71875 13.875 49.015625 6.21875 
Q 42.328125 -1.421875 30.609375 -1.421875 
Q 18.84375 -1.421875 12.171875 6.21875 
Q 5.515625 13.875 5.515625 27.296875 
Q 5.515625 40.765625 12.171875 48.375 
Q 18.84375 56 30.609375 56 
z
" id="DejaVuSans-1086"/>
     <path d="M 48.78125 52.59375 
L 48.78125 44.1875 
Q 44.96875 46.296875 41.140625 47.34375 
Q 37.3125 48.390625 33.40625 48.390625 
Q 24.65625 48.390625 19.8125 42.84375 
Q 14.984375 37.3125 14.984375 27.296875 
Q 14.984375 17.28125 19.8125 11.734375 
Q 24.65625 6.203125 33.40625 6.203125 
Q 37.3125 6.203125 41.140625 7.25 
Q 44.96875 8.296875 48.78125 10.40625 
L 48.78125 2.09375 
Q 45.015625 0.34375 40.984375 -0.53125 
Q 36.96875 -1.421875 32.421875 -1.421875 
Q 20.0625 -1.421875 12.78125 6.34375 
Q 5.515625 14.109375 5.515625 27.296875 
Q 5.515625 40.671875 12.859375 48.328125 
Q 20.21875 56 33.015625 56 
Q 37.15625 56 41.109375 55.140625 
Q 45.0625 54.296875 48.78125 52.59375 
z
" id="DejaVuSans-1089"/>
     <path d="M 82.421875 0 
L 9.078125 0 
L 9.078125 54.6875 
L 18.109375 54.6875 
L 18.109375 7.171875 
L 41.21875 7.171875 
L 41.21875 54.6875 
L 50.25 54.6875 
L 50.25 7.171875 
L 73.390625 7.171875 
L 73.390625 54.6875 
L 82.421875 54.6875 
L 82.421875 7.171875 
L 89.59375 7.171875 
L 89.59375 -13.8125 
L 82.421875 -13.8125 
z
" id="DejaVuSans-1097"/>
     <path d="M 34.46875 29.5 
Q 40.53125 28.328125 43.890625 24.75 
Q 47.265625 21.1875 47.265625 15.921875 
Q 47.265625 7.46875 40.96875 3.015625 
Q 34.671875 -1.421875 23.046875 -1.421875 
Q 19.140625 -1.421875 15.015625 -0.734375 
Q 10.890625 -0.046875 6.5 1.3125 
L 6.5 9.671875 
Q 9.96875 7.859375 14.109375 6.953125 
Q 18.265625 6.0625 22.796875 6.0625 
Q 30.171875 6.0625 34.296875 8.796875 
Q 38.421875 11.53125 38.421875 15.921875 
Q 38.421875 20.21875 34.765625 22.828125 
Q 31.109375 25.4375 24.421875 25.4375 
L 17.1875 25.4375 
L 17.1875 32.859375 
L 24.75 32.859375 
Q 30.421875 32.859375 33.71875 35.03125 
Q 37.015625 37.203125 37.015625 40.625 
Q 37.015625 43.75 33.609375 46 
Q 30.21875 48.25 24.421875 48.25 
Q 20.953125 48.25 17.015625 47.609375 
Q 13.09375 46.96875 8.34375 45.5625 
L 8.34375 53.71875 
Q 13.140625 54.890625 17.28125 55.46875 
Q 21.4375 56.0625 25.140625 56.0625 
Q 34.71875 56.0625 40.25 52.21875 
Q 45.796875 48.390625 45.796875 41.5 
Q 45.796875 36.96875 42.859375 33.8125 
Q 39.9375 30.671875 34.46875 29.5 
z
" id="DejaVuSans-1079"/>
    </defs>
    <g style="fill:#262626;" transform="translate(106.971563 48.432)scale(0.12 -0.12)">
     <use xlink:href="#DejaVuSans-1057"/>
     <use x="69.824219" xlink:href="#DejaVuSans-1088"/>
     <use x="133.300781" xlink:href="#DejaVuSans-1077"/>
     <use x="194.824219" xlink:href="#DejaVuSans-1076"/>
     <use x="263.964844" xlink:href="#DejaVuSans-1085"/>
     <use x="329.345703" xlink:href="#DejaVuSans-1077"/>
     <use x="390.869141" xlink:href="#DejaVuSans-1082"/>
     <use x="451.269531" xlink:href="#DejaVuSans-1074"/>
     <use x="510.205078" xlink:href="#DejaVuSans-1072"/>
     <use x="571.484375" xlink:href="#DejaVuSans-1076"/>
     <use x="640.625" xlink:href="#DejaVuSans-1088"/>
     <use x="704.101562" xlink:href="#DejaVuSans-1072"/>
     <use x="765.380859" xlink:href="#DejaVuSans-1090"/>
     <use x="823.632812" xlink:href="#DejaVuSans-1080"/>
     <use x="888.623047" xlink:href="#DejaVuSans-1095"/>
     <use x="947.705078" xlink:href="#DejaVuSans-1085"/>
     <use x="1013.085938" xlink:href="#DejaVuSans-1086"/>
     <use x="1074.267578" xlink:href="#DejaVuSans-1077"/>
     <use x="1135.791016" xlink:href="#DejaVuSans-32"/>
     <use x="1167.578125" xlink:href="#DejaVuSans-1089"/>
     <use x="1222.558594" xlink:href="#DejaVuSans-1084"/>
     <use x="1297.998047" xlink:href="#DejaVuSans-1077"/>
     <use x="1359.521484" xlink:href="#DejaVuSans-1097"/>
     <use x="1453.710938" xlink:href="#DejaVuSans-1077"/>
     <use x="1515.234375" xlink:href="#DejaVuSans-1085"/>
     <use x="1580.615234" xlink:href="#DejaVuSans-1080"/>
     <use x="1645.605469" xlink:href="#DejaVuSans-1077"/>
     <use x="1707.128906" xlink:href="#DejaVuSans-32"/>
     <use x="1738.916016" xlink:href="#DejaVuSans-1074"/>
     <use x="1797.851562" xlink:href="#DejaVuSans-32"/>
     <use x="1829.638672" xlink:href="#DejaVuSans-1079"/>
     <use x="1882.8125" xlink:href="#DejaVuSans-1072"/>
     <use x="1944.091797" xlink:href="#DejaVuSans-1074"/>
     <use x="2003.027344" xlink:href="#DejaVuSans-1080"/>
     <use x="2068.017578" xlink:href="#DejaVuSans-1089"/>
     <use x="2122.998047" xlink:href="#DejaVuSans-1080"/>
     <use x="2187.988281" xlink:href="#DejaVuSans-1084"/>
     <use x="2263.427734" xlink:href="#DejaVuSans-1086"/>
     <use x="2324.609375" xlink:href="#DejaVuSans-1089"/>
     <use x="2379.589844" xlink:href="#DejaVuSans-1090"/>
     <use x="2437.841797" xlink:href="#DejaVuSans-1080"/>
     <use x="2502.832031" xlink:href="#DejaVuSans-32"/>
     <use x="2534.619141" xlink:href="#DejaVuSans-1086"/>
     <use x="2595.800781" xlink:href="#DejaVuSans-1090"/>
     <use x="2654.052734" xlink:href="#DejaVuSans-32"/>
     <use x="2685.839844" xlink:href="#DejaVuSans-1074"/>
     <use x="2744.775391" xlink:href="#DejaVuSans-1088"/>
     <use x="2808.251953" xlink:href="#DejaVuSans-1077"/>
     <use x="2869.775391" xlink:href="#DejaVuSans-1084"/>
     <use x="2945.214844" xlink:href="#DejaVuSans-1077"/>
     <use x="3006.738281" xlink:href="#DejaVuSans-1085"/>
     <use x="3072.119141" xlink:href="#DejaVuSans-1080"/>
    </g>
   </g>
   <g id="legend_1">
    <g id="patch_7">
     <path d="M 79.7 95.711219 
L 268.667969 95.711219 
Q 270.867969 95.711219 270.867969 93.511219 
L 270.867969 62.132 
Q 270.867969 59.932 268.667969 59.932 
L 79.7 59.932 
Q 77.5 59.932 77.5 62.132 
L 77.5 93.511219 
Q 77.5 95.711219 79.7 95.711219 
z
" style="fill:#eaeaf2;opacity:0.8;stroke:#cccccc;stroke-linejoin:miter;"/>
    </g>
    <g id="line2d_15">
     <path d="M 81.9 69.027625 
L 103.9 69.027625 
" style="fill:none;stroke:#0173b2;stroke-linecap:round;stroke-width:1.5;"/>
    </g>
    <g id="line2d_16"/>
    <g id="text_16">
     <!-- Параболическая асимтота -->
     <defs>
      <path d="M 65.375 72.90625 
L 65.375 0 
L 55.515625 0 
L 55.515625 64.59375 
L 19.671875 64.59375 
L 19.671875 0 
L 9.8125 0 
L 9.8125 72.90625 
z
" id="DejaVuSans-1055"/>
      <path d="M 31.109375 56 
Q 42.828125 56 49.515625 48.375 
Q 56.203125 40.765625 56.203125 27.296875 
Q 56.203125 13.875 49.515625 6.21875 
Q 42.828125 -1.421875 31.109375 -1.421875 
Q 19.34375 -1.421875 12.84375 6 
Q 6.34375 13.421875 6 27.296875 
L 5.71875 38.484375 
Q 5.46875 44.28125 5.46875 46.296875 
Q 5.46875 54.109375 8.296875 59.859375 
Q 12.75 68.890625 20.4375 72.796875 
Q 28.125 76.703125 41.015625 76.8125 
Q 46.96875 76.859375 49.609375 77.6875 
L 52.09375 70.5625 
Q 49.703125 69.578125 47.515625 69.53125 
L 35.296875 68.703125 
Q 29.15625 68.265625 25.4375 66.109375 
Q 15.71875 60.40625 14.796875 52.9375 
L 14.453125 50.203125 
Q 20.796875 56 31.109375 56 
z
M 31.109375 48.390625 
Q 23.875 48.390625 19.671875 42.75 
Q 15.484375 37.109375 15.484375 27.296875 
Q 15.484375 17.484375 19.65625 11.84375 
Q 23.828125 6.203125 31.109375 6.203125 
Q 38.28125 6.203125 42.484375 11.859375 
Q 46.6875 17.53125 46.6875 27.296875 
Q 46.6875 37.015625 42.484375 42.703125 
Q 38.28125 48.390625 31.109375 48.390625 
z
" id="DejaVuSans-1073"/>
      <path d="M 3.71875 0 
L 3.71875 7.46875 
Q 12.59375 8.84375 15.328125 14.984375 
Q 18.65625 23.640625 18.65625 45.75 
L 18.65625 54.6875 
L 55.609375 54.6875 
L 55.609375 0 
L 46.625 0 
L 46.625 47.515625 
L 27.640625 47.515625 
L 27.640625 42.09375 
Q 27.640625 21 23.34375 11.53125 
Q 18.75 1.421875 3.71875 0 
z
" id="DejaVuSans-1083"/>
     </defs>
     <g style="fill:#262626;" transform="translate(112.7 72.877625)scale(0.11 -0.11)">
      <use xlink:href="#DejaVuSans-1055"/>
      <use x="75.195312" xlink:href="#DejaVuSans-1072"/>
      <use x="136.474609" xlink:href="#DejaVuSans-1088"/>
      <use x="199.951172" xlink:href="#DejaVuSans-1072"/>
      <use x="261.230469" xlink:href="#DejaVuSans-1073"/>
      <use x="322.900391" xlink:href="#DejaVuSans-1086"/>
      <use x="384.082031" xlink:href="#DejaVuSans-1083"/>
      <use x="447.998047" xlink:href="#DejaVuSans-1080"/>
      <use x="512.988281" xlink:href="#DejaVuSans-1095"/>
      <use x="572.070312" xlink:href="#DejaVuSans-1077"/>
      <use x="633.59375" xlink:href="#DejaVuSans-1089"/>
      <use x="688.574219" xlink:href="#DejaVuSans-1082"/>
      <use x="748.974609" xlink:href="#DejaVuSans-1072"/>
      <use x="810.253906" xlink:href="#DejaVuSans-1103"/>
      <use x="870.410156" xlink:href="#DejaVuSans-32"/>
      <use x="902.197266" xlink:href="#DejaVuSans-1072"/>
      <use x="963.476562" xlink:href="#DejaVuSans-1089"/>
      <use x="1018.457031" xlink:href="#DejaVuSans-1080"/>
      <use x="1083.447266" xlink:href="#DejaVuSans-1084"/>
      <use x="1158.886719" xlink:href="#DejaVuSans-1090"/>
      <use x="1217.138672" xlink:href="#DejaVuSans-1086"/>
      <use x="1278.320312" xlink:href="#DejaVuSans-1090"/>
      <use x="1336.572266" xlink:href="#DejaVuSans-1072"/>
     </g>
    </g>
    <g id="line2d_17">
     <path d="M 81.9 85.173563 
L 103.9 85.173563 
" style="fill:none;stroke:#cc78bc;stroke-linecap:round;stroke-width:1.5;"/>
    </g>
    <g id="line2d_18"/>
    <g id="text_17">
     <!-- Линейная асимтота -->
     <defs>
      <path d="M 4.109375 0 
L 4.109375 8.296875 
Q 14.703125 10.59375 17.71875 18.609375 
Q 21.96875 31.203125 21.96875 60.5 
L 21.96875 72.90625 
L 65.328125 72.90625 
L 65.328125 0 
L 55.46875 0 
L 55.46875 64.59375 
L 31.78125 64.59375 
L 31.78125 55.609375 
Q 31.78125 27.984375 26.8125 15.09375 
Q 22.015625 2.734375 4.109375 0 
z
" id="DejaVuSans-1051"/>
      <path d="M 55.90625 54.6875 
L 55.90625 0 
L 46.96875 0 
L 46.96875 43.890625 
L 20.609375 0 
L 9.078125 0 
L 9.078125 54.6875 
L 18.015625 54.6875 
L 18.015625 10.890625 
L 44.34375 54.6875 
z
M 17.21875 75.515625 
L 22.984375 75.515625 
Q 23.515625 71.859375 25.875 70.015625 
Q 28.25 68.1875 32.5 68.1875 
Q 36.703125 68.1875 39.046875 70 
Q 41.390625 71.8125 42.015625 75.515625 
L 47.78125 75.515625 
Q 47.296875 68.53125 43.4375 65.015625 
Q 39.578125 61.5 32.5 61.5 
Q 25.421875 61.5 21.5625 65.015625 
Q 17.703125 68.53125 17.21875 75.515625 
z
" id="DejaVuSans-1081"/>
     </defs>
     <g style="fill:#262626;" transform="translate(112.7 89.023563)scale(0.11 -0.11)">
      <use xlink:href="#DejaVuSans-1051"/>
      <use x="75.195312" xlink:href="#DejaVuSans-1080"/>
      <use x="140.185547" xlink:href="#DejaVuSans-1085"/>
      <use x="205.566406" xlink:href="#DejaVuSans-1077"/>
      <use x="267.089844" xlink:href="#DejaVuSans-1081"/>
      <use x="332.080078" xlink:href="#DejaVuSans-1085"/>
      <use x="397.460938" xlink:href="#DejaVuSans-1072"/>
      <use x="458.740234" xlink:href="#DejaVuSans-1103"/>
      <use x="518.896484" xlink:href="#DejaVuSans-32"/>
      <use x="550.683594" xlink:href="#DejaVuSans-1072"/>
      <use x="611.962891" xlink:href="#DejaVuSans-1089"/>
      <use x="666.943359" xlink:href="#DejaVuSans-1080"/>
      <use x="731.933594" xlink:href="#DejaVuSans-1084"/>
      <use x="807.373047" xlink:href="#DejaVuSans-1090"/>
      <use x="865.625" xlink:href="#DejaVuSans-1086"/>
      <use x="926.806641" xlink:href="#DejaVuSans-1090"/>
      <use x="985.058594" xlink:href="#DejaVuSans-1072"/>
     </g>
    </g>
   </g>
  </g>
 </g>
 <defs>
  <clipPath id="pcf5a489623">
   <rect height="349.272" width="446.4" x="72" y="54.432"/>
  </clipPath>
 </defs>
</svg>
